<svg id="Capa_1" data-name="Capa 1" xmlns="http://www.w3.org/2000/svg" viewBox="0 0 151.83 106.15"><defs><style>.cls-1{fill:#1a1a1a;opacity:0.35;}.cls-2{fill:#fff;}.cls-3{fill:aqua;}</style></defs><rect class="cls-1" width="151.83" height="106.15"/><path class="cls-2" d="M27.27,65.85a1.83,1.83,0,0,1-1.83,1.91,1.92,1.92,0,0,1-1.94-1.91V54.26l-.73.46A1.73,1.73,0,0,1,20.63,54a1.89,1.89,0,0,1,.67-2.64l3-1.82a2.07,2.07,0,0,1,2.23.08A1.82,1.82,0,0,1,27.27,51Z"/><path class="cls-2" d="M39.87,67.79H31.15a1.89,1.89,0,0,1-1.36-3.24l6.46-6.93c.61-.69,1.62-1.88,1.62-2.75a2.1,2.1,0,0,0-2.26-2.15,2.21,2.21,0,0,0-2.35,1.77c-.43,1.16-1.1,1.71-2.2,1.54a1.75,1.75,0,0,1-1.42-2.18c.26-2.17,2.55-4.72,6.23-4.72,3.25,0,5.8,1.94,5.8,5.39,0,2-.79,3.59-2.81,5.71L35.15,64h4.72a1.86,1.86,0,0,1,1.91,1.85A1.89,1.89,0,0,1,39.87,67.79Z"/><path class="cls-2" d="M43,69.24l1.19-3.33a1.91,1.91,0,0,1,2.46-1.22,1.88,1.88,0,0,1,1.08,2.49l-1.19,3.34a1.87,1.87,0,0,1-2.44,1.21A1.93,1.93,0,0,1,43,69.24Z"/><path class="cls-2" d="M61.32,61.74a6.21,6.21,0,0,1-12.41,0,6,6,0,0,1,2.32-4.61A4.18,4.18,0,0,1,50,54.2a5,5,0,0,1,10.06,0A4,4,0,0,1,58.91,57,5.94,5.94,0,0,1,61.32,61.74Zm-3.8,0a2.42,2.42,0,1,0-4.84,0,2.42,2.42,0,0,0,4.84,0Zm-4.26-7.8a1.8,1.8,0,1,0,1.8-1.79A1.81,1.81,0,0,0,53.26,53.94Z"/><path class="cls-2" d="M68.71,65.85a1.83,1.83,0,0,1-1.83,1.91,1.92,1.92,0,0,1-1.94-1.91V54.26l-.73.46A1.73,1.73,0,0,1,62.07,54a1.89,1.89,0,0,1,.67-2.64l3-1.82a2.07,2.07,0,0,1,2.23.08A1.82,1.82,0,0,1,68.71,51Z"/><path class="cls-2" d="M77.05,65.85a1.82,1.82,0,0,1-1.82,1.91,1.92,1.92,0,0,1-2-1.91V54.26l-.72.46A1.73,1.73,0,0,1,70.42,54a1.89,1.89,0,0,1,.66-2.64l3-1.82a2.07,2.07,0,0,1,2.23.08A1.85,1.85,0,0,1,77.05,51Z"/><path class="cls-3" d="M89.26,67.52V53.59a.23.23,0,0,1,.24-.25h4.15a5,5,0,0,1,5,5,5,5,0,0,1-5.05,5H89.75v4.15a.26.26,0,0,1-.25.24A.24.24,0,0,1,89.26,67.52Zm4.37-4.62a4.47,4.47,0,0,0,4.57-4.51,4.54,4.54,0,0,0-4.53-4.6H89.75V62.9Z"/><path class="cls-3" d="M99.89,66.16a.25.25,0,0,1-.06-.2.18.18,0,0,1,.18-.2.39.39,0,0,1,.27.13,3.57,3.57,0,0,0,3.36,1.56c1.66,0,3.17-1,3.17-2.46s-1.51-2-3.74-2.61c-1.62-.41-3-1.13-3-2.71,0-1.8,1.85-2.52,3.43-2.52a3.54,3.54,0,0,1,3.2,1.55.44.44,0,0,1,.07.21.22.22,0,0,1-.21.22.29.29,0,0,1-.22-.11,3.1,3.1,0,0,0-2.87-1.4c-1.21,0-2.92.45-2.92,2.05,0,1.44,1.39,1.94,2.68,2.3,2.25.63,4.1,1.26,4.1,3s-1.74,2.93-3.72,2.93A4,4,0,0,1,99.89,66.16Z"/><path class="cls-3" d="M108.59,66.16a.25.25,0,0,1-.06-.2.18.18,0,0,1,.18-.2.39.39,0,0,1,.27.13,3.57,3.57,0,0,0,3.36,1.56c1.66,0,3.17-1,3.17-2.46s-1.51-2-3.74-2.61c-1.62-.41-3-1.13-3-2.71,0-1.8,1.85-2.52,3.43-2.52a3.54,3.54,0,0,1,3.2,1.55.44.44,0,0,1,.07.21.22.22,0,0,1-.21.22A.28.28,0,0,1,115,59a3.09,3.09,0,0,0-2.86-1.4c-1.22,0-2.93.45-2.93,2.05,0,1.44,1.39,1.94,2.68,2.3,2.25.63,4.1,1.26,4.1,3s-1.74,2.93-3.72,2.93A4,4,0,0,1,108.59,66.16Z"/><path class="cls-3" d="M45.62,31.36a5.22,5.22,0,0,1,8.92-3.72.21.21,0,0,1,.05.26.21.21,0,0,1-.26,0,4.89,4.89,0,1,0,0,7,.16.16,0,0,1,.25,0,.16.16,0,0,1,0,.24,5.12,5.12,0,0,1-3.7,1.52A5.24,5.24,0,0,1,45.62,31.36Z"/><path class="cls-3" d="M63.3,32.76V36.3c0,.13-.06.2-.18.2a.19.19,0,0,1-.17-.2v-2a3.81,3.81,0,1,1,.35-1.55ZM63,33.1v-.18a.66.66,0,0,1,0-.13v0a3.42,3.42,0,1,0,0,.34Z"/><path class="cls-3" d="M72.14,26.29v6.45a3.85,3.85,0,1,1-7.7,0,3.81,3.81,0,0,1,3.83-3.83,3.86,3.86,0,0,1,3.51,2.22V26.29a.17.17,0,0,1,.18-.18A.18.18,0,0,1,72.14,26.29Zm-.34,6.45v-.06a.34.34,0,0,1,0-.13v-.14a3.51,3.51,0,1,0-3.49,3.84A3.52,3.52,0,0,0,71.8,32.74Z"/><path class="cls-3" d="M80.35,32.57c0,.11,0,.21-.16.21H73.62A3.37,3.37,0,0,0,77,36.25a2.88,2.88,0,0,0,2.38-1c.1-.1.19-.13.27,0s.07.16,0,.26A3.16,3.16,0,0,1,77,36.61a3.85,3.85,0,0,1,0-7.7A3.5,3.5,0,0,1,80.35,32.57ZM80,32.45a3.17,3.17,0,0,0-3-3.2,3.32,3.32,0,0,0-3.34,3.2Z"/><path class="cls-3" d="M88.4,32.55v3.83c0,.12-.07.2-.16.2a.18.18,0,0,1-.18-.2V32.57A3.12,3.12,0,0,0,85,29.25a3.21,3.21,0,0,0-3.17,3.32v3.81c0,.12,0,.2-.18.2a.19.19,0,0,1-.17-.2V32.55A3.54,3.54,0,0,1,85,28.91,3.43,3.43,0,0,1,88.4,32.55Z"/><path class="cls-3" d="M95.85,35.58a3.61,3.61,0,0,1-2.54,1,3.85,3.85,0,0,1,0-7.7,3.58,3.58,0,0,1,2.54,1,.15.15,0,0,1,0,.24c-.07.09-.18,0-.24,0a3.31,3.31,0,0,0-2.32-.87,3.5,3.5,0,0,0,0,7,3.28,3.28,0,0,0,2.32-.9.17.17,0,0,1,.26,0C96,35.4,96,35.5,95.85,35.58Z"/><path class="cls-3" d="M97,27.48a.3.3,0,0,1,.29-.32.31.31,0,1,1,0,.61A.3.3,0,0,1,97,27.48Zm.1,8.82V29.19a.18.18,0,0,1,.18-.18.17.17,0,0,1,.17.18V36.3a.18.18,0,1,1-.35,0Z"/><path class="cls-3" d="M106.24,32.76V36.3c0,.13-.07.2-.18.2a.19.19,0,0,1-.18-.2v-2a3.79,3.79,0,1,1,.36-1.55Zm-.36.34v-.18a.34.34,0,0,1,0-.13v0a3.53,3.53,0,1,0,0,.34Z"/></svg>