<svg id="Capa_1" data-name="Capa 1" xmlns="http://www.w3.org/2000/svg" viewBox="0 0 151.83 108.53"><defs><style>.cls-1{fill:#1a1a1a;opacity:0.35;}.cls-2{fill:#fff;}.cls-3{fill:aqua;}</style></defs><rect class="cls-1" width="151.83" height="108.53"/><path class="cls-2" d="M44.65,67A1.82,1.82,0,0,1,42.83,69,1.92,1.92,0,0,1,40.89,67V55.45l-.73.47A1.73,1.73,0,0,1,38,55.16a1.87,1.87,0,0,1,.67-2.63l3-1.83a2.07,2.07,0,0,1,2.23.09,1.8,1.8,0,0,1,.72,1.45Z"/><path class="cls-2" d="M53.29,69.13a7,7,0,0,1-6.09-3.56A1.81,1.81,0,0,1,47.76,63a1.94,1.94,0,0,1,2.69.72,3.24,3.24,0,0,0,2.87,1.62,2.69,2.69,0,0,0,3-2.6c0-1.66-1.33-2.55-3-2.55H51.9a2,2,0,0,1-1.65-1.13A2,2,0,0,1,51,56.79l3-2.73H49.47a1.77,1.77,0,0,1-1.92-1.74,1.91,1.91,0,0,1,1.92-1.91h8.77A1.8,1.8,0,0,1,60,51.57a1.86,1.86,0,0,1-.46,2.09L56,57.08A5.15,5.15,0,0,1,60,62.41,6.71,6.71,0,0,1,53.29,69.13Z"/><path class="cls-2" d="M75.46,62.2a6.91,6.91,0,1,1-13.82,0,7.31,7.31,0,0,1,1.27-4l4-7a2,2,0,0,1,2.64-.75,1.84,1.84,0,0,1,.64,2.64l-1.42,2.31A6.82,6.82,0,0,1,75.46,62.2Zm-3.77,0a3.13,3.13,0,0,0-6.26,0,3.13,3.13,0,0,0,6.26,0Z"/><path class="cls-3" d="M94.33,63.73A5.38,5.38,0,0,1,89,69.11,5.44,5.44,0,0,1,84.05,66v6.58a.24.24,0,0,1-.25.25.26.26,0,0,1-.25-.25V63.73a5.39,5.39,0,1,1,10.78,0Zm-.48,0a4.91,4.91,0,1,0-9.82,0v.09a.62.62,0,0,1,0,.18v.2a4.91,4.91,0,0,0,9.8-.47Z"/><path class="cls-3" d="M106.7,63.73a5.38,5.38,0,0,1-5.36,5.38A5.45,5.45,0,0,1,96.42,66v6.58a.24.24,0,0,1-.24.25.25.25,0,0,1-.25-.25V63.73a5.39,5.39,0,1,1,10.77,0Zm-.47,0a4.92,4.92,0,1,0-9.83,0v.09a.62.62,0,0,1,0,.18v.2a4.92,4.92,0,0,0,9.81-.47Z"/><path class="cls-3" d="M121.78,68.69a.26.26,0,0,1-.25.27.28.28,0,0,1-.25-.27V61.63a3,3,0,0,0-3-2.82,3,3,0,0,0-3,2.93v6.95A.24.24,0,0,1,115,69a.27.27,0,0,1-.25-.27V61.63a3,3,0,0,0-3-2.82,3,3,0,0,0-3,2.93v6.95a.26.26,0,0,1-.25.27.28.28,0,0,1-.25-.27v-7a3.5,3.5,0,0,1,3.52-3.34A3.32,3.32,0,0,1,115,60.73a3.46,3.46,0,0,1,6.74.9Z"/><path class="cls-3" d="M64.08,37.51V27.56a.18.18,0,0,1,.18-.17h6.07a.16.16,0,0,1,.17.17.15.15,0,0,1-.17.15H64.44v5.15h4.63a.15.15,0,0,1,.16.16c0,.1,0,.18-.16.18H64.44v4.31a.19.19,0,0,1-.18.18A.18.18,0,0,1,64.08,37.51Z"/><path class="cls-3" d="M71.05,32.55A5.22,5.22,0,0,1,80,28.83a.21.21,0,0,1,0,.26.19.19,0,0,1-.26,0,4.9,4.9,0,1,0-3.49,8.37,4.83,4.83,0,0,0,3.47-1.4.17.17,0,0,1,.26,0c.07.08,0,.17,0,.24a5.15,5.15,0,0,1-3.7,1.51A5.24,5.24,0,0,1,71.05,32.55Z"/><path class="cls-3" d="M88.42,37.66a.22.22,0,0,1-.29,0L85.59,34a4.69,4.69,0,0,1-.84.08H82v3.41a.18.18,0,0,1-.17.18.18.18,0,0,1-.18-.18V27.56a.17.17,0,0,1,.18-.17h3a3.48,3.48,0,0,1,3.59,3.46,3.08,3.08,0,0,1-2.47,3.09l2.48,3.44C88.5,37.49,88.5,37.59,88.42,37.66Zm-3.64-3.9a3,3,0,0,0,3.29-2.91,3.16,3.16,0,0,0-3.24-3.14H82v6Z"/></svg>