<svg id="Capa_1" data-name="Capa 1" xmlns="http://www.w3.org/2000/svg" viewBox="0 0 151.83 109.28"><defs><style>.cls-1{fill:#1a1a1a;opacity:0.35;}.cls-2{fill:#fff;}.cls-3{fill:aqua;}</style></defs><rect class="cls-1" width="151.83" height="109.28"/><path class="cls-2" d="M38.07,69.51A6.46,6.46,0,0,1,32.33,66a1.8,1.8,0,0,1,.58-2.61,2,2,0,0,1,2.7.7,2.79,2.79,0,0,0,2.57,1.65,2.66,2.66,0,0,0,2.87-2.64,2.58,2.58,0,0,0-2.55-2.63H34.59a1.83,1.83,0,0,1-1.88-1.86l0-5.91a1.84,1.84,0,0,1,.67-1.42,2.19,2.19,0,0,1,1.36-.46h7a1.88,1.88,0,0,1,1.88,1.77,1.82,1.82,0,0,1-1.88,1.71H36.5v2.6h1.57c3.71,0,6.75,2.18,6.75,5.89A6.78,6.78,0,0,1,38.07,69.51Z"/><path class="cls-2" d="M46,70.81l1.19-3.33a1.91,1.91,0,0,1,2.46-1.22,1.87,1.87,0,0,1,1.07,2.49l-1.18,3.34a1.87,1.87,0,0,1-2.44,1.21A1.92,1.92,0,0,1,46,70.81Z"/><path class="cls-2" d="M65.77,62.58a6.91,6.91,0,1,1-13.82,0,7.21,7.21,0,0,1,1.28-4l4-7a1.91,1.91,0,0,1,2.63-.75,1.82,1.82,0,0,1,.64,2.63L59.05,55.8A6.82,6.82,0,0,1,65.77,62.58Zm-3.77,0a3.13,3.13,0,0,0-6.25,0,3.13,3.13,0,1,0,6.25,0Z"/><path class="cls-2" d="M80.75,62.58a6.91,6.91,0,1,1-13.82,0,7.21,7.21,0,0,1,1.28-4l4-7a1.92,1.92,0,0,1,2.63-.75,1.82,1.82,0,0,1,.64,2.63L74,55.8A6.81,6.81,0,0,1,80.75,62.58Zm-3.76,0a3.13,3.13,0,0,0-6.26,0,3.13,3.13,0,0,0,6.26,0Z"/><path class="cls-2" d="M92.49,69.36H83.77a1.89,1.89,0,0,1-1.36-3.24l6.46-6.93c.61-.69,1.62-1.88,1.62-2.75a2.1,2.1,0,0,0-2.26-2.15,2.21,2.21,0,0,0-2.35,1.77c-.43,1.16-1.1,1.71-2.2,1.54a1.75,1.75,0,0,1-1.42-2.18c.26-2.17,2.55-4.72,6.23-4.72,3.25,0,5.8,1.94,5.8,5.39,0,2-.78,3.59-2.81,5.71l-3.71,3.8h4.72a1.86,1.86,0,0,1,1.91,1.85A1.89,1.89,0,0,1,92.49,69.36Z"/><path class="cls-3" d="M101.19,69.09V55.16a.23.23,0,0,1,.24-.25.29.29,0,0,1,.18.07l6.07,7.66,6-7.66a.23.23,0,0,1,.18-.07.24.24,0,0,1,.25.25V69.09a.25.25,0,0,1-.49,0V55.77l-5.77,7.39c-.12.11-.23.13-.39,0l-5.79-7.35v13.3a.26.26,0,0,1-.25.24A.24.24,0,0,1,101.19,69.09Z"/><path class="cls-3" d="M116.72,64.38V55.2a.27.27,0,0,1,.24-.27.25.25,0,0,1,.25.27v3.65H123a.24.24,0,0,1,.27.23.25.25,0,0,1-.27.25h-5.82V64.4c0,3.38,2,4.6,3.7,4.6a4.53,4.53,0,0,0,3.29-1.22.21.21,0,0,1,.31,0,.26.26,0,0,1-.06.34,4.62,4.62,0,0,1-3.54,1.35C119,69.49,116.72,68.12,116.72,64.38Z"/><path class="cls-3" d="M125.64,67.73a.23.23,0,0,1-.07-.2.18.18,0,0,1,.18-.2.35.35,0,0,1,.27.13A3.57,3.57,0,0,0,129.38,69c1.67,0,3.18-1,3.18-2.46s-1.51-2-3.74-2.61c-1.62-.41-3-1.13-3-2.71,0-1.8,1.85-2.52,3.42-2.52a3.54,3.54,0,0,1,3.2,1.55.35.35,0,0,1,.07.21.22.22,0,0,1-.2.22.31.31,0,0,1-.23-.11,3.07,3.07,0,0,0-2.86-1.4c-1.21,0-2.93.45-2.93,2.05,0,1.44,1.4,1.94,2.68,2.3,2.26.63,4.11,1.26,4.11,3s-1.74,2.93-3.72,2.93A4,4,0,0,1,125.64,67.73Z"/><path class="cls-3" d="M135.08,69a.44.44,0,0,1,.43-.45.43.43,0,0,1,.41.45.42.42,0,0,1-.41.43A.43.43,0,0,1,135.08,69Z"/><path class="cls-3" d="M62.5,33a5.15,5.15,0,0,1-5.18,5.12H54.26a.19.19,0,0,1-.18-.18V27.94a.17.17,0,0,1,.18-.18h3.06A5.2,5.2,0,0,1,62.5,33Zm-.35,0a4.87,4.87,0,0,0-4.83-4.87H54.44v9.66H57.3A4.81,4.81,0,0,0,62.15,33Z"/><path class="cls-3" d="M63.63,29.05a.3.3,0,0,1,.29-.32.3.3,0,0,1,.31.32.31.31,0,0,1-.31.29A.3.3,0,0,1,63.63,29.05Zm.1,8.82V30.76a.18.18,0,0,1,.17-.18.17.17,0,0,1,.18.18v7.11a.18.18,0,1,1-.35,0Z"/><path class="cls-3" d="M65.26,36.92a.16.16,0,0,1-.05-.14.14.14,0,0,1,.13-.15.26.26,0,0,1,.19.1,2.54,2.54,0,0,0,2.4,1.11c1.19,0,2.27-.72,2.27-1.75s-1.08-1.45-2.67-1.87c-1.16-.29-2.16-.81-2.16-1.93,0-1.29,1.32-1.81,2.45-1.81a2.52,2.52,0,0,1,2.28,1.11.3.3,0,0,1,.05.15.16.16,0,0,1-.15.16.23.23,0,0,1-.16-.08,2.19,2.19,0,0,0-2-1c-.87,0-2.09.32-2.09,1.47s1,1.38,1.91,1.64c1.61.45,2.93.9,2.93,2.16a2.42,2.42,0,0,1-2.65,2.09A2.87,2.87,0,0,1,65.26,36.92Z"/><path class="cls-3" d="M71.74,34.52V28a.19.19,0,0,1,.18-.19.18.18,0,0,1,.18.19v2.61h4.15c.11,0,.19.06.19.16a.17.17,0,0,1-.19.18H72.1v3.62c0,2.41,1.4,3.28,2.64,3.28A3.18,3.18,0,0,0,77.09,37a.16.16,0,0,1,.22,0,.18.18,0,0,1,0,.24,3.28,3.28,0,0,1-2.53,1C73.34,38.18,71.74,37.2,71.74,34.52Z"/><path class="cls-3" d="M85.77,34.33v3.54c0,.13-.07.2-.18.2a.19.19,0,0,1-.18-.2v-2a3.79,3.79,0,1,1,.36-1.55Zm-.36.34v-.18a.34.34,0,0,1,0-.13v0a3.53,3.53,0,1,0,0,.34Z"/><path class="cls-3" d="M94.06,34.12V38c0,.12-.07.2-.16.2a.18.18,0,0,1-.18-.2V34.14a3.12,3.12,0,0,0-3.06-3.32,3.21,3.21,0,0,0-3.17,3.32V38c0,.12,0,.2-.18.2a.19.19,0,0,1-.17-.2V34.12a3.54,3.54,0,0,1,3.52-3.64A3.43,3.43,0,0,1,94.06,34.12Z"/><path class="cls-3" d="M101.51,37.15a3.63,3.63,0,0,1-2.54,1,3.85,3.85,0,0,1,0-7.7,3.6,3.6,0,0,1,2.54,1,.15.15,0,0,1,0,.24c-.07.09-.18,0-.24,0A3.34,3.34,0,0,0,99,30.82a3.5,3.5,0,0,0,0,7,3.3,3.3,0,0,0,2.32-.9.16.16,0,0,1,.25,0C101.61,37,101.61,37.07,101.51,37.15Z"/><path class="cls-3" d="M102.62,29.05a.3.3,0,0,1,.29-.32.3.3,0,0,1,.31.32.31.31,0,0,1-.31.29A.3.3,0,0,1,102.62,29.05Zm.1,8.82V30.76a.18.18,0,0,1,.18-.18.17.17,0,0,1,.17.18v7.11a.18.18,0,1,1-.35,0Z"/><path class="cls-3" d="M111.9,34.33v3.54c0,.13-.07.2-.18.2a.19.19,0,0,1-.18-.2v-2a3.79,3.79,0,1,1,.36-1.55Zm-.36.34v-.18a.34.34,0,0,1,0-.13v0a3.53,3.53,0,1,0,0,.34Z"/></svg>