<svg id="Capa_1" data-name="Capa 1" xmlns="http://www.w3.org/2000/svg" xmlns:xlink="http://www.w3.org/1999/xlink" viewBox="0 0 236.69 161.18"><defs><style>.cls-1{fill:#1a1a1a;opacity:0.35;}.cls-2{fill:#0ed9fa;}.cls-3,.cls-4,.cls-5,.cls-6,.cls-7,.cls-8,.cls-9{fill:none;stroke-miterlimit:10;}.cls-3,.cls-7{stroke-width:1.86px;}.cls-3{stroke:url(#linear-gradient);}.cls-4,.cls-5,.cls-6{stroke-width:9.92px;}.cls-4{stroke:url(#linear-gradient-2);}.cls-5{stroke-dasharray:2.5 2.5;stroke:url(#linear-gradient-3);}.cls-6{stroke:url(#linear-gradient-4);}.cls-7{stroke:url(#linear-gradient-5);}.cls-8,.cls-9{stroke-width:4.96px;}.cls-8{stroke:url(#linear-gradient-6);}.cls-9{stroke:url(#linear-gradient-7);}</style><linearGradient id="linear-gradient" x1="118.35" y1="31.9" x2="118.35" y2="133.86" gradientUnits="userSpaceOnUse"><stop offset="0" stop-color="#04fcfe"/><stop offset="1" stop-color="#2196f3"/></linearGradient><linearGradient id="linear-gradient-2" x1="160.57" y1="37.51" x2="160.57" y2="128.25" xlink:href="#linear-gradient"/><linearGradient id="linear-gradient-3" x1="118.25" y1="37.59" x2="118.25" y2="128.25" xlink:href="#linear-gradient"/><linearGradient id="linear-gradient-4" x1="117.66" y1="37.51" x2="117.66" y2="128.25" xlink:href="#linear-gradient"/><linearGradient id="linear-gradient-5" x1="118.35" y1="52.47" x2="118.35" y2="113.3" xlink:href="#linear-gradient"/><linearGradient id="linear-gradient-6" x1="134.99" y1="50.91" x2="134.99" y2="82.88" xlink:href="#linear-gradient"/><linearGradient id="linear-gradient-7" x1="101.7" y1="82.88" x2="101.7" y2="114.85" xlink:href="#linear-gradient"/></defs><rect class="cls-1" width="236.69" height="161.18"/><path class="cls-2" d="M102.84,92.66a1,1,0,0,1-1.35.38.93.93,0,0,1-.33-1.34l7.08-15.33h-8.7a1,1,0,1,1,0-1.9h10.38a.91.91,0,0,1,.82.44.83.83,0,0,1,.09.9Z"/><path class="cls-2" d="M118.52,93.34a6.73,6.73,0,0,1-5.89-3.42.9.9,0,0,1,.34-1.31,1,1,0,0,1,1.43.38,4.72,4.72,0,0,0,4.18,2.42,4.4,4.4,0,1,0,.06-8.79h-4.36a1,1,0,0,1-.73-.29,1,1,0,0,1-.28-.65V75.43a.93.93,0,0,1,.34-.73,1.4,1.4,0,0,1,.73-.23H123a1,1,0,0,1,1,.9,1,1,0,0,1-1,.88h-7.72v4.53h3.14c3.84,0,6.87,2.51,6.87,6.07A6.65,6.65,0,0,1,118.52,93.34Z"/><path class="cls-2" d="M127,74.62a2.25,2.25,0,1,1,2.24,2.16A2.21,2.21,0,0,1,127,74.62Zm3.66,0a1.37,1.37,0,0,0-1.42-1.35,1.35,1.35,0,1,0,0,2.69A1.37,1.37,0,0,0,130.67,74.62Zm-1.19,8.12,4.82-9.91a.57.57,0,0,1,.73-.24.53.53,0,0,1,.23.72l-4.84,9.85a.53.53,0,0,1-.69.24A.5.5,0,0,1,129.48,82.74Zm3.68-1.35a2.25,2.25,0,1,1,2.24,2.17A2.21,2.21,0,0,1,133.16,81.39Zm3.65,0a1.41,1.41,0,1,0-1.41,1.33A1.37,1.37,0,0,0,136.81,81.39Z"/><ellipse class="cls-3" cx="118.35" cy="82.88" rx="52.3" ry="50.05"/><path class="cls-4" d="M160.57,82.88c0,.42,0,.83,0,1.24"/><path class="cls-5" d="M160.4,86.61c-2,20.57-20.05,36.68-42.05,36.68-23.33,0-42.23-18.09-42.23-40.41,0-21.51,17.57-39.1,39.73-40.34"/><path class="cls-6" d="M117.1,42.49l1.25,0"/><ellipse class="cls-7" cx="118.35" cy="82.88" rx="30.81" ry="29.49"/><path class="cls-8" d="M118.35,53.4c17,0,30.81,13.2,30.81,29.48"/><path class="cls-9" d="M118.35,112.37c-17,0-30.82-13.2-30.82-29.49"/></svg>