<svg id="Capa_1" data-name="Capa 1" xmlns="http://www.w3.org/2000/svg" viewBox="0 0 151.83 108.53"><defs><style>.cls-1{fill:#1a1a1a;opacity:0.35;}.cls-2{fill:#fff;}.cls-3{fill:aqua;}</style></defs><rect class="cls-1" width="151.83" height="108.53"/><path class="cls-2" d="M50.68,62.93a6.2,6.2,0,0,1-12.4,0,6,6,0,0,1,2.32-4.61,4.14,4.14,0,0,1-1.22-2.93,5,5,0,0,1,10.06,0,4,4,0,0,1-1.16,2.84A6,6,0,0,1,50.68,62.93Zm-3.79,0a2.42,2.42,0,1,0-4.84,0,2.42,2.42,0,0,0,4.84,0Zm-4.26-7.8a1.8,1.8,0,1,0,3.59,0,1.8,1.8,0,0,0-3.59,0Z"/><path class="cls-2" d="M58.36,69.13a7,7,0,0,1-6.08-3.56A1.8,1.8,0,0,1,52.83,63a1.94,1.94,0,0,1,2.69.72,3.24,3.24,0,0,0,2.87,1.62,2.69,2.69,0,0,0,3-2.6c0-1.66-1.33-2.55-3-2.55H57a2,2,0,0,1-1.65-1.13,2,2,0,0,1,.75-2.26l3-2.73H54.54a1.77,1.77,0,0,1-1.92-1.74,1.91,1.91,0,0,1,1.92-1.91h8.78A1.81,1.81,0,0,1,65,51.57a1.88,1.88,0,0,1-.47,2.09L61,57.08a5.15,5.15,0,0,1,4.08,5.33A6.71,6.71,0,0,1,58.36,69.13Z"/><path class="cls-2" d="M73.32,69.13a7,7,0,0,1-6.09-3.56A1.81,1.81,0,0,1,67.78,63a2,2,0,0,1,2.7.72,3.22,3.22,0,0,0,2.86,1.62,2.69,2.69,0,0,0,3-2.6c0-1.66-1.33-2.55-3-2.55h-1.4a2,2,0,0,1-1.65-1.13A2,2,0,0,1,71,56.79l3-2.73H69.49a1.77,1.77,0,0,1-1.91-1.74,1.91,1.91,0,0,1,1.91-1.91h8.78A1.81,1.81,0,0,1,80,51.57a1.89,1.89,0,0,1-.46,2.09L76,57.08a5.15,5.15,0,0,1,4.09,5.33A6.72,6.72,0,0,1,73.32,69.13Z"/><path class="cls-3" d="M100.52,68.87s-.25.13-.36,0L93.35,61.5l-2.3,2.2v5a.27.27,0,0,1-.24.25.25.25,0,0,1-.25-.25V54.78a.25.25,0,0,1,.25-.25.26.26,0,0,1,.24.25v8.29l8.77-8.45a.2.2,0,0,1,.32,0,.23.23,0,0,1,0,.36l-6.42,6.18,6.81,7.37A.32.32,0,0,1,100.52,68.87Z"/><path class="cls-3" d="M110.75,67.67a5.08,5.08,0,0,1-3.56,1.44,5.39,5.39,0,0,1,0-10.77,5,5,0,0,1,3.56,1.38.2.2,0,0,1,0,.33c-.09.14-.25.07-.34,0a4.67,4.67,0,0,0-3.25-1.22,4.91,4.91,0,0,0,0,9.81,4.65,4.65,0,0,0,3.25-1.26.24.24,0,0,1,.36,0A.22.22,0,0,1,110.75,67.67Z"/><path class="cls-3" d="M122.88,63.73v5c0,.18-.09.27-.25.27a.27.27,0,0,1-.25-.27v-2.8a5.3,5.3,0,1,1,.5-2.16Zm-.5.47V64a.65.65,0,0,1,0-.18v0a4.86,4.86,0,1,0,0,.47Z"/><path class="cls-3" d="M124.8,65.08V54.69a.26.26,0,0,1,.27-.27c.13,0,.22.11.22.27V65c0,2.23,1.13,3.49,3,3.49.16,0,.23.09.23.25a.26.26,0,0,1-.29.25C126.33,69,124.8,67.78,124.8,65.08Z"/><path class="cls-3" d="M129.87,68.66a.43.43,0,0,1,.43-.45.43.43,0,0,1,.4.45.42.42,0,0,1-.4.43A.43.43,0,0,1,129.87,68.66Z"/><path class="cls-3" d="M53.53,32.54a5.24,5.24,0,0,1,5.24-5.25,5.31,5.31,0,0,1,3.71,1.54.17.17,0,0,1,0,.26c0,.07-.16.05-.24,0a5,5,0,0,0-3.49-1.47,4.93,4.93,0,0,0-.05,9.85,5,5,0,0,0,3.49-1.38V33.6H59.46a.16.16,0,1,1,0-.32h2.88c.11,0,.21.06.21.17v2.64a.22.22,0,0,1-.1.21,5.3,5.3,0,0,1-3.73,1.5A5.25,5.25,0,0,1,53.53,32.54Z"/><path class="cls-3" d="M67.85,30.54c-2.16,0-3.71,1.13-3.71,3.65v3.3c0,.12-.06.2-.16.2a.2.2,0,0,1-.19-.2V34.18c0-2.8,1.72-4,4-4a.17.17,0,0,1,.19.16C68,30.48,68,30.54,67.85,30.54Z"/><path class="cls-3" d="M76.12,34v3.54c0,.13-.06.2-.18.2a.18.18,0,0,1-.17-.2v-2A3.8,3.8,0,1,1,76.12,34Zm-.35.34v-.18a.53.53,0,0,1,0-.12v0a3.43,3.43,0,1,0,0,.34Z"/><path class="cls-3" d="M77.3,36.54a.16.16,0,0,1,0-.14.13.13,0,0,1,.13-.14.23.23,0,0,1,.19.09A2.55,2.55,0,0,0,80,37.46c1.19,0,2.27-.72,2.27-1.75s-1.08-1.45-2.67-1.87c-1.16-.29-2.16-.8-2.16-1.93,0-1.29,1.32-1.8,2.45-1.8a2.5,2.5,0,0,1,2.28,1.11.19.19,0,0,1,0,.14.15.15,0,0,1-.14.16.19.19,0,0,1-.16-.08,2.24,2.24,0,0,0-2-1c-.87,0-2.09.33-2.09,1.47s1,1.38,1.91,1.64c1.61.45,2.93.9,2.93,2.16a2.42,2.42,0,0,1-2.65,2.09A2.87,2.87,0,0,1,77.3,36.54Z"/><path class="cls-3" d="M91.16,34v3.54c0,.13-.06.2-.18.2a.18.18,0,0,1-.17-.2v-2A3.8,3.8,0,1,1,91.16,34Zm-.35.34v-.18a.53.53,0,0,1,0-.12v0a3.43,3.43,0,1,0,0,.34Z"/></svg>