<svg id="Capa_1" data-name="Capa 1" xmlns="http://www.w3.org/2000/svg" viewBox="0 0 151.83 106.15"><defs><style>.cls-1{fill:#1a1a1a;opacity:0.35;}.cls-2{fill:#fff;}.cls-3{fill:aqua;}</style></defs><rect class="cls-1" width="151.83" height="106.15"/><path class="cls-2" d="M38.42,56a6.91,6.91,0,0,1,13.82,0,7.28,7.28,0,0,1-1.27,4l-4,7a1.94,1.94,0,0,1-2.64.76,1.83,1.83,0,0,1-.63-2.64l1.42-2.32A6.81,6.81,0,0,1,38.42,56Zm3.77,0a3.13,3.13,0,0,0,6.26,0,3.13,3.13,0,0,0-6.26,0Z"/><path class="cls-2" d="M54.36,65.91a2,2,0,1,1,2,2A2,2,0,0,1,54.36,65.91Z"/><path class="cls-2" d="M67.23,67.94a7,7,0,0,1-6.09-3.57,1.82,1.82,0,0,1,.55-2.58,2,2,0,0,1,2.7.73,3.24,3.24,0,0,0,2.87,1.62,2.69,2.69,0,0,0,3-2.61c0-1.65-1.33-2.55-3-2.55H65.84a1.94,1.94,0,0,1-1.65-1.13,2,2,0,0,1,.75-2.26l3-2.72H63.4a1.77,1.77,0,0,1-1.91-1.74,1.91,1.91,0,0,1,1.91-1.91h8.78a1.81,1.81,0,0,1,1.71,1.16,1.86,1.86,0,0,1-.46,2.08L69.9,55.88A5.16,5.16,0,0,1,74,61.21,6.72,6.72,0,0,1,67.23,67.94Z"/><path class="cls-3" d="M94.08,67.67s-.25.14-.36,0L86.91,60.3l-2.3,2.21v5a.26.26,0,0,1-.24.24.25.25,0,0,1-.25-.24V53.59a.25.25,0,0,1,.25-.25.26.26,0,0,1,.24.25v8.29l8.77-8.45a.2.2,0,0,1,.32,0,.23.23,0,0,1,0,.36L87.25,60l6.81,7.36A.32.32,0,0,1,94.08,67.67Z"/><path class="cls-3" d="M105.19,65.73a3.54,3.54,0,0,1,.83,2.42,3.66,3.66,0,0,1-3.58,3.76c-.88,0-2.1-.34-3-.34a3.25,3.25,0,0,0-1.74.41c-.27.13-.51-.25-.2-.45a3.62,3.62,0,0,1,1.94-.45c1,0,2.14.33,3,.33a3.23,3.23,0,0,0,3.13-3.33,2.76,2.76,0,0,0-.65-2,5.38,5.38,0,1,1,1.37-3.61A5.47,5.47,0,0,1,105.19,65.73Zm.56-3.22a4.88,4.88,0,1,0-4.89,4.89A4.83,4.83,0,0,0,105.75,62.51Z"/><path class="cls-3" d="M108.32,67.47a.42.42,0,1,1,.84,0,.42.42,0,1,1-.84,0Z"/><path class="cls-3" d="M54.08,36.32V26.37a.17.17,0,0,1,.18-.18.31.31,0,0,1,.13,0l4.33,5.47L63,26.24a.16.16,0,0,1,.13,0,.17.17,0,0,1,.17.18v10a.18.18,0,1,1-.35,0V26.8l-4.12,5.28c-.08.08-.16.1-.28,0l-4.13-5.25v9.5a.2.2,0,0,1-.18.18A.19.19,0,0,1,54.08,36.32Z"/><path class="cls-3" d="M71.94,32.57c0,.11,0,.21-.16.21H65.21a3.37,3.37,0,0,0,3.35,3.47,2.88,2.88,0,0,0,2.38-1c.1-.1.19-.13.27,0s.07.16,0,.26a3.16,3.16,0,0,1-2.64,1.11,3.85,3.85,0,0,1,0-7.7A3.5,3.5,0,0,1,71.94,32.57Zm-.33-.12a3.15,3.15,0,0,0-3-3.2,3.33,3.33,0,0,0-3.35,3.2Z"/><path class="cls-3" d="M73.15,33V26.4a.19.19,0,0,1,.17-.19.18.18,0,0,1,.18.19V29h4.15c.11,0,.19.06.19.16a.17.17,0,0,1-.19.18H73.5V33c0,2.41,1.4,3.28,2.64,3.28a3.18,3.18,0,0,0,2.35-.87.16.16,0,0,1,.22,0,.18.18,0,0,1,0,.24,3.28,3.28,0,0,1-2.53,1C74.74,36.61,73.15,35.63,73.15,33Z"/><path class="cls-3" d="M87.17,32.76V36.3c0,.13-.07.2-.18.2a.19.19,0,0,1-.18-.2v-2a3.79,3.79,0,1,1,.36-1.55Zm-.36.34v-.18a.34.34,0,0,1,0-.13v0a3.53,3.53,0,1,0,0,.34Z"/></svg>