<svg id="Capa_1" data-name="Capa 1" xmlns="http://www.w3.org/2000/svg" xmlns:xlink="http://www.w3.org/1999/xlink" viewBox="0 0 811.93 159.73"><defs><style>.cls-1{fill:#1a1a1a;opacity:0.35;}.cls-2{opacity:0.5;}.cls-10,.cls-11,.cls-12,.cls-13,.cls-14,.cls-15,.cls-16,.cls-17,.cls-18,.cls-19,.cls-20,.cls-21,.cls-22,.cls-23,.cls-24,.cls-25,.cls-26,.cls-27,.cls-28,.cls-29,.cls-3,.cls-30,.cls-31,.cls-32,.cls-33,.cls-34,.cls-35,.cls-36,.cls-37,.cls-38,.cls-39,.cls-4,.cls-40,.cls-41,.cls-42,.cls-43,.cls-44,.cls-45,.cls-46,.cls-47,.cls-48,.cls-49,.cls-5,.cls-50,.cls-51,.cls-52,.cls-53,.cls-54,.cls-55,.cls-56,.cls-57,.cls-58,.cls-59,.cls-6,.cls-60,.cls-61,.cls-62,.cls-63,.cls-64,.cls-65,.cls-66,.cls-67,.cls-68,.cls-69,.cls-7,.cls-70,.cls-71,.cls-72,.cls-73,.cls-74,.cls-75,.cls-76,.cls-77,.cls-78,.cls-79,.cls-8,.cls-80,.cls-81,.cls-82,.cls-83,.cls-84,.cls-85,.cls-86,.cls-87,.cls-88,.cls-9{fill:none;stroke-linecap:round;stroke-linejoin:round;stroke-width:4.82px;}.cls-3{stroke:url(#linear-gradient);}.cls-4{stroke:url(#linear-gradient-2);}.cls-5{stroke:url(#linear-gradient-3);}.cls-6{stroke:url(#linear-gradient-4);}.cls-7{stroke:url(#linear-gradient-5);}.cls-8{stroke:url(#linear-gradient-6);}.cls-9{stroke:url(#linear-gradient-7);}.cls-10{stroke:url(#linear-gradient-8);}.cls-11{stroke:url(#linear-gradient-9);}.cls-12{stroke:url(#linear-gradient-10);}.cls-13{stroke:url(#linear-gradient-11);}.cls-14{stroke:url(#linear-gradient-12);}.cls-15{stroke:url(#linear-gradient-13);}.cls-16{stroke:url(#linear-gradient-14);}.cls-17{stroke:url(#linear-gradient-15);}.cls-18{stroke:url(#linear-gradient-16);}.cls-19{stroke:url(#linear-gradient-17);}.cls-20{stroke:url(#linear-gradient-18);}.cls-21{stroke:url(#linear-gradient-19);}.cls-22{stroke:url(#linear-gradient-20);}.cls-23{stroke:url(#linear-gradient-21);}.cls-24{stroke:url(#linear-gradient-22);}.cls-25{stroke:url(#linear-gradient-23);}.cls-26{stroke:url(#linear-gradient-24);}.cls-27{stroke:url(#linear-gradient-25);}.cls-28{stroke:url(#linear-gradient-26);}.cls-29{stroke:url(#linear-gradient-27);}.cls-30{stroke:url(#linear-gradient-28);}.cls-31{stroke:url(#linear-gradient-29);}.cls-32{stroke:url(#linear-gradient-30);}.cls-33{stroke:url(#linear-gradient-31);}.cls-34{stroke:url(#linear-gradient-32);}.cls-35{stroke:url(#linear-gradient-33);}.cls-36{stroke:url(#linear-gradient-34);}.cls-37{stroke:url(#linear-gradient-35);}.cls-38{stroke:url(#linear-gradient-36);}.cls-39{stroke:url(#linear-gradient-37);}.cls-40{stroke:url(#linear-gradient-38);}.cls-41{stroke:url(#linear-gradient-39);}.cls-42{stroke:url(#linear-gradient-40);}.cls-43{stroke:url(#linear-gradient-41);}.cls-44{stroke:url(#linear-gradient-42);}.cls-45{stroke:url(#linear-gradient-43);}.cls-46{stroke:url(#linear-gradient-44);}.cls-47{stroke:url(#linear-gradient-45);}.cls-48{stroke:url(#linear-gradient-46);}.cls-49{stroke:url(#linear-gradient-47);}.cls-50{stroke:url(#linear-gradient-48);}.cls-51{stroke:url(#linear-gradient-49);}.cls-52{stroke:url(#linear-gradient-50);}.cls-53{stroke:url(#linear-gradient-51);}.cls-54{stroke:url(#linear-gradient-52);}.cls-55{stroke:url(#linear-gradient-53);}.cls-56{stroke:url(#linear-gradient-54);}.cls-57{stroke:url(#linear-gradient-55);}.cls-58{stroke:url(#linear-gradient-56);}.cls-59{stroke:url(#linear-gradient-57);}.cls-60{stroke:url(#linear-gradient-58);}.cls-61{stroke:url(#linear-gradient-59);}.cls-62{stroke:url(#linear-gradient-60);}.cls-63{stroke:url(#linear-gradient-61);}.cls-64{stroke:url(#linear-gradient-62);}.cls-65{stroke:url(#linear-gradient-63);}.cls-66{stroke:url(#linear-gradient-64);}.cls-67{stroke:url(#linear-gradient-65);}.cls-68{stroke:url(#linear-gradient-66);}.cls-69{stroke:url(#linear-gradient-67);}.cls-70{stroke:url(#linear-gradient-68);}.cls-71{stroke:url(#linear-gradient-69);}.cls-72{stroke:url(#linear-gradient-70);}.cls-73{stroke:url(#linear-gradient-71);}.cls-74{stroke:url(#linear-gradient-72);}.cls-75{stroke:url(#linear-gradient-73);}.cls-76{stroke:url(#linear-gradient-74);}.cls-77{stroke:url(#linear-gradient-75);}.cls-78{stroke:url(#linear-gradient-76);}.cls-79{stroke:url(#linear-gradient-77);}.cls-80{stroke:url(#linear-gradient-78);}.cls-81{stroke:url(#linear-gradient-79);}.cls-82{stroke:url(#linear-gradient-80);}.cls-83{stroke:url(#linear-gradient-81);}.cls-84{stroke:url(#linear-gradient-82);}.cls-85{stroke:url(#linear-gradient-83);}.cls-86{stroke:url(#linear-gradient-84);}.cls-87{stroke:url(#linear-gradient-85);}.cls-88{stroke:url(#linear-gradient-86);}</style><linearGradient id="linear-gradient" x1="492.04" y1="85.36" x2="492.04" y2="126.26" gradientUnits="userSpaceOnUse"><stop offset="0" stop-color="#04fcfe"/><stop offset="1" stop-color="#2196f3"/></linearGradient><linearGradient id="linear-gradient-2" x1="509.74" y1="75.28" x2="509.74" y2="126.26" xlink:href="#linear-gradient"/><linearGradient id="linear-gradient-3" x1="527.44" y1="58.47" x2="527.44" y2="126.26" xlink:href="#linear-gradient"/><linearGradient id="linear-gradient-4" x1="545.14" y1="43.67" x2="545.14" y2="126.26" xlink:href="#linear-gradient"/><linearGradient id="linear-gradient-5" x1="562.83" y1="45.69" x2="562.83" y2="126.26" xlink:href="#linear-gradient"/><linearGradient id="linear-gradient-6" x1="580.53" y1="52.41" x2="580.53" y2="126.26" xlink:href="#linear-gradient"/><linearGradient id="linear-gradient-7" x1="598.23" y1="58.47" x2="598.23" y2="126.26" xlink:href="#linear-gradient"/><linearGradient id="linear-gradient-8" x1="615.93" y1="65.19" x2="615.93" y2="126.26" xlink:href="#linear-gradient"/><linearGradient id="linear-gradient-9" x1="633.62" y1="71.91" x2="633.62" y2="126.26" xlink:href="#linear-gradient"/><linearGradient id="linear-gradient-10" x1="651.32" y1="58.47" x2="651.32" y2="126.26" xlink:href="#linear-gradient"/><linearGradient id="linear-gradient-11" x1="669.02" y1="43.67" x2="669.02" y2="126.26" xlink:href="#linear-gradient"/><linearGradient id="linear-gradient-12" x1="686.72" y1="50.4" x2="686.72" y2="126.26" xlink:href="#linear-gradient"/><linearGradient id="linear-gradient-13" x1="704.42" y1="83.57" x2="704.42" y2="126.26" xlink:href="#linear-gradient"/><linearGradient id="linear-gradient-14" x1="722.11" y1="58.47" x2="722.11" y2="126.26" xlink:href="#linear-gradient"/><linearGradient id="linear-gradient-15" x1="739.81" y1="61.83" x2="739.81" y2="126.26" xlink:href="#linear-gradient"/><linearGradient id="linear-gradient-16" x1="757.51" y1="50.4" x2="757.51" y2="126.26" xlink:href="#linear-gradient"/><linearGradient id="linear-gradient-17" x1="775.21" y1="43.67" x2="775.21" y2="126.26" xlink:href="#linear-gradient"/><linearGradient id="linear-gradient-18" x1="492.04" y1="100.48" x2="492.04" y2="126.26" xlink:href="#linear-gradient"/><linearGradient id="linear-gradient-19" x1="509.74" y1="94.62" x2="509.74" y2="126.26" xlink:href="#linear-gradient"/><linearGradient id="linear-gradient-20" x1="527.44" y1="84.85" x2="527.44" y2="126.26" xlink:href="#linear-gradient"/><linearGradient id="linear-gradient-21" x1="545.14" y1="76.26" x2="545.14" y2="126.26" xlink:href="#linear-gradient"/><linearGradient id="linear-gradient-22" x1="562.83" y1="77.43" x2="562.83" y2="126.26" xlink:href="#linear-gradient"/><linearGradient id="linear-gradient-23" x1="580.53" y1="81.34" x2="580.53" y2="126.26" xlink:href="#linear-gradient"/><linearGradient id="linear-gradient-24" x1="598.23" y1="84.85" x2="598.23" y2="126.26" xlink:href="#linear-gradient"/><linearGradient id="linear-gradient-25" x1="615.93" y1="88.76" x2="615.93" y2="126.26" xlink:href="#linear-gradient"/><linearGradient id="linear-gradient-26" x1="633.62" y1="92.67" x2="633.62" y2="126.26" xlink:href="#linear-gradient"/><linearGradient id="linear-gradient-27" x1="651.32" y1="84.85" x2="651.32" y2="126.26" xlink:href="#linear-gradient"/><linearGradient id="linear-gradient-28" x1="669.02" y1="76.26" x2="669.02" y2="126.26" xlink:href="#linear-gradient"/><linearGradient id="linear-gradient-29" x1="686.72" y1="80.17" x2="686.72" y2="126.26" xlink:href="#linear-gradient"/><linearGradient id="linear-gradient-30" x1="704.42" y1="99.44" x2="704.42" y2="126.26" xlink:href="#linear-gradient"/><linearGradient id="linear-gradient-31" x1="722.11" y1="84.85" x2="722.11" y2="126.26" xlink:href="#linear-gradient"/><linearGradient id="linear-gradient-32" x1="739.81" y1="86.81" x2="739.81" y2="126.26" xlink:href="#linear-gradient"/><linearGradient id="linear-gradient-33" x1="757.51" y1="80.17" x2="757.51" y2="126.26" xlink:href="#linear-gradient"/><linearGradient id="linear-gradient-34" x1="775.21" y1="71.06" x2="775.21" y2="126.26" xlink:href="#linear-gradient"/><linearGradient id="linear-gradient-35" x1="32.74" y1="43.67" x2="32.74" y2="126.26" xlink:href="#linear-gradient"/><linearGradient id="linear-gradient-36" x1="50.44" y1="45.69" x2="50.44" y2="126.26" xlink:href="#linear-gradient"/><linearGradient id="linear-gradient-37" x1="68.14" y1="52.41" x2="68.14" y2="126.26" xlink:href="#linear-gradient"/><linearGradient id="linear-gradient-38" x1="85.83" y1="58.47" x2="85.83" y2="126.26" xlink:href="#linear-gradient"/><linearGradient id="linear-gradient-39" x1="103.53" y1="65.19" x2="103.53" y2="126.26" xlink:href="#linear-gradient"/><linearGradient id="linear-gradient-40" x1="121.23" y1="71.91" x2="121.23" y2="126.26" xlink:href="#linear-gradient"/><linearGradient id="linear-gradient-41" x1="138.93" y1="58.47" x2="138.93" y2="126.26" xlink:href="#linear-gradient"/><linearGradient id="linear-gradient-42" x1="156.62" y1="43.67" x2="156.62" y2="126.26" xlink:href="#linear-gradient"/><linearGradient id="linear-gradient-43" x1="174.32" y1="50.4" x2="174.32" y2="126.26" xlink:href="#linear-gradient"/><linearGradient id="linear-gradient-44" x1="192.02" y1="83.57" x2="192.02" y2="126.26" xlink:href="#linear-gradient"/><linearGradient id="linear-gradient-45" x1="209.72" y1="58.47" x2="209.72" y2="126.26" xlink:href="#linear-gradient"/><linearGradient id="linear-gradient-46" x1="227.42" y1="61.83" x2="227.42" y2="126.26" xlink:href="#linear-gradient"/><linearGradient id="linear-gradient-47" x1="245.11" y1="50.4" x2="245.11" y2="126.26" xlink:href="#linear-gradient"/><linearGradient id="linear-gradient-48" x1="262.81" y1="43.67" x2="262.81" y2="126.26" xlink:href="#linear-gradient"/><linearGradient id="linear-gradient-49" x1="32.74" y1="76.26" x2="32.74" y2="126.26" xlink:href="#linear-gradient"/><linearGradient id="linear-gradient-50" x1="50.44" y1="77.43" x2="50.44" y2="126.26" xlink:href="#linear-gradient"/><linearGradient id="linear-gradient-51" x1="68.14" y1="81.34" x2="68.14" y2="126.26" xlink:href="#linear-gradient"/><linearGradient id="linear-gradient-52" x1="85.83" y1="84.85" x2="85.83" y2="126.26" xlink:href="#linear-gradient"/><linearGradient id="linear-gradient-53" x1="103.53" y1="88.76" x2="103.53" y2="126.26" xlink:href="#linear-gradient"/><linearGradient id="linear-gradient-54" x1="121.23" y1="92.67" x2="121.23" y2="126.26" xlink:href="#linear-gradient"/><linearGradient id="linear-gradient-55" x1="138.93" y1="84.85" x2="138.93" y2="126.26" xlink:href="#linear-gradient"/><linearGradient id="linear-gradient-56" x1="156.62" y1="76.26" x2="156.62" y2="126.26" xlink:href="#linear-gradient"/><linearGradient id="linear-gradient-57" x1="174.32" y1="80.17" x2="174.32" y2="126.26" xlink:href="#linear-gradient"/><linearGradient id="linear-gradient-58" x1="192.02" y1="99.44" x2="192.02" y2="126.26" xlink:href="#linear-gradient"/><linearGradient id="linear-gradient-59" x1="209.72" y1="84.85" x2="209.72" y2="126.26" xlink:href="#linear-gradient"/><linearGradient id="linear-gradient-60" x1="227.42" y1="86.81" x2="227.42" y2="126.26" xlink:href="#linear-gradient"/><linearGradient id="linear-gradient-61" x1="245.11" y1="80.17" x2="245.11" y2="126.26" xlink:href="#linear-gradient"/><linearGradient id="linear-gradient-62" x1="262.81" y1="71.06" x2="262.81" y2="126.26" xlink:href="#linear-gradient"/><linearGradient id="linear-gradient-63" x1="280.46" y1="85.36" x2="280.46" y2="126.26" xlink:href="#linear-gradient"/><linearGradient id="linear-gradient-64" x1="298.16" y1="75.28" x2="298.16" y2="126.26" xlink:href="#linear-gradient"/><linearGradient id="linear-gradient-65" x1="315.85" y1="58.47" x2="315.85" y2="126.26" xlink:href="#linear-gradient"/><linearGradient id="linear-gradient-66" x1="333.55" y1="43.67" x2="333.55" y2="126.26" xlink:href="#linear-gradient"/><linearGradient id="linear-gradient-67" x1="351.25" y1="45.69" x2="351.25" y2="126.26" xlink:href="#linear-gradient"/><linearGradient id="linear-gradient-68" x1="368.95" y1="52.41" x2="368.95" y2="126.26" xlink:href="#linear-gradient"/><linearGradient id="linear-gradient-69" x1="386.64" y1="58.47" x2="386.64" y2="126.26" xlink:href="#linear-gradient"/><linearGradient id="linear-gradient-70" x1="404.34" y1="65.19" x2="404.34" y2="126.26" xlink:href="#linear-gradient"/><linearGradient id="linear-gradient-71" x1="422.04" y1="71.91" x2="422.04" y2="126.26" xlink:href="#linear-gradient"/><linearGradient id="linear-gradient-72" x1="439.74" y1="58.47" x2="439.74" y2="126.26" xlink:href="#linear-gradient"/><linearGradient id="linear-gradient-73" x1="457.44" y1="43.67" x2="457.44" y2="126.26" xlink:href="#linear-gradient"/><linearGradient id="linear-gradient-74" x1="475.13" y1="50.4" x2="475.13" y2="126.26" xlink:href="#linear-gradient"/><linearGradient id="linear-gradient-75" x1="280.46" y1="100.48" x2="280.46" y2="126.26" xlink:href="#linear-gradient"/><linearGradient id="linear-gradient-76" x1="298.16" y1="94.62" x2="298.16" y2="126.26" xlink:href="#linear-gradient"/><linearGradient id="linear-gradient-77" x1="315.85" y1="84.85" x2="315.85" y2="126.26" xlink:href="#linear-gradient"/><linearGradient id="linear-gradient-78" x1="333.55" y1="76.26" x2="333.55" y2="126.26" xlink:href="#linear-gradient"/><linearGradient id="linear-gradient-79" x1="351.25" y1="77.43" x2="351.25" y2="126.26" xlink:href="#linear-gradient"/><linearGradient id="linear-gradient-80" x1="368.95" y1="81.34" x2="368.95" y2="126.26" xlink:href="#linear-gradient"/><linearGradient id="linear-gradient-81" x1="386.64" y1="84.85" x2="386.64" y2="126.26" xlink:href="#linear-gradient"/><linearGradient id="linear-gradient-82" x1="404.34" y1="88.76" x2="404.34" y2="126.26" xlink:href="#linear-gradient"/><linearGradient id="linear-gradient-83" x1="422.04" y1="92.67" x2="422.04" y2="126.26" xlink:href="#linear-gradient"/><linearGradient id="linear-gradient-84" x1="439.74" y1="84.85" x2="439.74" y2="126.26" xlink:href="#linear-gradient"/><linearGradient id="linear-gradient-85" x1="457.44" y1="76.26" x2="457.44" y2="126.26" xlink:href="#linear-gradient"/><linearGradient id="linear-gradient-86" x1="475.13" y1="80.17" x2="475.13" y2="126.26" xlink:href="#linear-gradient"/></defs><rect class="cls-1" width="811.93" height="159.73"/><g class="cls-2"><line class="cls-3" x1="492.04" y1="87.77" x2="492.04" y2="123.85"/><line class="cls-4" x1="509.74" y1="77.68" x2="509.74" y2="123.85"/><line class="cls-5" x1="527.44" y1="60.87" x2="527.44" y2="123.85"/><line class="cls-6" x1="545.14" y1="46.08" x2="545.14" y2="123.85"/><line class="cls-7" x1="562.83" y1="48.1" x2="562.83" y2="123.85"/><line class="cls-8" x1="580.53" y1="54.82" x2="580.53" y2="123.85"/><line class="cls-9" x1="598.23" y1="60.87" x2="598.23" y2="123.85"/><line class="cls-10" x1="615.93" y1="67.6" x2="615.93" y2="123.85"/><line class="cls-11" x1="633.62" y1="74.32" x2="633.62" y2="123.85"/><line class="cls-12" x1="651.32" y1="60.87" x2="651.32" y2="123.85"/><line class="cls-13" x1="669.02" y1="46.08" x2="669.02" y2="123.85"/><line class="cls-14" x1="686.72" y1="52.81" x2="686.72" y2="123.85"/><line class="cls-15" x1="704.42" y1="85.98" x2="704.42" y2="123.85"/><line class="cls-16" x1="722.11" y1="60.87" x2="722.11" y2="123.85"/><line class="cls-17" x1="739.81" y1="64.24" x2="739.81" y2="123.85"/><line class="cls-18" x1="757.51" y1="52.81" x2="757.51" y2="123.85"/><line class="cls-19" x1="775.21" y1="46.08" x2="775.21" y2="123.85"/></g><line class="cls-20" x1="492.04" y1="102.89" x2="492.04" y2="123.85"/><line class="cls-21" x1="509.74" y1="97.03" x2="509.74" y2="123.85"/><line class="cls-22" x1="527.44" y1="87.26" x2="527.44" y2="123.85"/><line class="cls-23" x1="545.14" y1="78.67" x2="545.14" y2="123.85"/><line class="cls-24" x1="562.83" y1="79.84" x2="562.83" y2="123.85"/><line class="cls-25" x1="580.53" y1="83.75" x2="580.53" y2="123.85"/><line class="cls-26" x1="598.23" y1="87.26" x2="598.23" y2="123.85"/><line class="cls-27" x1="615.93" y1="91.17" x2="615.93" y2="123.85"/><line class="cls-28" x1="633.62" y1="95.08" x2="633.62" y2="123.85"/><line class="cls-29" x1="651.32" y1="87.26" x2="651.32" y2="123.85"/><line class="cls-30" x1="669.02" y1="78.67" x2="669.02" y2="123.85"/><line class="cls-31" x1="686.72" y1="82.57" x2="686.72" y2="123.85"/><line class="cls-32" x1="704.42" y1="101.85" x2="704.42" y2="123.85"/><line class="cls-33" x1="722.11" y1="87.26" x2="722.11" y2="123.85"/><line class="cls-34" x1="739.81" y1="89.22" x2="739.81" y2="123.85"/><line class="cls-35" x1="757.51" y1="82.57" x2="757.51" y2="123.85"/><line class="cls-36" x1="775.21" y1="73.47" x2="775.21" y2="123.85"/><g class="cls-2"><line class="cls-37" x1="32.74" y1="46.08" x2="32.74" y2="123.85"/><line class="cls-38" x1="50.44" y1="48.1" x2="50.44" y2="123.85"/><line class="cls-39" x1="68.14" y1="54.82" x2="68.14" y2="123.85"/><line class="cls-40" x1="85.83" y1="60.87" x2="85.83" y2="123.85"/><line class="cls-41" x1="103.53" y1="67.6" x2="103.53" y2="123.85"/><line class="cls-42" x1="121.23" y1="74.32" x2="121.23" y2="123.85"/><line class="cls-43" x1="138.93" y1="60.87" x2="138.93" y2="123.85"/><line class="cls-44" x1="156.62" y1="46.08" x2="156.62" y2="123.85"/><line class="cls-45" x1="174.32" y1="52.81" x2="174.32" y2="123.85"/><line class="cls-46" x1="192.02" y1="85.98" x2="192.02" y2="123.85"/><line class="cls-47" x1="209.72" y1="60.87" x2="209.72" y2="123.85"/><line class="cls-48" x1="227.42" y1="64.24" x2="227.42" y2="123.85"/><line class="cls-49" x1="245.11" y1="52.81" x2="245.11" y2="123.85"/><line class="cls-50" x1="262.81" y1="46.08" x2="262.81" y2="123.85"/></g><line class="cls-51" x1="32.74" y1="78.67" x2="32.74" y2="123.85"/><line class="cls-52" x1="50.44" y1="79.84" x2="50.44" y2="123.85"/><line class="cls-53" x1="68.14" y1="83.75" x2="68.14" y2="123.85"/><line class="cls-54" x1="85.83" y1="87.26" x2="85.83" y2="123.85"/><line class="cls-55" x1="103.53" y1="91.17" x2="103.53" y2="123.85"/><line class="cls-56" x1="121.23" y1="95.08" x2="121.23" y2="123.85"/><line class="cls-57" x1="138.93" y1="87.26" x2="138.93" y2="123.85"/><line class="cls-58" x1="156.62" y1="78.67" x2="156.62" y2="123.85"/><line class="cls-59" x1="174.32" y1="82.57" x2="174.32" y2="123.85"/><line class="cls-60" x1="192.02" y1="101.85" x2="192.02" y2="123.85"/><line class="cls-61" x1="209.72" y1="87.26" x2="209.72" y2="123.85"/><line class="cls-62" x1="227.42" y1="89.22" x2="227.42" y2="123.85"/><line class="cls-63" x1="245.11" y1="82.57" x2="245.11" y2="123.85"/><line class="cls-64" x1="262.81" y1="73.47" x2="262.81" y2="123.85"/><g class="cls-2"><line class="cls-65" x1="280.46" y1="87.77" x2="280.46" y2="123.85"/><line class="cls-66" x1="298.16" y1="77.68" x2="298.16" y2="123.85"/><line class="cls-67" x1="315.85" y1="60.87" x2="315.85" y2="123.85"/><line class="cls-68" x1="333.55" y1="46.08" x2="333.55" y2="123.85"/><line class="cls-69" x1="351.25" y1="48.1" x2="351.25" y2="123.85"/><line class="cls-70" x1="368.95" y1="54.82" x2="368.95" y2="123.85"/><line class="cls-71" x1="386.64" y1="60.87" x2="386.64" y2="123.85"/><line class="cls-72" x1="404.34" y1="67.6" x2="404.34" y2="123.85"/><line class="cls-73" x1="422.04" y1="74.32" x2="422.04" y2="123.85"/><line class="cls-74" x1="439.74" y1="60.87" x2="439.74" y2="123.85"/><line class="cls-75" x1="457.44" y1="46.08" x2="457.44" y2="123.85"/><line class="cls-76" x1="475.13" y1="52.81" x2="475.13" y2="123.85"/></g><line class="cls-77" x1="280.46" y1="102.89" x2="280.46" y2="123.85"/><line class="cls-78" x1="298.16" y1="97.03" x2="298.16" y2="123.85"/><line class="cls-79" x1="315.85" y1="87.26" x2="315.85" y2="123.85"/><line class="cls-80" x1="333.55" y1="78.67" x2="333.55" y2="123.85"/><line class="cls-81" x1="351.25" y1="79.84" x2="351.25" y2="123.85"/><line class="cls-82" x1="368.95" y1="83.75" x2="368.95" y2="123.85"/><line class="cls-83" x1="386.64" y1="87.26" x2="386.64" y2="123.85"/><line class="cls-84" x1="404.34" y1="91.17" x2="404.34" y2="123.85"/><line class="cls-85" x1="422.04" y1="95.08" x2="422.04" y2="123.85"/><line class="cls-86" x1="439.74" y1="87.26" x2="439.74" y2="123.85"/><line class="cls-87" x1="457.44" y1="78.67" x2="457.44" y2="123.85"/><line class="cls-88" x1="475.13" y1="82.57" x2="475.13" y2="123.85"/></svg>