<svg id="Capa_1" data-name="Capa 1" xmlns="http://www.w3.org/2000/svg" xmlns:xlink="http://www.w3.org/1999/xlink" viewBox="0 0 247.37 467.85"><defs><style>.cls-1{fill:#1a1a1a;opacity:0.35;}.cls-2{opacity:0.15;}.cls-3{fill:#fff;}.cls-4{opacity:0.5;fill:url(#linear-gradient);}</style><linearGradient id="linear-gradient" x1="53.41" y1="233.92" x2="193.96" y2="233.92" gradientUnits="userSpaceOnUse"><stop offset="0" stop-color="#0dfcfe"/><stop offset="1" stop-color="#27a0f5"/></linearGradient></defs><rect class="cls-1" width="247.37" height="467.85"/><g class="cls-2"><path class="cls-3" d="M231,19H16.34a.23.23,0,0,0-.23.22V233.91h0V448.6a.24.24,0,0,0,.23.24H231a.23.23,0,0,0,.23-.24V233.92h0V19.23A.22.22,0,0,0,231,19Zm-8,.46h7.8v7.79H223Zm0,8.25h7.8v7.8H223ZM223,36h7.8v7.8H223Zm0,8.26h7.8V52H223Zm0,8.26h7.8v7.79H223Zm0,8.25h7.8v7.8H223ZM223,69h7.8v7.8H223Zm0,8.26h7.8v7.79H223Zm0,8.26h7.8v7.79H223Zm0,8.25h7.8v7.8H223Zm0,8.26h7.8v7.8H223Zm0,8.26h7.8v7.79H223Zm0,8.25h7.8v7.8H223Zm0,8.26h7.8v7.8H223Zm0,8.26h7.8v7.8H223Zm0,8.26h7.8v7.79H223Zm0,8.25h7.8v7.8H223Zm0,8.26h7.8v7.8H223Zm0,8.26h7.8v7.8H223Zm0,8.26h7.8v7.79H223Zm0,8.25h7.8v7.8H223Zm0,8.26h7.8v7.8H223Zm0,8.26h7.8v7.8H223Zm0,8.26h7.8v7.79H223Zm0,8.25h7.8v7.8H223Zm7.8,8.26v7.79H223V225.9ZM214.75,19.47h7.8v7.79h-7.8Zm0,8.25h7.8v7.8h-7.8Zm0,8.26h7.8v7.8h-7.8Zm0,8.26h7.8V52h-7.8Zm0,8.26h7.8v7.79h-7.8Zm0,8.25h7.8v7.8h-7.8Zm0,8.26h7.8v7.8h-7.8Zm0,8.26h7.8v7.79h-7.8Zm0,8.26h7.8v7.79h-7.8Zm0,8.25h7.8v7.8h-7.8Zm0,8.26h7.8v7.8h-7.8Zm0,8.26h7.8v7.79h-7.8Zm0,8.25h7.8v7.8h-7.8Zm0,8.26h7.8v7.8h-7.8Zm0,8.26h7.8v7.8h-7.8Zm0,8.26h7.8v7.79h-7.8Zm0,8.25h7.8v7.8h-7.8Zm0,8.26h7.8v7.8h-7.8Zm0,8.26h7.8v7.8h-7.8Zm0,8.26h7.8v7.79h-7.8Zm0,8.25h7.8v7.8h-7.8Zm0,8.26h7.8v7.8h-7.8Zm0,8.26h7.8v7.8h-7.8Zm0,8.26h7.8v7.79h-7.8Zm0,8.25h7.8v7.8h-7.8Zm7.8,8.26v7.79h-7.8V225.9ZM206.49,19.47h7.8v7.79h-7.8Zm0,8.25h7.8v7.8h-7.8Zm0,8.26h7.8v7.8h-7.8Zm0,8.26h7.8V52h-7.8Zm0,8.26h7.8v7.79h-7.8Zm0,8.25h7.8v7.8h-7.8Zm0,8.26h7.8v7.8h-7.8Zm0,8.26h7.8v7.79h-7.8Zm0,8.26h7.8v7.79h-7.8Zm0,8.25h7.8v7.8h-7.8Zm0,8.26h7.8v7.8h-7.8Zm0,8.26h7.8v7.79h-7.8Zm0,8.25h7.8v7.8h-7.8Zm0,8.26h7.8v7.8h-7.8Zm0,8.26h7.8v7.8h-7.8Zm0,8.26h7.8v7.79h-7.8Zm0,8.25h7.8v7.8h-7.8Zm0,8.26h7.8v7.8h-7.8Zm0,8.26h7.8v7.8h-7.8Zm0,8.26h7.8v7.79h-7.8Zm0,8.25h7.8v7.8h-7.8Zm0,8.26h7.8v7.8h-7.8Zm0,8.26h7.8v7.8h-7.8Zm0,8.26h7.8v7.79h-7.8Zm0,8.25h7.8v7.8h-7.8Zm7.8,8.26v7.79h-7.8V225.9ZM198.23,19.47H206v7.79h-7.8Zm0,8.25H206v7.8h-7.8Zm0,8.26H206v7.8h-7.8Zm0,8.26H206V52h-7.8Zm0,8.26H206v7.79h-7.8Zm0,8.25H206v7.8h-7.8Zm0,8.26H206v7.8h-7.8Zm0,8.26H206v7.79h-7.8Zm0,8.26H206v7.79h-7.8Zm0,8.25H206v7.8h-7.8Zm0,8.26H206v7.8h-7.8Zm0,8.26H206v7.79h-7.8Zm0,8.25H206v7.8h-7.8Zm0,8.26H206v7.8h-7.8Zm0,8.26H206v7.8h-7.8Zm0,8.26H206v7.79h-7.8Zm0,8.25H206v7.8h-7.8Zm0,8.26H206v7.8h-7.8Zm0,8.26H206v7.8h-7.8Zm0,8.26H206v7.79h-7.8Zm0,8.25H206v7.8h-7.8Zm0,8.26H206v7.8h-7.8Zm0,8.26H206v7.8h-7.8Zm0,8.26H206v7.79h-7.8Zm0,8.25H206v7.8h-7.8Zm7.8,8.26v7.79h-7.8V225.9ZM190,19.47h7.8v7.79H190Zm0,8.25h7.8v7.8H190ZM190,36h7.8v7.8H190Zm0,8.26h7.8V52H190Zm0,8.26h7.8v7.79H190Zm0,8.25h7.8v7.8H190ZM190,69h7.8v7.8H190Zm0,8.26h7.8v7.79H190Zm0,8.26h7.8v7.79H190Zm0,8.25h7.8v7.8H190Zm0,8.26h7.8v7.8H190Zm0,8.26h7.8v7.79H190Zm0,8.25h7.8v7.8H190Zm0,8.26h7.8v7.8H190Zm0,8.26h7.8v7.8H190Zm0,8.26h7.8v7.79H190Zm0,8.25h7.8v7.8H190Zm0,8.26h7.8v7.8H190Zm0,8.26h7.8v7.8H190Zm0,8.26h7.8v7.79H190Zm0,8.25h7.8v7.8H190Zm0,8.26h7.8v7.8H190Zm0,8.26h7.8v7.8H190Zm0,8.26h7.8v7.79H190Zm0,8.25h7.8v7.8H190Zm7.8,8.26v7.79H190V225.9ZM181.72,19.47h7.8v7.79h-7.8Zm0,8.25h7.8v7.8h-7.8Zm0,8.26h7.8v7.8h-7.8Zm0,8.26h7.8V52h-7.8Zm0,8.26h7.8v7.79h-7.8Zm0,8.25h7.8v7.8h-7.8Zm0,8.26h7.8v7.8h-7.8Zm0,8.26h7.8v7.79h-7.8Zm0,8.26h7.8v7.79h-7.8Zm0,8.25h7.8v7.8h-7.8Zm0,8.26h7.8v7.8h-7.8Zm0,8.26h7.8v7.79h-7.8Zm0,8.25h7.8v7.8h-7.8Zm0,8.26h7.8v7.8h-7.8Zm0,8.26h7.8v7.8h-7.8Zm0,8.26h7.8v7.79h-7.8Zm0,8.25h7.8v7.8h-7.8Zm0,8.26h7.8v7.8h-7.8Zm0,8.26h7.8v7.8h-7.8Zm0,8.26h7.8v7.79h-7.8Zm0,8.25h7.8v7.8h-7.8Zm0,8.26h7.8v7.8h-7.8Zm0,8.26h7.8v7.8h-7.8Zm0,8.26h7.8v7.79h-7.8Zm0,8.25h7.8v7.8h-7.8Zm7.8,8.26v7.79h-7.8V225.9ZM173.46,19.47h7.8v7.79h-7.8Zm0,8.25h7.8v7.8h-7.8Zm0,8.26h7.8v7.8h-7.8Zm0,8.26h7.8V52h-7.8Zm0,8.26h7.8v7.79h-7.8Zm0,8.25h7.8v7.8h-7.8Zm0,8.26h7.8v7.8h-7.8Zm0,8.26h7.8v7.79h-7.8Zm0,8.26h7.8v7.79h-7.8Zm0,8.25h7.8v7.8h-7.8Zm0,8.26h7.8v7.8h-7.8Zm0,8.26h7.8v7.79h-7.8Zm0,8.25h7.8v7.8h-7.8Zm0,8.26h7.8v7.8h-7.8Zm0,8.26h7.8v7.8h-7.8Zm0,8.26h7.8v7.79h-7.8Zm0,8.25h7.8v7.8h-7.8Zm0,8.26h7.8v7.8h-7.8Zm0,8.26h7.8v7.8h-7.8Zm0,8.26h7.8v7.79h-7.8Zm0,8.25h7.8v7.8h-7.8Zm0,8.26h7.8v7.8h-7.8Zm0,8.26h7.8v7.8h-7.8Zm0,8.26h7.8v7.79h-7.8Zm0,8.25h7.8v7.8h-7.8Zm7.8,8.26v7.79h-7.8V225.9ZM165.2,19.47H173v7.79h-7.8Zm0,8.25H173v7.8h-7.8Zm0,8.26H173v7.8h-7.8Zm0,8.26H173V52h-7.8Zm0,8.26H173v7.79h-7.8Zm0,8.25H173v7.8h-7.8Zm0,8.26H173v7.8h-7.8Zm0,8.26H173v7.79h-7.8Zm0,8.26H173v7.79h-7.8Zm0,8.25H173v7.8h-7.8Zm0,8.26H173v7.8h-7.8Zm0,8.26H173v7.79h-7.8Zm0,8.25H173v7.8h-7.8Zm0,8.26H173v7.8h-7.8Zm0,8.26H173v7.8h-7.8Zm0,8.26H173v7.79h-7.8Zm0,8.25H173v7.8h-7.8Zm0,8.26H173v7.8h-7.8Zm0,8.26H173v7.8h-7.8Zm0,8.26H173v7.79h-7.8Zm0,8.25H173v7.8h-7.8Zm0,8.26H173v7.8h-7.8Zm0,8.26H173v7.8h-7.8Zm0,8.26H173v7.79h-7.8Zm0,8.25H173v7.8h-7.8Zm7.8,8.26v7.79h-7.8V225.9ZM156.94,19.47h7.8v7.79h-7.8Zm0,8.25h7.8v7.8h-7.8Zm0,8.26h7.8v7.8h-7.8Zm0,8.26h7.8V52h-7.8Zm0,8.26h7.8v7.79h-7.8Zm0,8.25h7.8v7.8h-7.8Zm0,8.26h7.8v7.8h-7.8Zm0,8.26h7.8v7.79h-7.8Zm0,8.26h7.8v7.79h-7.8Zm0,8.25h7.8v7.8h-7.8Zm0,8.26h7.8v7.8h-7.8Zm0,8.26h7.8v7.79h-7.8Zm0,8.25h7.8v7.8h-7.8Zm0,8.26h7.8v7.8h-7.8Zm0,8.26h7.8v7.8h-7.8Zm0,8.26h7.8v7.79h-7.8Zm0,8.25h7.8v7.8h-7.8Zm0,8.26h7.8v7.8h-7.8Zm0,8.26h7.8v7.8h-7.8Zm0,8.26h7.8v7.79h-7.8Zm0,8.25h7.8v7.8h-7.8Zm0,8.26h7.8v7.8h-7.8Zm0,8.26h7.8v7.8h-7.8Zm0,8.26h7.8v7.79h-7.8Zm0,8.25h7.8v7.8h-7.8Zm7.8,8.26v7.79h-7.8V225.9ZM148.69,19.47h7.8v7.79h-7.8Zm0,8.25h7.8v7.8h-7.8Zm0,8.26h7.8v7.8h-7.8Zm0,8.26h7.8V52h-7.8Zm0,8.26h7.8v7.79h-7.8Zm0,8.25h7.8v7.8h-7.8Zm0,8.26h7.8v7.8h-7.8Zm0,8.26h7.8v7.79h-7.8Zm0,8.26h7.8v7.79h-7.8Zm0,8.25h7.8v7.8h-7.8Zm0,8.26h7.8v7.8h-7.8Zm0,8.26h7.8v7.79h-7.8Zm0,8.25h7.8v7.8h-7.8Zm0,8.26h7.8v7.8h-7.8Zm0,8.26h7.8v7.8h-7.8Zm0,8.26h7.8v7.79h-7.8Zm0,8.25h7.8v7.8h-7.8Zm0,8.26h7.8v7.8h-7.8Zm0,8.26h7.8v7.8h-7.8Zm0,8.26h7.8v7.79h-7.8Zm0,8.25h7.8v7.8h-7.8Zm0,8.26h7.8v7.8h-7.8Zm0,8.26h7.8v7.8h-7.8Zm0,8.26h7.8v7.79h-7.8Zm0,8.25h7.8v7.8h-7.8Zm7.8,8.26v7.79h-7.8V225.9ZM140.43,19.47h7.8v7.79h-7.8Zm0,8.25h7.8v7.8h-7.8Zm0,8.26h7.8v7.8h-7.8Zm0,8.26h7.8V52h-7.8Zm0,8.26h7.8v7.79h-7.8Zm0,8.25h7.8v7.8h-7.8Zm0,8.26h7.8v7.8h-7.8Zm0,8.26h7.8v7.79h-7.8Zm0,8.26h7.8v7.79h-7.8Zm0,8.25h7.8v7.8h-7.8Zm0,8.26h7.8v7.8h-7.8Zm0,8.26h7.8v7.79h-7.8Zm0,8.25h7.8v7.8h-7.8Zm0,8.26h7.8v7.8h-7.8Zm0,8.26h7.8v7.8h-7.8Zm0,8.26h7.8v7.79h-7.8Zm0,8.25h7.8v7.8h-7.8Zm0,8.26h7.8v7.8h-7.8Zm0,8.26h7.8v7.8h-7.8Zm0,8.26h7.8v7.79h-7.8Zm0,8.25h7.8v7.8h-7.8Zm0,8.26h7.8v7.8h-7.8Zm0,8.26h7.8v7.8h-7.8Zm0,8.26h7.8v7.79h-7.8Zm0,8.25h7.8v7.8h-7.8Zm7.8,8.26v7.79h-7.8V225.9ZM132.17,19.47H140v7.79h-7.8Zm0,8.25H140v7.8h-7.8Zm0,8.26H140v7.8h-7.8Zm0,8.26H140V52h-7.8Zm0,8.26H140v7.79h-7.8Zm0,8.25H140v7.8h-7.8Zm0,8.26H140v7.8h-7.8Zm0,8.26H140v7.79h-7.8Zm0,8.26H140v7.79h-7.8Zm0,8.25H140v7.8h-7.8Zm0,8.26H140v7.8h-7.8Zm0,8.26H140v7.79h-7.8Zm0,8.25H140v7.8h-7.8Zm0,8.26H140v7.8h-7.8Zm0,8.26H140v7.8h-7.8Zm0,8.26H140v7.79h-7.8Zm0,8.25H140v7.8h-7.8Zm0,8.26H140v7.8h-7.8Zm0,8.26H140v7.8h-7.8Zm0,8.26H140v7.79h-7.8Zm0,8.25H140v7.8h-7.8Zm0,8.26H140v7.8h-7.8Zm0,8.26H140v7.8h-7.8Zm0,8.26H140v7.79h-7.8Zm0,8.25H140v7.8h-7.8Zm7.8,8.26v7.79h-7.8V225.9ZM123.91,19.47h7.8v7.79h-7.8Zm0,8.25h7.8v7.8h-7.8Zm0,8.26h7.8v7.8h-7.8Zm0,8.26h7.8V52h-7.8Zm0,8.26h7.8v7.79h-7.8Zm0,8.25h7.8v7.8h-7.8Zm0,8.26h7.8v7.8h-7.8Zm0,8.26h7.8v7.79h-7.8Zm0,8.26h7.8v7.79h-7.8Zm0,8.25h7.8v7.8h-7.8Zm0,8.26h7.8v7.8h-7.8Zm0,8.26h7.8v7.79h-7.8Zm0,8.25h7.8v7.8h-7.8Zm0,8.26h7.8v7.8h-7.8Zm0,8.26h7.8v7.8h-7.8Zm0,8.26h7.8v7.79h-7.8Zm0,8.25h7.8v7.8h-7.8Zm0,8.26h7.8v7.8h-7.8Zm0,8.26h7.8v7.8h-7.8Zm0,8.26h7.8v7.79h-7.8Zm0,8.25h7.8v7.8h-7.8Zm0,8.26h7.8v7.8h-7.8Zm0,8.26h7.8v7.8h-7.8Zm0,8.26h7.8v7.79h-7.8Zm0,8.25h7.8v7.8h-7.8Zm7.8,8.26v7.79h-7.8V225.9ZM115.66,19.47h7.8v7.79h-7.8Zm0,8.25h7.8v7.8h-7.8Zm0,8.26h7.8v7.8h-7.8Zm0,8.26h7.8V52h-7.8Zm0,8.26h7.8v7.79h-7.8Zm0,8.25h7.8v7.8h-7.8Zm0,8.26h7.8v7.8h-7.8Zm0,8.26h7.8v7.79h-7.8Zm0,8.26h7.8v7.79h-7.8Zm0,8.25h7.8v7.8h-7.8Zm0,8.26h7.8v7.8h-7.8Zm0,8.26h7.8v7.79h-7.8Zm0,8.25h7.8v7.8h-7.8Zm0,8.26h7.8v7.8h-7.8Zm0,8.26h7.8v7.8h-7.8Zm0,8.26h7.8v7.79h-7.8Zm0,8.25h7.8v7.8h-7.8Zm0,8.26h7.8v7.8h-7.8Zm0,8.26h7.8v7.8h-7.8Zm0,8.26h7.8v7.79h-7.8Zm0,8.25h7.8v7.8h-7.8Zm0,8.26h7.8v7.8h-7.8Zm0,8.26h7.8v7.8h-7.8Zm0,8.26h7.8v7.79h-7.8Zm0,8.25h7.8v7.8h-7.8Zm7.8,8.26v7.79h-7.8V225.9ZM107.4,19.47h7.8v7.79h-7.8Zm0,8.25h7.8v7.8h-7.8Zm0,8.26h7.8v7.8h-7.8Zm0,8.26h7.8V52h-7.8Zm0,8.26h7.8v7.79h-7.8Zm0,8.25h7.8v7.8h-7.8Zm0,8.26h7.8v7.8h-7.8Zm0,8.26h7.8v7.79h-7.8Zm0,8.26h7.8v7.79h-7.8Zm0,8.25h7.8v7.8h-7.8Zm0,8.26h7.8v7.8h-7.8Zm0,8.26h7.8v7.79h-7.8Zm0,8.25h7.8v7.8h-7.8Zm0,8.26h7.8v7.8h-7.8Zm0,8.26h7.8v7.8h-7.8Zm0,8.26h7.8v7.79h-7.8Zm0,8.25h7.8v7.8h-7.8Zm0,8.26h7.8v7.8h-7.8Zm0,8.26h7.8v7.8h-7.8Zm0,8.26h7.8v7.79h-7.8Zm0,8.25h7.8v7.8h-7.8Zm0,8.26h7.8v7.8h-7.8Zm0,8.26h7.8v7.8h-7.8Zm0,8.26h7.8v7.79h-7.8Zm0,8.25h7.8v7.8h-7.8Zm7.8,8.26v7.79h-7.8V225.9ZM99.14,19.47h7.8v7.79h-7.8Zm0,8.25h7.8v7.8h-7.8Zm0,8.26h7.8v7.8h-7.8Zm0,8.26h7.8V52h-7.8Zm0,8.26h7.8v7.79h-7.8Zm0,8.25h7.8v7.8h-7.8Zm0,8.26h7.8v7.8h-7.8Zm0,8.26h7.8v7.79h-7.8Zm0,8.26h7.8v7.79h-7.8Zm0,8.25h7.8v7.8h-7.8Zm0,8.26h7.8v7.8h-7.8Zm0,8.26h7.8v7.79h-7.8Zm0,8.25h7.8v7.8h-7.8Zm0,8.26h7.8v7.8h-7.8Zm0,8.26h7.8v7.8h-7.8Zm0,8.26h7.8v7.79h-7.8Zm0,8.25h7.8v7.8h-7.8Zm0,8.26h7.8v7.8h-7.8Zm0,8.26h7.8v7.8h-7.8Zm0,8.26h7.8v7.79h-7.8Zm0,8.25h7.8v7.8h-7.8Zm0,8.26h7.8v7.8h-7.8Zm0,8.26h7.8v7.8h-7.8Zm0,8.26h7.8v7.79h-7.8Zm0,8.25h7.8v7.8h-7.8Zm7.8,8.26v7.79h-7.8V225.9Zm-16-206.43h7.8v7.79h-7.8Zm0,8.25h7.8v7.8h-7.8Zm0,8.26h7.8v7.8h-7.8Zm0,8.26h7.8V52h-7.8Zm0,8.26h7.8v7.79h-7.8Zm0,8.25h7.8v7.8h-7.8Zm0,8.26h7.8v7.8h-7.8Zm0,8.26h7.8v7.79h-7.8Zm0,8.26h7.8v7.79h-7.8Zm0,8.25h7.8v7.8h-7.8Zm0,8.26h7.8v7.8h-7.8Zm0,8.26h7.8v7.79h-7.8Zm0,8.25h7.8v7.8h-7.8Zm0,8.26h7.8v7.8h-7.8Zm0,8.26h7.8v7.8h-7.8Zm0,8.26h7.8v7.79h-7.8Zm0,8.25h7.8v7.8h-7.8Zm0,8.26h7.8v7.8h-7.8Zm0,8.26h7.8v7.8h-7.8Zm0,8.26h7.8v7.79h-7.8Zm0,8.25h7.8v7.8h-7.8Zm0,8.26h7.8v7.8h-7.8Zm0,8.26h7.8v7.8h-7.8Zm0,8.26h7.8v7.79h-7.8Zm0,8.25h7.8v7.8h-7.8Zm7.8,8.26v7.79h-7.8V225.9ZM82.63,19.47h7.8v7.79h-7.8Zm0,8.25h7.8v7.8h-7.8Zm0,8.26h7.8v7.8h-7.8Zm0,8.26h7.8V52h-7.8Zm0,8.26h7.8v7.79h-7.8Zm0,8.25h7.8v7.8h-7.8Zm0,8.26h7.8v7.8h-7.8Zm0,8.26h7.8v7.79h-7.8Zm0,8.26h7.8v7.79h-7.8Zm0,8.25h7.8v7.8h-7.8Zm0,8.26h7.8v7.8h-7.8Zm0,8.26h7.8v7.79h-7.8Zm0,8.25h7.8v7.8h-7.8Zm0,8.26h7.8v7.8h-7.8Zm0,8.26h7.8v7.8h-7.8Zm0,8.26h7.8v7.79h-7.8Zm0,8.25h7.8v7.8h-7.8Zm0,8.26h7.8v7.8h-7.8Zm0,8.26h7.8v7.8h-7.8Zm0,8.26h7.8v7.79h-7.8Zm0,8.25h7.8v7.8h-7.8Zm0,8.26h7.8v7.8h-7.8Zm0,8.26h7.8v7.8h-7.8Zm0,8.26h7.8v7.79h-7.8Zm0,8.25h7.8v7.8h-7.8Zm7.8,8.26v7.79h-7.8V225.9ZM74.37,19.47h7.8v7.79h-7.8Zm0,8.25h7.8v7.8h-7.8Zm0,8.26h7.8v7.8h-7.8Zm0,8.26h7.8V52h-7.8Zm0,8.26h7.8v7.79h-7.8Zm0,8.25h7.8v7.8h-7.8Zm0,8.26h7.8v7.8h-7.8Zm0,8.26h7.8v7.79h-7.8Zm0,8.26h7.8v7.79h-7.8Zm0,8.25h7.8v7.8h-7.8Zm0,8.26h7.8v7.8h-7.8Zm0,8.26h7.8v7.79h-7.8Zm0,8.25h7.8v7.8h-7.8Zm0,8.26h7.8v7.8h-7.8Zm0,8.26h7.8v7.8h-7.8Zm0,8.26h7.8v7.79h-7.8Zm0,8.25h7.8v7.8h-7.8Zm0,8.26h7.8v7.8h-7.8Zm0,8.26h7.8v7.8h-7.8Zm0,8.26h7.8v7.79h-7.8Zm0,8.25h7.8v7.8h-7.8Zm0,8.26h7.8v7.8h-7.8Zm0,8.26h7.8v7.8h-7.8Zm0,8.26h7.8v7.79h-7.8Zm0,8.25h7.8v7.8h-7.8Zm7.8,8.26v7.79h-7.8V225.9ZM66.11,19.47h7.8v7.79h-7.8Zm0,8.25h7.8v7.8h-7.8Zm0,8.26h7.8v7.8h-7.8Zm0,8.26h7.8V52h-7.8Zm0,8.26h7.8v7.79h-7.8Zm0,8.25h7.8v7.8h-7.8Zm0,8.26h7.8v7.8h-7.8Zm0,8.26h7.8v7.79h-7.8Zm0,8.26h7.8v7.79h-7.8Zm0,8.25h7.8v7.8h-7.8Zm0,8.26h7.8v7.8h-7.8Zm0,8.26h7.8v7.79h-7.8Zm0,8.25h7.8v7.8h-7.8Zm0,8.26h7.8v7.8h-7.8Zm0,8.26h7.8v7.8h-7.8Zm0,8.26h7.8v7.79h-7.8Zm0,8.25h7.8v7.8h-7.8Zm0,8.26h7.8v7.8h-7.8Zm0,8.26h7.8v7.8h-7.8Zm0,8.26h7.8v7.79h-7.8Zm0,8.25h7.8v7.8h-7.8Zm0,8.26h7.8v7.8h-7.8Zm0,8.26h7.8v7.8h-7.8Zm0,8.26h7.8v7.79h-7.8Zm0,8.25h7.8v7.8h-7.8Zm7.8,8.26v7.79h-7.8V225.9Zm-16-206.43h7.8v7.79h-7.8Zm0,8.25h7.8v7.8h-7.8Zm0,8.26h7.8v7.8h-7.8Zm0,8.26h7.8V52h-7.8Zm0,8.26h7.8v7.79h-7.8Zm0,8.25h7.8v7.8h-7.8Zm0,8.26h7.8v7.8h-7.8Zm0,8.26h7.8v7.79h-7.8Zm0,8.26h7.8v7.79h-7.8Zm0,8.25h7.8v7.8h-7.8Zm0,8.26h7.8v7.8h-7.8Zm0,8.26h7.8v7.79h-7.8Zm0,8.25h7.8v7.8h-7.8Zm0,8.26h7.8v7.8h-7.8Zm0,8.26h7.8v7.8h-7.8Zm0,8.26h7.8v7.79h-7.8Zm0,8.25h7.8v7.8h-7.8Zm0,8.26h7.8v7.8h-7.8Zm0,8.26h7.8v7.8h-7.8Zm0,8.26h7.8v7.79h-7.8Zm0,8.25h7.8v7.8h-7.8Zm0,8.26h7.8v7.8h-7.8Zm0,8.26h7.8v7.8h-7.8Zm0,8.26h7.8v7.79h-7.8Zm0,8.25h7.8v7.8h-7.8Zm7.8,8.26v7.79h-7.8V225.9ZM49.6,19.47h7.8v7.79H49.6Zm0,8.25h7.8v7.8H49.6Zm0,8.26h7.8v7.8H49.6Zm0,8.26h7.8V52H49.6Zm0,8.26h7.8v7.79H49.6Zm0,8.25h7.8v7.8H49.6Zm0,8.26h7.8v7.8H49.6Zm0,8.26h7.8v7.79H49.6Zm0,8.26h7.8v7.79H49.6Zm0,8.25h7.8v7.8H49.6Zm0,8.26h7.8v7.8H49.6Zm0,8.26h7.8v7.79H49.6Zm0,8.25h7.8v7.8H49.6Zm0,8.26h7.8v7.8H49.6Zm0,8.26h7.8v7.8H49.6Zm0,8.26h7.8v7.79H49.6Zm0,8.25h7.8v7.8H49.6Zm0,8.26h7.8v7.8H49.6Zm0,8.26h7.8v7.8H49.6Zm0,8.26h7.8v7.79H49.6Zm0,8.25h7.8v7.8H49.6Zm0,8.26h7.8v7.8H49.6Zm0,8.26h7.8v7.8H49.6Zm0,8.26h7.8v7.79H49.6Zm0,8.25h7.8v7.8H49.6Zm7.8,8.26v7.79H49.6V225.9ZM41.34,19.47h7.8v7.79h-7.8Zm0,8.25h7.8v7.8h-7.8Zm0,8.26h7.8v7.8h-7.8Zm0,8.26h7.8V52h-7.8Zm0,8.26h7.8v7.79h-7.8Zm0,8.25h7.8v7.8h-7.8Zm0,8.26h7.8v7.8h-7.8Zm0,8.26h7.8v7.79h-7.8Zm0,8.26h7.8v7.79h-7.8Zm0,8.25h7.8v7.8h-7.8Zm0,8.26h7.8v7.8h-7.8Zm0,8.26h7.8v7.79h-7.8Zm0,8.25h7.8v7.8h-7.8Zm0,8.26h7.8v7.8h-7.8Zm0,8.26h7.8v7.8h-7.8Zm0,8.26h7.8v7.79h-7.8Zm0,8.25h7.8v7.8h-7.8Zm0,8.26h7.8v7.8h-7.8Zm0,8.26h7.8v7.8h-7.8Zm0,8.26h7.8v7.79h-7.8Zm0,8.25h7.8v7.8h-7.8Zm0,8.26h7.8v7.8h-7.8Zm0,8.26h7.8v7.8h-7.8Zm0,8.26h7.8v7.79h-7.8Zm0,8.25h7.8v7.8h-7.8Zm7.8,8.26v7.79h-7.8V225.9ZM33.08,19.47h7.8v7.79h-7.8Zm0,8.25h7.8v7.8h-7.8Zm0,8.26h7.8v7.8h-7.8Zm0,8.26h7.8V52h-7.8Zm0,8.26h7.8v7.79h-7.8Zm0,8.25h7.8v7.8h-7.8Zm0,8.26h7.8v7.8h-7.8Zm0,8.26h7.8v7.79h-7.8Zm0,8.26h7.8v7.79h-7.8Zm0,8.25h7.8v7.8h-7.8Zm0,8.26h7.8v7.8h-7.8Zm0,8.26h7.8v7.79h-7.8Zm0,8.25h7.8v7.8h-7.8Zm0,8.26h7.8v7.8h-7.8Zm0,8.26h7.8v7.8h-7.8Zm0,8.26h7.8v7.79h-7.8Zm0,8.25h7.8v7.8h-7.8Zm0,8.26h7.8v7.8h-7.8Zm0,8.26h7.8v7.8h-7.8Zm0,8.26h7.8v7.79h-7.8Zm0,8.25h7.8v7.8h-7.8Zm0,8.26h7.8v7.8h-7.8Zm0,8.26h7.8v7.8h-7.8Zm0,8.26h7.8v7.79h-7.8Zm0,8.25h7.8v7.8h-7.8Zm7.8,8.26v7.79h-7.8V225.9ZM24.83,19.47h7.8v7.79h-7.8Zm0,8.25h7.8v7.8h-7.8Zm0,8.26h7.8v7.8h-7.8Zm0,8.26h7.8V52h-7.8Zm0,8.26h7.8v7.79h-7.8Zm0,8.25h7.8v7.8h-7.8Zm0,8.26h7.8v7.8h-7.8Zm0,8.26h7.8v7.79h-7.8Zm0,8.26h7.8v7.79h-7.8Zm0,8.25h7.8v7.8h-7.8Zm0,8.26h7.8v7.8h-7.8Zm0,8.26h7.8v7.79h-7.8Zm0,8.25h7.8v7.8h-7.8Zm0,8.26h7.8v7.8h-7.8Zm0,8.26h7.8v7.8h-7.8Zm0,8.26h7.8v7.79h-7.8Zm0,8.25h7.8v7.8h-7.8Zm0,8.26h7.8v7.8h-7.8Zm0,8.26h7.8v7.8h-7.8Zm0,8.26h7.8v7.79h-7.8Zm0,8.25h7.8v7.8h-7.8Zm0,8.26h7.8v7.8h-7.8Zm0,8.26h7.8v7.8h-7.8Zm0,8.26h7.8v7.79h-7.8Zm0,8.25h7.8v7.8h-7.8Zm7.8,8.26v7.79h-7.8V225.9ZM16.57,19.47h7.8v7.79h-7.8Zm0,8.25h7.8v7.8h-7.8Zm0,8.26h7.8v7.8h-7.8Zm0,8.26h7.8V52h-7.8Zm0,8.26h7.8v7.79h-7.8Zm0,8.25h7.8v7.8h-7.8Zm0,8.26h7.8v7.8h-7.8Zm0,8.26h7.8v7.79h-7.8Zm0,8.26h7.8v7.79h-7.8Zm0,8.25h7.8v7.8h-7.8Zm0,8.26h7.8v7.8h-7.8Zm0,8.26h7.8v7.79h-7.8Zm0,8.25h7.8v7.8h-7.8Zm0,8.26h7.8v7.8h-7.8Zm0,8.26h7.8v7.8h-7.8Zm0,8.26h7.8v7.79h-7.8Zm0,8.25h7.8v7.8h-7.8Zm0,8.26h7.8v7.8h-7.8Zm0,8.26h7.8v7.8h-7.8Zm0,8.26h7.8v7.79h-7.8Zm0,8.25h7.8v7.8h-7.8Zm0,8.26h7.8v7.8h-7.8Zm0,8.26h7.8v7.8h-7.8Zm0,8.26h7.8v7.79h-7.8Zm0,8.25h7.8v7.8h-7.8Zm7.8,8.26v7.79h-7.8V225.9Zm0,222.47h-7.8v-7.79h7.8Zm0-8.25h-7.8v-7.8h7.8Zm0-8.26h-7.8v-7.79h7.8Zm0-8.26h-7.8v-7.79h7.8Zm0-8.26h-7.8v-7.79h7.8Zm0-8.25h-7.8v-7.8h7.8Zm0-8.26h-7.8V391h7.8Zm0-8.26h-7.8v-7.79h7.8Zm0-8.25h-7.8v-7.8h7.8Zm0-8.26h-7.8v-7.8h7.8Zm0-8.26h-7.8V358h7.8Zm0-8.26h-7.8v-7.79h7.8Zm0-8.25h-7.8v-7.8h7.8Zm0-8.26h-7.8v-7.8h7.8Zm0-8.26h-7.8V325h7.8Zm0-8.25h-7.8v-7.8h7.8Zm0-8.26h-7.8v-7.8h7.8Zm0-8.26h-7.8v-7.79h7.8Zm0-8.26h-7.8V292h7.8Zm0-8.25h-7.8v-7.8h7.8Zm0-8.26h-7.8v-7.8h7.8Zm0-8.26h-7.8v-7.79h7.8Zm0-8.26h-7.8v-7.79h7.8Zm0-8.25h-7.8v-7.8h7.8Zm0-8.26h-7.8v-7.8h7.8Zm-7.8-8.26v-7.78h7.8v7.78ZM32.63,448.37h-7.8v-7.79h7.8Zm0-8.25h-7.8v-7.8h7.8Zm0-8.26h-7.8v-7.79h7.8Zm0-8.26h-7.8v-7.79h7.8Zm0-8.26h-7.8v-7.79h7.8Zm0-8.25h-7.8v-7.8h7.8Zm0-8.26h-7.8V391h7.8Zm0-8.26h-7.8v-7.79h7.8Zm0-8.25h-7.8v-7.8h7.8Zm0-8.26h-7.8v-7.8h7.8Zm0-8.26h-7.8V358h7.8Zm0-8.26h-7.8v-7.79h7.8Zm0-8.25h-7.8v-7.8h7.8Zm0-8.26h-7.8v-7.8h7.8Zm0-8.26h-7.8V325h7.8Zm0-8.25h-7.8v-7.8h7.8Zm0-8.26h-7.8v-7.8h7.8Zm0-8.26h-7.8v-7.79h7.8Zm0-8.26h-7.8V292h7.8Zm0-8.25h-7.8v-7.8h7.8Zm0-8.26h-7.8v-7.8h7.8Zm0-8.26h-7.8v-7.79h7.8Zm0-8.26h-7.8v-7.79h7.8Zm0-8.25h-7.8v-7.8h7.8Zm0-8.26h-7.8v-7.8h7.8Zm-7.8-8.26v-7.78h7.8v7.78ZM40.88,448.37h-7.8v-7.79h7.8Zm0-8.25h-7.8v-7.8h7.8Zm0-8.26h-7.8v-7.79h7.8Zm0-8.26h-7.8v-7.79h7.8Zm0-8.26h-7.8v-7.79h7.8Zm0-8.25h-7.8v-7.8h7.8Zm0-8.26h-7.8V391h7.8Zm0-8.26h-7.8v-7.79h7.8Zm0-8.25h-7.8v-7.8h7.8Zm0-8.26h-7.8v-7.8h7.8Zm0-8.26h-7.8V358h7.8Zm0-8.26h-7.8v-7.79h7.8Zm0-8.25h-7.8v-7.8h7.8Zm0-8.26h-7.8v-7.8h7.8Zm0-8.26h-7.8V325h7.8Zm0-8.25h-7.8v-7.8h7.8Zm0-8.26h-7.8v-7.8h7.8Zm0-8.26h-7.8v-7.79h7.8Zm0-8.26h-7.8V292h7.8Zm0-8.25h-7.8v-7.8h7.8Zm0-8.26h-7.8v-7.8h7.8Zm0-8.26h-7.8v-7.79h7.8Zm0-8.26h-7.8v-7.79h7.8Zm0-8.25h-7.8v-7.8h7.8Zm0-8.26h-7.8v-7.8h7.8Zm-7.8-8.26v-7.78h7.8v7.78ZM49.14,448.37h-7.8v-7.79h7.8Zm0-8.25h-7.8v-7.8h7.8Zm0-8.26h-7.8v-7.79h7.8Zm0-8.26h-7.8v-7.79h7.8Zm0-8.26h-7.8v-7.79h7.8Zm0-8.25h-7.8v-7.8h7.8Zm0-8.26h-7.8V391h7.8Zm0-8.26h-7.8v-7.79h7.8Zm0-8.25h-7.8v-7.8h7.8Zm0-8.26h-7.8v-7.8h7.8Zm0-8.26h-7.8V358h7.8Zm0-8.26h-7.8v-7.79h7.8Zm0-8.25h-7.8v-7.8h7.8Zm0-8.26h-7.8v-7.8h7.8Zm0-8.26h-7.8V325h7.8Zm0-8.25h-7.8v-7.8h7.8Zm0-8.26h-7.8v-7.8h7.8Zm0-8.26h-7.8v-7.79h7.8Zm0-8.26h-7.8V292h7.8Zm0-8.25h-7.8v-7.8h7.8Zm0-8.26h-7.8v-7.8h7.8Zm0-8.26h-7.8v-7.79h7.8Zm0-8.26h-7.8v-7.79h7.8Zm0-8.25h-7.8v-7.8h7.8Zm0-8.26h-7.8v-7.8h7.8Zm-7.8-8.26v-7.78h7.8v7.78ZM57.4,448.37H49.6v-7.79h7.8Zm0-8.25H49.6v-7.8h7.8Zm0-8.26H49.6v-7.79h7.8Zm0-8.26H49.6v-7.79h7.8Zm0-8.26H49.6v-7.79h7.8Zm0-8.25H49.6v-7.8h7.8Zm0-8.26H49.6V391h7.8Zm0-8.26H49.6v-7.79h7.8Zm0-8.25H49.6v-7.8h7.8Zm0-8.26H49.6v-7.8h7.8Zm0-8.26H49.6V358h7.8Zm0-8.26H49.6v-7.79h7.8Zm0-8.25H49.6v-7.8h7.8Zm0-8.26H49.6v-7.8h7.8Zm0-8.26H49.6V325h7.8Zm0-8.25H49.6v-7.8h7.8Zm0-8.26H49.6v-7.8h7.8Zm0-8.26H49.6v-7.79h7.8Zm0-8.26H49.6V292h7.8Zm0-8.25H49.6v-7.8h7.8Zm0-8.26H49.6v-7.8h7.8Zm0-8.26H49.6v-7.79h7.8Zm0-8.26H49.6v-7.79h7.8Zm0-8.25H49.6v-7.8h7.8Zm0-8.26H49.6v-7.8h7.8Zm-7.8-8.26v-7.78h7.8v7.78ZM65.66,448.37h-7.8v-7.79h7.8Zm0-8.25h-7.8v-7.8h7.8Zm0-8.26h-7.8v-7.79h7.8Zm0-8.26h-7.8v-7.79h7.8Zm0-8.26h-7.8v-7.79h7.8Zm0-8.25h-7.8v-7.8h7.8Zm0-8.26h-7.8V391h7.8Zm0-8.26h-7.8v-7.79h7.8Zm0-8.25h-7.8v-7.8h7.8Zm0-8.26h-7.8v-7.8h7.8Zm0-8.26h-7.8V358h7.8Zm0-8.26h-7.8v-7.79h7.8Zm0-8.25h-7.8v-7.8h7.8Zm0-8.26h-7.8v-7.8h7.8Zm0-8.26h-7.8V325h7.8Zm0-8.25h-7.8v-7.8h7.8Zm0-8.26h-7.8v-7.8h7.8Zm0-8.26h-7.8v-7.79h7.8Zm0-8.26h-7.8V292h7.8Zm0-8.25h-7.8v-7.8h7.8Zm0-8.26h-7.8v-7.8h7.8Zm0-8.26h-7.8v-7.79h7.8Zm0-8.26h-7.8v-7.79h7.8Zm0-8.25h-7.8v-7.8h7.8Zm0-8.26h-7.8v-7.8h7.8Zm-7.8-8.26v-7.78h7.8v7.78Zm16,206.43h-7.8v-7.79h7.8Zm0-8.25h-7.8v-7.8h7.8Zm0-8.26h-7.8v-7.79h7.8Zm0-8.26h-7.8v-7.79h7.8Zm0-8.26h-7.8v-7.79h7.8Zm0-8.25h-7.8v-7.8h7.8Zm0-8.26h-7.8V391h7.8Zm0-8.26h-7.8v-7.79h7.8Zm0-8.25h-7.8v-7.8h7.8Zm0-8.26h-7.8v-7.8h7.8Zm0-8.26h-7.8V358h7.8Zm0-8.26h-7.8v-7.79h7.8Zm0-8.25h-7.8v-7.8h7.8Zm0-8.26h-7.8v-7.8h7.8Zm0-8.26h-7.8V325h7.8Zm0-8.25h-7.8v-7.8h7.8Zm0-8.26h-7.8v-7.8h7.8Zm0-8.26h-7.8v-7.79h7.8Zm0-8.26h-7.8V292h7.8Zm0-8.25h-7.8v-7.8h7.8Zm0-8.26h-7.8v-7.8h7.8Zm0-8.26h-7.8v-7.79h7.8Zm0-8.26h-7.8v-7.79h7.8Zm0-8.25h-7.8v-7.8h7.8Zm0-8.26h-7.8v-7.8h7.8Zm-7.8-8.26v-7.78h7.8v7.78ZM82.17,448.37h-7.8v-7.79h7.8Zm0-8.25h-7.8v-7.8h7.8Zm0-8.26h-7.8v-7.79h7.8Zm0-8.26h-7.8v-7.79h7.8Zm0-8.26h-7.8v-7.79h7.8Zm0-8.25h-7.8v-7.8h7.8Zm0-8.26h-7.8V391h7.8Zm0-8.26h-7.8v-7.79h7.8Zm0-8.25h-7.8v-7.8h7.8Zm0-8.26h-7.8v-7.8h7.8Zm0-8.26h-7.8V358h7.8Zm0-8.26h-7.8v-7.79h7.8Zm0-8.25h-7.8v-7.8h7.8Zm0-8.26h-7.8v-7.8h7.8Zm0-8.26h-7.8V325h7.8Zm0-8.25h-7.8v-7.8h7.8Zm0-8.26h-7.8v-7.8h7.8Zm0-8.26h-7.8v-7.79h7.8Zm0-8.26h-7.8V292h7.8Zm0-8.25h-7.8v-7.8h7.8Zm0-8.26h-7.8v-7.8h7.8Zm0-8.26h-7.8v-7.79h7.8Zm0-8.26h-7.8v-7.79h7.8Zm0-8.25h-7.8v-7.8h7.8Zm0-8.26h-7.8v-7.8h7.8Zm-7.8-8.26v-7.78h7.8v7.78ZM90.43,448.37h-7.8v-7.79h7.8Zm0-8.25h-7.8v-7.8h7.8Zm0-8.26h-7.8v-7.79h7.8Zm0-8.26h-7.8v-7.79h7.8Zm0-8.26h-7.8v-7.79h7.8Zm0-8.25h-7.8v-7.8h7.8Zm0-8.26h-7.8V391h7.8Zm0-8.26h-7.8v-7.79h7.8Zm0-8.25h-7.8v-7.8h7.8Zm0-8.26h-7.8v-7.8h7.8Zm0-8.26h-7.8V358h7.8Zm0-8.26h-7.8v-7.79h7.8Zm0-8.25h-7.8v-7.8h7.8Zm0-8.26h-7.8v-7.8h7.8Zm0-8.26h-7.8V325h7.8Zm0-8.25h-7.8v-7.8h7.8Zm0-8.26h-7.8v-7.8h7.8Zm0-8.26h-7.8v-7.79h7.8Zm0-8.26h-7.8V292h7.8Zm0-8.25h-7.8v-7.8h7.8Zm0-8.26h-7.8v-7.8h7.8Zm0-8.26h-7.8v-7.79h7.8Zm0-8.26h-7.8v-7.79h7.8Zm0-8.25h-7.8v-7.8h7.8Zm0-8.26h-7.8v-7.8h7.8Zm-7.8-8.26v-7.78h7.8v7.78ZM98.69,448.37h-7.8v-7.79h7.8Zm0-8.25h-7.8v-7.8h7.8Zm0-8.26h-7.8v-7.79h7.8Zm0-8.26h-7.8v-7.79h7.8Zm0-8.26h-7.8v-7.79h7.8Zm0-8.25h-7.8v-7.8h7.8Zm0-8.26h-7.8V391h7.8Zm0-8.26h-7.8v-7.79h7.8Zm0-8.25h-7.8v-7.8h7.8Zm0-8.26h-7.8v-7.8h7.8Zm0-8.26h-7.8V358h7.8Zm0-8.26h-7.8v-7.79h7.8Zm0-8.25h-7.8v-7.8h7.8Zm0-8.26h-7.8v-7.8h7.8Zm0-8.26h-7.8V325h7.8Zm0-8.25h-7.8v-7.8h7.8Zm0-8.26h-7.8v-7.8h7.8Zm0-8.26h-7.8v-7.79h7.8Zm0-8.26h-7.8V292h7.8Zm0-8.25h-7.8v-7.8h7.8Zm0-8.26h-7.8v-7.8h7.8Zm0-8.26h-7.8v-7.79h7.8Zm0-8.26h-7.8v-7.79h7.8Zm0-8.25h-7.8v-7.8h7.8Zm0-8.26h-7.8v-7.8h7.8Zm-7.8-8.26v-7.78h7.8v7.78Zm16,206.43h-7.8v-7.79h7.8Zm0-8.25h-7.8v-7.8h7.8Zm0-8.26h-7.8v-7.79h7.8Zm0-8.26h-7.8v-7.79h7.8Zm0-8.26h-7.8v-7.79h7.8Zm0-8.25h-7.8v-7.8h7.8Zm0-8.26h-7.8V391h7.8Zm0-8.26h-7.8v-7.79h7.8Zm0-8.25h-7.8v-7.8h7.8Zm0-8.26h-7.8v-7.8h7.8Zm0-8.26h-7.8V358h7.8Zm0-8.26h-7.8v-7.79h7.8Zm0-8.25h-7.8v-7.8h7.8Zm0-8.26h-7.8v-7.8h7.8Zm0-8.26h-7.8V325h7.8Zm0-8.25h-7.8v-7.8h7.8Zm0-8.26h-7.8v-7.8h7.8Zm0-8.26h-7.8v-7.79h7.8Zm0-8.26h-7.8V292h7.8Zm0-8.25h-7.8v-7.8h7.8Zm0-8.26h-7.8v-7.8h7.8Zm0-8.26h-7.8v-7.79h7.8Zm0-8.26h-7.8v-7.79h7.8Zm0-8.25h-7.8v-7.8h7.8Zm0-8.26h-7.8v-7.8h7.8Zm-7.8-8.26v-7.78h7.8v7.78ZM115.2,448.37h-7.8v-7.79h7.8Zm0-8.25h-7.8v-7.8h7.8Zm0-8.26h-7.8v-7.79h7.8Zm0-8.26h-7.8v-7.79h7.8Zm0-8.26h-7.8v-7.79h7.8Zm0-8.25h-7.8v-7.8h7.8Zm0-8.26h-7.8V391h7.8Zm0-8.26h-7.8v-7.79h7.8Zm0-8.25h-7.8v-7.8h7.8Zm0-8.26h-7.8v-7.8h7.8Zm0-8.26h-7.8V358h7.8Zm0-8.26h-7.8v-7.79h7.8Zm0-8.25h-7.8v-7.8h7.8Zm0-8.26h-7.8v-7.8h7.8Zm0-8.26h-7.8V325h7.8Zm0-8.25h-7.8v-7.8h7.8Zm0-8.26h-7.8v-7.8h7.8Zm0-8.26h-7.8v-7.79h7.8Zm0-8.26h-7.8V292h7.8Zm0-8.25h-7.8v-7.8h7.8Zm0-8.26h-7.8v-7.8h7.8Zm0-8.26h-7.8v-7.79h7.8Zm0-8.26h-7.8v-7.79h7.8Zm0-8.25h-7.8v-7.8h7.8Zm0-8.26h-7.8v-7.8h7.8Zm-7.8-8.26v-7.78h7.8v7.78Zm16.06,206.43h-7.8v-7.79h7.8Zm0-8.25h-7.8v-7.8h7.8Zm0-8.26h-7.8v-7.79h7.8Zm0-8.26h-7.8v-7.79h7.8Zm0-8.26h-7.8v-7.79h7.8Zm0-8.25h-7.8v-7.8h7.8Zm0-8.26h-7.8V391h7.8Zm0-8.26h-7.8v-7.79h7.8Zm0-8.25h-7.8v-7.8h7.8Zm0-8.26h-7.8v-7.8h7.8Zm0-8.26h-7.8V358h7.8Zm0-8.26h-7.8v-7.79h7.8Zm0-8.25h-7.8v-7.8h7.8Zm0-8.26h-7.8v-7.8h7.8Zm0-8.26h-7.8V325h7.8Zm0-8.25h-7.8v-7.8h7.8Zm0-8.26h-7.8v-7.8h7.8Zm0-8.26h-7.8v-7.79h7.8Zm0-8.26h-7.8V292h7.8Zm0-8.25h-7.8v-7.8h7.8Zm0-8.26h-7.8v-7.8h7.8Zm0-8.26h-7.8v-7.79h7.8Zm0-8.26h-7.8v-7.79h7.8Zm0-8.25h-7.8v-7.8h7.8Zm0-8.26h-7.8v-7.8h7.8Zm-7.8-8.26v-7.78h7.8v7.78Zm16.05,206.43h-7.8v-7.79h7.8Zm0-8.25h-7.8v-7.8h7.8Zm0-8.26h-7.8v-7.79h7.8Zm0-8.26h-7.8v-7.79h7.8Zm0-8.26h-7.8v-7.79h7.8Zm0-8.25h-7.8v-7.8h7.8Zm0-8.26h-7.8V391h7.8Zm0-8.26h-7.8v-7.79h7.8Zm0-8.25h-7.8v-7.8h7.8Zm0-8.26h-7.8v-7.8h7.8Zm0-8.26h-7.8V358h7.8Zm0-8.26h-7.8v-7.79h7.8Zm0-8.25h-7.8v-7.8h7.8Zm0-8.26h-7.8v-7.8h7.8Zm0-8.26h-7.8V325h7.8Zm0-8.25h-7.8v-7.8h7.8Zm0-8.26h-7.8v-7.8h7.8Zm0-8.26h-7.8v-7.79h7.8Zm0-8.26h-7.8V292h7.8Zm0-8.25h-7.8v-7.8h7.8Zm0-8.26h-7.8v-7.8h7.8Zm0-8.26h-7.8v-7.79h7.8Zm0-8.26h-7.8v-7.79h7.8Zm0-8.25h-7.8v-7.8h7.8Zm0-8.26h-7.8v-7.8h7.8Zm-7.8-8.26v-7.78h7.8v7.78ZM140,448.37h-7.8v-7.79H140Zm0-8.25h-7.8v-7.8H140Zm0-8.26h-7.8v-7.79H140Zm0-8.26h-7.8v-7.79H140Zm0-8.26h-7.8v-7.79H140Zm0-8.25h-7.8v-7.8H140Zm0-8.26h-7.8V391H140Zm0-8.26h-7.8v-7.79H140Zm0-8.25h-7.8v-7.8H140Zm0-8.26h-7.8v-7.8H140Zm0-8.26h-7.8V358H140Zm0-8.26h-7.8v-7.79H140Zm0-8.25h-7.8v-7.8H140Zm0-8.26h-7.8v-7.8H140Zm0-8.26h-7.8V325H140Zm0-8.25h-7.8v-7.8H140Zm0-8.26h-7.8v-7.8H140Zm0-8.26h-7.8v-7.79H140Zm0-8.26h-7.8V292H140Zm0-8.25h-7.8v-7.8H140Zm0-8.26h-7.8v-7.8H140Zm0-8.26h-7.8v-7.79H140Zm0-8.26h-7.8v-7.79H140Zm0-8.25h-7.8v-7.8H140Zm0-8.26h-7.8v-7.8H140Zm-7.8-8.26v-7.78H140v7.78Zm16.06,206.43h-7.8v-7.79h7.8Zm0-8.25h-7.8v-7.8h7.8Zm0-8.26h-7.8v-7.79h7.8Zm0-8.26h-7.8v-7.79h7.8Zm0-8.26h-7.8v-7.79h7.8Zm0-8.25h-7.8v-7.8h7.8Zm0-8.26h-7.8V391h7.8Zm0-8.26h-7.8v-7.79h7.8Zm0-8.25h-7.8v-7.8h7.8Zm0-8.26h-7.8v-7.8h7.8Zm0-8.26h-7.8V358h7.8Zm0-8.26h-7.8v-7.79h7.8Zm0-8.25h-7.8v-7.8h7.8Zm0-8.26h-7.8v-7.8h7.8Zm0-8.26h-7.8V325h7.8Zm0-8.25h-7.8v-7.8h7.8Zm0-8.26h-7.8v-7.8h7.8Zm0-8.26h-7.8v-7.79h7.8Zm0-8.26h-7.8V292h7.8Zm0-8.25h-7.8v-7.8h7.8Zm0-8.26h-7.8v-7.8h7.8Zm0-8.26h-7.8v-7.79h7.8Zm0-8.26h-7.8v-7.79h7.8Zm0-8.25h-7.8v-7.8h7.8Zm0-8.26h-7.8v-7.8h7.8Zm-7.8-8.26v-7.78h7.8v7.78Zm16.06,206.43h-7.8v-7.79h7.8Zm0-8.25h-7.8v-7.8h7.8Zm0-8.26h-7.8v-7.79h7.8Zm0-8.26h-7.8v-7.79h7.8Zm0-8.26h-7.8v-7.79h7.8Zm0-8.25h-7.8v-7.8h7.8Zm0-8.26h-7.8V391h7.8Zm0-8.26h-7.8v-7.79h7.8Zm0-8.25h-7.8v-7.8h7.8Zm0-8.26h-7.8v-7.8h7.8Zm0-8.26h-7.8V358h7.8Zm0-8.26h-7.8v-7.79h7.8Zm0-8.25h-7.8v-7.8h7.8Zm0-8.26h-7.8v-7.8h7.8Zm0-8.26h-7.8V325h7.8Zm0-8.25h-7.8v-7.8h7.8Zm0-8.26h-7.8v-7.8h7.8Zm0-8.26h-7.8v-7.79h7.8Zm0-8.26h-7.8V292h7.8Zm0-8.25h-7.8v-7.8h7.8Zm0-8.26h-7.8v-7.8h7.8Zm0-8.26h-7.8v-7.79h7.8Zm0-8.26h-7.8v-7.79h7.8Zm0-8.25h-7.8v-7.8h7.8Zm0-8.26h-7.8v-7.8h7.8Zm-7.8-8.26v-7.78h7.8v7.78Zm16.05,206.43h-7.8v-7.79h7.8Zm0-8.25h-7.8v-7.8h7.8Zm0-8.26h-7.8v-7.79h7.8Zm0-8.26h-7.8v-7.79h7.8Zm0-8.26h-7.8v-7.79h7.8Zm0-8.25h-7.8v-7.8h7.8Zm0-8.26h-7.8V391h7.8Zm0-8.26h-7.8v-7.79h7.8Zm0-8.25h-7.8v-7.8h7.8Zm0-8.26h-7.8v-7.8h7.8Zm0-8.26h-7.8V358h7.8Zm0-8.26h-7.8v-7.79h7.8Zm0-8.25h-7.8v-7.8h7.8Zm0-8.26h-7.8v-7.8h7.8Zm0-8.26h-7.8V325h7.8Zm0-8.25h-7.8v-7.8h7.8Zm0-8.26h-7.8v-7.8h7.8Zm0-8.26h-7.8v-7.79h7.8Zm0-8.26h-7.8V292h7.8Zm0-8.25h-7.8v-7.8h7.8Zm0-8.26h-7.8v-7.8h7.8Zm0-8.26h-7.8v-7.79h7.8Zm0-8.26h-7.8v-7.79h7.8Zm0-8.25h-7.8v-7.8h7.8Zm0-8.26h-7.8v-7.8h7.8Zm-7.8-8.26v-7.78h7.8v7.78ZM173,448.37h-7.8v-7.79H173Zm0-8.25h-7.8v-7.8H173Zm0-8.26h-7.8v-7.79H173Zm0-8.26h-7.8v-7.79H173Zm0-8.26h-7.8v-7.79H173Zm0-8.25h-7.8v-7.8H173Zm0-8.26h-7.8V391H173Zm0-8.26h-7.8v-7.79H173Zm0-8.25h-7.8v-7.8H173Zm0-8.26h-7.8v-7.8H173Zm0-8.26h-7.8V358H173Zm0-8.26h-7.8v-7.79H173Zm0-8.25h-7.8v-7.8H173Zm0-8.26h-7.8v-7.8H173Zm0-8.26h-7.8V325H173Zm0-8.25h-7.8v-7.8H173Zm0-8.26h-7.8v-7.8H173Zm0-8.26h-7.8v-7.79H173Zm0-8.26h-7.8V292H173Zm0-8.25h-7.8v-7.8H173Zm0-8.26h-7.8v-7.8H173Zm0-8.26h-7.8v-7.79H173Zm0-8.26h-7.8v-7.79H173Zm0-8.25h-7.8v-7.8H173Zm0-8.26h-7.8v-7.8H173Zm-7.8-8.26v-7.78H173v7.78Zm16.06,206.43h-7.8v-7.79h7.8Zm0-8.25h-7.8v-7.8h7.8Zm0-8.26h-7.8v-7.79h7.8Zm0-8.26h-7.8v-7.79h7.8Zm0-8.26h-7.8v-7.79h7.8Zm0-8.25h-7.8v-7.8h7.8Zm0-8.26h-7.8V391h7.8Zm0-8.26h-7.8v-7.79h7.8Zm0-8.25h-7.8v-7.8h7.8Zm0-8.26h-7.8v-7.8h7.8Zm0-8.26h-7.8V358h7.8Zm0-8.26h-7.8v-7.79h7.8Zm0-8.25h-7.8v-7.8h7.8Zm0-8.26h-7.8v-7.8h7.8Zm0-8.26h-7.8V325h7.8Zm0-8.25h-7.8v-7.8h7.8Zm0-8.26h-7.8v-7.8h7.8Zm0-8.26h-7.8v-7.79h7.8Zm0-8.26h-7.8V292h7.8Zm0-8.25h-7.8v-7.8h7.8Zm0-8.26h-7.8v-7.8h7.8Zm0-8.26h-7.8v-7.79h7.8Zm0-8.26h-7.8v-7.79h7.8Zm0-8.25h-7.8v-7.8h7.8Zm0-8.26h-7.8v-7.8h7.8Zm-7.8-8.26v-7.78h7.8v7.78Zm16.06,206.43h-7.8v-7.79h7.8Zm0-8.25h-7.8v-7.8h7.8Zm0-8.26h-7.8v-7.79h7.8Zm0-8.26h-7.8v-7.79h7.8Zm0-8.26h-7.8v-7.79h7.8Zm0-8.25h-7.8v-7.8h7.8Zm0-8.26h-7.8V391h7.8Zm0-8.26h-7.8v-7.79h7.8Zm0-8.25h-7.8v-7.8h7.8Zm0-8.26h-7.8v-7.8h7.8Zm0-8.26h-7.8V358h7.8Zm0-8.26h-7.8v-7.79h7.8Zm0-8.25h-7.8v-7.8h7.8Zm0-8.26h-7.8v-7.8h7.8Zm0-8.26h-7.8V325h7.8Zm0-8.25h-7.8v-7.8h7.8Zm0-8.26h-7.8v-7.8h7.8Zm0-8.26h-7.8v-7.79h7.8Zm0-8.26h-7.8V292h7.8Zm0-8.25h-7.8v-7.8h7.8Zm0-8.26h-7.8v-7.8h7.8Zm0-8.26h-7.8v-7.79h7.8Zm0-8.26h-7.8v-7.79h7.8Zm0-8.25h-7.8v-7.8h7.8Zm0-8.26h-7.8v-7.8h7.8Zm-7.8-8.26v-7.78h7.8v7.78Zm16.05,206.43H190v-7.79h7.8Zm0-8.25H190v-7.8h7.8Zm0-8.26H190v-7.79h7.8Zm0-8.26H190v-7.79h7.8Zm0-8.26H190v-7.79h7.8Zm0-8.25H190v-7.8h7.8Zm0-8.26H190V391h7.8Zm0-8.26H190v-7.79h7.8Zm0-8.25H190v-7.8h7.8Zm0-8.26H190v-7.8h7.8Zm0-8.26H190V358h7.8Zm0-8.26H190v-7.79h7.8Zm0-8.25H190v-7.8h7.8Zm0-8.26H190v-7.8h7.8Zm0-8.26H190V325h7.8Zm0-8.25H190v-7.8h7.8Zm0-8.26H190v-7.8h7.8Zm0-8.26H190v-7.79h7.8Zm0-8.26H190V292h7.8Zm0-8.25H190v-7.8h7.8Zm0-8.26H190v-7.8h7.8Zm0-8.26H190v-7.79h7.8Zm0-8.26H190v-7.79h7.8Zm0-8.25H190v-7.8h7.8Zm0-8.26H190v-7.8h7.8Zm-7.8-8.26v-7.78h7.8v7.78ZM206,448.37h-7.8v-7.79H206Zm0-8.25h-7.8v-7.8H206Zm0-8.26h-7.8v-7.79H206Zm0-8.26h-7.8v-7.79H206Zm0-8.26h-7.8v-7.79H206Zm0-8.25h-7.8v-7.8H206Zm0-8.26h-7.8V391H206Zm0-8.26h-7.8v-7.79H206Zm0-8.25h-7.8v-7.8H206Zm0-8.26h-7.8v-7.8H206Zm0-8.26h-7.8V358H206Zm0-8.26h-7.8v-7.79H206Zm0-8.25h-7.8v-7.8H206Zm0-8.26h-7.8v-7.8H206Zm0-8.26h-7.8V325H206Zm0-8.25h-7.8v-7.8H206Zm0-8.26h-7.8v-7.8H206Zm0-8.26h-7.8v-7.79H206Zm0-8.26h-7.8V292H206Zm0-8.25h-7.8v-7.8H206Zm0-8.26h-7.8v-7.8H206Zm0-8.26h-7.8v-7.79H206Zm0-8.26h-7.8v-7.79H206Zm0-8.25h-7.8v-7.8H206Zm0-8.26h-7.8v-7.8H206Zm-7.8-8.26v-7.78H206v7.78Zm16.06,206.43h-7.8v-7.79h7.8Zm0-8.25h-7.8v-7.8h7.8Zm0-8.26h-7.8v-7.79h7.8Zm0-8.26h-7.8v-7.79h7.8Zm0-8.26h-7.8v-7.79h7.8Zm0-8.25h-7.8v-7.8h7.8Zm0-8.26h-7.8V391h7.8Zm0-8.26h-7.8v-7.79h7.8Zm0-8.25h-7.8v-7.8h7.8Zm0-8.26h-7.8v-7.8h7.8Zm0-8.26h-7.8V358h7.8Zm0-8.26h-7.8v-7.79h7.8Zm0-8.25h-7.8v-7.8h7.8Zm0-8.26h-7.8v-7.8h7.8Zm0-8.26h-7.8V325h7.8Zm0-8.25h-7.8v-7.8h7.8Zm0-8.26h-7.8v-7.8h7.8Zm0-8.26h-7.8v-7.79h7.8Zm0-8.26h-7.8V292h7.8Zm0-8.25h-7.8v-7.8h7.8Zm0-8.26h-7.8v-7.8h7.8Zm0-8.26h-7.8v-7.79h7.8Zm0-8.26h-7.8v-7.79h7.8Zm0-8.25h-7.8v-7.8h7.8Zm0-8.26h-7.8v-7.8h7.8Zm-7.8-8.26v-7.78h7.8v7.78Zm16.06,206.43h-7.8v-7.79h7.8Zm0-8.25h-7.8v-7.8h7.8Zm0-8.26h-7.8v-7.79h7.8Zm0-8.26h-7.8v-7.79h7.8Zm0-8.26h-7.8v-7.79h7.8Zm0-8.25h-7.8v-7.8h7.8Zm0-8.26h-7.8V391h7.8Zm0-8.26h-7.8v-7.79h7.8Zm0-8.25h-7.8v-7.8h7.8Zm0-8.26h-7.8v-7.8h7.8Zm0-8.26h-7.8V358h7.8Zm0-8.26h-7.8v-7.79h7.8Zm0-8.25h-7.8v-7.8h7.8Zm0-8.26h-7.8v-7.8h7.8Zm0-8.26h-7.8V325h7.8Zm0-8.25h-7.8v-7.8h7.8Zm0-8.26h-7.8v-7.8h7.8Zm0-8.26h-7.8v-7.79h7.8Zm0-8.26h-7.8V292h7.8Zm0-8.25h-7.8v-7.8h7.8Zm0-8.26h-7.8v-7.8h7.8Zm0-8.26h-7.8v-7.79h7.8Zm0-8.26h-7.8v-7.79h7.8Zm0-8.25h-7.8v-7.8h7.8Zm0-8.26h-7.8v-7.8h7.8Zm-7.8-8.26v-7.78h7.8v7.78ZM230.8,448.37H223v-7.79h7.8Zm0-8.25H223v-7.8h7.8Zm0-8.26H223v-7.79h7.8Zm0-8.26H223v-7.79h7.8Zm0-8.26H223v-7.79h7.8Zm0-8.25H223v-7.8h7.8Zm0-8.26H223V391h7.8Zm0-8.26H223v-7.79h7.8Zm0-8.25H223v-7.8h7.8Zm0-8.26H223v-7.8h7.8Zm0-8.26H223V358h7.8Zm0-8.26H223v-7.79h7.8Zm0-8.25H223v-7.8h7.8Zm0-8.26H223v-7.8h7.8Zm0-8.26H223V325h7.8Zm0-8.25H223v-7.8h7.8Zm0-8.26H223v-7.8h7.8Zm0-8.26H223v-7.79h7.8Zm0-8.26H223V292h7.8Zm0-8.25H223v-7.8h7.8Zm0-8.26H223v-7.8h7.8Zm0-8.26H223v-7.79h7.8Zm0-8.26H223v-7.79h7.8Zm0-8.25H223v-7.8h7.8Zm0-8.26H223v-7.8h7.8Zm-7.8-8.26v-7.78h7.8v7.78Z"/></g><path class="cls-4" d="M193,235.31c-.43-2.83-2.32-8.87-4-14.67s-4.52-18.7-7.14-30.59A90.87,90.87,0,0,0,173,165.77c-2.1-3.92-4.85-14.81-6.87-21.73-1.67-5.73-1.83-14.49-3.13-19.23-1.39-5.1-4.56-10.37-7-12.34-2.65-2.12-16.51-9-20.29-10.36a2.61,2.61,0,0,1-1.73-2.17l-.85-8.19a44.64,44.64,0,0,0,2.21-4.51,36.24,36.24,0,0,0,.91-4.87.91.91,0,0,0,1.08.51c1-.29,2.74-3.13,3-5.59.28-3.34.24-5-.53-5.5s-1.87.37-1.87.37a23.09,23.09,0,0,0-2.18-13.59,12.09,12.09,0,0,0-4.92-4.89,14.62,14.62,0,0,0-14.13,0,12.09,12.09,0,0,0-4.92,4.89,23.09,23.09,0,0,0-2.18,13.59s-1.19-.79-1.87-.37-.81,2.16-.52,5.5c.21,2.46,1.94,5.3,3,5.59a.91.91,0,0,0,1.08-.51,36.24,36.24,0,0,0,.91,4.87,44.64,44.64,0,0,0,2.21,4.51l-.85,8.19a2.61,2.61,0,0,1-1.73,2.17c-3.78,1.36-17.64,8.24-20.29,10.36-2.46,2-5.63,7.24-7,12.34-1.3,4.74-1.46,13.5-3.13,19.23-2,6.92-4.77,17.81-6.87,21.73a90.87,90.87,0,0,0-8.82,24.28c-2.62,11.89-5.46,24.81-7.14,30.59s-3.58,11.84-4,14.67-1,4.73-1,5.95,1.36,8.44,1.91,9c.3.32,1.47-.13,1.82-1.71.4-1.8.7-3.73.82-4.65a20.61,20.61,0,0,1,.53-4.06,68.88,68.88,0,0,1,3.07-6.51,1.77,1.77,0,0,1,2.92-.09c.47.83,1.17,4.06,2,4.87a1.71,1.71,0,0,0,2.74-.71c.27-1.12-1.32-4.14-1.41-6.08a13.38,13.38,0,0,0-2.44-6,3.55,3.55,0,0,1-.44-4.16c.8-1.35,14.24-26.41,17.94-34.55a52.58,52.58,0,0,0,3.73-12.26c.25-1.4,3.25-11.86,6.31-20.49,2.38-6.7,5-12.17,5-12.17s6.36,16.55,6.36,27.8c0,5.53-5.06,26.32-7.37,29.55-2.17,3.05-6.8,24.8-6.8,41.74s5.28,62.13,5.28,69.09S92.19,335,93.18,347.75s3.18,29.55,3.64,36.58a60.07,60.07,0,0,1,.32,8.16,9.63,9.63,0,0,1-.78,2.86c-.33.71-1.94,6.2-3,8.2-1.77,3.4-5.25,7.42-5.66,8.1-.57,1-.72,2.7,3.31,3.54,3.64.75,5.93,1.71,8.51-1,2.1-2.22,4.95-5.91,4.95-5.91a5.48,5.48,0,0,0,4.3-3.5c1-3.06-1.72-5.95-1.72-8.44s-.4-9.36.33-19.92c.49-7.15,3.7-23,4.1-29.54s-.83-27-1-30.51,12.32-65,12.32-83.77a2.79,2.79,0,0,0,.83.12,2.87,2.87,0,0,0,.85-.12c0,18.78,12.44,80.25,12.31,83.77s-1.37,23.93-1,30.51,3.61,22.39,4.1,29.54c.73,10.56.33,17.44.33,19.92s-2.71,5.38-1.72,8.44a5.49,5.49,0,0,0,4.31,3.5s2.84,3.69,4.93,5.91c2.59,2.74,4.88,1.78,8.52,1,4-.84,3.88-2.58,3.31-3.54-.41-.68-3.89-4.7-5.66-8.1-1-2-2.65-7.49-3-8.2a9.35,9.35,0,0,1-.79-2.86,60.07,60.07,0,0,1,.32-8.16c.47-7,2.65-23.79,3.64-36.58S152,316.81,152,309.86s5.28-52.15,5.28-69.09-4.63-38.69-6.81-41.74c-2.3-3.23-7.36-24-7.36-29.55,0-11.25,6.36-27.8,6.36-27.8s2.64,5.47,5,12.17c3.06,8.63,6.06,19.09,6.31,20.49a52.19,52.19,0,0,0,3.74,12.26c3.69,8.14,17.12,33.2,17.93,34.55a3.53,3.53,0,0,1-.44,4.16,13.38,13.38,0,0,0-2.44,6c-.09,1.94-1.68,5-1.41,6.08a1.71,1.71,0,0,0,2.74.71c.79-.81,1.49-4,2-4.87a1.77,1.77,0,0,1,2.92.09,68.88,68.88,0,0,1,3.07,6.51,21.4,21.4,0,0,1,.53,4.06c.12.92.42,2.85.82,4.65.35,1.58,1.51,2,1.82,1.71.54-.57,1.91-7.78,1.91-9S193.39,238.14,193,235.31Z"/></svg>