<svg id="Capa_1" data-name="Capa 1" xmlns="http://www.w3.org/2000/svg" xmlns:xlink="http://www.w3.org/1999/xlink" viewBox="0 0 247.37 188.91"><defs><style>.cls-1{fill:#1a1a1a;opacity:0.35;}.cls-2{fill:#fff;}.cls-3{fill:url(#linear-gradient);}.cls-4{fill:url(#linear-gradient-2);}.cls-5{fill:url(#linear-gradient-3);}.cls-6{fill:#383838;}.cls-7{fill:url(#linear-gradient-4);}.cls-8{fill:url(#linear-gradient-5);}</style><linearGradient id="linear-gradient" x1="131.99" y1="93.14" x2="182.95" y2="42.18" gradientUnits="userSpaceOnUse"><stop offset="0" stop-color="#0dfcfe"/><stop offset="1" stop-color="#27a0f5"/></linearGradient><linearGradient id="linear-gradient-2" x1="72.01" y1="34.17" x2="84.27" y2="34.17" xlink:href="#linear-gradient"/><linearGradient id="linear-gradient-3" x1="39.34" y1="61.56" x2="93.62" y2="61.56" xlink:href="#linear-gradient"/><linearGradient id="linear-gradient-4" x1="164.21" y1="131.5" x2="37" y2="131.5" gradientUnits="userSpaceOnUse"><stop offset="0" stop-color="#04fcfe"/><stop offset="1" stop-color="#2196f3"/></linearGradient><linearGradient id="linear-gradient-5" x1="157.31" y1="158.09" x2="214.63" y2="158.09" xlink:href="#linear-gradient"/></defs><rect class="cls-1" width="247.37" height="188.91"/><path class="cls-2" d="M106.86,46.45a10.86,10.86,0,0,1,11.21-11,11.14,11.14,0,0,1,9.37,4.76l-4.11,2.55a6.33,6.33,0,0,0-5.26-2.74,6.39,6.39,0,0,0,0,12.78,6.34,6.34,0,0,0,5.26-2.73l4.11,2.55a11.16,11.16,0,0,1-9.37,4.76A10.86,10.86,0,0,1,106.86,46.45Z"/><path class="cls-2" d="M143.82,53.33h-8.6l-1.32,3.72h-5.1l7.95-21.2h5.62l8,21.2h-5.22Zm-1.54-4.39-2.76-7.83-2.77,7.83Z"/><path class="cls-2" d="M160.69,49.8h-2.31v7.25h-4.76V35.85h9.19a7.07,7.07,0,0,1,7.37,7.1,6.65,6.65,0,0,1-4.36,6.33l4.94,7.77h-5.71Zm-2.31-4.15h4.33a2.66,2.66,0,0,0,0-5.31h-4.33Z"/><path class="cls-2" d="M193.34,46.45a10.46,10.46,0,0,1-10.81,10.6h-8.35V35.85h8.35A10.46,10.46,0,0,1,193.34,46.45Zm-4.88,0a5.94,5.94,0,0,0-6.05-6.11h-3.48V52.56h3.48A5.94,5.94,0,0,0,188.46,46.45Z"/><path class="cls-2" d="M197.34,35.85h4.76v21.2h-4.76Z"/><path class="cls-2" d="M206.09,46.45a11.22,11.22,0,1,1,11.22,11A10.86,10.86,0,0,1,206.09,46.45Zm17.54,0a6.33,6.33,0,1,0-6.32,6.39A6.22,6.22,0,0,0,223.63,46.45Z"/><path class="cls-3" d="M116.62,76.09l1-1v1ZM109,65.37v2.41h4.29l2.41-2.41Zm45.55,10.72h2.72V65.37h-2.72Zm-29.22,0h2.72V70.72h-2.72ZM171,73.37a1.49,1.49,0,0,1-1.1-.58l-5.09-6.06a3.8,3.8,0,0,0-2.91-1.36h-2.83V76.09h2.71a0,0,0,0,0,0,0v-8a1.48,1.48,0,0,1,1.1.57L168,74.73a3.8,3.8,0,0,0,2.91,1.36h2.83V65.37H171Zm4.51,2.72h2.72V65.37H175.5Zm24.29,0V74.82l-1.07,1.27Zm2.79-10.72-4.1,4.89h-.1l-4.09-4.89h-3.56l6.34,7.56v3.16h.05l4.47-5.3,4.54-5.42Zm-20,2.71v-.3h8.81l-2-2.38,0,0h-6.77l-.64,0-2.09,2.08c0,.09,0,.56,0,.65v8h2.72V72.93h1.83l2.23-2.43h-4.06V68.08Zm-56.65-2.71h-8.51l-2.51,2.51v8.19l2.72-2.72V67.78h5.89Zm24.25,0a5.92,5.92,0,0,0-4.08,1.55l-6.31,8L138,72.64a3.31,3.31,0,0,0,1.93-3V68.19a2.83,2.83,0,0,0-2.82-2.82h-9.44l-2.42,2.41h11.86a.4.4,0,0,1,.4.4v1.93a.4.4,0,0,1-.4.4h-5.35a.21.21,0,0,0-.15.07l-.83,1-1.14,1.36h5.08l5.23,6,8.29-10.25a1.86,1.86,0,0,1,1.85-.57v2.63h-1.53l-.9,1.07-1.14,1.35h3.57v2.94h2.72V65.37Z"/><path class="cls-4" d="M79,28c.33.1.67.18,1,.29a6.12,6.12,0,1,1-3-.17A2.53,2.53,0,0,0,77.3,28Z"/><path class="cls-5" d="M63.73,65c-.76,1.28-1.56,2.55-2.27,3.87a4.22,4.22,0,0,1-4.13,2.36c-4.69,0-9.37,0-14.06,0a3.68,3.68,0,0,1-3.8-2.73A3.64,3.64,0,0,1,43,63.84c4.13,0,8.25,0,12.38,0a.75.75,0,0,0,.76-.4q5-8.85,10.12-17.69c.06-.11.12-.22.2-.39l-.47,0c-2,0-4,0-6,0a.67.67,0,0,0-.69.4c-1.13,2.08-2.25,4.15-3.41,6.2A3.67,3.67,0,0,1,49.14,51a3.5,3.5,0,0,1,.31-2.65c1.56-2.86,3.13-5.73,4.73-8.58A3.44,3.44,0,0,1,57.3,38c3.93,0,7.85,0,11.77,0a.58.58,0,0,1,.58.38,9.38,9.38,0,0,0,8.42,5.3.74.74,0,0,1,.67.37c1.07,1.67,2.16,3.33,3.25,5,.1.16.21.31.35.5l2.43-1.34c1.19-.66,2.36-1.34,3.57-2A3.66,3.66,0,0,1,92.66,52a4.79,4.79,0,0,1-1.1.84c-2.81,1.58-5.64,3.15-8.46,4.71a3.69,3.69,0,0,1-5.19-1.3L75,51.73l-.13-.16-5.09,8.68,1.09.88,6,4.72a3.74,3.74,0,0,1,1.3,4.83c-1.62,4-3.23,8.06-4.87,12.08a3.67,3.67,0,1,1-6.83-2.67c1-2.57,2-5.13,3.08-7.7.26-.63.53-1.26.76-1.91a.55.55,0,0,0-.11-.5c-2.09-1.67-4.2-3.32-6.3-5C63.85,65,63.81,65,63.73,65Z"/><path class="cls-6" d="M211.14,134.37H39.87a2.87,2.87,0,1,1,0-5.73H211.14a2.87,2.87,0,1,1,0,5.73Z"/><path class="cls-7" d="M161.34,134.37H39.87a2.87,2.87,0,1,1,0-5.73H161.34a2.87,2.87,0,1,1,0,5.73Z"/><path class="cls-2" d="M43.68,115.05a2.34,2.34,0,0,1-2.43,2.35H39.73v2.21H38.17v-6.92h3.08A2.34,2.34,0,0,1,43.68,115.05Zm-1.6,0a.86.86,0,0,0-.86-.9H39.73v1.79h1.49A.86.86,0,0,0,42.08,115.05Z"/><path class="cls-2" d="M47.15,117.24H46.4v2.37H44.84v-6.92h3A2.31,2.31,0,0,1,50.25,115a2.16,2.16,0,0,1-1.43,2.06l1.62,2.54H48.57Zm-.75-1.35h1.41a.87.87,0,0,0,0-1.74H46.4Z"/><path class="cls-2" d="M51.15,116.15a3.66,3.66,0,1,1,3.66,3.58A3.55,3.55,0,0,1,51.15,116.15Zm5.73,0a2.07,2.07,0,1,0-2.07,2.08A2,2,0,0,0,56.88,116.15Z"/><path class="cls-2" d="M66.56,115.65v.53a3.43,3.43,0,0,1-3.51,3.55,3.58,3.58,0,1,1,0-7.16A3.58,3.58,0,0,1,66,113.89l-1.17.94a2.1,2.1,0,0,0-1.67-.78,2.1,2.1,0,0,0,0,4.19A1.8,1.8,0,0,0,64.9,117H63.2v-1.38Z"/><path class="cls-2" d="M70.12,117.24h-.76v2.37H67.81v-6.92h3a2.3,2.3,0,0,1,2.4,2.32,2.16,2.16,0,0,1-1.42,2.06l1.61,2.54H71.54Zm-.76-1.35h1.42a.87.87,0,0,0,0-1.74H69.36Z"/><path class="cls-2" d="M79.26,118.14v1.47H74.52v-6.92h4.69v1.46H76.07v1.25h2.81v1.46H76.07v1.28Z"/><path class="cls-2" d="M80.2,118.64l.8-1.18a3.32,3.32,0,0,0,2.12.88c.63,0,1.16-.27,1.16-.68s-.66-.64-1.4-.82c-1.38-.33-2.41-1-2.41-2.21s1.07-2.06,2.67-2.06a3.54,3.54,0,0,1,2.44.85l-.72,1.18a2.65,2.65,0,0,0-1.74-.65c-.62,0-1.06.26-1.06.62s.63.67,1.27.8,2.54.61,2.54,2.22c0,1.28-1.19,2.14-2.73,2.14A4.54,4.54,0,0,1,80.2,118.64Z"/><path class="cls-2" d="M86.7,116.15a3.66,3.66,0,1,1,3.66,3.58A3.54,3.54,0,0,1,86.7,116.15Zm5.72,0a2.07,2.07,0,1,0-2.06,2.08A2,2,0,0,0,92.42,116.15Z"/><rect class="cls-8" x="157.31" y="149.11" width="57.32" height="17.97" rx="8.98"/><path d="M180.65,158.56a3.41,3.41,0,0,1-3.53,3.45h-2.73V155.1h2.73A3.42,3.42,0,0,1,180.65,158.56Zm-1.6,0a1.94,1.94,0,0,0-2-2h-1.14v4h1.14A1.94,1.94,0,0,0,179.05,158.56Z"/><path d="M182.9,153.09h1.83l-1.3,1.49h-1.54Zm-1,2h1.56V162H182Z"/><path d="M189.47,160.8h-2.8l-.43,1.21h-1.67l2.6-6.91H189l2.61,6.91h-1.7Zm-.5-1.43-.9-2.56-.9,2.56Z"/><path d="M192,161.05l.81-1.18a3.32,3.32,0,0,0,2.12.88c.62,0,1.15-.27,1.15-.68s-.66-.64-1.39-.82c-1.38-.33-2.42-1-2.42-2.21S193.38,155,195,155a3.57,3.57,0,0,1,2.45.85L196.7,157a2.69,2.69,0,0,0-1.74-.65c-.62,0-1.06.26-1.06.62s.63.66,1.26.79,2.55.62,2.55,2.23c0,1.27-1.2,2.13-2.74,2.13A4.63,4.63,0,0,1,192,161.05Z"/><path class="cls-2" d="M41.57,152.44v6.92H40v-5.07l-1,.58-.66-1.25,2.15-1.18Z"/><path class="cls-2" d="M48.24,158.09h-.69v1.27H46v-1.27H43.17l-.36-1.27,3-4.38h1.72v4.19h.69ZM46,156.63v-2.24l-1.52,2.24Z"/><path class="cls-2" d="M55.3,151.84h1.47l-4,9H51.29Z"/><path class="cls-2" d="M62.9,152.44v6.92H61.35v-5.07l-1,.58-.66-1.25,2.14-1.18Z"/><path class="cls-2" d="M69.44,157.12a2.46,2.46,0,0,1-2.68,2.36,3.88,3.88,0,0,1-2.48-.92l.76-1.24a2.38,2.38,0,0,0,1.6.66c.76,0,1.21-.41,1.21-.9a.88.88,0,0,0-1-.83,1.29,1.29,0,0,0-.92.36l-1.37-.41.35-3.76h4v1.46H66.24L66.15,155a2.23,2.23,0,0,1,.91-.18A2.29,2.29,0,0,1,69.44,157.12Z"/></svg>