<svg id="Capa_1" data-name="Capa 1" xmlns="http://www.w3.org/2000/svg" xmlns:xlink="http://www.w3.org/1999/xlink" viewBox="0 0 217.63 472.09"><defs><style>.cls-1{fill:#1a1a1a;opacity:0.35;}.cls-2{fill:url(#linear-gradient);}.cls-3{fill:url(#linear-gradient-2);}.cls-4{fill:url(#linear-gradient-3);}.cls-5{fill:url(#linear-gradient-4);}.cls-6{fill:url(#linear-gradient-5);}.cls-7{fill:url(#linear-gradient-6);}.cls-8{fill:url(#linear-gradient-7);}.cls-9{fill:url(#linear-gradient-8);}.cls-10{fill:#fff;}</style><linearGradient id="linear-gradient" x1="179.32" y1="58" x2="35.81" y2="58" gradientUnits="userSpaceOnUse"><stop offset="0" stop-color="#04fcfe"/><stop offset="1" stop-color="#2196f3"/></linearGradient><linearGradient id="linear-gradient-2" x1="139.63" y1="112.07" x2="35.81" y2="112.07" xlink:href="#linear-gradient"/><linearGradient id="linear-gradient-3" x1="113.38" y1="166.14" x2="35.81" y2="166.14" xlink:href="#linear-gradient"/><linearGradient id="linear-gradient-4" x1="135.61" y1="220.21" x2="35.81" y2="220.21" xlink:href="#linear-gradient"/><linearGradient id="linear-gradient-5" x1="107.45" y1="274.27" x2="35.81" y2="274.27" xlink:href="#linear-gradient"/><linearGradient id="linear-gradient-6" x1="176.15" y1="328.34" x2="35.81" y2="328.34" xlink:href="#linear-gradient"/><linearGradient id="linear-gradient-7" x1="107.45" y1="382.41" x2="35.81" y2="382.41" xlink:href="#linear-gradient"/><linearGradient id="linear-gradient-8" x1="192.73" y1="436.48" x2="35.81" y2="436.48" xlink:href="#linear-gradient"/></defs><rect class="cls-1" x="-127.23" y="127.23" width="472.09" height="217.63" transform="translate(-127.23 344.86) rotate(-90)"/><path class="cls-2" d="M173.51,63.81H41.62a5.81,5.81,0,1,1,0-11.62H173.51a5.81,5.81,0,0,1,0,11.62Z"/><path class="cls-3" d="M133.82,117.88H41.62a5.81,5.81,0,0,1,0-11.62h92.2a5.81,5.81,0,1,1,0,11.62Z"/><path class="cls-4" d="M107.56,172H41.62a5.81,5.81,0,0,1,0-11.62h65.94a5.81,5.81,0,1,1,0,11.62Z"/><path class="cls-5" d="M129.8,226H41.62a5.81,5.81,0,1,1,0-11.62H129.8a5.81,5.81,0,0,1,0,11.62Z"/><path class="cls-6" d="M101.64,280.09h-60a5.82,5.82,0,0,1,0-11.63h60a5.82,5.82,0,0,1,0,11.63Z"/><path class="cls-7" d="M170.34,334.15H41.62a5.81,5.81,0,0,1,0-11.62H170.34a5.81,5.81,0,0,1,0,11.62Z"/><path class="cls-8" d="M101.64,388.22h-60a5.81,5.81,0,0,1,0-11.62h60a5.81,5.81,0,0,1,0,11.62Z"/><path class="cls-9" d="M186.91,442.29H41.62a5.81,5.81,0,1,1,0-11.62H186.91a5.81,5.81,0,1,1,0,11.62Z"/><path class="cls-10" d="M38.67,41.34a4.05,4.05,0,0,1,4.18-4.09A4.17,4.17,0,0,1,46.35,39L44.81,40a2.38,2.38,0,1,0-2,3.75,2.36,2.36,0,0,0,2-1l1.54.95a4.17,4.17,0,0,1-3.5,1.77A4,4,0,0,1,38.67,41.34Z"/><path class="cls-10" d="M52.46,43.91H49.25l-.49,1.39h-1.9l3-7.91h2.1l3,7.91H53Zm-.57-1.64-1-2.92-1,2.92Z"/><path class="cls-10" d="M64.67,37.39V45.3H62.89V40.22L60.9,44h-1l-2-3.75V45.3H56.12V37.39h2.2L60.4,41.3l2.1-3.91Z"/><path class="cls-10" d="M66.55,37.39h1.77V45.3H66.55Z"/><path class="cls-10" d="M77.06,37.39V45.3h-1.8L72,40.46V45.3H70.2V37.39H72l3.29,4.83V37.39Z"/><path class="cls-10" d="M83.87,43.91H80.66l-.49,1.39H78.26l3-7.91h2.1l3,7.91h-2Zm-.58-1.64-1-2.92-1,2.92Z"/><path class="cls-10" d="M92.14,39.06h-2.2V45.3H88.17V39.06H86V37.39h6.17Z"/><path class="cls-10" d="M97.4,43.91H94.19L93.7,45.3H91.8l3-7.91h2.09l3,7.91H97.9Zm-.57-1.64-1-2.92-1,2.92Z"/><path class="cls-10" d="M45.37,97.68a2.12,2.12,0,0,1-2.23,2.15H39.06V91.92h3.83a2,2,0,0,1,1.24,3.71A2.17,2.17,0,0,1,45.37,97.68Zm-4.59-4.16V95h1.66a.73.73,0,0,0,.73-.74.72.72,0,0,0-.73-.75Zm2.77,3.85a.84.84,0,0,0-.85-.86H40.78v1.71H42.7A.83.83,0,0,0,43.55,97.37Z"/><path class="cls-10" d="M46.71,91.92h1.77v7.91H46.71Z"/><path class="cls-10" d="M50,95.87a4.06,4.06,0,0,1,4.19-4.09,4.14,4.14,0,0,1,3.49,1.78l-1.54,1a2.39,2.39,0,1,0,0,2.73l1.54,1A4.13,4.13,0,0,1,54.16,100,4.05,4.05,0,0,1,50,95.87Z"/><path class="cls-10" d="M59,91.92h1.78v7.91H59Z"/><path class="cls-10" d="M62.27,95.87a4.06,4.06,0,0,1,4.19-4.09A4.16,4.16,0,0,1,70,93.56l-1.54,1a2.39,2.39,0,1,0,0,2.73l1.54,1A4.15,4.15,0,0,1,66.46,100,4.05,4.05,0,0,1,62.27,95.87Z"/><path class="cls-10" d="M76.38,98.15v1.68H71.3V91.92h1.78v6.23Z"/><path class="cls-10" d="M83.18,98.15v1.68H77.76V91.92h5.36v1.67H79.53V95h3.21v1.68H79.53v1.46Z"/><path class="cls-10" d="M90.5,93.59H88.3v6.24H86.53V93.59h-2.2V91.92H90.5Z"/><path class="cls-10" d="M95.76,98.44h-3.2l-.5,1.39h-1.9l3-7.91h2.1l3,7.91H96.26Zm-.57-1.64-1-2.92-1,2.92Z"/><path class="cls-10" d="M44.48,153.36V155H39.06v-7.9h5.36v1.67H40.84v1.42h3.21v1.67H40.84v1.47Z"/><path class="cls-10" d="M51.13,153.36V155H46.05v-7.9h1.78v6.23Z"/><path class="cls-10" d="M52.51,147.13h1.77V155H52.51Z"/><path class="cls-10" d="M62.45,149.82a2.67,2.67,0,0,1-2.77,2.69H57.94V155H56.16v-7.9h3.52A2.67,2.67,0,0,1,62.45,149.82Zm-1.82,0a1,1,0,0,0-1-1H57.94v2h1.71A1,1,0,0,0,60.63,149.82Z"/><path class="cls-10" d="M69.4,148.8H67.2V155H65.42V148.8h-2.2v-1.67H69.4Z"/><path class="cls-10" d="M70.81,147.13h1.78V155H70.81Z"/><path class="cls-10" d="M74.08,151.08A4,4,0,0,1,78.26,147a4.17,4.17,0,0,1,3.5,1.78l-1.54.95a2.38,2.38,0,1,0,0,2.72l1.54.95a4.17,4.17,0,0,1-3.5,1.78A4,4,0,0,1,74.08,151.08Z"/><path class="cls-10" d="M87.87,153.65H84.66L84.17,155H82.26l3-7.9h2.1l3,7.9h-2ZM87.29,152l-1-2.92-1,2.92Z"/><path class="cls-10" d="M38.67,204.74a4,4,0,0,1,4.18-4.09,4.17,4.17,0,0,1,3.5,1.77l-1.54,1a2.39,2.39,0,1,0,0,2.73l1.54,1a4.17,4.17,0,0,1-3.5,1.78A4.05,4.05,0,0,1,38.67,204.74Z"/><path class="cls-10" d="M52.46,207.3H49.25l-.49,1.39h-1.9l3-7.91h2.1l3,7.91H53Zm-.57-1.64-1-2.92-1,2.92Z"/><path class="cls-10" d="M64.67,200.78v7.91H62.89v-5.08l-2,3.75h-1l-2-3.75v5.08H56.12v-7.91h2.2l2.08,3.91,2.1-3.91Z"/><path class="cls-10" d="M66.55,200.78h1.77v7.91H66.55Z"/><path class="cls-10" d="M77.06,200.78v7.91h-1.8L72,203.85v4.84H70.2v-7.91H72l3.29,4.84v-4.84Z"/><path class="cls-10" d="M83.87,207.3H80.66l-.49,1.39H78.26l3-7.91h2.1l3,7.91h-2Zm-.58-1.64-1-2.92-1,2.92Z"/><path class="cls-10" d="M94.68,204.74a3.91,3.91,0,0,1-4,3.95H87.52v-7.91h3.12A3.91,3.91,0,0,1,94.68,204.74Zm-1.83,0a2.21,2.21,0,0,0-2.25-2.28H89.3V207h1.3A2.22,2.22,0,0,0,92.85,204.74Z"/><path class="cls-10" d="M95.78,204.74a4.18,4.18,0,1,1,4.18,4.09A4,4,0,0,1,95.78,204.74Zm6.54,0a2.36,2.36,0,1,0-2.36,2.38A2.32,2.32,0,0,0,102.32,204.74Z"/><path class="cls-10" d="M108.26,206h-.86v2.7h-1.78v-7.91h3.43a2.64,2.64,0,0,1,2.75,2.65,2.47,2.47,0,0,1-1.63,2.36l1.85,2.9h-2.13Zm-.86-1.55H109a1,1,0,0,0,0-2H107.4Z"/><path class="cls-10" d="M118.27,207.3h-3.21l-.5,1.39h-1.9l3-7.91h2.1l3,7.91h-1.95Zm-.58-1.64-1-2.92-1,2.92Z"/><path class="cls-10" d="M44.48,262.2v1.67H39.06V256h5.36v1.67H40.84v1.42h3.21v1.67H40.84v1.47Z"/><path class="cls-10" d="M45.55,262.77l.92-1.35a3.77,3.77,0,0,0,2.42,1c.72,0,1.32-.31,1.32-.78s-.75-.73-1.59-.94c-1.58-.38-2.76-1.12-2.76-2.52s1.22-2.36,3-2.36a4.05,4.05,0,0,1,2.79,1l-.82,1.36a3,3,0,0,0-2-.75c-.71,0-1.21.3-1.21.71s.72.76,1.44.91,2.91.7,2.91,2.54C52,263,50.67,264,48.91,264A5.21,5.21,0,0,1,45.55,262.77Z"/><path class="cls-10" d="M53,259.92a4,4,0,0,1,4.18-4.09,4.14,4.14,0,0,1,3.49,1.78l-1.53.95a2.37,2.37,0,0,0-2-1,2.38,2.38,0,0,0,0,4.76,2.37,2.37,0,0,0,2-1l1.53,1A4.16,4.16,0,0,1,57.16,264,4,4,0,0,1,53,259.92Z"/><path class="cls-10" d="M66.76,262.49h-3.2l-.5,1.38h-1.9l3-7.9h2.1l3,7.9H67.26Zm-.57-1.64-1-2.92-1,2.92Z"/><path class="cls-10" d="M75.5,262.2v1.67H70.42V256H72.2v6.23Z"/><path class="cls-10" d="M82.3,262.2v1.67H76.88V256h5.36v1.67H78.65v1.42h3.21v1.67H78.65v1.47Z"/><path class="cls-10" d="M86.5,261.17h-.86v2.7H83.87V256h3.42A2.63,2.63,0,0,1,90,258.61,2.46,2.46,0,0,1,88.42,261l1.84,2.9H88.13Zm-.86-1.55h1.62a1,1,0,0,0,0-2H85.64Z"/><path class="cls-10" d="M96.51,262.49H93.3l-.49,1.38h-1.9l3-7.9H96l3,7.9H97Zm-.57-1.64-1-2.92-1,2.92Z"/><path class="cls-10" d="M102.52,262.77l.91-1.35a3.82,3.82,0,0,0,2.43,1c.71,0,1.32-.31,1.32-.78s-.76-.73-1.59-.94c-1.58-.38-2.76-1.12-2.76-2.52s1.22-2.36,3-2.36a4.06,4.06,0,0,1,2.8,1l-.82,1.36a3,3,0,0,0-2-.75c-.71,0-1.21.3-1.21.71s.72.76,1.44.91,2.91.7,2.91,2.54c0,1.46-1.36,2.44-3.13,2.44A5.21,5.21,0,0,1,102.52,262.77Z"/><path class="cls-10" d="M110.35,256h1.77v7.9h-1.77Z"/><path class="cls-10" d="M120.86,256v7.9h-1.8L115.78,259v4.83H114V256h1.79l3.29,4.83V256Z"/><path class="cls-10" d="M127.39,257.64v1.5h3v1.67h-3v3.06h-1.78V256h5.2v1.67Z"/><path class="cls-10" d="M132.24,256H134v7.9h-1.78Z"/><path class="cls-10" d="M142.75,256v7.9H141L137.67,259v4.83H135.9V256h1.78L141,260.8V256Z"/><path class="cls-10" d="M45.91,309.4v7.9h-1.8l-3.27-4.83v4.83H39.06v-7.9h1.79l3.29,4.83V309.4Z"/><path class="cls-10" d="M47.65,314.23V309.4h1.77v4.81a1.53,1.53,0,0,0,3,0V309.4h1.78v4.83a3.3,3.3,0,0,1-6.6,0Z"/><path class="cls-10" d="M61.69,311.07h-2.2v6.23H57.71v-6.23h-2.2V309.4h6.18Z"/><path class="cls-10" d="M65.73,314.6h-.86v2.7H63.1v-7.9h3.42A2.63,2.63,0,0,1,69.27,312a2.46,2.46,0,0,1-1.62,2.36l1.84,2.9H67.36Zm-.86-1.55h1.62a1,1,0,0,0,0-2H64.87Z"/><path class="cls-10" d="M70.77,309.4h1.77v7.9H70.77Z"/><path class="cls-10" d="M74,313.35a4.05,4.05,0,0,1,4.19-4.09A4.14,4.14,0,0,1,81.71,311l-1.53.95a2.37,2.37,0,0,0-2-1,2.38,2.38,0,0,0,0,4.76,2.37,2.37,0,0,0,2-1l1.53,1a4.16,4.16,0,0,1-3.49,1.77A4.05,4.05,0,0,1,74,313.35Z"/><path class="cls-10" d="M83.06,309.4h1.78v7.9H83.06Z"/><path class="cls-10" d="M86.33,313.35a4.19,4.19,0,1,1,4.19,4.09A4.05,4.05,0,0,1,86.33,313.35Zm6.55,0a2.37,2.37,0,1,0-2.36,2.38A2.32,2.32,0,0,0,92.88,313.35Zm-2.18-6.24h2.1l-1.49,1.69H89.55Z"/><path class="cls-10" d="M103,309.4v7.9h-1.8L98,312.47v4.83H96.18v-7.9H98l3.29,4.83V309.4Z"/><path class="cls-10" d="M45,423.41v1.67H38.69v-1.27l3.74-5H38.74v-1.68h6.13v1.28l-3.74,5Z"/><path class="cls-10" d="M46.29,422v-4.84h1.78V422a1.53,1.53,0,0,0,3,0v-4.82H52.9V422a3.31,3.31,0,0,1-6.61,0Z"/><path class="cls-10" d="M63.18,417.17v7.91H61.4V420l-2,3.75h-1l-2-3.75v5.08H54.63v-7.91h2.2l2.08,3.91,2.1-3.91Z"/><path class="cls-10" d="M71.37,422.94a2.12,2.12,0,0,1-2.23,2.14H65.06v-7.91h3.83a2,2,0,0,1,1.23,3.72A2.15,2.15,0,0,1,71.37,422.94Zm-4.59-4.16v1.49h1.66a.73.73,0,0,0,.73-.75.72.72,0,0,0-.73-.74Zm2.77,3.85a.85.85,0,0,0-.85-.86H66.78v1.71H68.7A.84.84,0,0,0,69.55,422.63Z"/><path class="cls-10" d="M77.54,423.69H74.33l-.49,1.39h-1.9l3-7.91H77l3,7.91H78ZM77,422.06l-1-2.93-1,2.93Z"/><path class="cls-10" d="M45.37,368.94a2.12,2.12,0,0,1-2.23,2.15H39.06v-7.91h3.83a2,2,0,0,1,1.24,3.71A2.17,2.17,0,0,1,45.37,368.94Zm-4.59-4.16v1.49h1.66a.73.73,0,0,0,.73-.74.72.72,0,0,0-.73-.75Zm2.77,3.85a.84.84,0,0,0-.85-.86H40.78v1.71H42.7A.83.83,0,0,0,43.55,368.63Z"/><path class="cls-10" d="M46.71,363.18h1.77v7.91H46.71Z"/><path class="cls-10" d="M50,367.13A4.06,4.06,0,0,1,54.16,363a4.14,4.14,0,0,1,3.49,1.78l-1.54.95a2.38,2.38,0,1,0-2,3.75,2.36,2.36,0,0,0,2-1l1.54.95a4.13,4.13,0,0,1-3.49,1.77A4.05,4.05,0,0,1,50,367.13Z"/><path class="cls-10" d="M59,363.18h1.78v7.91H59Z"/><path class="cls-10" d="M62.27,367.13A4.06,4.06,0,0,1,66.46,363,4.16,4.16,0,0,1,70,364.82l-1.54.95a2.38,2.38,0,1,0-2,3.75,2.36,2.36,0,0,0,2-1l1.54.95a4.15,4.15,0,0,1-3.49,1.77A4.05,4.05,0,0,1,62.27,367.13Z"/><path class="cls-10" d="M76.38,369.41v1.68H71.3v-7.91h1.78v6.23Z"/><path class="cls-10" d="M83.18,369.41v1.68H77.76v-7.91h5.36v1.67H79.53v1.42h3.21V368H79.53v1.46Z"/><path class="cls-10" d="M90.5,364.85H88.3v6.24H86.53v-6.24h-2.2v-1.67H90.5Z"/><path class="cls-10" d="M95.76,369.7h-3.2l-.5,1.39h-1.9l3-7.91h2.1l3,7.91H96.26Zm-.57-1.64-1-2.92-1,2.92Z"/><path class="cls-10" d="M107.73,369.41v1.68h-5.42v-7.91h5.36v1.67h-3.58v1.42h3.21V368h-3.21v1.46Z"/><path class="cls-10" d="M108.8,370l.92-1.36a3.77,3.77,0,0,0,2.42,1c.72,0,1.32-.31,1.32-.78s-.75-.73-1.59-.94c-1.58-.38-2.76-1.12-2.76-2.52s1.22-2.36,3-2.36a4,4,0,0,1,2.79,1l-.82,1.35a3,3,0,0,0-2-.75c-.71,0-1.21.3-1.21.71s.72.76,1.44.91,2.91.7,2.91,2.54c0,1.46-1.36,2.44-3.12,2.44A5.26,5.26,0,0,1,108.8,370Z"/><path class="cls-10" d="M122.15,364.85H120v6.24h-1.78v-6.24H116v-1.67h6.18Z"/><path class="cls-10" d="M127.41,369.7H124.2l-.49,1.39h-1.9l3-7.91h2.09l3,7.91h-1.94Zm-.57-1.64-1-2.92-1,2.92Zm-.22-5.48h-1.75l1.14-1.69h2.1Z"/><path class="cls-10" d="M135.69,364.85h-2.2v6.24h-1.78v-6.24h-2.2v-1.67h6.18Z"/><path class="cls-10" d="M137.1,363.18h1.78v7.91H137.1Z"/><path class="cls-10" d="M140.37,367.13a4.05,4.05,0,0,1,4.18-4.09,4.14,4.14,0,0,1,3.49,1.78l-1.53.95a2.37,2.37,0,0,0-2-1,2.39,2.39,0,0,0,0,4.77,2.39,2.39,0,0,0,2-1l1.53.95a4.13,4.13,0,0,1-3.49,1.77A4,4,0,0,1,140.37,367.13Z"/><path class="cls-10" d="M154.15,369.7H151l-.5,1.39h-1.9l3-7.91h2.1l3,7.91h-1.95Zm-.57-1.64-1-2.92-1,2.92Z"/></svg>