<svg xmlns="http://www.w3.org/2000/svg" xmlns:xlink="http://www.w3.org/1999/xlink" viewBox="0 0 245.22 245.22"><defs><style>.cls-1{fill:none;}.cls-2{isolation:isolate;}.cls-3,.cls-4,.cls-5{fill:#12a8f3;}.cls-3{opacity:0.1;}.cls-5{opacity:0.2;}.cls-6,.cls-9{mix-blend-mode:screen;}.cls-6{opacity:0.3;}.cls-7{opacity:0.5;}.cls-8{clip-path:url(#clip-path);}.cls-9{fill:url(#radial-gradient);}</style><clipPath id="clip-path"><path class="cls-1" d="M120.37,29.21a93.15,93.15,0,1,0,93.14,93.15A93.25,93.25,0,0,0,120.37,29.21Zm0,100.9a7.75,7.75,0,1,1,7.75-7.75A7.74,7.74,0,0,1,120.37,130.11Z"/></clipPath><radialGradient id="radial-gradient" cx="122.61" cy="122.61" r="122.61" gradientUnits="userSpaceOnUse"><stop offset="0" stop-color="#0083ca"/><stop offset="0.03" stop-color="#007bbd"/><stop offset="0.16" stop-color="#005a8b"/><stop offset="0.3" stop-color="#003f61"/><stop offset="0.43" stop-color="#00283e"/><stop offset="0.57" stop-color="#001623"/><stop offset="0.71" stop-color="#000a0f"/><stop offset="0.85" stop-color="#000204"/><stop offset="1"/></radialGradient></defs><g class="cls-2"><g id="Capa_1" data-name="Capa 1"><polygon class="cls-3" points="52.87 186.78 179.52 184.08 119.4 29.09 52.87 186.78"/><path class="cls-4" d="M119.53,28.78a.31.31,0,0,1,.18.19l60.12,155a.32.32,0,0,1,0,.3.31.31,0,0,1-.27.15l-126.65,2.7a.33.33,0,0,1-.32-.46L119.09,29a.34.34,0,0,1,.32-.21Zm59.51,155L119.39,30l-66,156.45Z"/><path class="cls-4" d="M51.48,186a1.52,1.52,0,1,1,.78,2A1.52,1.52,0,0,1,51.48,186Z"/><path class="cls-4" d="M178.41,183.45a1.52,1.52,0,1,1,.78,2A1.51,1.51,0,0,1,178.41,183.45Z"/><path class="cls-4" d="M118,28.86a1.52,1.52,0,1,1,.78,2A1.51,1.51,0,0,1,118,28.86Z"/><polygon class="cls-5" points="57.76 53.58 86.63 207.52 212.67 115.35 57.76 53.58"/><path class="cls-4" d="M213,115.48a.31.31,0,0,1-.19.18l-126,92.17a.35.35,0,0,1-.31,0,.32.32,0,0,1-.14-.27L57.43,53.58a.31.31,0,0,1,.14-.28.33.33,0,0,1,.32,0L212.8,115a.34.34,0,0,1,.2.31A.28.28,0,0,1,213,115.48ZM87,207l124.81-91.7L58.11,54.09Z"/><path class="cls-4" d="M58.59,52.19a1.52,1.52,0,1,1-2,.78A1.52,1.52,0,0,1,58.59,52.19Z"/><path class="cls-4" d="M87.26,206.4a1.52,1.52,0,1,1-2,.78A1.53,1.53,0,0,1,87.26,206.4Z"/><path class="cls-4" d="M212.9,113.89a1.52,1.52,0,1,1-2,.78A1.53,1.53,0,0,1,212.9,113.89Z"/><g class="cls-6"><polygon class="cls-4" points="118.78 168.7 160.87 102.91 83.27 81.69 118.78 168.7"/></g><path class="cls-4" d="M81.88,81.08a1.52,1.52,0,1,1,.78,2A1.51,1.51,0,0,1,81.88,81.08Z"/><path class="cls-4" d="M159.15,102.77a1.52,1.52,0,1,1,.78,2A1.52,1.52,0,0,1,159.15,102.77Z"/><path class="cls-4" d="M117.39,168.09a1.52,1.52,0,1,1,.78,2A1.51,1.51,0,0,1,117.39,168.09Z"/><path class="cls-4" d="M161,102.6a.33.33,0,0,1,.18.19.31.31,0,0,1,0,.3l-42.09,65.79a.35.35,0,0,1-.31.15.32.32,0,0,1-.28-.2L83,81.81a.31.31,0,0,1,.06-.34.32.32,0,0,1,.34-.1L161,102.59ZM118.85,168l41.49-64.86L83.84,82.19Z"/><path class="cls-4" d="M118.29,22.3a1.46,1.46,0,0,1-1.63-1.65v-.08h1.07a1.34,1.34,0,0,0,.12.65.48.48,0,0,0,.45.21.45.45,0,0,0,.44-.31,2.93,2.93,0,0,0,.13-1.05v-.76a1,1,0,0,1-.87.42,1.58,1.58,0,0,1-.55-.1,1,1,0,0,1-.4-.26,1.25,1.25,0,0,1-.26-.42,1.66,1.66,0,0,1-.14-.52,3.64,3.64,0,0,1-.05-.6,3.43,3.43,0,0,1,.1-.88,2.09,2.09,0,0,1,.29-.68,1.39,1.39,0,0,1,.52-.47,2,2,0,0,1,.79-.15,1.86,1.86,0,0,1,.77.15,1.46,1.46,0,0,1,.53.45,2.4,2.4,0,0,1,.3.67,3.7,3.7,0,0,1,.09.85V20a5.54,5.54,0,0,1,0,.73,2.66,2.66,0,0,1-.17.63,1.62,1.62,0,0,1-.31.51,1.27,1.27,0,0,1-.49.32A1.81,1.81,0,0,1,118.29,22.3Zm0-3.42a.61.61,0,0,0,.57-.37v-1c0-.68-.19-1-.57-1a.52.52,0,0,0-.29.08.65.65,0,0,0-.17.25,1.9,1.9,0,0,0-.09.36c0,.12,0,.27,0,.44v.42c0,.09,0,.15,0,.2s0,.1,0,.17a.44.44,0,0,0,0,.15,1,1,0,0,0,.07.12.24.24,0,0,0,.1.1l.13.06Z"/><path class="cls-4" d="M123.66,21.8a1.77,1.77,0,0,1-2.51,0,2.12,2.12,0,0,1-.44-1.39V17.55a2.16,2.16,0,0,1,.42-1.4,1.85,1.85,0,0,1,2.54,0,2.12,2.12,0,0,1,.42,1.39v2.86A2.12,2.12,0,0,1,123.66,21.8Zm-1.26-.45c.38,0,.57-.31.57-1V17.58c0-.09,0-.16,0-.23a1.92,1.92,0,0,0,0-.22,1.12,1.12,0,0,0,0-.15,1.16,1.16,0,0,0-.09-.18,1,1,0,0,0-.13-.14.94.94,0,0,0-.28-.06.49.49,0,0,0-.25.06l-.13.09a.79.79,0,0,0-.13.29,1.38,1.38,0,0,0,0,.26,2.35,2.35,0,0,0,0,.28v2.81C121.84,21,122,21.35,122.4,21.35Z"/><path class="cls-4" d="M88.82,24.73l1.26-5.65H88.37v-.85h2.81v.65L89.9,24.73Z"/><path class="cls-4" d="M93.54,24.82a2.14,2.14,0,0,1-.81-.14,1.08,1.08,0,0,1-.51-.4,1.76,1.76,0,0,1-.26-.61,3.92,3.92,0,0,1-.07-.82H93c0,.18,0,.32,0,.44a1.37,1.37,0,0,0,.08.35.45.45,0,0,0,.18.24.48.48,0,0,0,.32.08.46.46,0,0,0,.21,0,.62.62,0,0,0,.16-.1.38.38,0,0,0,.1-.17c0-.08,0-.15.07-.22s0-.15,0-.26,0-.23,0-.31v-.34c0-.17,0-.31,0-.42s0-.22,0-.33a1,1,0,0,0-.1-.27.4.4,0,0,0-.18-.16.47.47,0,0,0-.27-.06.49.49,0,0,0-.39.15.92.92,0,0,0-.23.41H92l0-3.61h3v1H93l-.07,1.53a1.25,1.25,0,0,1,.36-.24,1.93,1.93,0,0,1,.51-.09,1.39,1.39,0,0,1,.66.12,1,1,0,0,1,.45.4,1.81,1.81,0,0,1,.26.63,4.1,4.1,0,0,1,.08.83,6,6,0,0,1,0,.77,3.42,3.42,0,0,1-.15.65,1.62,1.62,0,0,1-.3.52,1.39,1.39,0,0,1-.5.32A1.73,1.73,0,0,1,93.54,24.82Z"/><path class="cls-4" d="M142.29,24.73V19.49l-1,.27v-.83a3,3,0,0,0,1.31-.7h.85v6.5Z"/><path class="cls-4" d="M147.87,24.3a1.77,1.77,0,0,1-2.51,0,2.07,2.07,0,0,1-.43-1.38V20.06a2.14,2.14,0,0,1,.42-1.4,1.82,1.82,0,0,1,2.53,0,2.11,2.11,0,0,1,.43,1.4v2.86A2.08,2.08,0,0,1,147.87,24.3Zm-1.25-.43c.37,0,.56-.33.56-1V20.09a1.77,1.77,0,0,0,0-.24,2,2,0,0,0,0-.22.81.81,0,0,0,0-.14,1.86,1.86,0,0,0-.13-.23.69.69,0,0,0-.16-.12.65.65,0,0,0-.21,0,.49.49,0,0,0-.25.07.42.42,0,0,0-.17.15.69.69,0,0,0-.09.23,1.38,1.38,0,0,0-.05.25,2.53,2.53,0,0,0,0,.29v2.82C146.05,23.54,146.24,23.87,146.62,23.87Z"/><path class="cls-4" d="M150.7,24.82a2.14,2.14,0,0,1-.81-.14,1.08,1.08,0,0,1-.51-.4,2,2,0,0,1-.26-.61,3.92,3.92,0,0,1-.07-.82h1.09c0,.18,0,.32,0,.44a1.37,1.37,0,0,0,.08.35.45.45,0,0,0,.18.24.48.48,0,0,0,.32.08.54.54,0,0,0,.22,0,.56.56,0,0,0,.15-.1.79.79,0,0,0,.1-.17c0-.08,0-.15.07-.22s0-.15,0-.26,0-.23,0-.31v-.34c0-.17,0-.31,0-.42s0-.22,0-.33a1,1,0,0,0-.1-.27.4.4,0,0,0-.18-.16.47.47,0,0,0-.27-.06.49.49,0,0,0-.39.15.92.92,0,0,0-.23.41h-.95l0-3.61h3v1h-2l-.07,1.53a1.25,1.25,0,0,1,.36-.24,1.93,1.93,0,0,1,.51-.09,1.39,1.39,0,0,1,.66.12,1,1,0,0,1,.46.4,2,2,0,0,1,.25.63,4.1,4.1,0,0,1,.08.83c0,.29,0,.54,0,.77a3.42,3.42,0,0,1-.15.65,1.62,1.62,0,0,1-.3.52,1.39,1.39,0,0,1-.5.32A1.73,1.73,0,0,1,150.7,24.82Z"/><path class="cls-4" d="M63.56,34.84a1.83,1.83,0,0,1-.64-.1,1.47,1.47,0,0,1-.48-.31,1.74,1.74,0,0,1-.33-.46,2.27,2.27,0,0,1-.19-.59,3.85,3.85,0,0,1-.06-.69V30.5a4.12,4.12,0,0,1,0-.73,2.65,2.65,0,0,1,.16-.63,1.47,1.47,0,0,1,.31-.5,1.25,1.25,0,0,1,.49-.33,1.81,1.81,0,0,1,.69-.12,1.46,1.46,0,0,1,1.64,1.64v.09H64.12a1.46,1.46,0,0,0-.11-.65.47.47,0,0,0-.45-.21.45.45,0,0,0-.45.32,2.83,2.83,0,0,0-.13,1v.77a.65.65,0,0,1,.34-.31,1.12,1.12,0,0,1,.53-.12c.93,0,1.4.61,1.4,1.86a3.91,3.91,0,0,1-.09.88,2.19,2.19,0,0,1-.28.7,1.27,1.27,0,0,1-.53.47A1.77,1.77,0,0,1,63.56,34.84Zm0-.87a.45.45,0,0,0,.29-.08.48.48,0,0,0,.18-.25,1.28,1.28,0,0,0,.08-.35,3,3,0,0,0,0-.44v-.29s0-.14,0-.24a.7.7,0,0,0,0-.24L64,31.89a.5.5,0,0,0-.11-.16.55.55,0,0,0-.36-.13A.63.63,0,0,0,63,32v1C63,33.64,63.17,34,63.56,34Z"/><path class="cls-4" d="M68.84,34.34a1.77,1.77,0,0,1-2.51,0A2.09,2.09,0,0,1,65.9,33V30.1a2.13,2.13,0,0,1,.42-1.4,1.52,1.52,0,0,1,1.27-.51,1.54,1.54,0,0,1,1.26.51,2.17,2.17,0,0,1,.43,1.4V33A2.09,2.09,0,0,1,68.84,34.34Zm-1.25-.44c.37,0,.56-.32.56-1V30.12a1.69,1.69,0,0,0,0-.23s0-.14,0-.22a.65.65,0,0,0-.06-.21.86.86,0,0,0-.1-.16.33.33,0,0,0-.16-.12.94.94,0,0,0-.21,0,.53.53,0,0,0-.26.06.46.46,0,0,0-.16.15,1.33,1.33,0,0,0-.09.23,1.47,1.47,0,0,0,0,.26,2.35,2.35,0,0,0,0,.28v2.82Q67,33.9,67.59,33.9Z"/><path class="cls-4" d="M168.87,34.77V29.53l-1,.27V29a3.13,3.13,0,0,0,1.31-.7H170v6.5Z"/><path class="cls-4" d="M171.52,34.77V34l1.59-2.49.19-.29.21-.32.14-.28a1.45,1.45,0,0,0,.12-.37,1.29,1.29,0,0,0,0-.35,1,1,0,0,0-.14-.58.42.42,0,0,0-.42-.18c-.39,0-.59.36-.59,1v.27h-1.1v-.28a2.83,2.83,0,0,1,.1-.8,1.86,1.86,0,0,1,.29-.62,1.23,1.23,0,0,1,.52-.4,2.09,2.09,0,0,1,.78-.14,1.64,1.64,0,0,1,1.25.44,1.78,1.78,0,0,1,.42,1.26,3,3,0,0,1,0,.53,2.11,2.11,0,0,1-.17.48c-.07.15-.15.29-.21.4l-.27.41,0,0,0,0,0,0-1.34,2h1.95v.91Z"/><path class="cls-4" d="M178.48,34.34a1.77,1.77,0,0,1-2.51,0,2.09,2.09,0,0,1-.44-1.38V30.1a2.13,2.13,0,0,1,.42-1.4,1.53,1.53,0,0,1,1.27-.51,1.57,1.57,0,0,1,1.27.51,2.16,2.16,0,0,1,.42,1.4V33A2.09,2.09,0,0,1,178.48,34.34Zm-1.26-.44q.57,0,.57-1V30.12a2.46,2.46,0,0,0,0-.45,1.08,1.08,0,0,0-.05-.21.91.91,0,0,0-.11-.16.3.3,0,0,0-.15-.12.72.72,0,0,0-.22,0,.51.51,0,0,0-.25.06.5.5,0,0,0-.17.15.79.79,0,0,0-.09.23,1.38,1.38,0,0,0,0,.26,2.35,2.35,0,0,0,0,.28v2.82C176.66,33.58,176.85,33.9,177.22,33.9Z"/><path class="cls-4" d="M114.66,229.49v-.78l1.59-2.49.19-.29a3.48,3.48,0,0,0,.21-.33,2.07,2.07,0,0,0,.14-.27,1.84,1.84,0,0,0,.13-.37,1.9,1.9,0,0,0,0-.35,1,1,0,0,0-.13-.58.41.41,0,0,0-.42-.18c-.4,0-.59.36-.59,1v.26h-1.1v-.27a3.35,3.35,0,0,1,.09-.81,1.91,1.91,0,0,1,.29-.61,1.29,1.29,0,0,1,.53-.41,2.05,2.05,0,0,1,.78-.14,1.62,1.62,0,0,1,1.24.45,1.76,1.76,0,0,1,.42,1.26,2.78,2.78,0,0,1,0,.52,2.16,2.16,0,0,1-.16.49,4.19,4.19,0,0,1-.22.39,4.54,4.54,0,0,1-.27.42l0,0,0,0,0,.05-1.33,2h1.94v.9Z"/><path class="cls-4" d="M119.09,229.49l1.26-5.64h-1.71V223h2.81v.65l-1.28,5.85Z"/><path class="cls-4" d="M125.07,229.07a1.8,1.8,0,0,1-2.51,0,2.09,2.09,0,0,1-.43-1.38v-2.87a2.16,2.16,0,0,1,.42-1.4,1.55,1.55,0,0,1,1.27-.51,1.51,1.51,0,0,1,1.26.52,2.06,2.06,0,0,1,.43,1.39v2.87A2.09,2.09,0,0,1,125.07,229.07Zm-1.25-.45c.37,0,.56-.32.56-1v-3l0-.22a1.12,1.12,0,0,0,0-.15,1.31,1.31,0,0,0-.13-.23.66.66,0,0,0-.09-.09.94.94,0,0,0-.28-.06.71.71,0,0,0-.26,0,.61.61,0,0,0-.16.16.69.69,0,0,0-.09.23,1.32,1.32,0,0,0,0,.26c0,.08,0,.17,0,.28v2.82C123.25,228.3,123.44,228.62,123.82,228.62Z"/><path class="cls-4" d="M142.88,224.81V224l1.59-2.48s.09-.14.19-.3a2.64,2.64,0,0,0,.21-.32l.14-.29a1.37,1.37,0,0,0,.13-.35,2,2,0,0,0,0-.35,1.05,1.05,0,0,0-.13-.59.45.45,0,0,0-.42-.19c-.4,0-.6.37-.6,1v.27h-1.09v-.28a3.26,3.26,0,0,1,.09-.8,1.72,1.72,0,0,1,.29-.61,1.21,1.21,0,0,1,.53-.41,1.86,1.86,0,0,1,.77-.14,1.63,1.63,0,0,1,1.25.44,1.78,1.78,0,0,1,.42,1.26,2.78,2.78,0,0,1-.05.52,2.16,2.16,0,0,1-.16.49,4.19,4.19,0,0,1-.22.39,4.54,4.54,0,0,1-.27.42l0,0,0,0,0,0-1.34,2h2v.9Z"/><path class="cls-4" d="M148.57,224.89a2.13,2.13,0,0,1-.8-.13,1.22,1.22,0,0,1-.51-.4,1.81,1.81,0,0,1-.26-.62,3.85,3.85,0,0,1-.07-.82H148a2.83,2.83,0,0,0,0,.45,1.4,1.4,0,0,0,.08.34.48.48,0,0,0,.18.25.53.53,0,0,0,.32.08.46.46,0,0,0,.21,0l.15-.1a.45.45,0,0,0,.11-.17,1.89,1.89,0,0,0,.06-.21,1.55,1.55,0,0,0,0-.28,2.54,2.54,0,0,1,0-.3v-.35c0-.16,0-.29,0-.41a1.88,1.88,0,0,0-.05-.33.66.66,0,0,0-.1-.28.52.52,0,0,0-.17-.16.61.61,0,0,0-.28-.06.57.57,0,0,0-.39.16.81.81,0,0,0-.22.41h-1l0-3.62h3v1h-2l-.07,1.53a.85.85,0,0,1,.36-.22,1.35,1.35,0,0,1,.5-.11,1.71,1.71,0,0,1,.67.12,1.17,1.17,0,0,1,.45.4,2,2,0,0,1,.25.63,3.52,3.52,0,0,1,.09.83,5.86,5.86,0,0,1-.05.77,2.37,2.37,0,0,1-.15.65,1.25,1.25,0,0,1-.3.52,1.18,1.18,0,0,1-.49.33A1.94,1.94,0,0,1,148.57,224.89Z"/><path class="cls-4" d="M152.58,224.89a2.15,2.15,0,0,1-.81-.13,1.22,1.22,0,0,1-.51-.4,1.81,1.81,0,0,1-.26-.62,3.85,3.85,0,0,1-.07-.82H152c0,.19,0,.34,0,.45a1.4,1.4,0,0,0,.08.34.48.48,0,0,0,.18.25.55.55,0,0,0,.32.08h.15l.18-.1a.43.43,0,0,0,.14-.2c0-.09,0-.16.07-.21s0-.16,0-.28,0-.22,0-.3v-.35c0-.16,0-.29,0-.41s0-.22,0-.33a1.11,1.11,0,0,0-.1-.28.47.47,0,0,0-.18-.16.57.57,0,0,0-.27-.06.53.53,0,0,0-.39.16.75.75,0,0,0-.23.41H151l.05-3.62H154v1h-2l-.07,1.53a.92.92,0,0,1,.36-.22,1.36,1.36,0,0,1,.51-.11,1.69,1.69,0,0,1,.66.12,1.17,1.17,0,0,1,.45.4,2,2,0,0,1,.26.63,4.17,4.17,0,0,1,.08.83,6,6,0,0,1,0,.77,3.42,3.42,0,0,1-.15.65,1.52,1.52,0,0,1-.3.52,1.29,1.29,0,0,1-.5.33A1.92,1.92,0,0,1,152.58,224.89Z"/><path class="cls-4" d="M86.45,224.81V224L88,221.54a2.23,2.23,0,0,1,.19-.3l.21-.32.14-.29a1.32,1.32,0,0,0,.12-.35,1.34,1.34,0,0,0,0-.35,1,1,0,0,0-.14-.59.44.44,0,0,0-.41-.19c-.4,0-.6.37-.6,1v.27h-1.1v-.28a3.26,3.26,0,0,1,.09-.8,2.15,2.15,0,0,1,.29-.61,1.27,1.27,0,0,1,.53-.41,1.87,1.87,0,0,1,.78-.14,1.64,1.64,0,0,1,1.25.44,1.78,1.78,0,0,1,.42,1.26,2.78,2.78,0,0,1,0,.52,2.19,2.19,0,0,1-.17.49,2.75,2.75,0,0,1-.21.39c-.06.11-.16.25-.27.42l0,0,0,.05a.07.07,0,0,0,0,0l-1.34,2h2v.9Z"/><path class="cls-4" d="M92.11,224.89c-1.13,0-1.7-.66-1.7-2a1.64,1.64,0,0,1,.77-1.54,1.72,1.72,0,0,1-.67-1.43,1.84,1.84,0,0,1,.4-1.27,1.82,1.82,0,0,1,2.4,0A1.89,1.89,0,0,1,93.7,220a1.7,1.7,0,0,1-.66,1.43,1.63,1.63,0,0,1,.76,1.54C93.82,224.23,93.25,224.89,92.11,224.89Zm-.27-.91a.6.6,0,0,0,.27.06.45.45,0,0,0,.27-.07.57.57,0,0,0,.18-.16.82.82,0,0,0,.1-.25,1.47,1.47,0,0,0,0-.29,2.91,2.91,0,0,0,0-.31c0-.7-.2-1.07-.61-1.07s-.62.37-.62,1.07c0,.12,0,.22,0,.32a1.4,1.4,0,0,0,.06.28.72.72,0,0,0,.1.25A.49.49,0,0,0,91.84,224Zm.27-3c.35,0,.52-.34.52-1a1.19,1.19,0,0,0-.13-.6.41.41,0,0,0-.39-.22.42.42,0,0,0-.4.22,1.15,1.15,0,0,0-.13.59C91.58,220.59,91.76,220.93,92.11,220.93Z"/><path class="cls-4" d="M96.16,224.89a2.15,2.15,0,0,1-.81-.13,1.22,1.22,0,0,1-.51-.4,2,2,0,0,1-.26-.62,3.85,3.85,0,0,1-.07-.82H95.6c0,.19,0,.34,0,.45a2.09,2.09,0,0,0,.08.34.48.48,0,0,0,.18.25.55.55,0,0,0,.32.08.54.54,0,0,0,.22,0l.15-.1a.45.45,0,0,0,.1-.17l.07-.21c0-.07,0-.16,0-.28s0-.22,0-.3v-.35c0-.16,0-.29,0-.41s0-.22,0-.33a1.11,1.11,0,0,0-.1-.28.47.47,0,0,0-.18-.16.58.58,0,0,0-.66.1.82.82,0,0,0-.23.41h-1l0-3.62h3v1h-2l-.07,1.53a.92.92,0,0,1,.36-.22,1.41,1.41,0,0,1,.51-.11,1.69,1.69,0,0,1,.66.12,1.27,1.27,0,0,1,.46.4,2.24,2.24,0,0,1,.25.63,4.17,4.17,0,0,1,.08.83,6,6,0,0,1,0,.77,3.42,3.42,0,0,1-.15.65,1.52,1.52,0,0,1-.3.52,1.32,1.32,0,0,1-.49.33A2,2,0,0,1,96.16,224.89Z"/><path class="cls-4" d="M169.47,213.3v-.78l1.59-2.48.19-.3c.11-.15.17-.26.21-.32l.14-.29a1.89,1.89,0,0,0,.13-.35,2,2,0,0,0,0-.36,1,1,0,0,0-.13-.58.45.45,0,0,0-.42-.19c-.4,0-.6.37-.6,1V209h-1.1v-.28a3.18,3.18,0,0,1,.1-.8,1.86,1.86,0,0,1,.29-.62,1.14,1.14,0,0,1,.53-.4,1.86,1.86,0,0,1,.77-.15,1.63,1.63,0,0,1,1.25.45,1.76,1.76,0,0,1,.42,1.26,3.07,3.07,0,0,1-.05.53,3,3,0,0,1-.16.48,4.19,4.19,0,0,1-.22.39,4.54,4.54,0,0,1-.27.42l0,0,0,.05,0,0-1.34,2h1.95v.89Z"/><path class="cls-4" d="M175.32,213.3v-1.59h-1.91v-1l1.65-3.89h1.31v4h.68v.92h-.68v1.59Zm-.95-2.51h.95V208Z"/><path class="cls-4" d="M180.52,212.88a1.8,1.8,0,0,1-2.51,0,2.1,2.1,0,0,1-.43-1.39v-2.85a2.13,2.13,0,0,1,.42-1.4,1.8,1.8,0,0,1,2.53,0,2.09,2.09,0,0,1,.43,1.4v2.85A2.1,2.1,0,0,1,180.52,212.88Zm-1.25-.44c.37,0,.56-.32.56-1v-3l0-.23a.59.59,0,0,0-.06-.2l-.06-.11a.55.55,0,0,0-.19-.17.54.54,0,0,0-.22,0,.49.49,0,0,0-.25.06.38.38,0,0,0-.17.16.56.56,0,0,0-.09.22,1.47,1.47,0,0,0,0,.26c0,.08,0,.17,0,.28v2.82Q178.7,212.44,179.27,212.44Z"/><path class="cls-4" d="M61.52,213.39a1.62,1.62,0,0,1-1.29-.48,2,2,0,0,1-.41-1.36v-.23h1.11v.18a1.83,1.83,0,0,0,.13.73.49.49,0,0,0,.47.23.62.62,0,0,0,.25,0,.4.4,0,0,0,.17-.14.41.41,0,0,0,.1-.22,2.74,2.74,0,0,0,.05-.28c0-.09,0-.21,0-.34a1.52,1.52,0,0,0-.17-.79.7.7,0,0,0-.59-.3h-.16v-.93h.13a.82.82,0,0,0,.63-.23,1.16,1.16,0,0,0,.17-.7,1.35,1.35,0,0,0-.13-.65.5.5,0,0,0-.47-.22.6.6,0,0,0-.24,0,.57.57,0,0,0-.17.12.59.59,0,0,0-.1.21,1.84,1.84,0,0,0,0,.25,2.66,2.66,0,0,0,0,.3v.22H59.82v-.3a1.77,1.77,0,0,1,.44-1.29,2,2,0,0,1,2.51,0,1.77,1.77,0,0,1,.44,1.28,1.68,1.68,0,0,1-.24.92,1.1,1.1,0,0,1-.63.48,1.17,1.17,0,0,1,.65.53,2.14,2.14,0,0,1,.22,1,2.29,2.29,0,0,1-.4,1.45A1.55,1.55,0,0,1,61.52,213.39Z"/><path class="cls-4" d="M66.75,212.88a1.81,1.81,0,0,1-2.52,0,2.16,2.16,0,0,1-.43-1.39v-2.85a2.13,2.13,0,0,1,.42-1.4,1.56,1.56,0,0,1,1.27-.52,1.54,1.54,0,0,1,1.26.52,2.09,2.09,0,0,1,.43,1.4v2.85A2.1,2.1,0,0,1,66.75,212.88Zm-1.26-.44q.57,0,.57-1v-2.82c0-.09,0-.17,0-.23l0-.23A.59.59,0,0,0,66,208a.41.41,0,0,0-.06-.11.55.55,0,0,0-.19-.17.54.54,0,0,0-.22,0,.49.49,0,0,0-.25.06.44.44,0,0,0-.17.16.56.56,0,0,0-.09.22,1.38,1.38,0,0,0,0,.26,2.35,2.35,0,0,0,0,.28v2.82C64.93,212.12,65.11,212.44,65.49,212.44Z"/><path class="cls-4" d="M70.84,212.88a1.8,1.8,0,0,1-2.51,0,2.1,2.1,0,0,1-.44-1.39v-2.85a2.08,2.08,0,0,1,.43-1.4,1.54,1.54,0,0,1,1.26-.52,1.58,1.58,0,0,1,1.27.52,2.14,2.14,0,0,1,.42,1.4v2.85A2.1,2.1,0,0,1,70.84,212.88Zm-1.26-.44q.57,0,.57-1v-2.82a1.55,1.55,0,0,0,0-.23,2.08,2.08,0,0,0,0-.23.59.59,0,0,0-.06-.2.62.62,0,0,0,0-.11.49.49,0,0,0-.2-.17.58.58,0,0,0-.47,0,.44.44,0,0,0-.17.16.77.77,0,0,0-.09.22c0,.1,0,.18,0,.26a2.35,2.35,0,0,0,0,.28v2.82C69,212.12,69.21,212.44,69.58,212.44Z"/><path class="cls-4" d="M191.32,195.38v-.78l1.59-2.49.19-.29c.1-.16.17-.27.21-.32l.14-.28a1.65,1.65,0,0,0,.13-.37,2,2,0,0,0,0-.35,1,1,0,0,0-.14-.58.39.39,0,0,0-.41-.18c-.4,0-.6.36-.6,1V191h-1.1v-.27a3.24,3.24,0,0,1,.1-.8,1.86,1.86,0,0,1,.29-.62,1.21,1.21,0,0,1,.53-.4,1.86,1.86,0,0,1,.77-.14,1.67,1.67,0,0,1,1.25.44,1.76,1.76,0,0,1,.42,1.26,2.78,2.78,0,0,1-.05.52,1.62,1.62,0,0,1-.17.48,3.09,3.09,0,0,1-.21.41c-.06.1-.15.24-.27.41l0,0v0l0,0-1.34,2h2v.9Z"/><path class="cls-4" d="M195.34,195.38v-.78l1.59-2.49.19-.29c.1-.16.17-.27.21-.32l.14-.28a2.36,2.36,0,0,0,.13-.37,2,2,0,0,0,0-.35,1,1,0,0,0-.14-.58.39.39,0,0,0-.41-.18c-.4,0-.6.36-.6,1V191h-1.1v-.27a2.83,2.83,0,0,1,.1-.8,1.86,1.86,0,0,1,.29-.62,1.23,1.23,0,0,1,.52-.4,1.91,1.91,0,0,1,.78-.14,1.67,1.67,0,0,1,1.25.44,1.76,1.76,0,0,1,.42,1.26,2.78,2.78,0,0,1-.05.52,2,2,0,0,1-.17.48,3.09,3.09,0,0,1-.21.41l-.27.41,0,0v0l0,0-1.34,2h1.95v.9Z"/><path class="cls-4" d="M201,195.47a2.15,2.15,0,0,1-.81-.13,1.1,1.1,0,0,1-.51-.41,1.67,1.67,0,0,1-.25-.61,3.76,3.76,0,0,1-.08-.81h1.09a2.76,2.76,0,0,0,0,.44,1.28,1.28,0,0,0,.07.34.48.48,0,0,0,.19.25.59.59,0,0,0,.31.08.67.67,0,0,0,.22,0,.58.58,0,0,0,.15-.11.68.68,0,0,0,.11-.17c0-.08,0-.15.06-.21a1.47,1.47,0,0,0,0-.28c0-.11,0-.22,0-.3a2.83,2.83,0,0,0,0-.33c0-.17,0-.31,0-.42a2.15,2.15,0,0,0-.05-.34,1,1,0,0,0-.06-.2.6.6,0,0,0-.21-.23.61.61,0,0,0-.28-.06.56.56,0,0,0-.39.15,1,1,0,0,0-.22.41h-1l.05-3.6h2.95v1h-2l-.06,1.53a.82.82,0,0,1,.35-.23,1.44,1.44,0,0,1,.51-.09,1.55,1.55,0,0,1,.67.11,1.15,1.15,0,0,1,.45.4,2.24,2.24,0,0,1,.25.63,3.54,3.54,0,0,1,.08.83,6,6,0,0,1,0,.77,3.14,3.14,0,0,1-.15.66,1.58,1.58,0,0,1-.3.52,1.35,1.35,0,0,1-.49.32A1.94,1.94,0,0,1,201,195.47Z"/><path class="cls-4" d="M39.67,195.47a1.6,1.6,0,0,1-1.28-.48,2,2,0,0,1-.42-1.36v-.23h1.12v.18a1.67,1.67,0,0,0,.13.73.46.46,0,0,0,.46.24.53.53,0,0,0,.26-.06.45.45,0,0,0,.17-.13.76.76,0,0,0,.1-.22,2.7,2.7,0,0,0,0-.28,3.44,3.44,0,0,0,0-.35,1.43,1.43,0,0,0-.17-.78.67.67,0,0,0-.58-.29h-.17v-.93h.15a.79.79,0,0,0,.6-.22,1.11,1.11,0,0,0,.17-.71,1.25,1.25,0,0,0-.13-.64.49.49,0,0,0-.46-.22.62.62,0,0,0-.25.05.43.43,0,0,0-.17.13.67.67,0,0,0-.1.19,2.38,2.38,0,0,0,0,.26,2.63,2.63,0,0,0,0,.3v.22H38v-.3a1.8,1.8,0,0,1,.44-1.29,1.69,1.69,0,0,1,1.26-.45,1.54,1.54,0,0,1,1.7,1.71,1.63,1.63,0,0,1-.24.92,1.07,1.07,0,0,1-.64.49,1.19,1.19,0,0,1,.65.54,2,2,0,0,1,.23,1A2.31,2.31,0,0,1,41,195,1.52,1.52,0,0,1,39.67,195.47Z"/><path class="cls-4" d="M43.33,195.38v-5.24l-1,.28v-.83a3.13,3.13,0,0,0,1.31-.7h.85v6.49Z"/><path class="cls-4" d="M47.65,195.47a2.15,2.15,0,0,1-.81-.13,1.21,1.21,0,0,1-.51-.41,1.67,1.67,0,0,1-.25-.61,3.76,3.76,0,0,1-.08-.81h1.1c0,.17,0,.32,0,.44a1.87,1.87,0,0,0,.08.34.48.48,0,0,0,.19.25.59.59,0,0,0,.31.08.67.67,0,0,0,.22,0,1.27,1.27,0,0,0,.15-.11.68.68,0,0,0,.11-.17q0-.12.06-.21c0-.06,0-.15,0-.28s0-.22,0-.3v-.75c0-.11,0-.22-.05-.34a.66.66,0,0,0-.1-.27.47.47,0,0,0-.18-.16.54.54,0,0,0-.27-.06.56.56,0,0,0-.39.15,1,1,0,0,0-.22.41h-1l0-3.6h3v1h-2L47,191.43a.82.82,0,0,1,.35-.23,1.44,1.44,0,0,1,.51-.09,1.55,1.55,0,0,1,.67.11,1.08,1.08,0,0,1,.45.4,2,2,0,0,1,.25.63,3.54,3.54,0,0,1,.08.83,6,6,0,0,1,0,.77,3.92,3.92,0,0,1-.15.66,1.58,1.58,0,0,1-.3.52,1.35,1.35,0,0,1-.49.32A1.94,1.94,0,0,1,47.65,195.47Z"/><path class="cls-4" d="M210.38,173.69v-.79l1.59-2.48.19-.29a2,2,0,0,0,.21-.33l.14-.28a1.43,1.43,0,0,0,.13-.36,1.9,1.9,0,0,0,0-.35,1,1,0,0,0-.13-.58.43.43,0,0,0-.42-.19q-.6,0-.6,1.05v.26h-1.09v-.27a3.2,3.2,0,0,1,.09-.8,1.77,1.77,0,0,1,.29-.62,1.29,1.29,0,0,1,.53-.41,2.05,2.05,0,0,1,.78-.14,1.62,1.62,0,0,1,1.24.45,1.76,1.76,0,0,1,.42,1.26,3.07,3.07,0,0,1-.05.53,2.46,2.46,0,0,1-.16.48,4.19,4.19,0,0,1-.22.39c-.06.11-.15.24-.27.42l0,0,0,0,0,0-1.34,2h2v.9Z"/><path class="cls-4" d="M215.78,173.69v-5.24l-1.05.27v-.82a3,3,0,0,0,1.31-.71h.85v6.5Z"/><path class="cls-4" d="M221.36,173.27a1.8,1.8,0,0,1-2.51,0,2.1,2.1,0,0,1-.43-1.39V169a2.14,2.14,0,0,1,.42-1.4,1.54,1.54,0,0,1,1.26-.51,1.56,1.56,0,0,1,1.27.51,2.17,2.17,0,0,1,.43,1.4v2.86A2.1,2.1,0,0,1,221.36,173.27Zm-1.26-.44c.38,0,.57-.33.57-1v-2.82a1.77,1.77,0,0,0,0-.24,2,2,0,0,0,0-.22.81.81,0,0,0,0-.14l-.09-.17c-.08-.11-.13-.15-.2-.17a.48.48,0,0,0-.22,0,.51.51,0,0,0-.25.06.63.63,0,0,0-.12.09,1.07,1.07,0,0,0-.14.29,2.32,2.32,0,0,0-.05.54v2.82C219.54,172.5,219.73,172.83,220.1,172.83Z"/><path class="cls-4" d="M20.61,173.78a1.59,1.59,0,0,1-1.28-.48,2,2,0,0,1-.42-1.36v-.23H20v.18a1.74,1.74,0,0,0,.13.72.49.49,0,0,0,.47.24.62.62,0,0,0,.25,0,.64.64,0,0,0,.18-.13.63.63,0,0,0,.09-.22,1.26,1.26,0,0,0,.05-.28c0-.09,0-.21,0-.34A1.52,1.52,0,0,0,21,171a.7.7,0,0,0-.59-.3h-.16v-.94h.15a.77.77,0,0,0,.61-.23,1.14,1.14,0,0,0,.17-.7,1.2,1.2,0,0,0-.13-.64.5.5,0,0,0-.47-.22.61.61,0,0,0-.24,0,.59.59,0,0,0-.17.13.82.82,0,0,0-.1.21,1.58,1.58,0,0,0-.05.25c0,.08,0,.19,0,.3v.22H18.91v-.3a1.78,1.78,0,0,1,.44-1.29,1.65,1.65,0,0,1,1.25-.46,1.67,1.67,0,0,1,1.26.45,1.71,1.71,0,0,1,.44,1.27,1.69,1.69,0,0,1-.23.93,1.17,1.17,0,0,1-.64.48,1.12,1.12,0,0,1,.65.54,2,2,0,0,1,.22,1,2.31,2.31,0,0,1-.4,1.45A1.55,1.55,0,0,1,20.61,173.78Z"/><path class="cls-4" d="M24.56,173.78a1.62,1.62,0,0,1-1.29-.48,2,2,0,0,1-.41-1.36v-.23H24v.18a1.74,1.74,0,0,0,.13.72.49.49,0,0,0,.47.24.62.62,0,0,0,.25,0,.59.59,0,0,0,.17-.13.64.64,0,0,0,.1-.22,2.33,2.33,0,0,0,.05-.28c0-.09,0-.21,0-.34A1.52,1.52,0,0,0,25,171a.7.7,0,0,0-.59-.3h-.16v-.94h.13a.78.78,0,0,0,.63-.23,1.14,1.14,0,0,0,.17-.7,1.3,1.3,0,0,0-.13-.64.5.5,0,0,0-.47-.22.57.57,0,0,0-.24,0,.48.48,0,0,0-.17.13.59.59,0,0,0-.1.21.92.92,0,0,0-.05.25,2.51,2.51,0,0,0,0,.3v.22H22.86v-.3a1.74,1.74,0,0,1,.44-1.29,1.63,1.63,0,0,1,1.25-.46,1.67,1.67,0,0,1,1.26.45,1.75,1.75,0,0,1,.44,1.27,1.69,1.69,0,0,1-.24.93,1.15,1.15,0,0,1-.63.48,1.15,1.15,0,0,1,.65.54,2,2,0,0,1,.22,1,2.31,2.31,0,0,1-.4,1.45A1.58,1.58,0,0,1,24.56,173.78Z"/><path class="cls-4" d="M29.79,173.27a1.61,1.61,0,0,1-1.26.51,1.59,1.59,0,0,1-1.25-.51,2.1,2.1,0,0,1-.44-1.39V169a2.14,2.14,0,0,1,.42-1.4,1.82,1.82,0,0,1,2.53,0,2.11,2.11,0,0,1,.43,1.4v2.86A2.1,2.1,0,0,1,29.79,173.27Zm-1.26-.44c.38,0,.57-.33.57-1v-2.82c0-.09,0-.17,0-.24s0-.14,0-.22a.59.59,0,0,0-.06-.2l-.1-.17a.33.33,0,0,0-.15-.11.54.54,0,0,0-.22,0,.49.49,0,0,0-.25.06.5.5,0,0,0-.17.15.69.69,0,0,0-.09.23,1.17,1.17,0,0,0,0,.26,2.16,2.16,0,0,0,0,.28v2.82C28,172.5,28.15,172.83,28.53,172.83Z"/><path class="cls-4" d="M221,150.6v-5.23l-1.05.27v-.83a3.06,3.06,0,0,0,1.31-.7h.85v6.49Z"/><path class="cls-4" d="M225.33,150.68a1.46,1.46,0,0,1-1.64-1.64V149h1.08a1.32,1.32,0,0,0,.12.64.52.52,0,0,0,.89-.1,2.93,2.93,0,0,0,.13-1.05v-.76a1,1,0,0,1-.87.42,1.38,1.38,0,0,1-.55-.1,1,1,0,0,1-.4-.26,1.31,1.31,0,0,1-.26-.41,2.23,2.23,0,0,1-.15-.52,5.68,5.68,0,0,1,0-.61,3.35,3.35,0,0,1,.1-.87,2.5,2.5,0,0,1,.28-.69,1.39,1.39,0,0,1,.53-.46,1.77,1.77,0,0,1,.79-.16,1.64,1.64,0,0,1,.76.16,1.41,1.41,0,0,1,.54.45,2.28,2.28,0,0,1,.3.67,3.61,3.61,0,0,1,.09.84v2.22a5.35,5.35,0,0,1,0,.73,3.25,3.25,0,0,1-.17.63,1.62,1.62,0,0,1-.31.51,1.35,1.35,0,0,1-.49.32A1.85,1.85,0,0,1,225.33,150.68Zm0-3.42a.61.61,0,0,0,.57-.37v-1q0-1-.57-1a.46.46,0,0,0-.29.09.45.45,0,0,0-.17.25,1.28,1.28,0,0,0-.09.35,3.1,3.1,0,0,0,0,.45v.42c0,.08,0,.15,0,.19s0,.1,0,.17l0,.16,0,.07c.06.09.09.13.13.15l.08,0A.51.51,0,0,0,225.34,147.26Z"/><path class="cls-4" d="M229.43,150.7a2.14,2.14,0,0,1-.81-.14,1.1,1.1,0,0,1-.51-.41,1.6,1.6,0,0,1-.25-.61,3.22,3.22,0,0,1-.08-.81h1.09c0,.17,0,.32,0,.44a2.21,2.21,0,0,0,.08.35.46.46,0,0,0,.19.24.57.57,0,0,0,.31.08.6.6,0,0,0,.21,0,.49.49,0,0,0,.16-.1,1,1,0,0,0,.1-.18l.07-.21s0-.15,0-.27,0-.22,0-.3v-.35c0-.17,0-.3,0-.41a2.09,2.09,0,0,0,0-.34,1.18,1.18,0,0,0-.1-.27.57.57,0,0,0-.18-.16.54.54,0,0,0-.27-.06.53.53,0,0,0-.39.15,1,1,0,0,0-.23.41h-1l.05-3.6h2.95v1h-2l-.07,1.53a1.06,1.06,0,0,1,.36-.23,2,2,0,0,1,.51-.09,1.28,1.28,0,0,1,.66.12,1,1,0,0,1,.45.4,1.81,1.81,0,0,1,.26.63,3.93,3.93,0,0,1,.08.82,5.88,5.88,0,0,1,0,.77,3.25,3.25,0,0,1-.15.65,1.62,1.62,0,0,1-.3.52,1.32,1.32,0,0,1-.49.33A2,2,0,0,1,229.43,150.7Z"/><path class="cls-4" d="M11.34,150.7a1.63,1.63,0,0,1-1.29-.49,2,2,0,0,1-.41-1.36v-.23h1.11v.18a1.83,1.83,0,0,0,.13.73.48.48,0,0,0,.47.24.83.83,0,0,0,.18,0,.85.85,0,0,0,.24-.16.5.5,0,0,0,.1-.22,2.93,2.93,0,0,0,.05-.29c0-.09,0-.21,0-.34a1.52,1.52,0,0,0-.17-.79.67.67,0,0,0-.59-.29H11v-.93h.15a.73.73,0,0,0,.6-.22,1.1,1.1,0,0,0,.18-.71,1.33,1.33,0,0,0-.13-.64.52.52,0,0,0-.47-.21.57.57,0,0,0-.24,0,.43.43,0,0,0-.17.12.68.68,0,0,0-.1.21,1,1,0,0,0-.05.25,2.54,2.54,0,0,0,0,.31v.22H9.64v-.31a1.72,1.72,0,0,1,.44-1.28,1.63,1.63,0,0,1,1.25-.46,1.71,1.71,0,0,1,1.26.44,1.75,1.75,0,0,1,.44,1.27,1.69,1.69,0,0,1-.24.93,1.06,1.06,0,0,1-.63.48,1.23,1.23,0,0,1,.65.54,2.07,2.07,0,0,1,.22,1,2.3,2.3,0,0,1-.41,1.46A1.55,1.55,0,0,1,11.34,150.7Z"/><path class="cls-4" d="M15.45,150.6V149h-1.9v-1l1.65-3.89h1.31v4h.67V149h-.67v1.58Zm-.94-2.51h.94v-2.75Z"/><path class="cls-4" d="M19.39,150.7a2.14,2.14,0,0,1-.81-.14,1.15,1.15,0,0,1-.51-.41,1.6,1.6,0,0,1-.25-.61,3.22,3.22,0,0,1-.08-.81h1.09c0,.17,0,.32,0,.44a2.21,2.21,0,0,0,.08.35.46.46,0,0,0,.19.24.59.59,0,0,0,.31.08.67.67,0,0,0,.22,0,.56.56,0,0,0,.15-.1.61.61,0,0,0,.1-.18l.07-.21s0-.15,0-.27,0-.22,0-.3V148c0-.11,0-.22-.05-.34a.85.85,0,0,0-.1-.27.57.57,0,0,0-.18-.16.54.54,0,0,0-.27-.06.56.56,0,0,0-.39.15,1,1,0,0,0-.23.41h-.95l.05-3.6h2.95v1h-2l-.06,1.53a.93.93,0,0,1,.35-.23,2.09,2.09,0,0,1,.51-.09,1.3,1.3,0,0,1,.67.12,1.08,1.08,0,0,1,.45.4,1.81,1.81,0,0,1,.25.63,3.35,3.35,0,0,1,.08.82,5.88,5.88,0,0,1,0,.77,3.25,3.25,0,0,1-.15.65,1.62,1.62,0,0,1-.3.52,1.25,1.25,0,0,1-.49.33A2,2,0,0,1,19.39,150.7Z"/><path class="cls-4" d="M225.55,122.13v-5.24l-1.05.27v-.83a3,3,0,0,0,1.31-.7h.85v6.5Z"/><path class="cls-4" d="M229.84,122.21c-1.14,0-1.71-.66-1.7-2a1.63,1.63,0,0,1,.76-1.54,1.71,1.71,0,0,1-.66-1.43,1.8,1.8,0,0,1,.4-1.27,1.53,1.53,0,0,1,1.2-.45A1.51,1.51,0,0,1,231,116a1.91,1.91,0,0,1,.39,1.27,1.7,1.7,0,0,1-.66,1.43,1.66,1.66,0,0,1,.77,1.54C231.54,121.55,231,122.21,229.84,122.21Zm-.28-.91a.61.61,0,0,0,.28.06.6.6,0,0,0,.27-.06.66.66,0,0,0,.17-.16.78.78,0,0,0,.11-.26,1.45,1.45,0,0,0,0-.28,2.69,2.69,0,0,0,0-.31c0-.71-.21-1.07-.61-1.07s-.62.36-.62,1.07a2.18,2.18,0,0,0,.06.6.82.82,0,0,0,.1.25A2,2,0,0,0,229.56,121.3Zm.28-3c.34,0,.52-.34.52-1a1.26,1.26,0,0,0-.13-.59.43.43,0,0,0-.39-.23.44.44,0,0,0-.41.23,1.1,1.1,0,0,0-.13.59C229.3,117.91,229.48,118.25,229.84,118.25Z"/><path class="cls-4" d="M235.15,121.7a1.8,1.8,0,0,1-2.51,0,2,2,0,0,1-.44-1.37v-2.87a2.15,2.15,0,0,1,.43-1.4,1.81,1.81,0,0,1,2.53,0,2.1,2.1,0,0,1,.42,1.39v2.87A2,2,0,0,1,235.15,121.7Zm-1.26-.44c.38,0,.57-.32.57-1v-2.83a1.48,1.48,0,0,0,0-.22c0-.08,0-.15,0-.23l-.06-.21-.06-.11a.39.39,0,0,0-.2-.16.51.51,0,0,0-.22,0,.42.42,0,0,0-.25.06l-.13.09a1,1,0,0,0-.13.29c0,.09,0,.18,0,.26a2.26,2.26,0,0,0,0,.27v2.83C233.33,120.94,233.52,121.26,233.89,121.26Z"/><path class="cls-4" d="M12.78,121.7a1.53,1.53,0,0,1-1.25.51,1.53,1.53,0,0,1-1.26-.51,2,2,0,0,1-.43-1.37v-2.87a2.14,2.14,0,0,1,.42-1.4,1.55,1.55,0,0,1,1.27-.51,1.51,1.51,0,0,1,1.26.52,2,2,0,0,1,.43,1.39v2.87A2,2,0,0,1,12.78,121.7Zm-1.25-.44c.37,0,.56-.32.56-1v-2.83a1.48,1.48,0,0,0,0-.22,1.79,1.79,0,0,0,0-.23,1.21,1.21,0,0,0,0-.14,1.31,1.31,0,0,0-.13-.23.31.31,0,0,0-.16-.11.46.46,0,0,0-.21,0,.39.39,0,0,0-.25.06.42.42,0,0,0-.17.15A.55.55,0,0,0,11,117a1.32,1.32,0,0,0,0,.26,2.26,2.26,0,0,0,0,.27v2.83C11,120.94,11.15,121.26,11.53,121.26Z"/><path class="cls-4" d="M221,99V93.78l-1.05.28v-.83a3,3,0,0,0,1.31-.71h.85V99Z"/><path class="cls-4" d="M225.41,99.1a1.87,1.87,0,0,1-.64-.11,1.31,1.31,0,0,1-.48-.3,1.4,1.4,0,0,1-.32-.46,2.28,2.28,0,0,1-.2-.59,3.77,3.77,0,0,1-.06-.69V94.76a5.46,5.46,0,0,1,0-.73,2.65,2.65,0,0,1,.16-.63,1.64,1.64,0,0,1,.31-.5,1.32,1.32,0,0,1,.49-.33,1.85,1.85,0,0,1,.69-.12,1.46,1.46,0,0,1,1.64,1.64v.09H226a1.33,1.33,0,0,0-.11-.65.45.45,0,0,0-.44-.21.47.47,0,0,0-.46.32,2.81,2.81,0,0,0-.13,1v.78a.88.88,0,0,1,.34-.32,1.25,1.25,0,0,1,.53-.11c.94,0,1.4.61,1.4,1.86a3.91,3.91,0,0,1-.09.88,2.19,2.19,0,0,1-.28.7,1.23,1.23,0,0,1-.53.48A1.74,1.74,0,0,1,225.41,99.1Zm0-.86a.49.49,0,0,0,.28-.09.48.48,0,0,0,.18-.25,1.79,1.79,0,0,0,.09-.35c0-.13,0-.27,0-.44v-.28c0-.07,0-.15,0-.26l0-.18a1.67,1.67,0,0,0-.08-.24.4.4,0,0,0-.1-.16l-.15-.09a.47.47,0,0,0-.21,0,.64.64,0,0,0-.59.37v1C224.83,97.9,225,98.24,225.42,98.24Z"/><path class="cls-4" d="M229.43,99.12a2.14,2.14,0,0,1-.81-.14,1,1,0,0,1-.51-.41,1.78,1.78,0,0,1-.25-.6,3.4,3.4,0,0,1-.08-.82h1.09c0,.17,0,.32,0,.44a2.21,2.21,0,0,0,.08.35.42.42,0,0,0,.19.24.44.44,0,0,0,.31.08.6.6,0,0,0,.21,0,.49.49,0,0,0,.16-.1,1,1,0,0,0,.1-.18c0-.07.05-.15.07-.21s0-.15,0-.27,0-.22,0-.3v-.35c0-.16,0-.3,0-.41a2.09,2.09,0,0,0,0-.34.94.94,0,0,0-.1-.26.49.49,0,0,0-.18-.17.54.54,0,0,0-.27-.06.53.53,0,0,0-.39.15,1,1,0,0,0-.23.41h-1l.05-3.61h2.95v1h-2l-.07,1.53a1.24,1.24,0,0,1,.36-.23,1.65,1.65,0,0,1,.51-.09,1.39,1.39,0,0,1,.66.12,1,1,0,0,1,.45.4,1.81,1.81,0,0,1,.26.63,3.93,3.93,0,0,1,.08.82,5.88,5.88,0,0,1,0,.77,3.25,3.25,0,0,1-.15.65,1.62,1.62,0,0,1-.3.52,1.46,1.46,0,0,1-.49.33A2,2,0,0,1,229.43,99.12Z"/><path class="cls-4" d="M13.39,97V91.76l-1,.27V91.2a3.13,3.13,0,0,0,1.31-.7h.85V97Z"/><path class="cls-4" d="M17.71,97.09A2.14,2.14,0,0,1,16.9,97a1.15,1.15,0,0,1-.51-.4,1.74,1.74,0,0,1-.25-.61,3.93,3.93,0,0,1-.08-.82h1.09c0,.18,0,.32,0,.44a2,2,0,0,0,.08.35.49.49,0,0,0,.18.24.57.57,0,0,0,.32.08h.16a.77.77,0,0,0,.21-.13.34.34,0,0,0,.1-.18c0-.08.05-.15.07-.21s0-.15,0-.27,0-.23,0-.3v-.35c0-.16,0-.3,0-.41a2,2,0,0,0,0-.33,1.11,1.11,0,0,0-.1-.28.59.59,0,0,0-.45-.22.51.51,0,0,0-.39.16.78.78,0,0,0-.22.41h-1l.05-3.61h2.95v1h-2l-.06,1.54a.84.84,0,0,1,.35-.24,2.09,2.09,0,0,1,.51-.09,1.37,1.37,0,0,1,.66.12,1,1,0,0,1,.46.4,2,2,0,0,1,.25.63,4.07,4.07,0,0,1,.08.82,5.88,5.88,0,0,1,0,.77,3.52,3.52,0,0,1-.15.66,1.73,1.73,0,0,1-.3.52,1.44,1.44,0,0,1-.49.32A1.78,1.78,0,0,1,17.71,97.09Z"/><path class="cls-4" d="M209.41,70.56V65.32l-1,.28v-.83a2.9,2.9,0,0,0,1.3-.71h.85v6.5Z"/><path class="cls-4" d="M213.73,70.65a2.15,2.15,0,0,1-.81-.13,1.15,1.15,0,0,1-.51-.4,2.14,2.14,0,0,1-.26-.62,3.92,3.92,0,0,1-.07-.82h1.09c0,.18,0,.33,0,.45a1.4,1.4,0,0,0,.08.34.48.48,0,0,0,.18.25.55.55,0,0,0,.32.08.36.36,0,0,0,.21,0,.38.38,0,0,0,.12-.06.49.49,0,0,0,.14-.2l0-.16a1.88,1.88,0,0,0,.05-.33c0-.13,0-.22,0-.3v-.35c0-.16,0-.3,0-.41a2.09,2.09,0,0,0,0-.34,1.18,1.18,0,0,0-.1-.27.47.47,0,0,0-.18-.16.57.57,0,0,0-.27-.06.5.5,0,0,0-.39.16.87.87,0,0,0-.23.41h-.95l0-3.62h3v1h-2l-.07,1.53a1.06,1.06,0,0,1,.36-.23,1.65,1.65,0,0,1,.51-.1,1.39,1.39,0,0,1,.66.12,1.09,1.09,0,0,1,.45.4,2,2,0,0,1,.26.63,4.17,4.17,0,0,1,.08.83c0,.29,0,.54,0,.77a3.42,3.42,0,0,1-.15.65,1.52,1.52,0,0,1-.3.52,1.32,1.32,0,0,1-.49.33A2,2,0,0,1,213.73,70.65Z"/><path class="cls-4" d="M219,70.13a1.77,1.77,0,0,1-2.51,0,2.06,2.06,0,0,1-.44-1.38V65.9a2.12,2.12,0,0,1,.43-1.41,1.55,1.55,0,0,1,1.26-.51,1.6,1.6,0,0,1,1.27.51,2.19,2.19,0,0,1,.42,1.41v2.85A2.05,2.05,0,0,1,219,70.13Zm-1.26-.43q.57,0,.57-1V65.92a1.77,1.77,0,0,0,0-.24c0-.06,0-.14,0-.22l0-.14a.77.77,0,0,0-.09-.17A.47.47,0,0,0,218,65a.58.58,0,0,0-.47,0l-.13.09a.79.79,0,0,0-.13.29,1.27,1.27,0,0,0,0,.26,2.35,2.35,0,0,0,0,.28v2.82C217.18,69.38,217.37,69.7,217.74,69.7Z"/><path class="cls-4" d="M23,70.65a1.62,1.62,0,0,1-1.29-.48,2,2,0,0,1-.41-1.36v-.23h1.11v.18a1.83,1.83,0,0,0,.13.73.49.49,0,0,0,.47.23.51.51,0,0,0,.25,0,.37.37,0,0,0,.17-.13.5.5,0,0,0,.1-.22,2.56,2.56,0,0,0,.05-.27c0-.1,0-.22,0-.35a1.52,1.52,0,0,0-.17-.79.72.72,0,0,0-.59-.3h-.17v-.93h.13a.78.78,0,0,0,.62-.23,1.09,1.09,0,0,0,.18-.7,1.23,1.23,0,0,0-.14-.65.48.48,0,0,0-.46-.22.66.66,0,0,0-.25.05.79.79,0,0,0-.16.12.59.59,0,0,0-.1.21,1,1,0,0,0-.05.25,2.66,2.66,0,0,0,0,.3V66H21.26v-.3a1.76,1.76,0,0,1,.44-1.29A1.63,1.63,0,0,1,23,64a1.69,1.69,0,0,1,1.26.45,1.77,1.77,0,0,1,.44,1.28,1.68,1.68,0,0,1-.24.92,1.15,1.15,0,0,1-.63.48,1.1,1.1,0,0,1,.64.54,2,2,0,0,1,.23,1,2.24,2.24,0,0,1-.41,1.45A1.52,1.52,0,0,1,23,70.65Z"/><path class="cls-4" d="M28.18,70.13a1.52,1.52,0,0,1-1.25.52,1.54,1.54,0,0,1-1.26-.52,2.05,2.05,0,0,1-.43-1.38V65.9a2.17,2.17,0,0,1,.42-1.41,1.82,1.82,0,0,1,2.53,0,2.14,2.14,0,0,1,.43,1.41v2.85A2.06,2.06,0,0,1,28.18,70.13Zm-1.25-.43c.37,0,.56-.32.56-1V65.68c0-.06,0-.14,0-.22a.81.81,0,0,0,0-.14l-.09-.17a.55.55,0,0,0-.19-.17.54.54,0,0,0-.22,0,.49.49,0,0,0-.25.06l-.13.09a.79.79,0,0,0-.13.29.82.82,0,0,0,0,.26,2.16,2.16,0,0,0,0,.28v2.82Q26.36,69.7,26.93,69.7Z"/><path class="cls-4" d="M192.77,50.49V45.25l-1.05.28V44.7A3,3,0,0,0,193,44h.85v6.49Z"/><path class="cls-4" d="M197.08,50.58a1.61,1.61,0,0,1-1.29-.48,2,2,0,0,1-.42-1.36v-.23h1.12v.18a1.67,1.67,0,0,0,.13.73.47.47,0,0,0,.46.24.53.53,0,0,0,.26-.06.45.45,0,0,0,.17-.13.76.76,0,0,0,.1-.22,2.36,2.36,0,0,0,0-.28,3.44,3.44,0,0,0,0-.35,1.51,1.51,0,0,0-.16-.78.68.68,0,0,0-.59-.29h-.17v-.93h.13a.83.83,0,0,0,.62-.23,1.11,1.11,0,0,0,.17-.71,1.22,1.22,0,0,0-.13-.64.5.5,0,0,0-.46-.22.62.62,0,0,0-.25,0,.34.34,0,0,0-.16.13.39.39,0,0,0-.1.19,1.22,1.22,0,0,0-.06.26,2.72,2.72,0,0,0,0,.3V46h-1.12v-.3a1.8,1.8,0,0,1,.44-1.29,1.7,1.7,0,0,1,1.26-.45,1.54,1.54,0,0,1,1.7,1.71,1.63,1.63,0,0,1-.24.92,1.11,1.11,0,0,1-.64.49,1.19,1.19,0,0,1,.65.54,2,2,0,0,1,.23,1,2.31,2.31,0,0,1-.41,1.45A1.52,1.52,0,0,1,197.08,50.58Z"/><path class="cls-4" d="M201,50.58a2.13,2.13,0,0,1-.8-.13,1.1,1.1,0,0,1-.51-.41,1.71,1.71,0,0,1-.26-.6,3.93,3.93,0,0,1-.08-.82h1.1a2.89,2.89,0,0,0,0,.44,1.3,1.3,0,0,0,.08.34.52.52,0,0,0,.18.25.61.61,0,0,0,.32.08.65.65,0,0,0,.21,0,.58.58,0,0,0,.15-.11.38.38,0,0,0,.11-.17c0-.08,0-.15,0-.15a1.27,1.27,0,0,0,0-.34c0-.11,0-.22,0-.3v-.34c0-.17,0-.3,0-.41a2.15,2.15,0,0,0-.05-.34.66.66,0,0,0-.1-.27.52.52,0,0,0-.17-.16,1.1,1.1,0,0,0-.28-.06.56.56,0,0,0-.39.15,1,1,0,0,0-.22.41h-1l.05-3.6h3v1h-2l-.06,1.53a.93.93,0,0,1,.36-.23,1.36,1.36,0,0,1,.51-.09,1.53,1.53,0,0,1,.66.11,1,1,0,0,1,.45.41,1.83,1.83,0,0,1,.25.62,3.46,3.46,0,0,1,.09.83,6,6,0,0,1-.05.77,2.45,2.45,0,0,1-.15.65,1.4,1.4,0,0,1-.3.52,1.18,1.18,0,0,1-.49.33A1.75,1.75,0,0,1,201,50.58Z"/><path class="cls-4" d="M39.91,50.49V48.91H38v-1L39.66,44H41v4h.68v.93H41v1.58ZM39,48h.94V45.22Z"/><path class="cls-4" d="M43.85,50.58a2.15,2.15,0,0,1-.81-.13,1.1,1.1,0,0,1-.51-.41,1.69,1.69,0,0,1-.25-.6,3.35,3.35,0,0,1-.08-.82h1.09c0,.17,0,.32,0,.44a1.87,1.87,0,0,0,.08.34.48.48,0,0,0,.19.25.59.59,0,0,0,.31.08l.16,0a.77.77,0,0,0,.17-.09.46.46,0,0,0,.14-.21c0-.08,0-.15,0-.15a1.86,1.86,0,0,0,.05-.34c0-.11,0-.22,0-.3v-.34c0-.17,0-.3,0-.41a2.09,2.09,0,0,0,0-.34,1.18,1.18,0,0,0-.1-.27.47.47,0,0,0-.18-.16.6.6,0,0,0-.66.09,1,1,0,0,0-.23.41h-1l.05-3.6H45.3v1h-2l-.07,1.53a.93.93,0,0,1,.36-.23,1.4,1.4,0,0,1,.51-.09,1.53,1.53,0,0,1,.66.11,1,1,0,0,1,.45.41,1.84,1.84,0,0,1,.26.62,4.1,4.1,0,0,1,.08.83,6.08,6.08,0,0,1,0,.77,3.61,3.61,0,0,1-.15.65,1.73,1.73,0,0,1-.3.52,1.25,1.25,0,0,1-.49.33A1.82,1.82,0,0,1,43.85,50.58Z"/><g class="cls-7"><path class="cls-4" d="M123.31,122.36a2.95,2.95,0,1,1-2.94-3A2.95,2.95,0,0,1,123.31,122.36Z"/><path class="cls-4" d="M120.37,130.41a8,8,0,1,1,8-8A8.06,8.06,0,0,1,120.37,130.41Zm0-15.51a7.46,7.46,0,1,0,7.46,7.46A7.47,7.47,0,0,0,120.37,114.9Z"/><path class="cls-4" d="M120.37,133.16a10.8,10.8,0,1,1,10.8-10.8A10.81,10.81,0,0,1,120.37,133.16Zm0-21a10.21,10.21,0,1,0,10.21,10.21A10.22,10.22,0,0,0,120.37,112.15Z"/><path class="cls-4" d="M120.37,215.8a93.44,93.44,0,1,1,93.44-93.44A93.54,93.54,0,0,1,120.37,215.8Zm0-186.29a92.86,92.86,0,1,0,92.85,92.85A93,93,0,0,0,120.37,29.51Z"/><path class="cls-4" d="M120.37,205.55a83.19,83.19,0,1,1,83.19-83.19A83.28,83.28,0,0,1,120.37,205.55Zm0-165.79a82.61,82.61,0,1,0,82.6,82.6A82.7,82.7,0,0,0,120.37,39.76Z"/><path class="cls-4" d="M120.37,195.3a72.94,72.94,0,1,1,72.93-72.94A73,73,0,0,1,120.37,195.3Zm0-145.29a72.36,72.36,0,1,0,72.35,72.35A72.44,72.44,0,0,0,120.37,50Z"/><path class="cls-4" d="M120.37,185.05a62.69,62.69,0,1,1,62.69-62.69A62.76,62.76,0,0,1,120.37,185.05Zm0-124.79a62.11,62.11,0,1,0,62.1,62.1A62.18,62.18,0,0,0,120.37,60.26Z"/><path class="cls-4" d="M120.37,174.8a52.44,52.44,0,1,1,52.43-52.44A52.49,52.49,0,0,1,120.37,174.8Zm0-104.29a51.85,51.85,0,1,0,51.85,51.85A51.91,51.91,0,0,0,120.37,70.51Z"/><path class="cls-4" d="M120.37,164.55a42.19,42.19,0,1,1,42.19-42.19A42.23,42.23,0,0,1,120.37,164.55Zm0-83.79a41.61,41.61,0,1,0,41.6,41.6A41.65,41.65,0,0,0,120.37,80.76Z"/><path class="cls-4" d="M120.37,154.3a31.94,31.94,0,1,1,31.94-31.94A32,32,0,0,1,120.37,154.3Zm0-63.29a31.35,31.35,0,1,0,31.35,31.35A31.4,31.4,0,0,0,120.37,91Z"/><g class="cls-8"><path class="cls-4" d="M120.37,144.05a21.69,21.69,0,1,1,21.69-21.69A21.71,21.71,0,0,1,120.37,144.05Zm0-42.79a21.1,21.1,0,1,0,21.1,21.1A21.13,21.13,0,0,0,120.37,101.26Z"/><polygon class="cls-4" points="117.88 215.47 117.29 215.45 122.81 29.26 123.39 29.27 117.88 215.47"/><polygon class="cls-4" points="141.49 213.07 98.62 31.79 99.19 31.66 142.06 212.94 141.49 213.07"/><polygon class="cls-4" points="164.25 204.5 75.92 40.5 76.44 40.23 164.77 204.23 164.25 204.5"/><rect class="cls-4" x="120.05" y="29.23" width="0.59" height="186.28" transform="translate(-51.16 115.86) rotate(-43.31)"/><polygon class="cls-4" points="199.44 171.54 40.94 73.67 41.25 73.18 199.74 171.05 199.44 171.54"/><polygon class="cls-4" points="209.47 149.4 31.05 95.89 31.21 95.32 209.64 148.84 209.47 149.4"/><rect class="cls-4" x="120.05" y="29.22" width="0.58" height="186.28" transform="translate(-5.53 239.03) rotate(-88.3)"/><polygon class="cls-4" points="29.77 144.08 29.64 143.51 210.91 100.64 211.05 101.21 29.77 144.08"/><polygon class="cls-4" points="38.48 166.79 38.2 166.27 202.21 77.94 202.48 78.45 38.48 166.79"/><polygon class="cls-4" points="52.76 186.46 52.36 186.03 187.92 58.27 188.32 58.69 52.76 186.46"/><polygon class="cls-4" points="71.66 201.76 71.16 201.46 169.03 42.96 169.53 43.27 71.66 201.76"/><polygon class="cls-4" points="93.87 211.66 93.31 211.49 146.82 33.07 147.38 33.23 93.87 211.66"/></g></g><path class="cls-4" d="M96.36,210.66a.85.85,0,0,1-.07-1.7c1.49-.13,3-.28,4.43-.46a.85.85,0,0,1,1,.73.88.88,0,0,1-.74,1c-1.48.18-3,.34-4.5.47Zm8.9-1.12a.85.85,0,0,1-.84-.71.84.84,0,0,1,.7-1c1.47-.25,2.93-.52,4.37-.83a.85.85,0,0,1,.35,1.67c-1.47.31-3,.58-4.44.83ZM114,207.7a.85.85,0,0,1-.21-1.67c1.45-.37,2.88-.76,4.29-1.18a.85.85,0,1,1,.48,1.63c-1.43.42-2.88.83-4.35,1.2A.75.75,0,0,1,114,207.7Zm8.59-2.55a.84.84,0,0,1-.8-.58.83.83,0,0,1,.52-1.07c1.42-.49,2.81-1,4.18-1.54a.86.86,0,0,1,1.1.49.85.85,0,0,1-.48,1.1c-1.4.54-2.81,1.06-4.24,1.55A.92.92,0,0,1,122.62,205.15Zm8.35-3.26a.85.85,0,0,1-.34-1.63c1.37-.6,2.71-1.22,4-1.87a.85.85,0,0,1,.74,1.53q-2,1-4.1,1.9A.8.8,0,0,1,131,201.89ZM139,198a.83.83,0,0,1-.75-.44.85.85,0,0,1,.34-1.15q2-1.06,3.87-2.2a.86.86,0,0,1,1.17.3.85.85,0,0,1-.3,1.16c-1.28.77-2.59,1.52-3.93,2.23A.85.85,0,0,1,139,198Zm7.7-4.59a.84.84,0,0,1-.46-1.55q1.88-1.23,3.67-2.52a.85.85,0,0,1,1,1.39q-1.83,1.31-3.73,2.55A.82.82,0,0,1,146.73,193.36Zm7.29-5.21a.85.85,0,0,1-.52-1.52c1.18-.92,2.33-1.85,3.44-2.81a.85.85,0,0,1,1.2.1.84.84,0,0,1-.09,1.19c-1.14,1-2.31,1.93-3.5,2.86A.87.87,0,0,1,154,188.15Zm6.82-5.82a.85.85,0,0,1-.58-1.47q1.65-1.53,3.18-3.11a.87.87,0,0,1,1.21,0,.85.85,0,0,1,0,1.2q-1.56,1.6-3.24,3.16A.81.81,0,0,1,160.84,182.33Zm6.27-6.41a.86.86,0,0,1-.64-1.42q1.5-1.68,2.87-3.39a.85.85,0,0,1,1.33,1.07q-1.39,1.74-2.93,3.46A.87.87,0,0,1,167.11,175.92Zm5.61-7a.81.81,0,0,1-.49-.17.84.84,0,0,1-.2-1.18q1.32-1.85,2.49-3.67a.85.85,0,1,1,1.43.91q-1.19,1.88-2.54,3.75A.85.85,0,0,1,172.72,168.93Zm4.81-7.57a.87.87,0,0,1-.41-.11.85.85,0,0,1-.34-1.15c.73-1.31,1.4-2.64,2-3.95a.86.86,0,0,1,1.13-.41.85.85,0,0,1,.41,1.13c-.62,1.34-1.31,2.71-2.06,4A.84.84,0,0,1,177.53,161.36Zm3.76-8.14a.79.79,0,0,1-.3-.05.85.85,0,0,1-.5-1.09c.53-1.41,1-2.82,1.35-4.19a.85.85,0,0,1,1.64.44c-.38,1.42-.85,2.89-1.39,4.34A.86.86,0,0,1,181.29,153.22Zm2.3-8.65h-.13a.85.85,0,0,1-.71-1,31.46,31.46,0,0,0,.38-4.35.85.85,0,0,1,.85-.83h0a.83.83,0,0,1,.83.86,35,35,0,0,1-.4,4.58A.85.85,0,0,1,183.59,144.57Zm.23-8.93a.85.85,0,0,1-.85-.77,39.43,39.43,0,0,0-.61-4.34.85.85,0,0,1,.67-1,.84.84,0,0,1,1,.67,40.32,40.32,0,0,1,.63,4.52.84.84,0,0,1-.77.92Zm-1.77-8.75a.86.86,0,0,1-.81-.58,30.91,30.91,0,0,0-1.67-4,.85.85,0,1,1,1.52-.76,32.32,32.32,0,0,1,1.76,4.24.85.85,0,0,1-.53,1.07A.65.65,0,0,1,182.05,126.89Zm-4-8a.84.84,0,0,1-.69-.35,31.13,31.13,0,0,0-2.75-3.39.85.85,0,1,1,1.24-1.15,31.34,31.34,0,0,1,2.9,3.56.85.85,0,0,1-.21,1.18A.81.81,0,0,1,178,118.92ZM172,112.39a.81.81,0,0,1-.55-.2,43,43,0,0,0-3.52-2.63.84.84,0,0,1-.23-1.17.85.85,0,0,1,1.18-.24,42,42,0,0,1,3.66,2.74.84.84,0,0,1,.11,1.19A.86.86,0,0,1,172,112.39Zm-7.43-5a.87.87,0,0,1-.41-.11c-1.24-.68-2.57-1.35-4-2a.85.85,0,0,1,.72-1.55c1.41.66,2.78,1.34,4.05,2a.85.85,0,0,1-.41,1.6Zm-8.12-3.78a.91.91,0,0,1-.32-.06c-1.36-.54-2.75-1.06-4.17-1.55a.85.85,0,1,1,.56-1.6c1.44.5,2.86,1,4.24,1.57a.86.86,0,0,1,.48,1.11A.87.87,0,0,1,156.41,103.61Zm-8.47-3a.73.73,0,0,1-.25,0c-1.41-.44-2.84-.86-4.28-1.27a.86.86,0,0,1-.59-1,.84.84,0,0,1,1.05-.58c1.46.41,2.9.84,4.32,1.28a.85.85,0,0,1,.56,1.06A.83.83,0,0,1,147.94,100.65ZM32.73,98.9A.85.85,0,0,1,32,97.65c.73-1.34,1.51-2.67,2.32-3.92a.86.86,0,0,1,1.18-.25.85.85,0,0,1,.24,1.18c-.78,1.21-1.54,2.49-2.24,3.8A.85.85,0,0,1,32.73,98.9Zm106.59-.71a.83.83,0,0,1-.22,0c-1.44-.38-2.88-.76-4.34-1.13a.85.85,0,1,1,.42-1.64l4.35,1.12a.85.85,0,0,1-.21,1.68ZM130.62,96l-.2,0-3-.74-1.4-.37a.85.85,0,0,1,.44-1.64c.45.13.91.24,1.37.36l3,.74a.85.85,0,0,1-.21,1.67ZM122,93.54a.84.84,0,0,1-.27,0c-1.43-.5-2.86-1-4.24-1.63a.85.85,0,0,1-.45-1.11.83.83,0,0,1,1.11-.45c1.35.57,2.74,1.1,4.13,1.58a.85.85,0,0,1-.28,1.65ZM37.62,91.4a.87.87,0,0,1-.53-.18A.86.86,0,0,1,37,90c.94-1.19,1.95-2.35,3-3.44a.85.85,0,1,1,1.23,1.17,43.35,43.35,0,0,0-2.88,3.32A.87.87,0,0,1,37.62,91.4Zm76.13-1.35a.85.85,0,0,1-.38-.09c-1.39-.7-2.71-1.42-4-2.14a.85.85,0,0,1,.85-1.48q1.86,1.08,3.9,2.1a.85.85,0,0,1-.38,1.61ZM106,85.63a.89.89,0,0,1-.45-.12l-2.85-1.79-1-.6a.85.85,0,0,1-.27-1.17.86.86,0,0,1,1.17-.27l1,.6,2.83,1.78a.85.85,0,0,1-.44,1.57ZM43.82,85a.88.88,0,0,1-.65-.3.85.85,0,0,1,.1-1.2,42.44,42.44,0,0,1,3.64-2.76.85.85,0,1,1,1,1.41c-1.2.82-2.38,1.71-3.49,2.64A.84.84,0,0,1,43.82,85Zm54.52-4a.88.88,0,0,1-.43-.12c-1.4-.82-2.67-1.52-3.87-2.14a.85.85,0,1,1,.77-1.51c1.23.62,2.53,1.35,4,2.19a.85.85,0,0,1-.44,1.58Zm-47.11-1a.82.82,0,0,1-.75-.46.85.85,0,0,1,.35-1.15c1.32-.7,2.72-1.33,4.14-1.91A.85.85,0,0,1,55.61,78a43.9,43.9,0,0,0-4,1.84A.78.78,0,0,1,51.23,79.94Zm39.11-3a.84.84,0,0,1-.31,0,39.54,39.54,0,0,0-4.16-1.36.85.85,0,0,1-.61-1,.87.87,0,0,1,1-.61,40.82,40.82,0,0,1,4.35,1.42.84.84,0,0,1-.31,1.63ZM59.52,76.6a.85.85,0,0,1-.24-1.66c1.24-.36,2.51-.68,3.79-.94l.64-.12a.84.84,0,0,1,1,.66.85.85,0,0,1-.66,1l-.63.13c-1.24.26-2.47.55-3.66.9A1,1,0,0,1,59.52,76.6Zm8.78-1.78a.85.85,0,0,1-.12-1.7c1.56-.21,3.08-.36,4.53-.45a.85.85,0,0,1,.9.79.86.86,0,0,1-.8.91c-1.4.08-2.88.23-4.4.44Zm13.4-.17h-.12a40.9,40.9,0,0,0-4.37-.35.85.85,0,0,1-.82-.88.8.8,0,0,1,.87-.82,39.51,39.51,0,0,1,4.55.37.85.85,0,0,1,.73,1A.86.86,0,0,1,81.7,74.65Z"/><path class="cls-9" d="M245.22,122.62A122.61,122.61,0,1,1,122.61,0,122.6,122.6,0,0,1,245.22,122.62Z"/></g></g></svg>