<svg id="Capa_1" data-name="Capa 1" xmlns="http://www.w3.org/2000/svg" xmlns:xlink="http://www.w3.org/1999/xlink" viewBox="0 0 100 110"><defs><style>.cls-1{fill:url(#Nueva_muestra_de_degradado_1);}</style><linearGradient id="Nueva_muestra_de_degradado_1" x1="10.69" y1="55" x2="89.31" y2="55" gradientUnits="userSpaceOnUse"><stop offset="0" stop-color="#0dfcfe"/><stop offset="1" stop-color="#27a0f5"/></linearGradient></defs><path id="hbDh4m" class="cls-1" d="M62.52,98.22c-1.2-.22-2.43-.39-3.62-.68A24.42,24.42,0,0,1,43.82,87a1.47,1.47,0,0,0-1.4-.78q-10.85,0-21.69,0a9.57,9.57,0,0,1-9.48-6.51,10.8,10.8,0,0,1-.53-3.3q-.06-27.37,0-54.76a9.63,9.63,0,0,1,9.84-9.83c9.48,0,19,0,28.44,0a2.69,2.69,0,0,1,2.09.91Q59.93,22,68.82,31.32a2.82,2.82,0,0,1,.8,2.06c0,4.95,0,9.9,0,14.85v.85c1.63.57,3.24,1,4.73,1.68,8,3.62,13.08,9.74,14.55,18.37C90.54,78.76,87.32,86.8,79.7,93A23.5,23.5,0,0,1,66.64,98.1a1.85,1.85,0,0,0-.4.12Zm-21-15.63a25.15,25.15,0,0,1-1.1-14.93H25.89a4.49,4.49,0,0,1-1.16-.13,1.68,1.68,0,0,1-1.24-1.79A1.7,1.7,0,0,1,25,64.12,6.52,6.52,0,0,1,26,64.06c4.92,0,9.85,0,14.77,0A1.1,1.1,0,0,0,42,63.35c.69-1.35,1.48-2.65,2.24-4,.14-.26.3-.51.55-.92H26c-1.64,0-2.45-.58-2.47-1.76s.83-1.85,2.48-1.85c7.12,0,14.24,0,21.36,0a2.48,2.48,0,0,0,1.43-.5A24.94,24.94,0,0,1,60.62,49c1.74-.26,3.52-.3,5.34-.44V34.67H65c-2.93,0-5.86,0-8.78,0a10.65,10.65,0,0,1-2.59-.27,7.84,7.84,0,0,1-6-8c0-3.34,0-6.69,0-10v-1c-.34,0-.58-.06-.83-.06h-26a7.75,7.75,0,0,0-1.92.22,6.06,6.06,0,0,0-4.6,6.28q0,27.13,0,54.26a6.35,6.35,0,0,0,1.25,4A6.43,6.43,0,0,0,21,82.6c6.5,0,13,0,19.5,0Zm23,12A21.17,21.17,0,1,0,43.39,73.46,21.21,21.21,0,0,0,64.52,94.64ZM51.22,18.11V19c0,2.59,0,5.17,0,7.75a4.3,4.3,0,0,0,4.44,4.33c2.27,0,4.55,0,6.83,0,.26,0,.53,0,1,0Zm-8,31.32a1.85,1.85,0,0,0,2.08-1.75c0-1-.81-1.79-2.08-1.83H25.92a7.23,7.23,0,0,0-.93,0,1.73,1.73,0,0,0-1.5,1.83c0,1.06.82,1.71,2.09,1.71H43.21ZM62.49,80.89c-.17-.21-.32-.45-.51-.65q-3.13-3.37-6.28-6.72c-.25-.26-.51-.63-.82-.7a3.58,3.58,0,0,0-1.75,0,1.35,1.35,0,0,0-.9,1.56,3.21,3.21,0,0,0,.71,1.47c3.29,3.58,6.62,7.14,9.94,10.69,1.14,1.23,2.13,1.22,3.29,0Q71.09,81.22,76,75.93a3.7,3.7,0,0,0,.66-.87,1.65,1.65,0,0,0-.35-2,1.7,1.7,0,0,0-2.09-.27,4.36,4.36,0,0,0-.88.78q-3.18,3.39-6.32,6.8a4.45,4.45,0,0,0-.37.64l-.27-.2v-.9q0-8.9,0-17.81a4.67,4.67,0,0,0-.14-1.24,1.71,1.71,0,0,0-2-1.16c-1,.23-1.43.91-1.43,2.26v18.8Z"/></svg>