<svg id="Capa_1" data-name="Capa 1" xmlns="http://www.w3.org/2000/svg" xmlns:xlink="http://www.w3.org/1999/xlink" viewBox="0 0 236.69 170.72"><defs><style>.cls-1{fill:#1a1a1a;opacity:0.35;}.cls-2{fill:#fff;}.cls-3{fill:url(#linear-gradient);}.cls-4{fill:#383838;}.cls-5{fill:none;stroke-linecap:round;stroke-linejoin:round;stroke-width:5.48px;stroke:url(#linear-gradient-2);}.cls-6{fill:url(#linear-gradient-3);}.cls-7{fill:url(#linear-gradient-4);}</style><linearGradient id="linear-gradient" x1="115.32" y1="79.26" x2="163.93" y2="30.66" gradientUnits="userSpaceOnUse"><stop offset="0" stop-color="#0dfcfe"/><stop offset="1" stop-color="#27a0f5"/></linearGradient><linearGradient id="linear-gradient-2" x1="63.08" y1="116.6" x2="21.9" y2="116.6" gradientUnits="userSpaceOnUse"><stop offset="0" stop-color="#04fcfe"/><stop offset="1" stop-color="#2196f3"/></linearGradient><linearGradient id="linear-gradient-3" x1="136.41" y1="142.05" x2="191.26" y2="142.05" xlink:href="#linear-gradient"/><linearGradient id="linear-gradient-4" x1="45.4" y1="23.39" x2="45.4" y2="66.48" xlink:href="#linear-gradient"/></defs><rect class="cls-1" width="236.69" height="170.72"/><path class="cls-2" d="M99.88,28.9v3.84h7.58V37H99.88v7.83H95.34V24.62h13.27V28.9Z"/><path class="cls-2" d="M125.25,40.56v4.28h-13V24.62h4.54V40.56Z"/><path class="cls-2" d="M142.63,40.56v4.28H128.77V24.62h13.71V28.9h-9.17v3.63h8.2v4.28h-8.2v3.75Z"/><path class="cls-2" d="M160.06,44.84l-4.74-7-4.75,7H145l7.17-10.17-7.06-10h5.6l4.66,6.86,4.6-6.86h5.53l-7,10.05,7.15,10.17Z"/><path class="cls-3" d="M100.67,63l1-1v1ZM93.4,52.77v2.3h4.1l2.29-2.3ZM136.85,63h2.59V52.77h-2.59ZM109,63h2.6V57.88H109Zm43.55-2.6a1.41,1.41,0,0,1-1.05-.55l-4.86-5.78a3.63,3.63,0,0,0-2.78-1.3h-2.7V63h2.6V55.37a1.44,1.44,0,0,1,1,.55l4.85,5.78a3.64,3.64,0,0,0,2.78,1.3h2.7V52.77h-2.59Zm4.3,2.6h2.59V52.77h-2.59ZM180,63V61.78L179,63Zm2.66-10.22-3.91,4.65h-.1l-3.91-4.65h-3.38l6,7.2v3h0l4.26-5.06,4.34-5.16Zm-19.07,2.57v-.28H172l-1.91-2.27,0,0H163l-2,2c0,.08,0,.53,0,.61V63h2.6V60h1.74l2.13-2.31h-3.87V55.35Zm-54-2.58h-8.11L99,55.17V63l2.6-2.59V55.07h5.62Zm23.14,0a5.68,5.68,0,0,0-3.9,1.47l-6,7.61L121,59.7a3.12,3.12,0,0,0,1.85-2.85V55.46a2.7,2.7,0,0,0-2.69-2.69h-9l-2.3,2.31h11.31a.39.39,0,0,1,.39.39v1.83a.39.39,0,0,1-.39.39h-5.1a.17.17,0,0,0-.14.06l-.8.95L113.05,60h4.84l5,5.71,7.9-9.77a1.8,1.8,0,0,1,1.77-.55v2.51h-1.46l-.86,1-1.08,1.29h3.4V63h2.6V52.78Z"/><path class="cls-4" d="M188.52,119.35H24.64a2.75,2.75,0,0,1,0-5.49H188.52a2.75,2.75,0,0,1,0,5.49Z"/><line class="cls-5" x1="24.64" y1="116.6" x2="60.34" y2="116.6"/><path class="cls-2" d="M28.64,100.86a2.24,2.24,0,0,1-2.32,2.25H24.86v2.11H23.37V98.6h2.95A2.24,2.24,0,0,1,28.64,100.86Zm-1.53,0a.82.82,0,0,0-.82-.86H24.86v1.71h1.43A.82.82,0,0,0,27.11,100.86Z"/><path class="cls-2" d="M32,103h-.72v2.26H29.75V98.6h2.87a2.21,2.21,0,0,1,2.31,2.22,2.06,2.06,0,0,1-1.37,2l1.55,2.43H33.32Zm-.72-1.3h1.35a.8.8,0,0,0,.81-.82.81.81,0,0,0-.81-.84H31.24Z"/><path class="cls-2" d="M35.79,101.91a3.51,3.51,0,1,1,3.5,3.43A3.39,3.39,0,0,1,35.79,101.91Zm5.48,0a2,2,0,1,0-2,2A1.94,1.94,0,0,0,41.27,101.91Z"/><path class="cls-2" d="M50.54,101.43v.51a3.28,3.28,0,0,1-3.36,3.4,3.43,3.43,0,1,1,0-6.85A3.41,3.41,0,0,1,50,99.75l-1.12.89a2,2,0,0,0-1.6-.73,2,2,0,0,0,0,4A1.73,1.73,0,0,0,49,102.76H47.32v-1.33Z"/><path class="cls-2" d="M53.94,103h-.72v2.26H51.73V98.6H54.6a2.21,2.21,0,0,1,2.3,2.22,2.07,2.07,0,0,1-1.36,2l1.55,2.43H55.3Zm-.72-1.3h1.35a.8.8,0,0,0,.81-.82.81.81,0,0,0-.81-.84H53.22Z"/><path class="cls-2" d="M62.69,103.82v1.4H58.15V98.6h4.49V100h-3v1.19h2.68v1.4H59.64v1.23Z"/><path class="cls-2" d="M63.58,104.3l.77-1.13a3.17,3.17,0,0,0,2,.84c.6,0,1.11-.26,1.11-.65s-.64-.61-1.34-.79c-1.32-.31-2.31-.94-2.31-2.11s1-2,2.55-2a3.42,3.42,0,0,1,2.35.81l-.7,1.13a2.54,2.54,0,0,0-1.66-.62c-.59,0-1,.25-1,.6s.6.63,1.21.75,2.43.59,2.43,2.13c0,1.22-1.14,2-2.62,2A4.37,4.37,0,0,1,63.58,104.3Z"/><path class="cls-2" d="M69.8,101.91a3.51,3.51,0,1,1,3.5,3.43A3.39,3.39,0,0,1,69.8,101.91Zm5.48,0a2,2,0,1,0-2,2A1.94,1.94,0,0,0,75.28,101.91Z"/><rect class="cls-6" x="136.41" y="133.45" width="54.85" height="17.19" rx="8.6"/><path d="M158.74,142.49a3.27,3.27,0,0,1-3.37,3.31h-2.61v-6.62h2.61A3.27,3.27,0,0,1,158.74,142.49Zm-1.52,0a1.86,1.86,0,0,0-1.89-1.91h-1.09v3.82h1.09A1.86,1.86,0,0,0,157.22,142.49Z"/><path d="M160.89,137.26h1.76l-1.25,1.42h-1.47Zm-.9,1.92h1.49v6.62H160Z"/><path d="M167.19,144.64H164.5l-.41,1.16H162.5l2.48-6.62h1.76l2.49,6.62H167.6Zm-.48-1.37-.86-2.45-.87,2.45Z"/><path d="M169.64,144.88l.76-1.13a3.25,3.25,0,0,0,2,.84c.59,0,1.1-.26,1.1-.65s-.63-.62-1.33-.79c-1.33-.32-2.32-.94-2.32-2.11s1-2,2.56-2a3.41,3.41,0,0,1,2.34.82L174.1,141a2.58,2.58,0,0,0-1.66-.62c-.6,0-1,.25-1,.59s.6.64,1.21.76,2.44.58,2.44,2.13c0,1.22-1.14,2-2.62,2A4.4,4.4,0,0,1,169.64,144.88Z"/><path class="cls-2" d="M27.28,136.63v1.17l-2.43,5.45H23.18L25.53,138H22.84v-1.4Z"/><path class="cls-2" d="M34,136.06h1.41l-3.84,8.63H30.2Z"/><path class="cls-2" d="M41.31,136.63v6.62H39.83v-4.84l-1,.55-.64-1.2,2.06-1.13Z"/><path class="cls-2" d="M47.57,141.11A2.35,2.35,0,0,1,45,143.37a3.72,3.72,0,0,1-2.37-.87l.73-1.19a2.29,2.29,0,0,0,1.53.63c.72,0,1.16-.39,1.16-.86a.86.86,0,0,0-.95-.8,1.23,1.23,0,0,0-.87.34l-1.31-.39.33-3.6h3.86V138h-2.6l-.09,1.07a2,2,0,0,1,.87-.17A2.19,2.19,0,0,1,47.57,141.11Z"/><path id="pWTNQR" class="cls-7" d="M73.11,35.51A5.28,5.28,0,0,1,71,38.44q-14.69,13-29.36,26.1a7,7,0,0,1-10.24-.64,8.22,8.22,0,0,1-1.1-1.85q-3.81-8.62-7.56-17.27a4.59,4.59,0,0,1,2.53-6.42c1.12-.5,2.24-1,3.37-1.47a4.64,4.64,0,0,1,4.45.24,1.14,1.14,0,0,0,.71.1l12-2.1L58.32,33A2.63,2.63,0,0,1,61.4,35a2.6,2.6,0,0,1-2.17,3.09q-5.53,1-11.07,1.94-6.85,1.19-13.7,2.33c-2.09.35-4.2.64-6.31,1l1,.08c2.5.12,5,.24,7.51.34a.63.63,0,0,1,.64.44q2.05,4.47,4.14,8.92a.66.66,0,0,1-.09.78c-1.07,1.4-2.11,2.83-3.1,4.32l.4-.35L67.09,32.58a3.43,3.43,0,0,1,5,0,8.53,8.53,0,0,1,1,1.81Zm-43.3-6a6.07,6.07,0,1,0-6.08,6A6.07,6.07,0,0,0,29.81,29.49Z"/></svg>