<svg id="Capa_1" data-name="Capa 1" xmlns="http://www.w3.org/2000/svg" xmlns:xlink="http://www.w3.org/1999/xlink" viewBox="0 0 238.15 171.22"><defs><style>.cls-1{fill:#1a1a1a;opacity:0.35;}.cls-2{opacity:0.25;}.cls-3,.cls-4{fill:#fff;stroke:#fff;}.cls-3,.cls-4,.cls-5,.cls-6{stroke-miterlimit:10;}.cls-3{stroke-width:0.18px;}.cls-4{stroke-width:0.19px;}.cls-5{stroke-width:0.9px;fill:url(#linear-gradient);stroke:url(#linear-gradient-2);}.cls-6{fill:none;stroke-width:1.64px;stroke:url(#linear-gradient-3);}.cls-7{fill:#f2f2f2;}</style><linearGradient id="linear-gradient" x1="120.36" y1="47.32" x2="120.36" y2="133.3" gradientUnits="userSpaceOnUse"><stop offset="0" stop-color="#04fcfe"/><stop offset="1" stop-color="#2196f3" stop-opacity="0"/></linearGradient><linearGradient id="linear-gradient-2" x1="120.36" y1="46.87" x2="120.36" y2="133.74" gradientUnits="userSpaceOnUse"><stop offset="0" stop-color="#04fcfe"/><stop offset="1" stop-color="#2196f3"/></linearGradient><linearGradient id="linear-gradient-3" x1="119.95" y1="47.32" x2="119.95" y2="134.12" xlink:href="#linear-gradient-2"/></defs><rect class="cls-1" width="238.15" height="171.22"/><g class="cls-2"><line class="cls-3" x1="12.58" y1="21.41" x2="12.58" y2="134.65"/><line class="cls-3" x1="25.16" y1="21.41" x2="25.16" y2="134.65"/><line class="cls-3" x1="37.73" y1="21.41" x2="37.73" y2="134.65"/><line class="cls-3" x1="50.31" y1="21.41" x2="50.31" y2="134.65"/><line class="cls-3" x1="62.88" y1="21.41" x2="62.88" y2="134.65"/><line class="cls-3" x1="75.46" y1="21.41" x2="75.46" y2="134.65"/><line class="cls-3" x1="88.04" y1="21.41" x2="88.04" y2="134.65"/><line class="cls-3" x1="100.61" y1="21.41" x2="100.61" y2="134.65"/><line class="cls-3" x1="113.19" y1="21.41" x2="113.19" y2="134.65"/><line class="cls-3" x1="125.76" y1="21.41" x2="125.76" y2="134.65"/><line class="cls-3" x1="138.34" y1="21.41" x2="138.34" y2="134.65"/><line class="cls-3" x1="150.91" y1="21.41" x2="150.91" y2="134.65"/><line class="cls-3" x1="163.49" y1="21.41" x2="163.49" y2="134.65"/><line class="cls-3" x1="176.07" y1="21.41" x2="176.07" y2="134.65"/><line class="cls-3" x1="188.64" y1="21.41" x2="188.64" y2="134.65"/><line class="cls-3" x1="201.22" y1="21.41" x2="201.22" y2="134.65"/><line class="cls-3" x1="213.79" y1="21.41" x2="213.79" y2="134.65"/><line class="cls-3" x1="226.37" y1="21.41" x2="226.37" y2="134.65"/><line class="cls-4" x1="12.58" y1="134.59" x2="226.37" y2="134.59"/><line class="cls-4" x1="12.58" y1="122.01" x2="226.37" y2="122.01"/><line class="cls-4" x1="12.58" y1="109.44" x2="226.37" y2="109.44"/><line class="cls-4" x1="12.58" y1="96.86" x2="226.37" y2="96.86"/><line class="cls-4" x1="12.58" y1="84.29" x2="226.37" y2="84.29"/><line class="cls-4" x1="12.58" y1="71.71" x2="226.37" y2="71.71"/><line class="cls-4" x1="12.58" y1="59.14" x2="226.37" y2="59.14"/><line class="cls-4" x1="12.58" y1="46.56" x2="226.37" y2="46.56"/><line class="cls-4" x1="12.58" y1="33.98" x2="226.37" y2="33.98"/><line class="cls-4" x1="12.58" y1="21.41" x2="226.37" y2="21.41"/></g><path class="cls-5" d="M27.46,133.3c1.69,0,1.69-19.25,3.39-19.25s1.69-9.7,3.39-9.7,1.69-7.25,3.38-7.25,1.69,4.21,3.38,4.21,1.7,7.15,3.39,7.15,1.69-9,3.38-9,1.69-11.74,3.38-11.74,1.69,10.14,3.38,10.14,1.69-11.63,3.38-11.63,1.69,5,3.38,5S63,66.11,64.68,66.11,66.36,77.9,68.05,77.9s1.69-8.68,3.38-8.68S73.12,88,74.81,88s1.69-18.56,3.38-18.56,1.69,3.31,3.38,3.31,1.69,31.7,3.37,31.7,1.69-10.9,3.38-10.9,1.69-6.2,3.38-6.2S93.39,104,95.08,104s1.69-9.39,3.38-9.39,1.69-2.49,3.38-2.49,1.69-19.74,3.38-19.74,1.69,5.34,3.38,5.34,1.69,12.36,3.38,12.36,1.69-.56,3.38-.56,1.69-8.92,3.38-8.92,1.68,28.7,3.37,28.7,1.69-16.79,3.38-16.79,1.69,21.15,3.38,21.15,1.69-3.26,3.38-3.26,1.69-13.7,3.37-13.7,1.69,15,3.38,15,1.69-35,3.38-35,1.69,25.88,3.38,25.88,1.69-9.77,3.38-9.77S150.82,80,152.51,80s1.69-7.66,3.38-7.66S157.57,97,159.26,97s1.69-19.36,3.38-19.36,1.69,12.59,3.38,12.59,1.69-4.1,3.37-4.1,1.69-9,3.38-9,1.68,6.93,3.37,6.93,1.69-3.29,3.38-3.29,1.68-10,3.37-10,1.69,14.76,3.38,14.76S188,71,189.65,71s1.68,23.16,3.37,23.16,1.69-13.54,3.38-13.54S198.08,71,199.77,71s1.68-7.47,3.37-7.47,1.69-3.38,3.37-3.38,1.69-12.8,3.37-12.8,1.69,86,3.38,86Z"/><polyline class="cls-6" points="25.76 47.32 25.76 133.3 214.96 133.3"/><path class="cls-7" d="M25.64,145.66h2c.05,0,.07,0,.07.06h0a.08.08,0,0,1,0,.05h-2v1.3h1.63s0,0,0,0h0s0,0,0,0l0,0H25.7v1.4h2s.07,0,.07.06h0s0,0,0,.05H25.64a.05.05,0,0,1-.06-.06v-2.94A.05.05,0,0,1,25.64,145.66Z"/><path class="cls-7" d="M28.23,148.72h0s-.06,0-.06-.07v-2.49s0-.07.06-.07h0s.06,0,.06.07v.49a1,1,0,0,1,.26-.31,1,1,0,0,1,.34-.21,1,1,0,0,1,.36-.07,1,1,0,0,1,.58.16.94.94,0,0,1,.38.41,1.14,1.14,0,0,1,.14.54v1.48s0,.07-.06.07h0s-.06,0-.06-.07v-1.48a1,1,0,0,0-.12-.47,1,1,0,0,0-.35-.38.87.87,0,0,0-.51-.14,1,1,0,0,0-.43.11,1.11,1.11,0,0,0-.38.34.85.85,0,0,0-.15.51v1.51S28.27,148.72,28.23,148.72Z"/><path class="cls-7" d="M30.86,147.43a1.23,1.23,0,0,0,.17.62,1.29,1.29,0,0,0,.45.45,1.19,1.19,0,0,0,.61.17,1.25,1.25,0,0,0,.36,0,1.07,1.07,0,0,0,.26-.11l.23-.16s0,0,.05,0h0s0,0,0,0,0,0,0,.05a1.33,1.33,0,0,1-.41.25,1.19,1.19,0,0,1-.51.1,1.32,1.32,0,0,1-.67-.18,1.35,1.35,0,0,1-.49-.49,1.31,1.31,0,0,1,0-1.36,1.38,1.38,0,0,1,.49-.5,1.29,1.29,0,0,1,.67-.18,1.28,1.28,0,0,1,.69.19,1.53,1.53,0,0,1,.49.49,1.16,1.16,0,0,1,.18.6h0s0,0-.06,0H30.86Zm.65-1.09a1.4,1.4,0,0,0-.44.4,1.26,1.26,0,0,0-.2.56h2.46a1,1,0,0,0-.18-.51,1.29,1.29,0,0,0-.44-.43,1.14,1.14,0,0,0-.62-.17A1.17,1.17,0,0,0,31.51,146.34Z"/><path class="cls-7" d="M34,146.09h0s0,0,0,.07v.55a.7.7,0,0,1,.24-.32,1,1,0,0,1,.34-.2,1.24,1.24,0,0,1,.37-.06.89.89,0,0,1,.31.06,1,1,0,0,1,.28.14c.08,0,.11.09.11.13v0h0l0,0-.05,0a.92.92,0,0,0-.6-.24,1,1,0,0,0-.43.1.86.86,0,0,0-.37.34,1,1,0,0,0-.15.58v1.38s0,.07,0,.07h0s0,0,0-.07v-2.49S34,146.09,34,146.09Z"/><path class="cls-7" d="M36.19,146.74a1.34,1.34,0,0,1,1.16-.67,1.36,1.36,0,0,1,.68.18,1.31,1.31,0,0,1,.5.49,1.25,1.25,0,0,1,.19.68,1.21,1.21,0,0,1-.19.67,1.33,1.33,0,0,1-.5.5,1.27,1.27,0,0,1-.68.19,1.24,1.24,0,0,1-.67-.19,1.31,1.31,0,0,1-.49-.5,1.29,1.29,0,0,1-.18-.67A1.33,1.33,0,0,1,36.19,146.74Zm.1,1.3a1.21,1.21,0,0,0,.45.45,1.1,1.1,0,0,0,.61.17,1.15,1.15,0,0,0,.63-.17,1.17,1.17,0,0,0,.46-.45,1.22,1.22,0,0,0,.16-.62,1.11,1.11,0,0,0-.17-.62,1.24,1.24,0,0,0-.46-.45,1.28,1.28,0,0,0-1.24,0,1.27,1.27,0,0,0-.44.45,1.19,1.19,0,0,0-.16.62A1.25,1.25,0,0,0,36.29,148Z"/><path class="cls-7" d="M58.05,148.66a.07.07,0,0,1-.07.06h0s0,0,0-.06h0l.25-2.93a.07.07,0,0,1,.06-.06h0s0,0,0,0l1.2,2.55,1.18-2.54,0,0h0l.05,0a.05.05,0,0,1,0,0l.25,2.94h0a0,0,0,0,1,0,.05h-.05l0,0L60.69,146l-1.15,2.45a.05.05,0,0,1,0,0h0s0,0,0,0l-1.16-2.46Z"/><path class="cls-7" d="M64.19,148.72h0s-.05,0-.05-.07V148a1.4,1.4,0,0,1-.3.42,1.46,1.46,0,0,1-.44.29,1.44,1.44,0,0,1-.5.1,1.26,1.26,0,0,1-.66-.18,1.52,1.52,0,0,1-.51-.5,1.29,1.29,0,0,1-.18-.67,1.36,1.36,0,0,1,.18-.68,1.52,1.52,0,0,1,.51-.5,1.26,1.26,0,0,1,.66-.18,1.24,1.24,0,0,1,.5.1,1.4,1.4,0,0,1,.74.72v-.73a.09.09,0,0,1,0,0,.05.05,0,0,1,0,0h0s0,0,0,.07v2.49S64.22,148.72,64.19,148.72ZM64,146.81a1.35,1.35,0,0,0-.47-.45,1.14,1.14,0,0,0-1.2,0,1.32,1.32,0,0,0-.46.45,1.23,1.23,0,0,0-.17.62,1.19,1.19,0,0,0,.17.61,1.32,1.32,0,0,0,.46.45,1.09,1.09,0,0,0,.6.17,1.14,1.14,0,0,0,.62-.17A1.24,1.24,0,0,0,64,148a1.17,1.17,0,0,0,.17-.61A1.15,1.15,0,0,0,64,146.81Z"/><path class="cls-7" d="M64.86,146.09h0s.06,0,.06.07v.55a.75.75,0,0,1,.23-.32,1,1,0,0,1,.35-.2,1.23,1.23,0,0,1,.36-.06,1,1,0,0,1,.32.06,1,1,0,0,1,.28.14c.07,0,.11.09.11.13s0,0,0,0h0l0,0,0,0a1,1,0,0,0-.6-.24,1,1,0,0,0-.44.1.84.84,0,0,0-.36.34,1,1,0,0,0-.15.58v1.38s0,.07-.06.07h0s-.06,0-.06-.07v-2.49S64.82,146.09,64.86,146.09Z"/><path class="cls-7" d="M68.66,146.11s0,0,0,0,0,0,0,0l-1.62,2.41h1.56s.07,0,.07.06,0,0,0,.05H66.94a0,0,0,0,1,0,0,.05.05,0,0,1,0,0l0,0,1.61-2.4H67a.07.07,0,0,1,0,0s0,0,0,0l.05,0h1.58A.05.05,0,0,1,68.66,146.11Z"/><path class="cls-7" d="M69.43,146.74a1.31,1.31,0,0,1,1.15-.67,1.37,1.37,0,0,1,.69.18,1.38,1.38,0,0,1,.5.49,1.34,1.34,0,0,1,.19.68,1.3,1.3,0,0,1-.19.67,1.41,1.41,0,0,1-.5.5,1.27,1.27,0,0,1-.68.19,1.21,1.21,0,0,1-.67-.19,1.31,1.31,0,0,1-.49-.5,1.29,1.29,0,0,1-.18-.67A1.33,1.33,0,0,1,69.43,146.74Zm.1,1.3a1.27,1.27,0,0,0,.44.45,1.23,1.23,0,0,0,1.25,0,1.21,1.21,0,0,0,.45-.45,1.23,1.23,0,0,0,.17-.62,1.2,1.2,0,0,0-.17-.62,1.32,1.32,0,0,0-.46-.45,1.23,1.23,0,0,0-.63-.16,1.21,1.21,0,0,0-1.21,1.23A1.25,1.25,0,0,0,69.53,148Z"/><path class="cls-7" d="M92.42,148.66a.05.05,0,0,1-.06.06h0s0,0,0-.06h0l.24-2.93,0,0,.05,0h0v0l1.2,2.55,1.19-2.54,0,0h0a.05.05,0,0,1,0,0s0,0,0,0l.26,2.94h0s0,.05-.06.05h0a.05.05,0,0,1,0,0L95.07,146l-1.15,2.45a.05.05,0,0,1,0,0h0a.05.05,0,0,1,0,0l-1.16-2.46Z"/><path class="cls-7" d="M98.56,148.72h0s-.06,0-.06-.07V148a1.37,1.37,0,0,1-.29.42,1.6,1.6,0,0,1-.44.29,1.45,1.45,0,0,1-.51.1,1.31,1.31,0,0,1-.66-.18,1.49,1.49,0,0,1-.5-.5,1.21,1.21,0,0,1-.19-.67,1.27,1.27,0,0,1,.19-.68,1.49,1.49,0,0,1,.5-.5,1.31,1.31,0,0,1,.66-.18,1.25,1.25,0,0,1,.51.1,1.6,1.6,0,0,1,.44.29,1.55,1.55,0,0,1,.29.43v-.73s0,0,0,0l0,0h0s.06,0,.06.07v2.49S98.6,148.72,98.56,148.72Zm-.24-1.91a1.24,1.24,0,0,0-.46-.45,1.14,1.14,0,0,0-1.2,0,1.32,1.32,0,0,0-.46.45,1.23,1.23,0,0,0-.17.62,1.19,1.19,0,0,0,.17.61,1.32,1.32,0,0,0,.46.45,1.09,1.09,0,0,0,.6.17,1.14,1.14,0,0,0,.62-.17,1.21,1.21,0,0,0,.45-.45,1.08,1.08,0,0,0,.17-.61A1.15,1.15,0,0,0,98.32,146.81Z"/><path class="cls-7" d="M99.72,149.57h-.07a.05.05,0,0,1,0,0s0,0,0,0l.33-.82-1-2.49a0,0,0,0,1,0,0,.08.08,0,0,1,0,0l0,0s0,0,0,0l1,2.39,1-2.39s0,0,0,0l0,0a.05.05,0,0,1,0,0,.08.08,0,0,1,0,0l-1.4,3.35Z"/><path class="cls-7" d="M101.6,146.74a1.34,1.34,0,0,1,1.16-.67,1.36,1.36,0,0,1,.68.18,1.31,1.31,0,0,1,.5.49,1.25,1.25,0,0,1,.19.68,1.21,1.21,0,0,1-.19.67,1.33,1.33,0,0,1-.5.5,1.29,1.29,0,0,1-1.35,0,1.38,1.38,0,0,1-.49-.5,1.29,1.29,0,0,1-.18-.67A1.33,1.33,0,0,1,101.6,146.74Zm.1,1.3a1.21,1.21,0,0,0,.45.45,1.1,1.1,0,0,0,.61.17,1.25,1.25,0,0,0,1.09-.62,1.22,1.22,0,0,0,.16-.62,1.11,1.11,0,0,0-.17-.62,1.17,1.17,0,0,0-.46-.45,1.22,1.22,0,0,0-.62-.16,1.16,1.16,0,0,0-.61.16,1.21,1.21,0,0,0-.45.45,1.3,1.3,0,0,0-.16.62A1.36,1.36,0,0,0,101.7,148Z"/><path class="cls-7" d="M123.39,145.68a.05.05,0,0,1,0,0h0l0,0a.09.09,0,0,1,0,0v3.16a.63.63,0,0,1-.09.33.6.6,0,0,1-.25.25.7.7,0,0,1-.35.09.76.76,0,0,1-.27-.05.57.57,0,0,1-.21-.13s0,0,0-.07l0,0h0s0,0,0,0l.05,0a.54.54,0,0,0,.42.16.62.62,0,0,0,.31-.08.58.58,0,0,0,.2-.21.53.53,0,0,0,.08-.27v-3.15A.07.07,0,0,1,123.39,145.68Z"/><path class="cls-7" d="M126.33,146.09h0s0,0,0,.07v2.49s0,.07,0,.07h0s0,0,0-.07v-.43a1,1,0,0,1-.26.31,1.08,1.08,0,0,1-.35.19.92.92,0,0,1-.36.07,1.12,1.12,0,0,1-.6-.16,1.21,1.21,0,0,1-.55-1v-1.46s0-.07.06-.07h0s.06,0,.06.07v1.46a1.1,1.1,0,0,0,.14.55,1,1,0,0,0,1.34.39,1.06,1.06,0,0,0,.37-.33.81.81,0,0,0,.15-.48v-1.59S126.29,146.09,126.33,146.09Z"/><path class="cls-7" d="M126.92,145.35l0,0h0l0,0a.08.08,0,0,1,0,.05v3.25a.08.08,0,0,1,0,0s0,0,0,0h0s0,0,0,0a.43.43,0,0,1,0,0V145.4A.43.43,0,0,1,126.92,145.35Z"/><path class="cls-7" d="M127.8,145.37h.1a0,0,0,0,1,0,0v.09s0,.05,0,.05h-.13s0,0,0,0v-.09S127.77,145.37,127.8,145.37Zm.06.72h0s.06,0,.06.07v2.49s0,.07-.06.07h0s0,0,0,0a.07.07,0,0,1,0,0v-2.49S127.81,146.09,127.86,146.09Z"/><path class="cls-7" d="M128.69,146.74a1.34,1.34,0,0,1,1.16-.67,1.36,1.36,0,0,1,.68.18,1.41,1.41,0,0,1,.51.49,1.33,1.33,0,0,1,.18.68,1.29,1.29,0,0,1-.18.67,1.44,1.44,0,0,1-.51.5,1.29,1.29,0,0,1-1.35,0,1.38,1.38,0,0,1-.49-.5,1.29,1.29,0,0,1-.18-.67A1.33,1.33,0,0,1,128.69,146.74Zm.11,1.3a1.19,1.19,0,0,0,.44.45,1.1,1.1,0,0,0,.61.17,1.18,1.18,0,0,0,.64-.17,1.21,1.21,0,0,0,.61-1.07,1.11,1.11,0,0,0-.17-.62,1.21,1.21,0,0,0-.45-.45,1.28,1.28,0,0,0-.63-.16,1.16,1.16,0,0,0-.61.16,1.12,1.12,0,0,0-.44.45,1.2,1.2,0,0,0-.17.62A1.26,1.26,0,0,0,128.8,148Z"/><path class="cls-7" d="M144.44,148.24s0,0,0,0h0s0,0,.07,0a1,1,0,0,0,.4.32,1.42,1.42,0,0,0,.57.1,1.64,1.64,0,0,0,.52-.07.87.87,0,0,0,.37-.25.68.68,0,0,0,.13-.44.44.44,0,0,0-.16-.36.94.94,0,0,0-.35-.2l-.5-.12A2.27,2.27,0,0,1,145,147a.84.84,0,0,1-.34-.25.55.55,0,0,1-.11-.36.69.69,0,0,1,.13-.43.83.83,0,0,1,.37-.28,1.68,1.68,0,0,1,.58-.09,1.6,1.6,0,0,1,.51.08,1.12,1.12,0,0,1,.41.27.08.08,0,0,1,0,.05l0,0h-.07l0,0a1.33,1.33,0,0,0-.23-.17.81.81,0,0,0-.25-.09,1.55,1.55,0,0,0-.33,0,1.41,1.41,0,0,0-.47.07.77.77,0,0,0-.36.21.59.59,0,0,0-.14.4.47.47,0,0,0,.26.43,2.06,2.06,0,0,0,.69.23l.56.14a1,1,0,0,1,.38.23.59.59,0,0,1,.16.42.77.77,0,0,1-.15.49.94.94,0,0,1-.4.3,1.78,1.78,0,0,1-.59.09,1.4,1.4,0,0,1-.6-.11,1.26,1.26,0,0,1-.46-.35A.15.15,0,0,1,144.44,148.24Z"/><path class="cls-7" d="M147.19,147.43a1.23,1.23,0,0,0,.17.62,1.29,1.29,0,0,0,.45.45,1.19,1.19,0,0,0,.61.17,1.25,1.25,0,0,0,.36,0,1.07,1.07,0,0,0,.26-.11l.23-.16a.06.06,0,0,1,0,0h0s0,0,0,0,0,0,0,.05a1.33,1.33,0,0,1-.41.25,1.19,1.19,0,0,1-.51.1,1.32,1.32,0,0,1-.67-.18,1.36,1.36,0,0,1-.49-1.85,1.38,1.38,0,0,1,.49-.5,1.29,1.29,0,0,1,.67-.18,1.28,1.28,0,0,1,.69.19,1.53,1.53,0,0,1,.49.49,1.16,1.16,0,0,1,.18.6h0s0,0-.06,0h-2.53Zm.66-1.09a1.21,1.21,0,0,0-.44.4,1.16,1.16,0,0,0-.21.56h2.46a1,1,0,0,0-.18-.51,1.29,1.29,0,0,0-.44-.43,1.19,1.19,0,0,0-1.19,0Z"/><path class="cls-7" d="M150.3,146.11l0,0h0s.06,0,.06.07v.71a1.22,1.22,0,0,1,.29-.42,1.52,1.52,0,0,1,.43-.28,1.55,1.55,0,0,1,.52-.1,1.31,1.31,0,0,1,.66.18,1.56,1.56,0,0,1,.5.49,1.21,1.21,0,0,1,.19.67,1.36,1.36,0,0,1-.18.68,1.31,1.31,0,0,1-.49.5,1.27,1.27,0,0,1-.68.19,1.46,1.46,0,0,1-.52-.1,1.42,1.42,0,0,1-.43-.29,1.55,1.55,0,0,1-.29-.43v1.56s0,.07-.06.07h0l0,0a.07.07,0,0,1,0,0v-3.36A.09.09,0,0,1,150.3,146.11Zm.27,1.92a1.09,1.09,0,0,0,.44.46,1.23,1.23,0,0,0,1.25,0,1.35,1.35,0,0,0,.46-.46,1.22,1.22,0,0,0,.16-.62,1.19,1.19,0,0,0-.17-.61,1.32,1.32,0,0,0-.46-.45,1.17,1.17,0,0,0-.6-.16,1.19,1.19,0,0,0-.62.16,1.3,1.3,0,0,0-.46.44,1.19,1.19,0,0,0-.16.62A1.22,1.22,0,0,0,150.57,148Z"/><path class="cls-7" d="M154.2,146.33s.06,0,.06,0h0a.05.05,0,0,1,0,0l0,0h-.5v1.84a.48.48,0,0,0,.07.23.28.28,0,0,0,.23.1h.08c.06,0,.08,0,.08,0h0a.08.08,0,0,1,0,0l-.05,0h-.18a.34.34,0,0,1-.25-.14.44.44,0,0,1-.08-.28v-1.85h-.35a.05.05,0,0,1-.06-.06s0,0,.06,0h.35v-.69s0-.07,0-.07h0s.06,0,.06.07v.69Z"/><path class="cls-7" d="M154.73,145.37h.11a0,0,0,0,1,0,0v.09s0,.05,0,.05h-.14s0,0,0,0v-.09S154.7,145.37,154.73,145.37Zm.06.72h0s.06,0,.06.07v2.49s0,.07-.06.07h0s0,0,0,0a.07.07,0,0,1,0,0v-2.49S154.75,146.09,154.79,146.09Z"/><path class="cls-7" d="M155.55,147.43a1.22,1.22,0,0,0,.16.62,1.29,1.29,0,0,0,.45.45,1.2,1.2,0,0,0,.62.17,1.36,1.36,0,0,0,.36,0,1.27,1.27,0,0,0,.26-.11l.22-.16a.06.06,0,0,1,0,0h0s0,0,0,0a.06.06,0,0,1,0,.05,1.51,1.51,0,0,1-.42.25,1.18,1.18,0,0,1-.5.1,1.33,1.33,0,0,1-.68-.18,1.44,1.44,0,0,1-.49-.49,1.37,1.37,0,0,1,0-1.36,1.47,1.47,0,0,1,.49-.5,1.32,1.32,0,0,1,.67-.18,1.28,1.28,0,0,1,.69.19,1.44,1.44,0,0,1,.49.49,1.16,1.16,0,0,1,.18.6h0s0,0-.06,0h-2.52Zm.65-1.09a1.21,1.21,0,0,0-.44.4,1.28,1.28,0,0,0-.21.56H158a1,1,0,0,0-.18-.51,1.29,1.29,0,0,0-.44-.43,1.11,1.11,0,0,0-.62-.17A1.16,1.16,0,0,0,156.2,146.34Z"/><path class="cls-7" d="M158.7,148.72h0s-.06,0-.06-.07v-2.49s0-.07.06-.07h0s.06,0,.06.07v.4a.7.7,0,0,1,.22-.26.92.92,0,0,1,.29-.16,1,1,0,0,1,.3,0,.84.84,0,0,1,.56.18,1.11,1.11,0,0,1,.3.45,1,1,0,0,1,.18-.31.7.7,0,0,1,.28-.23.87.87,0,0,1,.4-.09.82.82,0,0,1,.5.15.87.87,0,0,1,.31.38,1.06,1.06,0,0,1,.11.44v1.59s0,.07-.06.07h0s0,0,0,0a.08.08,0,0,1,0,0v-1.59a1.08,1.08,0,0,0-.08-.38.86.86,0,0,0-.27-.33.79.79,0,0,0-.9,0,.86.86,0,0,0-.27.33,1.08,1.08,0,0,0-.08.38v1.59s0,.07-.06.07h0s-.06,0-.06-.07V147a.87.87,0,0,0-.09-.37.8.8,0,0,0-.26-.32.75.75,0,0,0-.45-.13.93.93,0,0,0-.35.08.75.75,0,0,0-.33.26.77.77,0,0,0-.13.47v1.63S158.74,148.72,158.7,148.72Z"/><path class="cls-7" d="M162.93,145.35l0,0h0s.06,0,.06.07v1.49a1.39,1.39,0,0,1,.3-.43,1.46,1.46,0,0,1,.44-.29,1.34,1.34,0,0,1,.52-.1,1.26,1.26,0,0,1,.66.18,1.38,1.38,0,0,1,.49.5,1.36,1.36,0,0,1,.18.68,1.29,1.29,0,0,1-.18.67,1.49,1.49,0,0,1-.5.5,1.25,1.25,0,0,1-.65.18,1.55,1.55,0,0,1-.52-.1,1.46,1.46,0,0,1-.44-.29,1.25,1.25,0,0,1-.3-.42v.68s0,.07-.06.07h0s0,0,0,0a.08.08,0,0,1,0,0V145.4A.08.08,0,0,1,162.93,145.35Zm.27,2.69a1.27,1.27,0,0,0,.47.45,1.14,1.14,0,0,0,.62.17,1.09,1.09,0,0,0,.6-.17,1.27,1.27,0,0,0,.44-.45,1.1,1.1,0,0,0,.17-.61,1.22,1.22,0,0,0-.16-.62,1.32,1.32,0,0,0-.45-.46,1.12,1.12,0,0,0-.6-.16,1.28,1.28,0,0,0-.63.16,1.44,1.44,0,0,0-.46.46,1.23,1.23,0,0,0-.17.62A1.19,1.19,0,0,0,163.2,148Z"/><path class="cls-7" d="M166.17,146.09h0s.05,0,.05.07v.55a.77.77,0,0,1,.24-.32,1,1,0,0,1,.35-.2,1.13,1.13,0,0,1,.36-.06.89.89,0,0,1,.31.06.92.92,0,0,1,.28.14c.08,0,.12.09.12.13s0,0,0,0h0l-.05,0,0,0a1,1,0,0,0-.6-.24,1,1,0,0,0-.44.1.86.86,0,0,0-.37.34,1.11,1.11,0,0,0-.14.58v1.38s0,.07-.06.07h0s-.06,0-.06-.07v-2.49S166.13,146.09,166.17,146.09Z"/><path class="cls-7" d="M168.27,147.43a1.22,1.22,0,0,0,.16.62,1.29,1.29,0,0,0,.45.45,1.2,1.2,0,0,0,.62.17,1.36,1.36,0,0,0,.36,0,1.27,1.27,0,0,0,.26-.11l.22-.16a.06.06,0,0,1,0,0h0s0,0,0,0,0,0,0,.05a1.51,1.51,0,0,1-.42.25,1.18,1.18,0,0,1-.5.1,1.33,1.33,0,0,1-.68-.18,1.44,1.44,0,0,1-.49-.49,1.37,1.37,0,0,1,0-1.36,1.38,1.38,0,0,1,.49-.5,1.32,1.32,0,0,1,.67-.18,1.28,1.28,0,0,1,.69.19,1.44,1.44,0,0,1,.49.49,1.16,1.16,0,0,1,.18.6h0s0,0-.06,0h-2.52Zm.65-1.09a1.21,1.21,0,0,0-.44.4,1.28,1.28,0,0,0-.21.56h2.46a1,1,0,0,0-.18-.51,1.29,1.29,0,0,0-.44-.43,1.11,1.11,0,0,0-.62-.17A1.16,1.16,0,0,0,168.92,146.34Z"/><path class="cls-7" d="M188.78,148.65s0,.07-.05.07h0s0,0,0,0a.07.07,0,0,1,0,0v-2.93a.08.08,0,0,1,0,0l0,0h0s0,0,.07.05l2.25,2.8v-2.79a.05.05,0,0,1,.06-.06h0a.05.05,0,0,1,.06.06v2.93s0,.07-.06.07h0a.07.07,0,0,1-.06,0l-2.26-2.81Z"/><path class="cls-7" d="M191.87,146.74a1.34,1.34,0,0,1,1.16-.67,1.36,1.36,0,0,1,.68.18,1.41,1.41,0,0,1,.51.49,1.33,1.33,0,0,1,.18.68,1.29,1.29,0,0,1-.18.67,1.49,1.49,0,0,1-.5.5,1.31,1.31,0,0,1-.69.19,1.24,1.24,0,0,1-.67-.19,1.28,1.28,0,0,1-.48-.5,1.21,1.21,0,0,1-.19-.67A1.33,1.33,0,0,1,191.87,146.74ZM192,148a1.19,1.19,0,0,0,.44.45,1.1,1.1,0,0,0,.61.17,1.18,1.18,0,0,0,.64-.17,1.21,1.21,0,0,0,.61-1.07,1.11,1.11,0,0,0-.17-.62,1.21,1.21,0,0,0-.45-.45,1.28,1.28,0,0,0-.63-.16,1.16,1.16,0,0,0-.61.16,1.21,1.21,0,0,0-.45.45,1.3,1.3,0,0,0-.16.62A1.26,1.26,0,0,0,192,148Z"/><path class="cls-7" d="M195.77,148.71h-.06s0,0,0,0l-1.07-2.5v0s0,0,0,0h0a.05.05,0,0,1,.05,0l1,2.39,1-2.39a.05.05,0,0,1,.05,0h0a.08.08,0,0,1,0,0s0,0,0,0l-1.06,2.5Z"/><path class="cls-7" d="M197.26,145.37h.11s0,0,0,0v.09s0,.05,0,.05h-.14s0,0,0,0v-.09A0,0,0,0,1,197.26,145.37Zm.06.72h0s.06,0,.06.07v2.49s0,.07-.06.07h0a.06.06,0,0,1,0,0,.07.07,0,0,1,0,0v-2.49S197.28,146.09,197.32,146.09Z"/><path class="cls-7" d="M198.08,147.43a1.23,1.23,0,0,0,.17.62,1.35,1.35,0,0,0,.44.45,1.23,1.23,0,0,0,.62.17,1.36,1.36,0,0,0,.36,0,1.27,1.27,0,0,0,.26-.11l.23-.16s0,0,.05,0h0a.05.05,0,0,1,0,0s0,0,0,.05a1.46,1.46,0,0,1-.41.25,1.19,1.19,0,0,1-.51.1,1.29,1.29,0,0,1-.67-.18,1.47,1.47,0,0,1-.5-.49,1.37,1.37,0,0,1,0-1.36,1.49,1.49,0,0,1,.5-.5,1.26,1.26,0,0,1,.66-.18,1.28,1.28,0,0,1,.69.19,1.35,1.35,0,0,1,.49.49,1.09,1.09,0,0,1,.19.6h0s0,0-.06,0h-2.53Zm.65-1.09a1.3,1.3,0,0,0-.44.4,1.26,1.26,0,0,0-.2.56h2.46a1.16,1.16,0,0,0-.18-.51,1.24,1.24,0,0,0-.45-.43,1.09,1.09,0,0,0-.62-.17A1.16,1.16,0,0,0,198.73,146.34Z"/><path class="cls-7" d="M201.23,148.72h0s0,0,0-.07v-2.49s0-.07,0-.07h0s.06,0,.06.07v.4a.8.8,0,0,1,.22-.26.92.92,0,0,1,.29-.16,1.17,1.17,0,0,1,.3,0,.82.82,0,0,1,.56.18,1.11,1.11,0,0,1,.3.45,1,1,0,0,1,.18-.31.73.73,0,0,1,.29-.23.83.83,0,0,1,.39-.09.85.85,0,0,1,.51.15,1,1,0,0,1,.31.38,1,1,0,0,1,.1.44v1.59s0,.07-.05.07h0s0,0-.05,0a.08.08,0,0,1,0,0v-1.59a.9.9,0,0,0-.08-.38.86.86,0,0,0-.27-.33.73.73,0,0,0-.45-.14.7.7,0,0,0-.44.14.86.86,0,0,0-.27.33.92.92,0,0,0-.09.38v1.59s0,.07-.06.07h0s-.06,0-.06-.07V147a1,1,0,0,0-.08-.37.83.83,0,0,0-.27-.32.73.73,0,0,0-.45-.13,1,1,0,0,0-.35.08.79.79,0,0,0-.32.26.77.77,0,0,0-.14.47v1.63S201.27,148.72,201.23,148.72Z"/><path class="cls-7" d="M205.46,145.35l0,0h0s.05,0,.05.07v1.49a1.39,1.39,0,0,1,.3-.43,1.6,1.6,0,0,1,.44-.29,1.34,1.34,0,0,1,.52-.1,1.32,1.32,0,0,1,.67.18,1.44,1.44,0,0,1,.48.5,1.27,1.27,0,0,1,.19.68,1.3,1.3,0,0,1-.19.67,1.47,1.47,0,0,1-.49.5,1.31,1.31,0,0,1-.66.18,1.55,1.55,0,0,1-.52-.1,1.6,1.6,0,0,1-.44-.29,1.25,1.25,0,0,1-.3-.42v.68s0,.07-.05.07h0s0,0,0,0a.08.08,0,0,1,0,0V145.4A.08.08,0,0,1,205.46,145.35Zm.27,2.69a1.35,1.35,0,0,0,.47.45,1.15,1.15,0,0,0,.63.17,1.06,1.06,0,0,0,.59-.17,1.21,1.21,0,0,0,.45-.45,1.19,1.19,0,0,0,.17-.61,1.23,1.23,0,0,0-.17-.62,1.38,1.38,0,0,0-.44-.46,1.17,1.17,0,0,0-.6-.16,1.23,1.23,0,0,0-.63.16,1.38,1.38,0,0,0-.47.46,1.23,1.23,0,0,0-.17.62A1.19,1.19,0,0,0,205.73,148Z"/><path class="cls-7" d="M208.7,146.09h0s.06,0,.06.07v.55a.75.75,0,0,1,.23-.32,1.13,1.13,0,0,1,.35-.2,1.23,1.23,0,0,1,.36-.06,1,1,0,0,1,.32.06,1,1,0,0,1,.28.14c.07,0,.11.09.11.13s0,0,0,0h0l-.05,0,0,0a.94.94,0,0,0-.6-.24,1,1,0,0,0-.44.1.84.84,0,0,0-.36.34,1,1,0,0,0-.15.58v1.38s0,.07-.06.07h0s-.06,0-.06-.07v-2.49S208.66,146.09,208.7,146.09Z"/><path class="cls-7" d="M210.8,147.43a1.14,1.14,0,0,0,.17.62,1.26,1.26,0,0,0,.44.45,1.23,1.23,0,0,0,.62.17,1.36,1.36,0,0,0,.36,0,1.27,1.27,0,0,0,.26-.11l.23-.16s0,0,.05,0h0s0,0,0,0a.06.06,0,0,1,0,.05,1.46,1.46,0,0,1-.41.25,1.19,1.19,0,0,1-.51.1,1.36,1.36,0,0,1-.68-.18,1.44,1.44,0,0,1-.49-.49,1.37,1.37,0,0,1,0-1.36,1.47,1.47,0,0,1,.49-.5,1.32,1.32,0,0,1,.67-.18,1.28,1.28,0,0,1,.69.19,1.44,1.44,0,0,1,.49.49,1.17,1.17,0,0,1,.19.6h0s0,0-.07,0H210.8Zm.65-1.09a1.3,1.3,0,0,0-.44.4,1.41,1.41,0,0,0-.21.56h2.47a1.07,1.07,0,0,0-.19-.51,1.21,1.21,0,0,0-.44-.43,1.09,1.09,0,0,0-.62-.17A1.16,1.16,0,0,0,211.45,146.34Z"/></svg>