<svg id="Capa_1" data-name="Capa 1" xmlns="http://www.w3.org/2000/svg" xmlns:xlink="http://www.w3.org/1999/xlink" viewBox="0 0 238.15 163.16"><defs><style>.cls-1{fill:#1a1a1a;opacity:0.35;}.cls-2{opacity:0.25;}.cls-3,.cls-4{fill:#fff;stroke:#fff;}.cls-3,.cls-4,.cls-5{stroke-miterlimit:10;}.cls-3{stroke-width:0.18px;}.cls-4{stroke-width:0.19px;}.cls-5{fill:none;stroke-width:1.53px;stroke:url(#linear-gradient);}.cls-6{fill:url(#linear-gradient-2);}.cls-7{fill:url(#linear-gradient-3);}.cls-8{fill:url(#linear-gradient-4);}.cls-9{fill:url(#linear-gradient-5);}.cls-10{fill:url(#linear-gradient-6);}.cls-11{fill:url(#linear-gradient-7);}.cls-12{fill:#0ed9fa;}</style><linearGradient id="linear-gradient" x1="118.69" y1="50.07" x2="118.69" y2="125.74" gradientUnits="userSpaceOnUse"><stop offset="0" stop-color="#04fcfe"/><stop offset="1" stop-color="#2196f3"/></linearGradient><linearGradient id="linear-gradient-2" x1="42.91" y1="103.83" x2="42.91" y2="124.98" xlink:href="#linear-gradient"/><linearGradient id="linear-gradient-3" x1="73.37" y1="95.53" x2="73.37" y2="124.98" xlink:href="#linear-gradient"/><linearGradient id="linear-gradient-4" x1="103.84" y1="86.34" x2="103.84" y2="124.98" xlink:href="#linear-gradient"/><linearGradient id="linear-gradient-5" x1="134.31" y1="71.18" x2="134.31" y2="124.98" xlink:href="#linear-gradient"/><linearGradient id="linear-gradient-6" x1="164.77" y1="61.5" x2="164.77" y2="124.98" xlink:href="#linear-gradient"/><linearGradient id="linear-gradient-7" x1="195.24" y1="50.07" x2="195.24" y2="124.98" xlink:href="#linear-gradient"/></defs><rect class="cls-1" width="238.15" height="163.16"/><g class="cls-2"><line class="cls-3" x1="12.18" y1="24.96" x2="12.18" y2="138.2"/><line class="cls-3" x1="24.76" y1="24.96" x2="24.76" y2="138.2"/><line class="cls-3" x1="37.33" y1="24.96" x2="37.33" y2="138.2"/><line class="cls-3" x1="49.91" y1="24.96" x2="49.91" y2="138.2"/><line class="cls-3" x1="62.48" y1="24.96" x2="62.48" y2="138.2"/><line class="cls-3" x1="75.06" y1="24.96" x2="75.06" y2="138.2"/><line class="cls-3" x1="87.63" y1="24.96" x2="87.63" y2="138.2"/><line class="cls-3" x1="100.21" y1="24.96" x2="100.21" y2="138.2"/><line class="cls-3" x1="112.79" y1="24.96" x2="112.79" y2="138.2"/><line class="cls-3" x1="125.36" y1="24.96" x2="125.36" y2="138.2"/><line class="cls-3" x1="137.94" y1="24.96" x2="137.94" y2="138.2"/><line class="cls-3" x1="150.51" y1="24.96" x2="150.51" y2="138.2"/><line class="cls-3" x1="163.09" y1="24.96" x2="163.09" y2="138.2"/><line class="cls-3" x1="175.66" y1="24.96" x2="175.66" y2="138.2"/><line class="cls-3" x1="188.24" y1="24.96" x2="188.24" y2="138.2"/><line class="cls-3" x1="200.81" y1="24.96" x2="200.81" y2="138.2"/><line class="cls-3" x1="213.39" y1="24.96" x2="213.39" y2="138.2"/><line class="cls-3" x1="225.97" y1="24.96" x2="225.97" y2="138.2"/><line class="cls-4" x1="12.18" y1="138.14" x2="225.97" y2="138.14"/><line class="cls-4" x1="12.18" y1="125.56" x2="225.97" y2="125.56"/><line class="cls-4" x1="12.18" y1="112.99" x2="225.97" y2="112.99"/><line class="cls-4" x1="12.18" y1="100.41" x2="225.97" y2="100.41"/><line class="cls-4" x1="12.18" y1="87.84" x2="225.97" y2="87.84"/><line class="cls-4" x1="12.18" y1="75.26" x2="225.97" y2="75.26"/><line class="cls-4" x1="12.18" y1="62.68" x2="225.97" y2="62.68"/><line class="cls-4" x1="12.18" y1="50.11" x2="225.97" y2="50.11"/><line class="cls-4" x1="12.18" y1="37.53" x2="225.97" y2="37.53"/><line class="cls-4" x1="12.18" y1="24.96" x2="225.97" y2="24.96"/></g><polyline class="cls-5" points="25.57 50.07 25.57 124.98 212.57 124.98"/><rect class="cls-6" x="34.6" y="103.83" width="16.62" height="21.14"/><rect class="cls-7" x="65.07" y="95.53" width="16.62" height="29.44"/><rect class="cls-8" x="95.53" y="86.34" width="16.62" height="38.63"/><rect class="cls-9" x="126" y="71.18" width="16.62" height="53.79"/><rect class="cls-10" x="156.46" y="61.5" width="16.62" height="63.48"/><rect class="cls-11" x="186.93" y="50.07" width="16.62" height="74.91"/><path class="cls-12" d="M35.61,137.53v-.32l.41-.4c1-.94,1.43-1.44,1.44-2a.69.69,0,0,0-.77-.75,1.31,1.31,0,0,0-.82.32l-.16-.37a1.73,1.73,0,0,1,1.09-.39A1.08,1.08,0,0,1,38,134.72c0,.72-.51,1.29-1.33,2.08l-.31.28h1.74v.44Z"/><path class="cls-12" d="M41.52,135.56c0,1.31-.48,2-1.34,2s-1.26-.71-1.28-2,.56-2,1.35-2S41.52,134.33,41.52,135.56Zm-2.09.05c0,1,.31,1.58.78,1.58s.79-.63.79-1.61-.24-1.57-.78-1.57S39.43,134.56,39.43,135.61Z"/><path class="cls-12" d="M43.44,134.15h0l-.67.37-.1-.4.84-.45h.45v3.86h-.5Z"/><path class="cls-12" d="M48,134.11H46.48l-.15,1a2.16,2.16,0,0,1,.31,0,1.63,1.63,0,0,1,.83.21,1.09,1.09,0,0,1,.56,1,1.34,1.34,0,0,1-1.44,1.32,1.86,1.86,0,0,1-1-.24l.13-.39a1.77,1.77,0,0,0,.82.21.85.85,0,0,0,.92-.84c0-.5-.34-.85-1.11-.85a3.74,3.74,0,0,0-.54,0l.25-1.85H48Z"/><path class="cls-12" d="M66.25,137.53v-.32l.41-.4c1-.94,1.43-1.44,1.44-2a.69.69,0,0,0-.77-.75,1.31,1.31,0,0,0-.82.32l-.16-.37a1.71,1.71,0,0,1,1.09-.39,1.08,1.08,0,0,1,1.18,1.12c0,.72-.52,1.29-1.33,2.08l-.31.28h1.74v.44Z"/><path class="cls-12" d="M72.16,135.56c0,1.31-.49,2-1.34,2s-1.27-.71-1.28-2,.56-2,1.34-2S72.16,134.33,72.16,135.56Zm-2.09.05c0,1,.3,1.58.78,1.58s.79-.63.79-1.61-.25-1.57-.79-1.57S70.07,134.56,70.07,135.61Z"/><path class="cls-12" d="M74.07,134.15h0l-.67.37-.1-.4.84-.45h.45v3.86h-.51Z"/><path class="cls-12" d="M78.49,134a1.91,1.91,0,0,0-.4,0,1.57,1.57,0,0,0-1.34,1.37h0a1.18,1.18,0,0,1,2.1.8,1.3,1.3,0,0,1-1.29,1.36c-.82,0-1.36-.64-1.36-1.64a2.43,2.43,0,0,1,.65-1.74,2.08,2.08,0,0,1,1.24-.57,1.85,1.85,0,0,1,.38,0Zm-.15,2.22a.78.78,0,0,0-.8-.88.87.87,0,0,0-.75.47.52.52,0,0,0-.06.23c0,.64.31,1.11.85,1.11S78.34,136.81,78.34,136.26Z"/><path class="cls-12" d="M96.89,137.53v-.32l.41-.4c1-.94,1.43-1.44,1.44-2A.69.69,0,0,0,98,134a1.31,1.31,0,0,0-.82.32L97,134a1.74,1.74,0,0,1,1.1-.39,1.08,1.08,0,0,1,1.18,1.12c0,.72-.52,1.29-1.33,2.08l-.31.28h1.73v.44Z"/><path class="cls-12" d="M102.8,135.56c0,1.31-.49,2-1.34,2s-1.27-.71-1.28-2,.56-2,1.34-2S102.8,134.33,102.8,135.56Zm-2.1.05c0,1,.31,1.58.79,1.58s.79-.63.79-1.61S102,134,101.49,134,100.7,134.56,100.7,135.61Z"/><path class="cls-12" d="M104.71,134.15h0l-.67.37-.1-.4.84-.45h.44v3.86h-.5Z"/><path class="cls-12" d="M109.42,133.67V134l-1.68,3.52h-.54l1.68-3.42H107v-.43Z"/><path class="cls-12" d="M127.53,137.53v-.32l.41-.4c1-.94,1.43-1.44,1.43-2a.68.68,0,0,0-.76-.75,1.31,1.31,0,0,0-.82.32l-.17-.37a1.74,1.74,0,0,1,1.1-.39,1.08,1.08,0,0,1,1.18,1.12c0,.72-.52,1.29-1.33,2.08l-.31.28H130v.44Z"/><path class="cls-12" d="M133.44,135.56c0,1.31-.49,2-1.34,2s-1.27-.71-1.28-2,.56-2,1.34-2S133.44,134.33,133.44,135.56Zm-2.1.05c0,1,.31,1.58.78,1.58s.79-.63.79-1.61-.24-1.57-.78-1.57S131.34,134.56,131.34,135.61Z"/><path class="cls-12" d="M135.35,134.15h0l-.67.37-.1-.4.84-.45h.44v3.86h-.5Z"/><path class="cls-12" d="M137.51,136.55a1.11,1.11,0,0,1,.77-1h0a1,1,0,0,1-.61-.87,1.08,1.08,0,0,1,1.19-1,1,1,0,0,1,1.13,1,1,1,0,0,1-.64.9v0a1.08,1.08,0,0,1,.78,1,1.19,1.19,0,0,1-1.31,1.12C138,137.59,137.51,137.11,137.51,136.55Zm2.08,0c0-.47-.33-.69-.85-.84a.84.84,0,0,0-.69.8.71.71,0,0,0,.77.73A.7.7,0,0,0,139.59,136.52Zm-1.44-1.93c0,.39.29.6.74.72a.77.77,0,0,0,.59-.7.67.67,0,0,0-1.33,0Z"/><path class="cls-12" d="M158.17,137.53v-.32l.41-.4c1-.94,1.43-1.44,1.43-2a.68.68,0,0,0-.76-.75,1.31,1.31,0,0,0-.82.32l-.17-.37a1.73,1.73,0,0,1,1.09-.39,1.08,1.08,0,0,1,1.18,1.12c0,.72-.51,1.29-1.33,2.08l-.3.28h1.73v.44Z"/><path class="cls-12" d="M164.07,135.56c0,1.31-.48,2-1.34,2s-1.26-.71-1.27-2,.55-2,1.34-2S164.07,134.33,164.07,135.56Zm-2.09.05c0,1,.31,1.58.78,1.58s.79-.63.79-1.61-.24-1.57-.78-1.57S162,134.56,162,135.61Z"/><path class="cls-12" d="M166,134.15h0l-.68.37-.1-.4.85-.45h.44v3.86H166Z"/><path class="cls-12" d="M168.5,137.16a2.18,2.18,0,0,0,.42,0,1.51,1.51,0,0,0,.81-.37,1.74,1.74,0,0,0,.51-1h0a1.16,1.16,0,0,1-2.05-.77,1.32,1.32,0,0,1,1.32-1.37c.79,0,1.28.64,1.28,1.63a2.44,2.44,0,0,1-.67,1.81,2,2,0,0,1-1.12.52,3,3,0,0,1-.48,0Zm.19-2.22a.74.74,0,0,0,.74.82.88.88,0,0,0,.76-.41.31.31,0,0,0,.05-.19c0-.66-.25-1.16-.79-1.16S168.69,134.39,168.69,134.94Z"/><path class="cls-12" d="M188.81,137.53v-.32l.4-.4c1-.94,1.44-1.44,1.44-2a.68.68,0,0,0-.76-.75,1.29,1.29,0,0,0-.82.32l-.17-.37a1.73,1.73,0,0,1,1.09-.39,1.08,1.08,0,0,1,1.18,1.12c0,.72-.51,1.29-1.33,2.08l-.3.28h1.73v.44Z"/><path class="cls-12" d="M194.71,135.56c0,1.31-.48,2-1.34,2s-1.26-.71-1.27-2,.55-2,1.34-2S194.71,134.33,194.71,135.56Zm-2.09.05c0,1,.31,1.58.78,1.58s.79-.63.79-1.61S194,134,193.41,134,192.62,134.56,192.62,135.61Z"/><path class="cls-12" d="M195.49,137.53v-.32l.41-.4c1-.94,1.43-1.44,1.44-2a.69.69,0,0,0-.77-.75,1.31,1.31,0,0,0-.82.32l-.16-.37a1.73,1.73,0,0,1,1.09-.39,1.08,1.08,0,0,1,1.18,1.12c0,.72-.52,1.29-1.33,2.08l-.31.28H198v.44Z"/><path class="cls-12" d="M201.4,135.56c0,1.31-.49,2-1.34,2s-1.27-.71-1.28-2,.56-2,1.34-2S201.4,134.33,201.4,135.56Zm-2.1.05c0,1,.31,1.58.79,1.58s.79-.63.79-1.61-.25-1.57-.79-1.57S199.3,134.56,199.3,135.61Z"/></svg>