<?xml version="1.0" encoding="UTF-8"?>
<svg data-bbox="8 18.7 664 92.6" viewBox="0 0 680 130" xmlns="http://www.w3.org/2000/svg" data-type="color">
    <g>
        <path d="m60.1 92 7-7v7h-7zM8 18.7v16.5h29.3l16.5-16.5H8zM319.4 92H338V18.7h-18.6V92zm-199.7 0h18.6V55.3h-18.6V92zm312.1-18.6c-3-.2-5.7-1.6-7.5-3.9L389.5 28c-4.9-5.9-12.2-9.3-19.9-9.3h-19.4V92h18.5s.1 0 .1-.1V37.3c3 .1 5.7 1.6 7.5 3.9l34.8 41.5C416 88.6 423.3 92 431 92h19.3V18.7h-18.6l.1 54.7zM462.6 92h18.6V18.7h-18.6V92zm166.1 0v-8.7l-7.3 8.7h7.3zm19-73.3-28 33.4h-.7l-28-33.4h-24.3L610 70.4V92h.4l30.5-36.2 31.1-37-24.3-.1zM511.1 37.2v-2h60.2l-13.7-16.3-.1-.2h-46.2c-.6 0-3.8 0-4.4.1l-14.3 14.3c0 .6-.1 3.8-.1 4.4V92h18.6V70.4h12.5l15.2-16.6h-27.7V37.2zM123.8 18.7H65.6L48.4 35.9v56L67 73.3V35.1h40.3l16.5-16.4zm165.8 0c-9 0-22.1 3.7-27.9 10.6 0 0-29.7 37.5-43.1 54.5L206 68.4c8-3.6 13.2-11.6 13.2-20.4V38c0-10.6-8.6-19.2-19.3-19.3h-64.5l-16.5 16.5h81c1.5 0 2.8 1.2 2.8 2.8v13.1c0 1.5-1.2 2.8-2.8 2.8h-36.6c-.4 0-.8.2-1 .5l-5.7 6.8-7.8 9.2h34.7l35.8 40.9L276 41.2c3.9-4.5 9.3-4.6 12.7-3.9v18h-10.5l-6.1 7.3-7.8 9.3h24.4V92h18.6V18.7h-17.7z" fill="#ffffff" data-color="1"/>
    </g>
</svg>
