<svg id="Capa_1" data-name="Capa 1" xmlns="http://www.w3.org/2000/svg" xmlns:xlink="http://www.w3.org/1999/xlink" viewBox="0 0 236.69 180.76"><defs><style>.cls-1{fill:#1a1a1a;opacity:0.35;}.cls-2{fill:#fff;}.cls-3{fill:url(#linear-gradient);}.cls-4{fill:url(#linear-gradient-2);}.cls-5{fill:#383838;}.cls-6{fill:none;stroke-linecap:round;stroke-linejoin:round;stroke-width:5.48px;stroke:url(#linear-gradient-3);}.cls-7{fill:url(#linear-gradient-4);}</style><linearGradient id="linear-gradient" x1="62.05" y1="30.54" x2="62.05" y2="77.77" gradientUnits="userSpaceOnUse"><stop offset="0" stop-color="#0dfcfe"/><stop offset="1" stop-color="#27a0f5"/></linearGradient><linearGradient id="linear-gradient-2" x1="112.11" y1="85.98" x2="156.49" y2="41.6" xlink:href="#linear-gradient"/><linearGradient id="linear-gradient-3" x1="185.85" y1="125.82" x2="41.9" y2="125.82" gradientUnits="userSpaceOnUse"><stop offset="0" stop-color="#04fcfe"/><stop offset="1" stop-color="#2196f3"/></linearGradient><linearGradient id="linear-gradient-4" x1="156.92" y1="151.27" x2="211.77" y2="151.27" xlink:href="#linear-gradient"/></defs><rect class="cls-1" width="236.69" height="180.76"/><path class="cls-2" d="M98,40v3.5h6.93V47.4H98v7.15H93.86V36.08H106V40Z"/><path class="cls-2" d="M109,47.37V36.08h4.14V47.32a3.56,3.56,0,0,0,7.12,0V36.08h4.15V47.37a7.71,7.71,0,0,1-15.41,0Z"/><path class="cls-2" d="M141.12,50.64v3.91H128.46V36.08H141V40h-8.37v3.32h7.49v3.9h-7.49v3.43Z"/><path class="cls-2" d="M150.94,48.23h-2v6.32h-4.15V36.08h8a6.16,6.16,0,0,1,6.43,6.18,5.8,5.8,0,0,1-3.8,5.52l4.3,6.77h-5Zm-2-3.61h3.77a2.32,2.32,0,0,0,0-4.63h-3.77Z"/><path class="cls-2" d="M176.44,50.64v3.91H161.82v-3L170.55,40h-8.62V36.08h14.32v3l-8.73,11.59Z"/><path class="cls-2" d="M191.5,51.31H184l-1.15,3.24h-4.45l6.94-18.47h4.89l7,18.47h-4.55Zm-1.34-3.83-2.4-6.82-2.41,6.82Z"/><path class="cls-3" d="M38.42,64.76a4.18,4.18,0,0,1,1-1.85l1.68-1.66a3,3,0,0,1-.61-.38,3.41,3.41,0,0,1,0-4.95c.34-.35.69-.7,1-1a3.43,3.43,0,0,1,5,0c1.94,1.92,3.85,3.85,5.78,5.78.06.06.11.14.13.16l16.3-16.3L64,39.83l-1.24-1.24a3.44,3.44,0,0,1,0-5c.34-.35.69-.7,1-1a3.5,3.5,0,0,1,5,0,4.16,4.16,0,0,1,.4.55c.53-.54.94-1,1.37-1.43a3.51,3.51,0,0,1,5.24,0l2.58,2.57c.1.11.22.21.39.37.54-.55,1-1.1,1.58-1.62a1.86,1.86,0,0,1,2.05-.42,1.89,1.89,0,0,1,1.27,1.67,1.91,1.91,0,0,1-.63,1.62l-1.54,1.51,2,2c.39.38.77.75,1.14,1.14a3.43,3.43,0,0,1,0,4.83c-.48.5-1,1-1.62,1.6a4.47,4.47,0,0,1,.62.43,3.42,3.42,0,0,1,0,4.86c-.37.39-.76.77-1.14,1.14a3.43,3.43,0,0,1-4.93,0c-1.89-1.87-3.76-3.76-5.64-5.64a4.07,4.07,0,0,1-.3-.36L55.37,63.73c.08.07.19.19.3.31,1.84,1.84,3.68,3.67,5.51,5.51a3.46,3.46,0,0,1,0,5.26l-.85.85a3.43,3.43,0,0,1-5.08,0,4.79,4.79,0,0,1-.35-.47c-1.12,1-2,2.27-3.47,2.57H50.33a4.36,4.36,0,0,1-2.07-1.21c-.45-.48-.93-.93-1.4-1.4l-1.53-1.55-1.52,1.55A2,2,0,1,1,41,72.45c.51-.53,1-1,1.6-1.59-.83-.83-1.61-1.63-2.42-2.4a5.25,5.25,0,0,1-1.73-2.59Z"/><path class="cls-4" d="M98.73,71.13l.89-.89v.89Zm-6.64-9.34v2.1h3.74l2.1-2.1Zm39.68,9.34h2.37V61.8h-2.37Zm-25.45,0h2.37V66.45h-2.37Zm39.76-2.37a1.34,1.34,0,0,1-1-.5L140.69,63a3.31,3.31,0,0,0-2.54-1.18h-2.46v9.33h2.37v-7a1.24,1.24,0,0,1,.95.5L143.45,70A3.31,3.31,0,0,0,146,71.13h2.47V61.8h-2.37ZM150,71.13h2.37V61.8H150Zm21.16,0V70l-.94,1.11Zm2.42-9.33L170,66.05h-.08l-3.57-4.25h-3.1l5.53,6.58v2.75h0l3.89-4.61,4-4.72Zm-17.41,2.35v-.26h7.68l-1.75-2.07,0,0h-6.45l-1.82,1.82c0,.07,0,.48,0,.56v6.94h2.37V68.38h1.59l1.95-2.11h-3.54V64.15Zm-49.34-2.36H99.43L97.25,64v7.14l2.37-2.37V63.89h5.13Zm21.12,0a5.1,5.1,0,0,0-3.55,1.35s-3.78,4.78-5.5,6.94l-1.6-2a2.86,2.86,0,0,0,1.68-2.6V64.25a2.45,2.45,0,0,0-2.45-2.45h-8.23l-2.1,2.1h10.33a.35.35,0,0,1,.35.35v1.68a.35.35,0,0,1-.35.35h-4.66a.2.2,0,0,0-.13.06l-.73.87-1,1.18h4.43L119,73.59l7.22-8.92a1.63,1.63,0,0,1,1.61-.5v2.29h-1.33l-.79.93-1,1.18h3.1v2.56h2.37V61.8Z"/><path class="cls-5" d="M208.52,128.57H44.64a2.75,2.75,0,1,1,0-5.49H208.52a2.75,2.75,0,0,1,0,5.49Z"/><line class="cls-6" x1="44.64" y1="125.82" x2="183.11" y2="125.82"/><path class="cls-2" d="M46.54,110.08a2.24,2.24,0,0,1-2.32,2.25H42.76v2.11H41.27v-6.62h2.95A2.24,2.24,0,0,1,46.54,110.08Zm-1.52,0a.83.83,0,0,0-.83-.86H42.76v1.71h1.43A.83.83,0,0,0,45,110.08Z"/><path class="cls-2" d="M49.86,112.18h-.72v2.26H47.65v-6.62h2.87A2.21,2.21,0,0,1,52.83,110a2.08,2.08,0,0,1-1.37,2L53,114.44H51.23Zm-.72-1.3H50.5a.79.79,0,0,0,.8-.82.8.8,0,0,0-.8-.84H49.14Z"/><path class="cls-2" d="M53.69,111.13a3.51,3.51,0,1,1,3.5,3.43A3.39,3.39,0,0,1,53.69,111.13Zm5.48,0a2,2,0,1,0-2,2A1.94,1.94,0,0,0,59.17,111.13Z"/><path class="cls-2" d="M68.44,110.65v.51a3.28,3.28,0,0,1-3.36,3.4,3.43,3.43,0,1,1,0-6.85A3.47,3.47,0,0,1,67.87,109l-1.13.9a2,2,0,0,0-1.6-.74,2,2,0,0,0,0,4A1.72,1.72,0,0,0,66.85,112H65.22v-1.33Z"/><path class="cls-2" d="M71.84,112.18h-.72v2.26H69.63v-6.62H72.5A2.2,2.2,0,0,1,74.8,110a2.07,2.07,0,0,1-1.36,2L75,114.44H73.2Zm-.72-1.3h1.35a.8.8,0,0,0,.81-.82.81.81,0,0,0-.81-.84H71.12Z"/><path class="cls-2" d="M80.59,113v1.4H76.05v-6.62h4.49v1.4h-3v1.19h2.69v1.4H77.54V113Z"/><path class="cls-2" d="M81.48,113.52l.77-1.13a3.18,3.18,0,0,0,2,.84c.59,0,1.1-.25,1.1-.65s-.63-.61-1.33-.79c-1.33-.31-2.32-.94-2.32-2.11s1-2,2.55-2a3.42,3.42,0,0,1,2.35.81L86,109.65a2.58,2.58,0,0,0-1.66-.62c-.6,0-1,.25-1,.6s.6.63,1.21.75,2.43.59,2.43,2.13c0,1.22-1.14,2-2.62,2A4.37,4.37,0,0,1,81.48,113.52Z"/><path class="cls-2" d="M87.7,111.13a3.51,3.51,0,1,1,3.51,3.43A3.39,3.39,0,0,1,87.7,111.13Zm5.48,0a2,2,0,1,0-2,2A1.94,1.94,0,0,0,93.18,111.13Z"/><rect class="cls-7" x="156.92" y="142.67" width="54.85" height="17.19" rx="8.6"/><path d="M179.26,151.71a3.27,3.27,0,0,1-3.38,3.31h-2.61V148.4h2.61A3.27,3.27,0,0,1,179.26,151.71Zm-1.53,0a1.85,1.85,0,0,0-1.89-1.91h-1.08v3.82h1.08A1.86,1.86,0,0,0,177.73,151.71Z"/><path d="M181.41,146.48h1.75l-1.24,1.42h-1.47Zm-.9,1.92H182V155h-1.48Z"/><path d="M187.7,153.86H185L184.6,155H183l2.48-6.62h1.76l2.5,6.62h-1.64Zm-.48-1.37-.86-2.45-.87,2.45Z"/><path d="M190.15,154.1l.77-1.13a3.15,3.15,0,0,0,2,.84c.6,0,1.11-.26,1.11-.65s-.64-.62-1.34-.79c-1.32-.32-2.31-.94-2.31-2.11s1-2,2.55-2a3.39,3.39,0,0,1,2.34.82l-.69,1.13a2.54,2.54,0,0,0-1.66-.62c-.59,0-1,.25-1,.59s.6.64,1.2.76,2.44.59,2.44,2.13c0,1.22-1.14,2-2.62,2A4.43,4.43,0,0,1,190.15,154.1Z"/><path class="cls-2" d="M46.18,145.85v6.62H44.7v-4.84l-1,.55L43.07,147l2.06-1.14Z"/><path class="cls-2" d="M52.44,150.33a2.35,2.35,0,0,1-2.57,2.26,3.72,3.72,0,0,1-2.37-.87l.73-1.19a2.29,2.29,0,0,0,1.53.63c.72,0,1.16-.39,1.16-.86a.85.85,0,0,0-.94-.8,1.21,1.21,0,0,0-.88.35l-1.31-.4.33-3.6H52v1.4h-2.6l-.09,1.07a2,2,0,0,1,.87-.17A2.19,2.19,0,0,1,52.44,150.33Z"/><path class="cls-2" d="M59.2,145.28h1.41l-3.84,8.63H55.36Z"/><path class="cls-2" d="M66.47,145.85v6.62H65v-4.84l-1,.55L63.36,147l2.06-1.14Z"/><path class="cls-2" d="M72.73,150.33a2.36,2.36,0,0,1-2.57,2.26,3.7,3.7,0,0,1-2.37-.87l.73-1.19a2.27,2.27,0,0,0,1.53.63c.72,0,1.15-.39,1.15-.86a.85.85,0,0,0-.94-.8,1.2,1.2,0,0,0-.87.35l-1.32-.4.34-3.6h3.86v1.4h-2.6l-.09,1.07a2,2,0,0,1,.86-.17A2.19,2.19,0,0,1,72.73,150.33Z"/></svg>