<?xml version="1.0" encoding="UTF-8"?>
<svg data-bbox="0 0 236.69 170.72" viewBox="0 0 236.69 170.72" xmlns:xlink="http://www.w3.org/1999/xlink" xmlns="http://www.w3.org/2000/svg" data-type="ugc">
    <g>
        <defs>
            <linearGradient gradientUnits="userSpaceOnUse" y2="31.51" x2="157.98" y1="76.26" x1="113.23" id="9728ff56-af2c-4619-a3ce-b700f2a732ce">
                <stop stop-color="#0dfcfe" offset="0"/>
                <stop stop-color="#27a0f5" offset="1"/>
            </linearGradient>
            <linearGradient xlink:href="#9728ff56-af2c-4619-a3ce-b700f2a732ce" y2="40.7" x2="81.91" y1="40.7" x1="31.54" id="ffbb9c3a-d6ea-4a8a-b37a-54eb6120c906"/>
            <linearGradient gradientUnits="userSpaceOnUse" y2="121.15" x2="22.68" y1="121.15" x1="106.09" id="d92f9b5f-2426-4d95-a701-07ecfcdb002e">
                <stop stop-color="#04fcfe" offset="0"/>
                <stop stop-color="#2196f3" offset="1"/>
            </linearGradient>
            <linearGradient xlink:href="#9728ff56-af2c-4619-a3ce-b700f2a732ce" y2="146.6" x2="192.66" y1="146.6" x1="137.81" id="a8ab8b84-4dd4-4bb3-b75a-cfeed6d4ad8e"/>
        </defs>
        <path fill="#1a1a1a" opacity=".35" d="M236.69 0v170.72H0V0h236.69z"/>
        <path d="M105.17 27.74v15.87h-3.61L95 33.9v9.71h-3.58V27.74H95l6.6 9.7v-9.7Z" fill="#ffffff"/>
        <path d="M108.65 37.44v-9.7h3.56v9.66a3.06 3.06 0 0 0 6.12 0v-9.66h3.56v9.7a6.62 6.62 0 0 1-13.24 0Z" fill="#ffffff"/>
        <path d="M136.82 31.1h-4.42v12.51h-3.56V31.1h-4.42v-3.36h12.4Z" fill="#ffffff"/>
        <path d="M144.94 38.18h-1.73v5.43h-3.56V27.74h6.87a5.29 5.29 0 0 1 5.48 5.31 5 5 0 0 1-3.26 4.74l3.7 5.82h-4.24Zm-1.73-3.1h3.25a2 2 0 0 0 0-4h-3.25Z" fill="#ffffff"/>
        <path d="M155 27.74h3.56v15.87H155Z" fill="#ffffff"/>
        <path d="M161.59 35.67a8.13 8.13 0 0 1 8.41-8.21 8.35 8.35 0 0 1 7 3.54l-3.08 1.91a4.74 4.74 0 0 0-3.94-2 4.79 4.79 0 0 0 0 9.57 4.74 4.74 0 0 0 3.94-2.05l3.08 1.89a8.37 8.37 0 0 1-7 3.56 8.13 8.13 0 0 1-8.41-8.21Z" fill="#ffffff"/>
        <path d="M179.72 27.74h3.56v15.87h-3.56Z" fill="#ffffff"/>
        <path d="M186.27 35.67a8.4 8.4 0 1 1 8.39 8.21 8.13 8.13 0 0 1-8.39-8.21Zm13.13 0a4.74 4.74 0 1 0-4.74 4.79 4.66 4.66 0 0 0 4.74-4.79ZM195 23.14h4.21l-3 3.4h-3.52Z" fill="#ffffff"/>
        <path d="M219.78 27.74v15.87h-3.61l-6.58-9.71v9.71H206V27.74h3.58l6.6 9.7v-9.7Z" fill="#ffffff"/>
        <path d="m99.74 61.28.9-.89v.89Zm-6.69-9.41V54h3.77l2.12-2.11Zm40 9.41h2.39v-9.41h-2.39Zm-25.66 0h2.39v-4.71h-2.39Zm40.09-2.39a1.32 1.32 0 0 1-1-.5l-4.47-5.33a3.35 3.35 0 0 0-2.56-1.19H137v9.41h2.38v-7a1.34 1.34 0 0 1 1 .5l4.47 5.33a3.32 3.32 0 0 0 2.56 1.19h2.48v-9.43h-2.39Zm4 2.39h2.39v-9.41h-2.39Zm21.34 0v-1.12l-.95 1.12Zm2.44-9.41-3.59 4.29h-.09l-3.6-4.29h-3.12l5.57 6.63v2.78l3.92-4.65 4-4.76Zm-17.55 2.38V54h7.74l-1.76-2.1h-6.51l-1.83 1.83v7.57h2.39v-2.79h1.6l2-2.13h-3.56v-2.13Zm-49.75-2.38h-7.47l-2.2 2.2v7.2l2.39-2.39V54h5.17Zm21.3 0a5.17 5.17 0 0 0-3.58 1.36l-5.55 7-1.62-2a2.89 2.89 0 0 0 1.7-2.63v-1.26a2.48 2.48 0 0 0-2.47-2.47h-8.29L107.29 54h10.41a.36.36 0 0 1 .35.36V56a.35.35 0 0 1-.35.35H113a.17.17 0 0 0-.13.07l-.73.87-1 1.19h4.46l4.59 5.25 7.28-9a1.64 1.64 0 0 1 1.63-.51v2.31h-1.35l-.79.94-1 1.19h3.14v2.58h2.39v-9.37Z" fill="url(#9728ff56-af2c-4619-a3ce-b700f2a732ce)"/>
        <path d="M32.64 65.88a1.9 1.9 0 0 1-1.1-2V24.25c0-1.35.52-1.86 1.87-1.86h2.62c-.16.56-.36 1.11-.47 1.68a4.36 4.36 0 0 0 4.2 5.16q9 .06 18 0a4.39 4.39 0 0 0 4.12-5.56c-.12-.42-.27-.83-.42-1.29 1.11 0 2.2-.05 3.29 0A1.42 1.42 0 0 1 66 24v11.89a4.37 4.37 0 0 0-3.65 2.61 6.85 6.85 0 0 0-.4 1.75c0 .25-.11.35-.35.42a11.27 11.27 0 0 0-8.6 9.59 11.74 11.74 0 0 0 .81 6 24.19 24.19 0 0 0 5.81 9.29c.12.11.22.24.33.36Zm12.19-31.67h5.74a1.48 1.48 0 1 0 0-2.95H39.11a1.49 1.49 0 1 0 0 2.95Zm0 5.9h5.7a1.49 1.49 0 1 0 0-3H39.11a1.49 1.49 0 1 0 0 3Zm0 5.9h5.7a1.49 1.49 0 1 0 0-2.95H39.11a1.49 1.49 0 1 0 0 2.95Zm0 5.9h5.74a1.49 1.49 0 1 0 0-2.95H39.11a1.49 1.49 0 1 0 0 2.95Zm0 3H39a1.48 1.48 0 1 0 0 3h11.5a1.49 1.49 0 1 0 0-3Zm12.79-23.6h-1a1.47 1.47 0 0 0 0 2.94h2a1.48 1.48 0 0 0 0-2.95c-.35-.05-.68-.04-1-.04Zm0 5.9h-1a1.46 1.46 0 0 0-1.47 1.46 1.48 1.48 0 0 0 1.45 1.48h2a1.47 1.47 0 0 0 0-2.94c-.3-.06-.6-.04-.99-.05Zm9 28.72 2.22-1 2.31 1h1.18c1.84-.38 3-1.74 4.2-3a20.85 20.85 0 0 0 5.26-10 .71.71 0 0 1 .08-.18v-1.82a3.2 3.2 0 0 1-.1-.42 8.46 8.46 0 0 0-3.49-5.65l-.31.19a7.83 7.83 0 0 1-5.45 1.38 4.18 4.18 0 0 1-2.39-1 4.31 4.31 0 0 1-1.49-4.11c.16-1-.36-1.46-1.06-1.89a5.17 5.17 0 0 0-.74-.38 1.45 1.45 0 0 0-2 1.42 1.52 1.52 0 0 0 .94 1.33 2.88 2.88 0 0 1 1.57 2.11l-.55-.17a8.24 8.24 0 0 0-8.57 2.22A7.74 7.74 0 0 0 56 53a19.24 19.24 0 0 0 4.66 9.23c1.33 1.49 2.6 3.1 4.7 3.61Zm-9.24-39.58a1.5 1.5 0 0 0 1.56-2.16 6.71 6.71 0 0 0-4.34-4.35.52.52 0 0 1-.43-.62v-2.11a1.48 1.48 0 0 0-1.56-1.58h-7.67a1.48 1.48 0 0 0-1.58 1.61v2.11a.5.5 0 0 1-.41.59 6.68 6.68 0 0 0-4.34 4.29 1.51 1.51 0 0 0 1.57 2.22h17.2Zm18.19 10.57a4.7 4.7 0 0 0-4 5.22 1.5 1.5 0 0 0 1.47 1.38 4.7 4.7 0 0 0 5.19-4.76c0-1.36-.53-1.9-1.89-1.91-.25.02-.51.03-.77.07Z" fill="url(#ffbb9c3a-d6ea-4a8a-b37a-54eb6120c906)"/>
        <path d="M189.3 123.89H25.42a2.74 2.74 0 0 1 0-5.48H189.3a2.74 2.74 0 0 1 0 5.48Z" fill="#383838"/>
        <path fill="none" stroke-linecap="round" stroke-linejoin="round" stroke-width="5.48" stroke="url(#d92f9b5f-2426-4d95-a701-07ecfcdb002e)" d="M25.42 121.15h77.93"/>
        <path d="M28.88 105.4a2.24 2.24 0 0 1-2.32 2.26H25.1v2.11h-1.49v-6.62h2.95a2.24 2.24 0 0 1 2.32 2.25Zm-1.53 0a.81.81 0 0 0-.82-.85H25.1v1.71h1.43a.83.83 0 0 0 .82-.86Z" fill="#ffffff"/>
        <path d="M32.2 107.5h-.72v2.27H30v-6.62h2.87a2.21 2.21 0 0 1 2.31 2.21 2.06 2.06 0 0 1-1.37 2l1.55 2.43h-1.8Zm-.72-1.29h1.35a.83.83 0 0 0 0-1.66h-1.35Z" fill="#ffffff"/>
        <path d="M36 106.46a3.51 3.51 0 1 1 3.5 3.43 3.4 3.4 0 0 1-3.5-3.43Zm5.48 0a2 2 0 1 0-2 2 1.95 1.95 0 0 0 2.03-2Z" fill="#ffffff"/>
        <path d="M50.78 106v.51a3.28 3.28 0 0 1-3.36 3.4 3.43 3.43 0 1 1 0-6.86 3.41 3.41 0 0 1 2.75 1.27l-1.12.89a2 2 0 0 0-1.6-.74 2 2 0 1 0 0 4 1.73 1.73 0 0 0 1.72-1.16h-1.61V106Z" fill="#ffffff"/>
        <path d="M54.18 107.5h-.72v2.27H52v-6.62h2.87a2.21 2.21 0 0 1 2.3 2.21 2.06 2.06 0 0 1-1.36 2l1.55 2.43h-1.82Zm-.72-1.29h1.35a.83.83 0 0 0 0-1.66h-1.35Z" fill="#ffffff"/>
        <path d="M62.93 108.37v1.4h-4.54v-6.62h4.49v1.4h-3v1.19h2.68v1.4h-2.68v1.23Z" fill="#ffffff"/>
        <path d="m63.82 108.85.77-1.13a3.17 3.17 0 0 0 2 .84c.6 0 1.11-.26 1.11-.65s-.64-.62-1.34-.79c-1.32-.32-2.31-.94-2.31-2.11s1-2 2.55-2a3.42 3.42 0 0 1 2.35.82l-.7 1.13a2.54 2.54 0 0 0-1.66-.62c-.59 0-1 .25-1 .59s.6.64 1.21.76 2.43.59 2.43 2.13c0 1.22-1.14 2-2.62 2a4.43 4.43 0 0 1-2.79-.97Z" fill="#ffffff"/>
        <path d="M70 106.46a3.51 3.51 0 1 1 3.5 3.43 3.4 3.4 0 0 1-3.5-3.43Zm5.48 0a2 2 0 1 0-2 2 1.95 1.95 0 0 0 2.04-2Z" fill="#ffffff"/>
        <path fill="url(#a8ab8b84-4dd4-4bb3-b75a-cfeed6d4ad8e)" d="M192.66 146.6v-.01a8.6 8.6 0 0 1-8.6 8.6h-37.65a8.6 8.6 0 0 1-8.6-8.6v.01a8.6 8.6 0 0 1 8.6-8.6h37.65a8.6 8.6 0 0 1 8.6 8.6z"/>
        <path d="M160.15 147a3.27 3.27 0 0 1-3.38 3.31h-2.61v-6.63h2.61a3.27 3.27 0 0 1 3.38 3.32Zm-1.53 0a1.86 1.86 0 0 0-1.89-1.91h-1.08V149h1.08a1.86 1.86 0 0 0 1.89-2Z"/>
        <path d="M162.3 141.8h1.75l-1.25 1.43h-1.46Zm-.91 1.92h1.49v6.63h-1.49Z"/>
        <path d="M168.59 149.19h-2.69l-.41 1.16h-1.59l2.48-6.63h1.76l2.5 6.63H169Zm-.48-1.38-.86-2.44-.87 2.44Z"/>
        <path d="m171 149.43.77-1.14a3.16 3.16 0 0 0 2 .85c.6 0 1.1-.26 1.1-.66s-.63-.61-1.33-.78c-1.32-.32-2.31-.94-2.31-2.11s1-2 2.55-2a3.39 3.39 0 0 1 2.34.81l-.69 1.14a2.5 2.5 0 0 0-1.66-.63c-.59 0-1 .25-1 .6s.61.63 1.21.76 2.44.58 2.44 2.13c0 1.22-1.14 2-2.62 2a4.4 4.4 0 0 1-2.8-.97Z"/>
        <path d="M27.07 141.18v6.62h-1.48V143l-1 .56-.64-1.2 2.05-1.18Z" fill="#ffffff"/>
        <path d="M31.24 141.18v6.62h-1.49V143l-1 .56-.63-1.2 2.05-1.13Z" fill="#ffffff"/>
        <path d="M38.44 140.6h1.42L36 149.24h-1.39Z" fill="#ffffff"/>
        <path d="M45.72 141.18v6.62h-1.49V143l-1 .56-.63-1.2 2-1.13Z" fill="#ffffff"/>
        <path d="M52 145.66a2.36 2.36 0 0 1-2.58 2.26A3.7 3.7 0 0 1 47 147l.73-1.19a2.26 2.26 0 0 0 1.54.64c.72 0 1.15-.4 1.15-.87a.84.84 0 0 0-.94-.79 1.22 1.22 0 0 0-.87.34l-1.32-.39.34-3.6h3.86v1.4h-2.6l-.09 1.07a2 2 0 0 1 .86-.18 2.19 2.19 0 0 1 2.34 2.23Z" fill="#ffffff"/>
    </g>
</svg>
