<svg id="Capa_1" data-name="Capa 1" xmlns="http://www.w3.org/2000/svg" xmlns:xlink="http://www.w3.org/1999/xlink" viewBox="0 0 208.23 525.09"><defs><style>.cls-1{fill:#1a1a1a;opacity:0.35;}.cls-10,.cls-2,.cls-4,.cls-5,.cls-6,.cls-7,.cls-8,.cls-9{fill:none;stroke-linecap:round;stroke-linejoin:round;stroke-width:11.12px;}.cls-2{stroke:url(#linear-gradient);}.cls-3{fill:#fff;}.cls-4{stroke:url(#linear-gradient-2);}.cls-5{stroke:url(#linear-gradient-3);}.cls-6{stroke:url(#linear-gradient-4);}.cls-7{stroke:url(#linear-gradient-5);}.cls-8{stroke:url(#linear-gradient-6);}.cls-9{stroke:url(#linear-gradient-7);}.cls-10{stroke:url(#linear-gradient-8);}</style><linearGradient id="linear-gradient" x1="155.7" y1="67.36" x2="18.39" y2="67.36" gradientUnits="userSpaceOnUse"><stop offset="0" stop-color="#04fcfe"/><stop offset="1" stop-color="#2196f3"/></linearGradient><linearGradient id="linear-gradient-2" x1="117.73" y1="124.21" x2="18.39" y2="124.21" xlink:href="#linear-gradient"/><linearGradient id="linear-gradient-3" x1="92.6" y1="180.73" x2="18.39" y2="180.73" xlink:href="#linear-gradient"/><linearGradient id="linear-gradient-4" x1="113.88" y1="238" x2="18.39" y2="238" xlink:href="#linear-gradient"/><linearGradient id="linear-gradient-5" x1="86.94" y1="294.54" x2="18.39" y2="294.54" xlink:href="#linear-gradient"/><linearGradient id="linear-gradient-6" x1="152.67" y1="352.16" x2="18.39" y2="352.16" xlink:href="#linear-gradient"/><linearGradient id="linear-gradient-7" x1="168.53" y1="466.47" x2="18.39" y2="466.47" xlink:href="#linear-gradient"/><linearGradient id="linear-gradient-8" x1="86.94" y1="409.12" x2="18.39" y2="409.12" xlink:href="#linear-gradient"/></defs><rect class="cls-1" x="-158.43" y="158.43" width="525.09" height="208.23" transform="translate(-158.43 366.66) rotate(-90)"/><line class="cls-2" x1="23.95" y1="67.36" x2="150.14" y2="67.36"/><path class="cls-3" d="M26.36,53.6v1.61H21.5V47.64h1.7v6Z"/><path class="cls-3" d="M32.56,53.88H29.48L29,55.21H27.19L30,47.64h2l2.85,7.57H33ZM32,52.31l-1-2.8-1,2.8Z"/><path class="cls-3" d="M43,50.87v.58a3.76,3.76,0,0,1-3.84,3.89,3.92,3.92,0,1,1,0-7.84A3.92,3.92,0,0,1,42.33,49l-1.28,1a2.36,2.36,0,0,0-1.84-.84,2.29,2.29,0,0,0,0,4.58,2,2,0,0,0,2-1.32H39.3V50.87Z"/><path class="cls-3" d="M48.57,53.88H45.5L45,55.21H43.2l2.85-7.57h2l2.85,7.57H49ZM48,52.31l-1-2.8-1,2.8Z"/><path class="cls-3" d="M54.59,52.62h-.82v2.59h-1.7V47.64h3.28A2.52,2.52,0,0,1,58,50.17a2.38,2.38,0,0,1-1.56,2.26l1.77,2.78h-2Zm-.82-1.48h1.54a1,1,0,0,0,0-1.9H53.77Z"/><path class="cls-3" d="M64.67,49.24H62.56v6h-1.7v-6h-2.1v-1.6h5.91Z"/><path class="cls-3" d="M66,47.64h1.7v7.57H66Z"/><path class="cls-3" d="M69.07,55.11V53.49a2.94,2.94,0,0,0,1,.21c.73,0,1.16-.37,1.16-1.06v-5H73v5.09a2.46,2.46,0,0,1-2.68,2.61A3,3,0,0,1,69.07,55.11Z"/><path class="cls-3" d="M78.84,53.88H75.77l-.47,1.33H73.47l2.85-7.57h2l2.86,7.57H79.31Zm-.55-1.57-1-2.8-1,2.8Z"/><line class="cls-4" x1="23.95" y1="124.21" x2="112.17" y2="124.21"/><path class="cls-3" d="M24,109.91H23.2v2.59H21.5v-7.57h3.28a2.52,2.52,0,0,1,2.63,2.53,2.37,2.37,0,0,1-1.56,2.26l1.77,2.78h-2Zm-.82-1.48h1.55a1,1,0,0,0,0-1.9H23.2Z"/><path class="cls-3" d="M34,110.89v1.61H28.84v-7.57H34v1.6H30.54v1.36h3.07v1.6H30.54v1.4Z"/><path class="cls-3" d="M43.71,104.93v7.57H42v-4.86l-1.91,3.58h-1l-1.91-3.58v4.86h-1.7v-7.57h2.1l2,3.74,2-3.74Z"/><path class="cls-3" d="M45.14,108.71a4,4,0,1,1,4,3.92A3.88,3.88,0,0,1,45.14,108.71Zm6.26,0A2.26,2.26,0,1,0,49.14,111,2.23,2.23,0,0,0,51.4,108.71Z"/><line class="cls-5" x1="23.95" y1="180.73" x2="87.04" y2="180.73"/><path class="cls-3" d="M27.94,162.54v7.57h-1.7v-3h-3v3H21.5v-7.57h1.7v3h3v-3Z"/><path class="cls-3" d="M29.36,166.32a4,4,0,1,1,4,3.92A3.88,3.88,0,0,1,29.36,166.32Zm6.27,0a2.26,2.26,0,1,0-2.26,2.29A2.23,2.23,0,0,0,35.63,166.32Z"/><path class="cls-3" d="M47,162.54v7.57h-1.7v-4.86l-1.91,3.59h-1l-1.91-3.59v4.86h-1.7v-7.57h2.11l2,3.74,2-3.74Z"/><path class="cls-3" d="M54.81,168.06a2,2,0,0,1-2.14,2.05H48.76v-7.57h3.67a1.94,1.94,0,0,1,2,1.94,1.9,1.9,0,0,1-.84,1.61A2.08,2.08,0,0,1,54.81,168.06Zm-4.4-4v1.42H52a.7.7,0,0,0,.7-.71.68.68,0,0,0-.7-.71Zm2.65,3.68a.8.8,0,0,0-.81-.82H50.41v1.63h1.84A.79.79,0,0,0,53.06,167.76Z"/><path class="cls-3" d="M58.6,167.52h-.82v2.59h-1.7v-7.57h3.28A2.53,2.53,0,0,1,62,165.07a2.36,2.36,0,0,1-1.55,2.26l1.76,2.78h-2ZM57.78,166h1.55a1,1,0,0,0,0-1.9H57.78Z"/><path class="cls-3" d="M63,166.32a4,4,0,1,1,4,3.92A3.87,3.87,0,0,1,63,166.32Zm6.26,0A2.26,2.26,0,1,0,67,168.61,2.22,2.22,0,0,0,69.24,166.32Z"/><line class="cls-6" x1="23.95" y1="238" x2="108.32" y2="238"/><path class="cls-3" d="M28.35,223.2A3.74,3.74,0,0,1,24.48,227h-3v-7.57h3A3.74,3.74,0,0,1,28.35,223.2Zm-1.75,0A2.13,2.13,0,0,0,24.44,221H23.2v4.37h1.24A2.12,2.12,0,0,0,26.6,223.2Z"/><path class="cls-3" d="M35,225.38V227H29.77v-7.57H34.9V221H31.47v1.36h3.07V224H31.47v1.4Z"/><path class="cls-3" d="M36,225.93l.88-1.3a3.68,3.68,0,0,0,2.33,1c.68,0,1.26-.3,1.26-.75s-.72-.7-1.52-.9c-1.52-.36-2.65-1.07-2.65-2.41s1.18-2.26,2.92-2.26a3.94,3.94,0,0,1,2.68.93l-.79,1.3a2.91,2.91,0,0,0-1.9-.72c-.68,0-1.16.29-1.16.68s.69.73,1.38.87,2.78.67,2.78,2.44c0,1.39-1.3,2.33-3,2.33A5.06,5.06,0,0,1,36,225.93Z"/><path class="cls-3" d="M49.49,222a2.56,2.56,0,0,1-2.66,2.58H45.17V227h-1.7v-7.57h3.36A2.56,2.56,0,0,1,49.49,222Zm-1.74,0a.94.94,0,0,0-1-1H45.17v2H46.8A1,1,0,0,0,47.75,222Z"/><path class="cls-3" d="M55.62,225.38V227H50.76v-7.57h1.7v6Z"/><path class="cls-3" d="M61.82,225.65H58.75L58.27,227H56.45l2.84-7.57h2L64.15,227H62.29Zm-.55-1.56-1-2.8-1,2.8Z"/><path class="cls-3" d="M71.88,219.41V227H70.15L67,222.35V227h-1.7v-7.57H67L70.17,224v-4.63Z"/><path class="cls-3" d="M79.12,221H77v6h-1.7v-6H73.21v-1.6h5.91Z"/><path class="cls-3" d="M85.66,225.38V227H80.47v-7.57h5.14V221H82.17v1.36h3.07V224H82.17v1.4Z"/><line class="cls-7" x1="23.95" y1="294.54" x2="81.38" y2="294.54"/><path class="cls-3" d="M27.52,279.59a2.56,2.56,0,0,1-2.65,2.58H23.2v2.41H21.5V277h3.37A2.56,2.56,0,0,1,27.52,279.59Zm-1.74,0a.94.94,0,0,0-1-1H23.2v1.95h1.63A1,1,0,0,0,25.78,279.59Z"/><path class="cls-3" d="M34,283v1.6H28.79V277h5.14v1.61H30.49V280h3.07v1.6H30.49V283Z"/><path class="cls-3" d="M35,283.53l.88-1.29a3.62,3.62,0,0,0,2.32,1c.68,0,1.27-.29,1.27-.74s-.73-.71-1.53-.9c-1.51-.37-2.64-1.08-2.64-2.42s1.17-2.26,2.91-2.26a3.87,3.87,0,0,1,2.68.94l-.79,1.29a2.88,2.88,0,0,0-1.9-.71c-.68,0-1.16.28-1.16.68s.69.72,1.38.86,2.79.67,2.79,2.44c0,1.39-1.31,2.34-3,2.34A5,5,0,0,1,35,283.53Z"/><path class="cls-3" d="M42.11,280.8a4,4,0,1,1,4,3.92A3.88,3.88,0,0,1,42.11,280.8Zm6.26,0a2.26,2.26,0,1,0-2.26,2.28A2.22,2.22,0,0,0,48.37,280.8Z"/><path class="cls-3" d="M62.48,277v7.57h-1.7v-4.86l-1.91,3.59h-1L56,279.72v4.86h-1.7V277H56.4l2,3.75,2-3.75Z"/><path class="cls-3" d="M64.14,281.64V277h1.7v4.61a1.46,1.46,0,1,0,2.92,0V277h1.7v4.63a3.16,3.16,0,0,1-6.32,0Z"/><path class="cls-3" d="M77.3,283v1.6H72.11V277h5.14v1.61H73.82V280h3.07v1.6H73.82V283Z"/><path class="cls-3" d="M81.33,282h-.82v2.59h-1.7V277h3.28a2.53,2.53,0,0,1,2.63,2.54,2.38,2.38,0,0,1-1.56,2.26l1.77,2.77h-2Zm-.82-1.48h1.54a.95.95,0,0,0,0-1.89H80.51Z"/><path class="cls-3" d="M91.41,278.62H89.3v6H87.6v-6H85.5V277h5.91Z"/><path class="cls-3" d="M91.88,280.8a4,4,0,1,1,4,3.92A3.88,3.88,0,0,1,91.88,280.8Zm6.26,0a2.26,2.26,0,1,0-2.26,2.28A2.21,2.21,0,0,0,98.14,280.8Z"/><line class="cls-8" x1="23.95" y1="352.16" x2="147.11" y2="352.16"/><path class="cls-3" d="M21,340.54l.88-1.29a3.64,3.64,0,0,0,2.33,1c.68,0,1.26-.29,1.26-.74s-.73-.71-1.53-.9c-1.51-.37-2.64-1.08-2.64-2.42s1.17-2.26,2.92-2.26a3.87,3.87,0,0,1,2.67.94l-.79,1.29a2.85,2.85,0,0,0-1.89-.71c-.68,0-1.17.28-1.17.68s.7.72,1.39.86,2.78.67,2.78,2.44c0,1.39-1.3,2.34-3,2.34A5.05,5.05,0,0,1,21,340.54Z"/><path class="cls-3" d="M33.66,340v1.6H28.47V334h5.14v1.61H30.18V337h3.07v1.6H30.18V340Z"/><path class="cls-3" d="M41.73,334v7.57H40L36.87,337v4.63H35.16V334h1.72L40,338.65V334Z"/><path class="cls-3" d="M49,335.63h-2.1v6h-1.7v-6H43.06V334H49Z"/><path class="cls-3" d="M54,340.27H50.94l-.47,1.32H48.64L51.49,334h2l2.86,7.57H54.48Zm-.55-1.57-1-2.8-1,2.8Z"/><path class="cls-3" d="M64.35,337.81a3.73,3.73,0,0,1-3.86,3.78h-3V334h3A3.74,3.74,0,0,1,64.35,337.81Zm-1.74,0a2.12,2.12,0,0,0-2.16-2.18H59.21V340h1.24A2.12,2.12,0,0,0,62.61,337.81Z"/><path class="cls-3" d="M65.77,334h1.71v7.57H65.77Z"/><path class="cls-3" d="M74.13,340v1.6H69.27V334H71v6Z"/><path class="cls-3" d="M80.31,340v1.6H75.45V334h1.7v6Z"/><path class="cls-3" d="M86.51,340.27H83.43L83,341.59H81.14L84,334h2l2.85,7.57H87ZM86,338.7l-1-2.8-1,2.8Z"/><path class="cls-3" d="M98.81,339.54a2,2,0,0,1-2.14,2h-3.9V334h3.66a2,2,0,0,1,1.19,3.56A2.06,2.06,0,0,1,98.81,339.54Zm-4.4-4V337H96a.71.71,0,0,0,.71-.72.69.69,0,0,0-.71-.71Zm2.66,3.69a.81.81,0,0,0-.81-.83H94.41v1.64h1.85A.79.79,0,0,0,97.07,339.25Z"/><path class="cls-3" d="M100,338.65V334h1.7v4.61a1.46,1.46,0,0,0,2.92,0V334h1.7v4.63a3.16,3.16,0,0,1-6.32,0Zm3.34-6.82h2l-1.42,1.62h-1.68Z"/><path class="cls-3" d="M112.78,340v1.6h-4.86V334h1.7v6Z"/><path class="cls-3" d="M121.1,337.26v.58a3.76,3.76,0,0,1-3.84,3.89,3.92,3.92,0,1,1,0-7.84,3.92,3.92,0,0,1,3.15,1.45l-1.28,1a2.36,2.36,0,0,0-1.84-.84,2.29,2.29,0,0,0,0,4.58,2,2,0,0,0,2-1.32h-1.87v-1.52Z"/><path class="cls-3" d="M126.68,340.27h-3.07l-.47,1.32h-1.82l2.84-7.57h2l2.86,7.57h-1.87Zm-.55-1.57-1-2.8-1,2.8Z"/><path class="cls-3" d="M132.7,339h-.82v2.58h-1.7V334h3.28a2.53,2.53,0,0,1,2.63,2.54,2.37,2.37,0,0,1-1.56,2.26l1.77,2.77h-2Zm-.82-1.49h1.55a.95.95,0,0,0,0-1.89h-1.55Z"/><path class="cls-3" d="M142.28,340.27H139.2l-.47,1.32h-1.82l2.84-7.57h2l2.85,7.57h-1.86Zm-.55-1.57-1-2.8-1,2.8Z"/><line class="cls-9" x1="23.95" y1="466.47" x2="162.97" y2="466.47"/><path class="cls-3" d="M26.69,454v1.6H21.5V448h5.13v1.6H23.2V451h3.07v1.6H23.2V454Z"/><path class="cls-3" d="M33.21,455.56l-1.77-2.62-1.78,2.62H27.57l2.69-3.81L27.62,448h2.09l1.75,2.57L33.18,448h2.07l-2.63,3.76,2.68,3.81Z"/><path class="cls-3" d="M41.93,449.59h-2.1v6h-1.7v-6H36V448h5.91Z"/><path class="cls-3" d="M48.47,454v1.6H43.28V448h5.14v1.6H45V451h3.07v1.6H45V454Z"/><path class="cls-3" d="M56.53,448v7.57H54.81l-3.14-4.63v4.63H50V448h1.71l3.15,4.63V448Z"/><path class="cls-3" d="M57.8,454.51l.88-1.3a3.63,3.63,0,0,0,2.33,1c.67,0,1.26-.3,1.26-.75s-.73-.7-1.53-.9c-1.51-.36-2.64-1.07-2.64-2.41s1.17-2.26,2.92-2.26a3.86,3.86,0,0,1,2.67.93l-.79,1.3a2.88,2.88,0,0,0-1.89-.72c-.69,0-1.17.29-1.17.68s.69.73,1.38.87,2.79.67,2.79,2.44c0,1.39-1.3,2.33-3,2.33A5,5,0,0,1,57.8,454.51Z"/><path class="cls-3" d="M65.29,448H67v7.57h-1.7Z"/><path class="cls-3" d="M68.42,451.78a4,4,0,1,1,4,3.91A3.88,3.88,0,0,1,68.42,451.78Zm6.26,0a2.26,2.26,0,1,0-2.26,2.28A2.22,2.22,0,0,0,74.68,451.78Zm-2.08-6h2l-1.43,1.62H71.5Z"/><path class="cls-3" d="M84.4,448v7.57H82.68l-3.14-4.63v4.63h-1.7V448h1.71l3.15,4.63V448Z"/><path class="cls-3" d="M95.8,451.78a3.74,3.74,0,0,1-3.87,3.78H89V448h3A3.74,3.74,0,0,1,95.8,451.78Zm-1.75,0a2.13,2.13,0,0,0-2.16-2.19H90.65V454h1.24A2.12,2.12,0,0,0,94.05,451.78Z"/><path class="cls-3" d="M102.41,454v1.6H97.22V448h5.13v1.6H98.92V451H102v1.6H98.92V454Z"/><path class="cls-3" d="M111.86,454v1.6h-5.19V448h5.14v1.6h-3.44V451h3.08v1.6h-3.08V454Z"/><path class="cls-3" d="M112.88,454.51l.88-1.3a3.63,3.63,0,0,0,2.32,1c.68,0,1.27-.3,1.27-.75s-.73-.7-1.53-.9c-1.51-.36-2.64-1.07-2.64-2.41s1.17-2.26,2.92-2.26a3.86,3.86,0,0,1,2.67.93l-.79,1.3a2.88,2.88,0,0,0-1.9-.72c-.68,0-1.16.29-1.16.68s.69.73,1.38.87,2.79.67,2.79,2.44c0,1.39-1.31,2.33-3,2.33A5,5,0,0,1,112.88,454.51Z"/><path class="cls-3" d="M126.39,450.57a2.56,2.56,0,0,1-2.65,2.58h-1.67v2.41h-1.7V448h3.37A2.56,2.56,0,0,1,126.39,450.57Zm-1.74,0a.94.94,0,0,0-.94-1h-1.64v2h1.64A.94.94,0,0,0,124.65,450.57Z"/><path class="cls-3" d="M131.59,454.23h-3.07l-.47,1.33h-1.82l2.84-7.57h2l2.85,7.57h-1.86Zm-.54-1.57-1-2.79-1,2.79Z"/><path class="cls-3" d="M140,454v1.6h-4.86V448h1.7v6Z"/><path class="cls-3" d="M148.11,451.78a3.73,3.73,0,0,1-3.86,3.78h-3V448h3A3.74,3.74,0,0,1,148.11,451.78Zm-1.74,0a2.13,2.13,0,0,0-2.16-2.19H143V454h1.24A2.12,2.12,0,0,0,146.37,451.78Z"/><path class="cls-3" d="M153.76,454.23h-3.07l-.47,1.33h-1.83l2.85-7.57h2l2.86,7.57h-1.87Zm-.55-1.57-1-2.79-1,2.79Z"/><line class="cls-10" x1="23.95" y1="409.12" x2="81.38" y2="409.12"/><path class="cls-3" d="M26.23,397H23.16l-.48,1.33H20.86l2.84-7.57h2l2.85,7.57H26.7Zm-.55-1.57-1-2.79-1,2.79Z"/><path class="cls-3" d="M35.77,396.23a2,2,0,0,1-2.14,2H29.72v-7.57h3.67a1.94,1.94,0,0,1,2,1.94,1.9,1.9,0,0,1-.84,1.61A2.08,2.08,0,0,1,35.77,396.23Zm-4.4-4v1.42H33a.7.7,0,0,0,.7-.71.68.68,0,0,0-.7-.71ZM34,395.93a.8.8,0,0,0-.81-.82H31.37v1.63h1.84A.79.79,0,0,0,34,395.93Z"/><path class="cls-3" d="M43.89,394.49A3.74,3.74,0,0,1,40,398.28H37v-7.57h3A3.74,3.74,0,0,1,43.89,394.49Zm-1.75,0A2.12,2.12,0,0,0,40,392.31H38.74v4.37H40A2.13,2.13,0,0,0,42.14,394.49Z"/><path class="cls-3" d="M44.94,394.49a4,4,0,1,1,4,3.92A3.87,3.87,0,0,1,44.94,394.49Zm6.26,0a2.26,2.26,0,1,0-2.26,2.29A2.23,2.23,0,0,0,51.2,394.49Z"/><path class="cls-3" d="M62.54,390.71v7.57h-1.7v-4.86L58.93,397H58l-1.91-3.59v4.86h-1.7v-7.57h2.1l2,3.74,2-3.74Z"/><path class="cls-3" d="M64.34,390.71H66v7.57h-1.7Z"/><path class="cls-3" d="M74.4,390.71v7.57H72.68l-3.14-4.63v4.63h-1.7v-7.57h1.71l3.15,4.63v-4.63Z"/><path class="cls-3" d="M80.91,397H77.84l-.47,1.33H75.55l2.84-7.57h2l2.85,7.57H81.38Zm-.55-1.57-1-2.79-1,2.79Z"/><path class="cls-3" d="M89.27,396.68v1.6H84.41v-7.57h1.7v6Z"/><path class="cls-3" d="M95.77,396.68v1.6H90.58v-7.57h5.14v1.6H92.29v1.36h3.07v1.6H92.29v1.41Z"/><path class="cls-3" d="M96.79,397.23l.88-1.3a3.63,3.63,0,0,0,2.33,1c.68,0,1.26-.3,1.26-.75s-.73-.7-1.53-.9c-1.51-.36-2.64-1.07-2.64-2.41s1.17-2.26,2.92-2.26a3.86,3.86,0,0,1,2.67.93l-.79,1.29a2.92,2.92,0,0,0-1.89-.71c-.69,0-1.17.29-1.17.68s.69.73,1.39.87,2.78.67,2.78,2.43c0,1.4-1.3,2.34-3,2.34A5,5,0,0,1,96.79,397.23Z"/></svg>