<svg id="Capa_1" data-name="Capa 1" xmlns="http://www.w3.org/2000/svg" xmlns:xlink="http://www.w3.org/1999/xlink" viewBox="0 0 310 120"><defs><style>.cls-1{fill:#fff;}.cls-2{fill:url(#Nueva_muestra_de_degradado_12);}.cls-3{fill:url(#Nueva_muestra_de_degradado_12-2);}.cls-4{fill:url(#Nueva_muestra_de_degradado_12-3);}.cls-5{fill:url(#Nueva_muestra_de_degradado_12-4);}.cls-6{fill:url(#Nueva_muestra_de_degradado_12-5);}.cls-7{fill:url(#Nueva_muestra_de_degradado_12-6);}.cls-8{fill:url(#Nueva_muestra_de_degradado_12-7);}</style><linearGradient id="Nueva_muestra_de_degradado_12" x1="60.98" y1="8.97" x2="60.98" y2="111.03" gradientUnits="userSpaceOnUse"><stop offset="0" stop-color="#0cfcfe"/><stop offset="1" stop-color="#2196f3"/></linearGradient><linearGradient id="Nueva_muestra_de_degradado_12-2" x1="144.58" y1="55.89" x2="144.58" y2="84.21" xlink:href="#Nueva_muestra_de_degradado_12"/><linearGradient id="Nueva_muestra_de_degradado_12-3" x1="165.84" y1="55.89" x2="165.84" y2="84.21" xlink:href="#Nueva_muestra_de_degradado_12"/><linearGradient id="Nueva_muestra_de_degradado_12-4" x1="189.97" y1="55.89" x2="189.97" y2="84.71" xlink:href="#Nueva_muestra_de_degradado_12"/><linearGradient id="Nueva_muestra_de_degradado_12-5" x1="225.17" y1="54.66" x2="225.17" y2="84.71" xlink:href="#Nueva_muestra_de_degradado_12"/><linearGradient id="Nueva_muestra_de_degradado_12-6" x1="251.68" y1="62.79" x2="251.68" y2="92.01" xlink:href="#Nueva_muestra_de_degradado_12"/><linearGradient id="Nueva_muestra_de_degradado_12-7" x1="283.55" y1="62.79" x2="283.55" y2="84.21" xlink:href="#Nueva_muestra_de_degradado_12"/></defs><path class="cls-1" d="M140,25.39c0-.29.14-.43.4-.43h5.19a4.1,4.1,0,0,1,1.68.34,4.26,4.26,0,0,1,2.25,2.27,4.25,4.25,0,0,1,.33,1.67,4.42,4.42,0,0,1-.17,1.21,4.55,4.55,0,0,1-.5,1.07,4.12,4.12,0,0,1-1.73,1.54l2.37,4.87v.12c0,.18-.11.28-.33.28h-1.09A.49.49,0,0,1,148,38l-2.16-4.53h-4.06v4.46a.36.36,0,0,1-.41.4h-.94a.36.36,0,0,1-.4-.4Zm8.12,3.83a2.45,2.45,0,0,0-.19-1,2.91,2.91,0,0,0-.53-.81,2.68,2.68,0,0,0-.8-.56,2.44,2.44,0,0,0-1-.21h-3.84v5.07h3.88a2.37,2.37,0,0,0,1-.2,2.51,2.51,0,0,0,.79-.56,2.6,2.6,0,0,0,.71-1.77Z"/><path class="cls-1" d="M154.73,24.82a.34.34,0,0,1-.39.39h-.93q-.42,0-.42-.39v-.93a.4.4,0,0,1,.11-.29.43.43,0,0,1,.28-.11h.94a.38.38,0,0,1,.3.12.36.36,0,0,1,.11.28Zm0,13.11a.35.35,0,0,1-.39.4h-.93a.37.37,0,0,1-.42-.4V27.29a.36.36,0,0,1,.39-.39h.94a.38.38,0,0,1,.41.39Z"/><path class="cls-1" d="M161.12,38.45a3.42,3.42,0,0,1-.83-.1,2,2,0,0,1-.75-.34,1.88,1.88,0,0,1-.55-.68,2.46,2.46,0,0,1-.21-1.09V28.43h-1a.69.69,0,0,1-.33-.06c-.08-.05-.11-.15-.11-.3v-.84c0-.16,0-.26.11-.29a.69.69,0,0,1,.33-.06h1V25a.29.29,0,0,1,.07-.22.41.41,0,0,1,.21-.11,1.26,1.26,0,0,1,.22,0l.35-.06.47-.08a.61.61,0,0,1,.24,0,.36.36,0,0,1,.13.11.48.48,0,0,1,.05.17,1.27,1.27,0,0,1,0,.2v1.94h1.25a.41.41,0,0,1,.3.09.43.43,0,0,1,.1.32V28a.51.51,0,0,1-.1.34.41.41,0,0,1-.3.09h-1.25v7.79a.54.54,0,0,0,.15.44.66.66,0,0,0,.42.13.51.51,0,0,1,.35.12.46.46,0,0,1,.13.35V38a.45.45,0,0,1-.12.33A.49.49,0,0,1,161.12,38.45Z"/><path class="cls-1" d="M166.4,28.23a4.29,4.29,0,0,1,.54-.59,3.06,3.06,0,0,1,.64-.48,3.27,3.27,0,0,1,.81-.33,4,4,0,0,1,1-.12,4.55,4.55,0,0,1,2.32.53,3.77,3.77,0,0,1,1.44,1.54,3.36,3.36,0,0,1,.65-1,3.78,3.78,0,0,1,.9-.64,4.29,4.29,0,0,1,1.08-.36,6.34,6.34,0,0,1,1.16-.1,4.59,4.59,0,0,1,2,.38,3.94,3.94,0,0,1,1.42,1,4.39,4.39,0,0,1,.86,1.56,5.91,5.91,0,0,1,.3,1.9V37.7a.59.59,0,0,1-.16.46.52.52,0,0,1-.4.16h-.67c-.22,0-.36,0-.42-.14a.75.75,0,0,1-.1-.45V31.59a4.28,4.28,0,0,0-.15-1.1,3.18,3.18,0,0,0-.48-1,2.55,2.55,0,0,0-.9-.75,3,3,0,0,0-1.37-.29,3.36,3.36,0,0,0-1.22.22,2.26,2.26,0,0,0-.91.63,2.85,2.85,0,0,0-.58,1A4.27,4.27,0,0,0,174,31.6v6.11a.62.62,0,0,1-.16.46.58.58,0,0,1-.4.16h-.67a.52.52,0,0,1-.43-.14.84.84,0,0,1-.09-.45V31.6a4.28,4.28,0,0,0-.15-1.1,3.09,3.09,0,0,0-.48-1,2.55,2.55,0,0,0-.9-.75,3,3,0,0,0-1.37-.29,2.92,2.92,0,0,0-1,.19,2.85,2.85,0,0,0-.94.54,2.74,2.74,0,0,0-.68.89,2.67,2.67,0,0,0-.26,1.22v6.65a.36.36,0,0,1-.4.4h-.93a.37.37,0,0,1-.42-.4V27.29a.38.38,0,0,1,.12-.29.4.4,0,0,1,.28-.1H166a.37.37,0,0,1,.3.11.38.38,0,0,1,.12.28Z"/><path class="cls-1" d="M184.14,32.63a5.52,5.52,0,0,1,.47-2.29,6.07,6.07,0,0,1,3.16-3.17,5.62,5.62,0,0,1,2.27-.46,5.76,5.76,0,0,1,1.56.21,5.87,5.87,0,0,1,1.41.6,6.32,6.32,0,0,1,1.2.93,6,6,0,0,1,.93,1.2,5.94,5.94,0,0,1,.6,1.42,5.9,5.9,0,0,1,0,3.12,5.87,5.87,0,0,1-.6,1.41,5.69,5.69,0,0,1-.93,1.19,5.94,5.94,0,0,1-1.2.93,5.87,5.87,0,0,1-1.41.6,5.86,5.86,0,0,1-3.11,0,5.87,5.87,0,0,1-1.41-.6,5.68,5.68,0,0,1-1.2-.93A5.33,5.33,0,0,1,185,35.6a6.33,6.33,0,0,1-.61-1.41A5.76,5.76,0,0,1,184.14,32.63Zm1.79,0a4,4,0,0,0,.32,1.62,4.27,4.27,0,0,0,2.19,2.26,3.91,3.91,0,0,0,3.19,0,4.33,4.33,0,0,0,2.17-2.26,4.24,4.24,0,0,0,0-3.23,4.66,4.66,0,0,0-.88-1.37,4.46,4.46,0,0,0-1.29-.94,3.81,3.81,0,0,0-3.19,0,4.42,4.42,0,0,0-1.31.94,4.66,4.66,0,0,0-.88,1.37A4,4,0,0,0,185.93,32.63Z"/><path class="cls-1" d="M215.48,26.09a.49.49,0,0,1,.16.16.31.31,0,0,1,.07.2.38.38,0,0,1-.07.21l-.48.79a.41.41,0,0,1-.32.22l-.14,0a.69.69,0,0,1-.17-.11,5.49,5.49,0,0,0-1.36-.7,5.77,5.77,0,0,0-1.51-.29,5.34,5.34,0,0,0-2.14.42,5.43,5.43,0,0,0-1.7,1.13,5,5,0,0,0-1.12,1.64,5,5,0,0,0,0,4,5,5,0,0,0,2.73,2.66,5.08,5.08,0,0,0,1.94.38,6.27,6.27,0,0,0,.74,0,4.58,4.58,0,0,0,.75-.19c.25-.09.52-.2.8-.33s.56-.3.88-.5a.53.53,0,0,1,.28-.1c.1,0,.2.07.29.22l.52.85a.49.49,0,0,1,.06.22.38.38,0,0,1-.22.34,6.71,6.71,0,0,1-4.06,1.3,7,7,0,0,1-1.83-.24,6.79,6.79,0,0,1-1.64-.69,7.14,7.14,0,0,1-1.38-1.08,6.77,6.77,0,0,1-1.76-3,7.1,7.1,0,0,1,0-3.66,6.79,6.79,0,0,1,.69-1.64,6.91,6.91,0,0,1,1.08-1.39A6.65,6.65,0,0,1,208,25.72a6.79,6.79,0,0,1,1.64-.69,6.57,6.57,0,0,1,1.83-.25,6.78,6.78,0,0,1,2.13.33A7.2,7.2,0,0,1,215.48,26.09Z"/><path class="cls-1" d="M227.87,36.8a5.77,5.77,0,0,1-1.8,1.25,5.52,5.52,0,0,1-2.23.45,5.74,5.74,0,0,1-1.55-.21,5.87,5.87,0,0,1-1.41-.6,6,6,0,0,1-1.19-.93,6.07,6.07,0,0,1-.94-1.2,5.89,5.89,0,0,1-.6-4.54,5.87,5.87,0,0,1,.6-1.41,6.35,6.35,0,0,1,2.13-2.12,5.87,5.87,0,0,1,1.41-.6,5.63,5.63,0,0,1,1.55-.21,5.52,5.52,0,0,1,2.23.45,5.94,5.94,0,0,1,1.8,1.25v-1.1a.34.34,0,0,1,.39-.39h.93q.42,0,.42.39V37.93a.4.4,0,0,1-.11.29.43.43,0,0,1-.28.11h-.94a.38.38,0,0,1-.3-.12.37.37,0,0,1-.11-.28Zm.09-4.22a4,4,0,0,0-.33-1.61,4.24,4.24,0,0,0-2.19-2.27,3.89,3.89,0,0,0-3.18,0,4.27,4.27,0,0,0-1.29.92,4.56,4.56,0,0,0-.88,1.35,4.34,4.34,0,0,0,0,3.22,4.53,4.53,0,0,0,.88,1.37,4.33,4.33,0,0,0,1.29.94,3.79,3.79,0,0,0,3.18,0,4.42,4.42,0,0,0,1.31-.94,4.35,4.35,0,0,0,.88-1.37A4,4,0,0,0,228,32.58Z"/><path class="cls-1" d="M234.46,28.1a2.61,2.61,0,0,1,.31-.45,3,3,0,0,1,.49-.45,3.17,3.17,0,0,1,.66-.35,2.38,2.38,0,0,1,.81-.14,7.75,7.75,0,0,1,.88.05,3.46,3.46,0,0,1,.74.14,3.61,3.61,0,0,1,.68.28,5.6,5.6,0,0,1,.69.44l.24.21a.43.43,0,0,1,.13.3.41.41,0,0,1-.05.18l-.53.82a.34.34,0,0,1-.25.15.27.27,0,0,1-.14-.05l-.15-.11a4.65,4.65,0,0,0-1.08-.56,3.75,3.75,0,0,0-1.12-.17,2.36,2.36,0,0,0-.87.17,2.23,2.23,0,0,0-.73.49,2.4,2.4,0,0,0-.51.78,2.69,2.69,0,0,0-.2,1.05v7.05a.35.35,0,0,1-.39.4h-.94a.36.36,0,0,1-.41-.4V27.29a.42.42,0,0,1,.11-.29.4.4,0,0,1,.28-.1h.94a.39.39,0,0,1,.3.11.41.41,0,0,1,.11.28Z"/><path class="cls-1" d="M252.44,38.33a.35.35,0,0,1-.4-.4V36.84a5.74,5.74,0,0,1-1.8,1.24,5.44,5.44,0,0,1-2.22.45,5.81,5.81,0,0,1-1.56-.21,6.08,6.08,0,0,1-3.53-2.72,5.87,5.87,0,0,1-.6-1.41,5.64,5.64,0,0,1,0-3.12,5.94,5.94,0,0,1,.6-1.42,6,6,0,0,1,2.13-2.13,5.63,5.63,0,0,1,1.4-.6,5.76,5.76,0,0,1,1.56-.21,5.44,5.44,0,0,1,2.22.45,5.77,5.77,0,0,1,1.8,1.25V23.9a.39.39,0,0,1,.41-.4h.94a.41.41,0,0,1,.28.11.37.37,0,0,1,.12.29v14c0,.26-.14.4-.43.4Zm-.31-5.7a4.2,4.2,0,0,0-.32-1.61,4.66,4.66,0,0,0-.88-1.37,4.55,4.55,0,0,0-1.31-.94,3.81,3.81,0,0,0-1.6-.35,3.76,3.76,0,0,0-1.59.35A4.31,4.31,0,0,0,244.27,31a4.27,4.27,0,0,0,.87,4.57,4.4,4.4,0,0,0,1.29.92,3.76,3.76,0,0,0,1.59.34,3.8,3.8,0,0,0,1.6-.34,4.49,4.49,0,0,0,1.31-.92,4.39,4.39,0,0,0,.88-1.34A4.22,4.22,0,0,0,252.13,32.63Z"/><path class="cls-1" d="M258.68,37.93a.35.35,0,0,1-.39.4h-.93a.37.37,0,0,1-.42-.4V27.29a.38.38,0,0,1,.11-.29.4.4,0,0,1,.28-.1h.94a.4.4,0,0,1,.3.11.41.41,0,0,1,.11.28Zm0-12.52a.53.53,0,0,1-.47.38h-.83a.35.35,0,0,1-.24-.06.29.29,0,0,1-.06-.19l0-.14a.45.45,0,0,1,.07-.19l.79-1.84a1.27,1.27,0,0,1,.22-.29.38.38,0,0,1,.27-.09h.89c.16,0,.23.07.23.2a.76.76,0,0,1,0,.15.32.32,0,0,1-.07.18Z"/><path class="cls-1" d="M271.56,36.8a5.77,5.77,0,0,1-1.8,1.25,5.44,5.44,0,0,1-2.22.45,5.69,5.69,0,0,1-1.55-.21,5.55,5.55,0,0,1-1.41-.6,6,6,0,0,1-2.13-2.13,5.77,5.77,0,0,1-.6-1.42,5.64,5.64,0,0,1,0-3.12,5.87,5.87,0,0,1,.6-1.41,6,6,0,0,1,.93-1.19,6,6,0,0,1,1.2-.93,5.63,5.63,0,0,1,1.4-.6,5.76,5.76,0,0,1,1.56-.21,5.44,5.44,0,0,1,2.22.45,5.94,5.94,0,0,1,1.8,1.25v-1.1a.35.35,0,0,1,.4-.39h.92c.29,0,.43.13.43.39V37.93a.37.37,0,0,1-.12.29.41.41,0,0,1-.28.11H272a.39.39,0,0,1-.41-.4Zm.09-4.22a4.2,4.2,0,0,0-.32-1.61,4.56,4.56,0,0,0-.88-1.35,4.49,4.49,0,0,0-1.31-.92,3.92,3.92,0,0,0-1.6-.34,3.83,3.83,0,0,0-1.58.34A4.21,4.21,0,0,0,263.79,31a4.21,4.21,0,0,0,0,3.22,4.33,4.33,0,0,0,.87,1.37,4.38,4.38,0,0,0,1.3.94,3.69,3.69,0,0,0,1.58.35,3.78,3.78,0,0,0,1.6-.35,4.32,4.32,0,0,0,2.19-2.31A4.2,4.2,0,0,0,271.65,32.58Z"/><path class="cls-1" d="M284.35,35.72l.14-.11a.35.35,0,0,1,.16-.08.25.25,0,0,1,.17,0,.32.32,0,0,1,.18.14l.29.4.18.24.11.14a1.09,1.09,0,0,1,.08.15.26.26,0,0,1,0,.15.41.41,0,0,1-.09.19,1.07,1.07,0,0,1-.24.23,7.31,7.31,0,0,1-.81.56,7,7,0,0,1-.87.42,5.16,5.16,0,0,1-1,.28,5.35,5.35,0,0,1-1.08.1,5.61,5.61,0,0,1-1.54-.21,5.87,5.87,0,0,1-1.41-.6,6.09,6.09,0,0,1-2.15-2.13,5.9,5.9,0,0,1-.61-1.41,5.64,5.64,0,0,1,0-3.12,5.9,5.9,0,0,1,.61-1.41,6.09,6.09,0,0,1,2.15-2.13,5.87,5.87,0,0,1,1.41-.6,5.61,5.61,0,0,1,1.54-.21,5.75,5.75,0,0,1,1,.09,6.17,6.17,0,0,1,1,.26,5.74,5.74,0,0,1,.87.39,5.28,5.28,0,0,1,.74.49l.14.12.15.15a.64.64,0,0,1,.08.19.37.37,0,0,1-.05.22l-.66.87c-.15.2-.33.2-.54,0a3.12,3.12,0,0,0-.55-.46,4.83,4.83,0,0,0-.68-.35,4.66,4.66,0,0,0-.75-.23,3.92,3.92,0,0,0-.76-.08,3.71,3.71,0,0,0-1.53.34,4.47,4.47,0,0,0-1.31.93,4.54,4.54,0,0,0-.9,1.36,4,4,0,0,0-.35,1.63,4.07,4.07,0,0,0,.34,1.63,4.49,4.49,0,0,0,.9,1.35,4.4,4.4,0,0,0,1.31.91,3.64,3.64,0,0,0,1.55.34,3.46,3.46,0,0,0,.89-.1,3.13,3.13,0,0,0,.73-.25,3.37,3.37,0,0,0,.61-.36A5.56,5.56,0,0,0,284.35,35.72Z"/><path class="cls-1" d="M287.34,32.63a5.69,5.69,0,0,1,.47-2.29A6.07,6.07,0,0,1,291,27.17a5.63,5.63,0,0,1,2.28-.46,5.74,5.74,0,0,1,1.55.21,5.87,5.87,0,0,1,1.41.6,6,6,0,0,1,2.13,2.13,5.94,5.94,0,0,1,.6,1.42,5.64,5.64,0,0,1,0,3.12,5.87,5.87,0,0,1-.6,1.41,6.12,6.12,0,0,1-2.13,2.12,5.87,5.87,0,0,1-1.41.6,5.86,5.86,0,0,1-3.11,0,5.87,5.87,0,0,1-1.41-.6,5.94,5.94,0,0,1-1.2-.93,5.65,5.65,0,0,1-.92-1.19,6.33,6.33,0,0,1-.61-1.41A5.76,5.76,0,0,1,287.34,32.63Zm1.79,0a4.22,4.22,0,0,0,.32,1.62,4.39,4.39,0,0,0,.88,1.34,4.49,4.49,0,0,0,1.31.92,3.77,3.77,0,0,0,1.6.34,3.72,3.72,0,0,0,1.59-.34,4.32,4.32,0,0,0,1.3-.92A4.25,4.25,0,0,0,297,31a4.44,4.44,0,0,0-.87-1.37,4.38,4.38,0,0,0-1.3-.94,3.73,3.73,0,0,0-1.59-.35,3.78,3.78,0,0,0-1.6.35,4.55,4.55,0,0,0-1.31.94,4.66,4.66,0,0,0-.88,1.37A4.2,4.2,0,0,0,289.13,32.63Z"/><path class="cls-2" d="M97.07,23.92A51,51,0,1,0,112,60,50.84,50.84,0,0,0,97.07,23.92ZM68.94,82.77c-2.15,1.82-4.44,3.72-6.87,5.78a1.63,1.63,0,0,1-2.16,0c-2.42-2.06-4.71-4-6.87-5.78-7.5-6.26-13.54-11.2-17-16.35h8.44a1.65,1.65,0,0,0,1.61-1.27L47.8,58.3l1.7,6.85a1.68,1.68,0,0,0,1.61,1.27H60L63,75.24a1.66,1.66,0,0,0,3.16,0l5-15.19,1.75,5.23a1.66,1.66,0,0,0,1.59,1.14H86C82.48,71.57,76.45,76.51,68.94,82.77ZM87.81,63.08H75.68l-2.93-8.82a1.73,1.73,0,0,0-3.15,0l-5.08,15.2-1.75-5.24a1.65,1.65,0,0,0-1.56-1.14H52.43l-3-12a1.73,1.73,0,0,0-3.22,0l-3,12h-9a16.87,16.87,0,0,1-1.54-7c0-9.07,6.44-15.9,15-15.9,6.71,0,11.14,4.61,13.38,8.73,2.27-4.12,6.58-8.73,13.29-8.73C82.8,40.13,89.33,47,89.33,56A16.85,16.85,0,0,1,87.81,63.08Z"/><path class="cls-3" d="M150.57,55.89V84.21h-4.84V61.68l-5,2.83-2.09-3.9,8.53-4.72Z"/><path class="cls-4" d="M176.8,78.34h-3.28v5.87h-4.89V78.34H156l-1.15-3.94,13.26-18.51h5.38V73.75h3.28Zm-8.17-4.59V62.05l-8.37,11.7Z"/><path class="cls-5" d="M200.32,75.22c0,5.42-4.48,9.49-10.76,9.49a14.6,14.6,0,0,1-9.93-4l2.46-3.9A9.89,9.89,0,0,0,189.27,80c3.62,0,6-2.18,6-4.89s-2.26-4.64-5.34-4.64a7.18,7.18,0,0,0-4.8,1.85L180.86,71l1.4-15.15h16.09v4.6h-12l-.57,6.73a9.42,9.42,0,0,1,4.8-1.23C196.09,66,200.32,70,200.32,75.22Z"/><path class="cls-6" d="M236.31,73.75c0,6.24-4.43,11-10.3,11a9.14,9.14,0,0,1-7.39-3.53v3H214V54.66h4.6V66.32A9.12,9.12,0,0,1,226,62.79C231.88,62.79,236.31,67.51,236.31,73.75Zm-4.76,0a6.47,6.47,0,1,0-6.45,6.52A6.35,6.35,0,0,0,231.55,73.75Z"/><path class="cls-7" d="M262.82,73.75c0,6.24-4.43,11-10.3,11a9.16,9.16,0,0,1-7.39-3.53V92h-4.59V63.28h4.59v3a9.13,9.13,0,0,1,7.39-3.53C258.39,62.79,262.82,67.51,262.82,73.75Zm-4.76,0a6.47,6.47,0,1,0-6.44,6.52A6.35,6.35,0,0,0,258.06,73.75Z"/><path class="cls-8" d="M300.05,70.63V84.21h-4.6V72a4.4,4.4,0,0,0-4.63-4.76,4.64,4.64,0,0,0-5,4.84V84.21h-4.6V72a4.41,4.41,0,0,0-4.64-4.76,4.64,4.64,0,0,0-5,4.84V84.21h-4.6V63.28h4.6v2.46a8,8,0,0,1,6.48-2.95,7.33,7.33,0,0,1,6.73,3.69,8.56,8.56,0,0,1,7.35-3.69C297,62.79,300.05,65.91,300.05,70.63Z"/></svg>