<?xml version="1.0" encoding="utf-8"?>
<!-- Generator: Adobe Illustrator 25.4.1, SVG Export Plug-In . SVG Version: 6.00 Build 0)  -->
<svg version="1.1" id="Capa_1" xmlns="http://www.w3.org/2000/svg" xmlns:xlink="http://www.w3.org/1999/xlink" x="0px" y="0px"
	 viewBox="0 0 180 198.4" style="enable-background:new 0 0 180 198.4;" xml:space="preserve">
<style type="text/css">
	.st0{opacity:0.3;}
	.st1{fill:#4D4D4D;}
	.st2{fill:none;stroke:url(#SVGID_1_);stroke-width:6.11;stroke-linecap:round;stroke-linejoin:round;}
	
		.st3{fill:none;stroke:url(#SVGID_00000154420649996974691680000011067602641983214511_);stroke-width:6.11;stroke-linecap:round;stroke-linejoin:round;}
	
		.st4{fill:none;stroke:url(#SVGID_00000076562295262921438910000003844956870439928714_);stroke-width:6.11;stroke-linecap:round;stroke-linejoin:round;}
	
		.st5{fill:none;stroke:url(#SVGID_00000128482768395575949570000009532030347253755794_);stroke-width:6.11;stroke-linecap:round;stroke-linejoin:round;}
	
		.st6{fill:none;stroke:url(#SVGID_00000083060778347503282680000001208608987306011039_);stroke-width:6.11;stroke-linecap:round;stroke-linejoin:round;}
	
		.st7{fill:none;stroke:url(#SVGID_00000163784871839988860250000006106991380954523785_);stroke-width:6.11;stroke-linecap:round;stroke-linejoin:round;}
	
		.st8{fill:none;stroke:url(#SVGID_00000132081272469652972990000002908646285248651682_);stroke-width:6.11;stroke-linecap:round;stroke-linejoin:round;}
	
		.st9{fill:none;stroke:url(#SVGID_00000026878752144480221460000017943944936759066776_);stroke-width:6.11;stroke-linecap:round;stroke-linejoin:round;}
	
		.st10{fill:none;stroke:url(#SVGID_00000075151323142272905120000017946558151392741512_);stroke-width:6.11;stroke-linecap:round;stroke-linejoin:round;}
	
		.st11{fill:none;stroke:url(#SVGID_00000069360513882933354770000005108698459267819911_);stroke-width:6.11;stroke-linecap:round;stroke-linejoin:round;}
	.st12{fill:#FFFFFF;}
	.st13{fill:url(#SVGID_00000172441270946588699960000009929858228282197664_);}
	.st14{fill:url(#SVGID_00000142883407735861964570000003549263465000954513_);}
	.st15{fill:url(#SVGID_00000055699963034539105420000014693669208385772681_);}
	.st16{fill:url(#SVGID_00000079449890790535127380000012898573787316922514_);}
	.st17{fill:url(#SVGID_00000049942007566742997880000007634989452509169039_);}
	.st18{fill:url(#SVGID_00000083774467188995266110000018039298582639245475_);}
	.st19{fill:url(#SVGID_00000162315797406060578950000005148271774675671724_);}
</style>
<g class="st0">
	<path class="st1" d="M20.4,121.4c-1.7,0-3-1.3-3-2.9c0,0,0,0,0-0.1V13.8c0.1-1.7,1.5-3,3.2-2.9c1.6,0.1,2.8,1.3,2.9,2.9v104.6
		C23.5,120.1,22.1,121.4,20.4,121.4C20.4,121.4,20.4,121.4,20.4,121.4z"/>
	<path class="st1" d="M35.9,121.4c-1.7,0-3-1.3-3-3V13.8c0-1.7,1.4-3,3.1-3c1.7,0,3,1.4,3,3v104.6c0,1.7-1.3,3-2.9,3.1
		C36,121.4,36,121.4,35.9,121.4z"/>
	<path class="st1" d="M51.4,121.4c-1.7,0-3-1.3-3.1-3V13.8c0.1-1.7,1.5-3,3.2-2.9c1.6,0.1,2.8,1.3,2.9,2.9v104.6c0,1.7-1.3,3-2.9,3
		C51.4,121.4,51.4,121.4,51.4,121.4z"/>
	<path class="st1" d="M66.8,121.4c-1.7,0-3-1.3-3-2.9c0,0,0,0,0-0.1V13.8c0.1-1.7,1.5-3,3.2-2.9c1.6,0.1,2.8,1.3,2.9,2.9v104.6
		C69.9,120.1,68.5,121.4,66.8,121.4C66.8,121.4,66.8,121.4,66.8,121.4z"/>
	<path class="st1" d="M82.3,121.4c-1.7,0-3-1.3-3-3V13.8c0.1-1.7,1.5-3,3.2-2.9c1.6,0.1,2.8,1.3,2.9,2.9v104.6
		C85.4,120.1,84,121.4,82.3,121.4C82.3,121.4,82.3,121.4,82.3,121.4z"/>
	<path class="st1" d="M97.7,121.4c-1.7,0-3-1.3-3.1-3V13.8c0.1-1.7,1.5-3,3.2-2.9c1.6,0.1,2.8,1.3,2.9,2.9v104.6c0,1.7-1.3,3-2.9,3
		C97.8,121.4,97.8,121.4,97.7,121.4z"/>
	<path class="st1" d="M113.2,121.4c-1.7,0-3-1.3-3.1-3V13.8c0.1-1.7,1.5-3,3.2-2.9c1.6,0.1,2.8,1.3,2.9,2.9v104.6c0,1.7-1.3,3-2.9,3
		C113.3,121.4,113.2,121.4,113.2,121.4z"/>
	<path class="st1" d="M128.6,121.4c-1.7,0-3-1.3-3-3V13.8c0.1-1.7,1.5-3,3.2-2.9c1.6,0.1,2.8,1.3,2.9,2.9v104.6
		C131.8,120.1,130.4,121.4,128.6,121.4C128.7,121.4,128.7,121.4,128.6,121.4z"/>
	<path class="st1" d="M144.1,121.4c-1.7,0-3-1.3-3-3V13.8c0-1.7,1.4-3.1,3.1-3.1s3.1,1.4,3.1,3.1v104.6c0,1.7-1.3,3-2.9,3.1
		C144.2,121.4,144.2,121.4,144.1,121.4z"/>
	<path class="st1" d="M159.6,121.4c-1.7,0-3-1.3-3.1-3V13.8c0.1-1.7,1.5-3,3.2-2.9c1.6,0.1,2.8,1.3,2.9,2.9v104.6c0,1.7-1.3,3-2.9,3
		C159.6,121.4,159.6,121.4,159.6,121.4z"/>
</g>
<linearGradient id="SVGID_1_" gradientUnits="userSpaceOnUse" x1="808.3651" y1="-7168.9546" x2="718.815" y2="-7168.9546" gradientTransform="matrix(6.123234e-17 -1 -1 -6.123234e-17 -7148.5146 840.2376)">
	<stop  offset="0" style="stop-color:#0CFCFE"/>
	<stop  offset="1" style="stop-color:#2196F3"/>
</linearGradient>
<line class="st2" x1="20.4" y1="118.4" x2="20.4" y2="34.9"/>
<linearGradient id="SVGID_00000011018054554047016660000012899003686665075358_" gradientUnits="userSpaceOnUse" x1="783.255" y1="-7184.4146" x2="718.815" y2="-7184.4146" gradientTransform="matrix(6.123234e-17 -1 -1 -6.123234e-17 -7148.5146 840.2376)">
	<stop  offset="0" style="stop-color:#0CFCFE"/>
	<stop  offset="1" style="stop-color:#2196F3"/>
</linearGradient>
<line style="fill:none;stroke:url(#SVGID_00000011018054554047016660000012899003686665075358_);stroke-width:6.11;stroke-linecap:round;stroke-linejoin:round;" x1="35.9" y1="118.4" x2="35.9" y2="60"/>
<linearGradient id="SVGID_00000084502300176912812290000003009626565294048171_" gradientUnits="userSpaceOnUse" x1="766.645" y1="-7199.875" x2="718.815" y2="-7199.875" gradientTransform="matrix(6.123234e-17 -1 -1 -6.123234e-17 -7148.5146 840.2376)">
	<stop  offset="0" style="stop-color:#0CFCFE"/>
	<stop  offset="1" style="stop-color:#2196F3"/>
</linearGradient>
<line style="fill:none;stroke:url(#SVGID_00000084502300176912812290000003009626565294048171_);stroke-width:6.11;stroke-linecap:round;stroke-linejoin:round;" x1="51.4" y1="118.4" x2="51.4" y2="76.6"/>
<linearGradient id="SVGID_00000085219864408816518230000000812636564183811771_" gradientUnits="userSpaceOnUse" x1="780.705" y1="-7215.3247" x2="718.815" y2="-7215.3247" gradientTransform="matrix(6.123234e-17 -1 -1 -6.123234e-17 -7148.5146 840.2376)">
	<stop  offset="0" style="stop-color:#0CFCFE"/>
	<stop  offset="1" style="stop-color:#2196F3"/>
</linearGradient>
<line style="fill:none;stroke:url(#SVGID_00000085219864408816518230000000812636564183811771_);stroke-width:6.11;stroke-linecap:round;stroke-linejoin:round;" x1="66.8" y1="118.4" x2="66.8" y2="62.6"/>
<linearGradient id="SVGID_00000108298424729088511210000000535239151055477642_" gradientUnits="userSpaceOnUse" x1="762.895" y1="-7230.7847" x2="718.815" y2="-7230.7847" gradientTransform="matrix(6.123234e-17 -1 -1 -6.123234e-17 -7148.5146 840.2376)">
	<stop  offset="0" style="stop-color:#0CFCFE"/>
	<stop  offset="1" style="stop-color:#2196F3"/>
</linearGradient>
<line style="fill:none;stroke:url(#SVGID_00000108298424729088511210000000535239151055477642_);stroke-width:6.11;stroke-linecap:round;stroke-linejoin:round;" x1="82.3" y1="118.4" x2="82.3" y2="80.4"/>
<linearGradient id="SVGID_00000120534251030547368550000005052299475773214133_" gradientUnits="userSpaceOnUse" x1="806.355" y1="-7246.2446" x2="718.815" y2="-7246.2446" gradientTransform="matrix(6.123234e-17 -1 -1 -6.123234e-17 -7148.5146 840.2376)">
	<stop  offset="0" style="stop-color:#0CFCFE"/>
	<stop  offset="1" style="stop-color:#2196F3"/>
</linearGradient>
<line style="fill:none;stroke:url(#SVGID_00000120534251030547368550000005052299475773214133_);stroke-width:6.11;stroke-linecap:round;stroke-linejoin:round;" x1="97.7" y1="118.4" x2="97.7" y2="36.9"/>
<linearGradient id="SVGID_00000130612077139747464110000010243057057366227108_" gradientUnits="userSpaceOnUse" x1="762.895" y1="-7261.7046" x2="718.815" y2="-7261.7046" gradientTransform="matrix(6.123234e-17 -1 -1 -6.123234e-17 -7148.5146 840.2376)">
	<stop  offset="0" style="stop-color:#0CFCFE"/>
	<stop  offset="1" style="stop-color:#2196F3"/>
</linearGradient>
<line style="fill:none;stroke:url(#SVGID_00000130612077139747464110000010243057057366227108_);stroke-width:6.11;stroke-linecap:round;stroke-linejoin:round;" x1="113.2" y1="118.4" x2="113.2" y2="80.4"/>
<linearGradient id="SVGID_00000005945079527030094990000003882778346002973589_" gradientUnits="userSpaceOnUse" x1="816.845" y1="-7277.1548" x2="718.815" y2="-7277.1548" gradientTransform="matrix(6.123234e-17 -1 -1 -6.123234e-17 -7148.5146 840.2376)">
	<stop  offset="0" style="stop-color:#0CFCFE"/>
	<stop  offset="1" style="stop-color:#2196F3"/>
</linearGradient>
<line style="fill:none;stroke:url(#SVGID_00000005945079527030094990000003882778346002973589_);stroke-width:6.11;stroke-linecap:round;stroke-linejoin:round;" x1="128.6" y1="118.4" x2="128.6" y2="26.4"/>
<linearGradient id="SVGID_00000111179018153643006180000005031882766034858396_" gradientUnits="userSpaceOnUse" x1="798.015" y1="-7292.6147" x2="718.815" y2="-7292.6147" gradientTransform="matrix(6.123234e-17 -1 -1 -6.123234e-17 -7148.5146 840.2376)">
	<stop  offset="0" style="stop-color:#0CFCFE"/>
	<stop  offset="1" style="stop-color:#2196F3"/>
</linearGradient>
<line style="fill:none;stroke:url(#SVGID_00000111179018153643006180000005031882766034858396_);stroke-width:6.11;stroke-linecap:round;stroke-linejoin:round;" x1="144.1" y1="118.4" x2="144.1" y2="45.3"/>
<linearGradient id="SVGID_00000109718403123076767810000005113307713807897524_" gradientUnits="userSpaceOnUse" x1="816.845" y1="-7308.0747" x2="718.815" y2="-7308.0747" gradientTransform="matrix(6.123234e-17 -1 -1 -6.123234e-17 -7148.5146 840.2376)">
	<stop  offset="0" style="stop-color:#0CFCFE"/>
	<stop  offset="1" style="stop-color:#2196F3"/>
</linearGradient>
<line style="fill:none;stroke:url(#SVGID_00000109718403123076767810000005113307713807897524_);stroke-width:6.11;stroke-linecap:round;stroke-linejoin:round;" x1="159.6" y1="118.4" x2="159.6" y2="26.4"/>
<path class="st12" d="M20.9,135.1c0.5,0,1,0.1,1.4,0.2c0.4,0.1,0.9,0.3,1.3,0.5c0.8,0.5,1.5,1.1,1.9,1.9c0.2,0.4,0.4,0.8,0.5,1.3
	c0.1,0.5,0.2,0.9,0.2,1.4c0,0.5-0.1,1-0.2,1.5c-0.1,0.5-0.4,0.9-0.6,1.4c-0.3,0.4-0.6,0.8-1,1.1c-0.4,0.3-0.8,0.6-1.2,0.8
	c-0.3,0.1-0.5,0.2-0.8,0.3c-0.3,0.1-0.6,0.1-0.8,0.2v1.8c0,0.2-0.1,0.3-0.3,0.3c0,0,0,0-0.1,0h-0.7c-0.2,0-0.3-0.1-0.3-0.2
	c0,0,0-0.1,0-0.1v-1.8l-0.5-0.1c-0.1,0-0.3,0-0.4-0.1c-0.1,0-0.3-0.1-0.4-0.1c-0.5-0.2-1-0.5-1.4-0.8c-0.4-0.3-0.8-0.7-1.1-1.1
	c-0.3-0.4-0.5-0.9-0.7-1.4c-0.2-0.5-0.3-1.1-0.3-1.6c0-0.5,0.1-1,0.2-1.4c0.3-0.9,0.7-1.7,1.4-2.4c0.3-0.3,0.7-0.6,1.1-0.8
	C19,135.3,19.9,135.1,20.9,135.1L20.9,135.1z M16.9,140.4c0,0.4,0,0.7,0.1,1.1c0.1,0.3,0.2,0.7,0.4,0.9c0.3,0.6,0.8,1.1,1.4,1.4
	c0.3,0.2,0.6,0.3,1,0.4c0.3,0.1,0.7,0.1,1.1,0.1c0.4,0,0.7,0,1.1-0.1c0.7-0.2,1.3-0.5,1.8-1c0.2-0.2,0.5-0.5,0.6-0.8
	c0.2-0.3,0.3-0.6,0.4-0.9c0.1-0.3,0.1-0.7,0.1-1.1c0-0.5-0.1-1.1-0.3-1.6c-0.4-1-1.2-1.7-2.1-2.2c-0.5-0.2-1-0.3-1.5-0.3
	c-0.4,0-0.7,0-1.1,0.1c-0.3,0.1-0.7,0.2-1,0.4c-0.3,0.2-0.6,0.4-0.8,0.6c-0.5,0.5-0.8,1.1-1,1.8C17,139.7,16.9,140,16.9,140.4z"/>
<path class="st12" d="M34.1,144.6c-0.1,0.2-0.3,0.3-0.4,0.4c-0.1,0.1-0.3,0.2-0.5,0.3c-0.2,0.1-0.4,0.2-0.6,0.2
	c-0.3,0-0.5,0.1-0.8,0.1c-0.5,0-1-0.1-1.5-0.3c-0.4-0.2-0.8-0.5-1.1-0.8c-0.3-0.4-0.5-0.8-0.7-1.2c-0.2-0.5-0.2-1-0.2-1.5V137
	c0-0.1,0-0.3,0.1-0.4c0.1-0.1,0.2-0.1,0.3-0.1h0.5c0.2,0,0.3,0,0.3,0.1c0.1,0.1,0.1,0.2,0.1,0.4v4.8c0,0.3,0,0.6,0.1,0.9
	c0.1,0.3,0.2,0.6,0.4,0.8c0.2,0.2,0.4,0.4,0.7,0.6c0.3,0.2,0.7,0.2,1.1,0.2c0.3,0,0.5,0,0.8-0.1c0.3-0.1,0.5-0.2,0.7-0.4
	c0.2-0.2,0.4-0.4,0.5-0.7c0.1-0.3,0.2-0.6,0.2-0.9v-5.2c0-0.1,0.1-0.3,0.2-0.3c0,0,0.1,0,0.1,0h0.7c0.2,0,0.3,0.1,0.3,0.3v8.3
	c0,0.1,0,0.2-0.1,0.2c-0.1,0.1-0.1,0.1-0.2,0.1h-0.7c-0.1,0-0.2,0-0.2-0.1c-0.1-0.1-0.1-0.1-0.1-0.2L34.1,144.6z"/>
<path class="st12" d="M43.8,143.6l0.1-0.1c0,0,0.1-0.1,0.2-0.1c0.1,0,0.2,0.1,0.2,0.1l0.2,0.3l0.2,0.2l0.1,0.1l0.1,0.1
	c0,0,0,0.1,0,0.1c0,0.1,0,0.1-0.1,0.2c-0.1,0.1-0.1,0.1-0.2,0.2c-0.2,0.2-0.4,0.3-0.6,0.4c-0.2,0.1-0.4,0.2-0.7,0.3
	c-0.2,0.1-0.5,0.2-0.8,0.2c-0.7,0.1-1.3,0.1-2-0.1c-0.4-0.1-0.8-0.3-1.1-0.5c-0.3-0.2-0.7-0.5-0.9-0.7c-0.3-0.3-0.5-0.6-0.7-0.9
	c-0.2-0.3-0.4-0.7-0.5-1.1c-0.1-0.4-0.2-0.8-0.2-1.2c0-0.4,0.1-0.8,0.2-1.2c0.2-0.8,0.6-1.4,1.2-2c0.3-0.3,0.6-0.5,0.9-0.7
	c0.3-0.2,0.7-0.4,1.1-0.5c0.8-0.2,1.6-0.2,2.3,0c0.3,0.1,0.7,0.2,1,0.3c0.3,0.2,0.6,0.3,0.9,0.6c0.3,0.2,0.5,0.5,0.8,0.8
	c0.3,0.4,0.5,0.8,0.7,1.3c0.2,0.6,0.2,1.2,0.2,1.8c0,0.2-0.1,0.3-0.3,0.3h-7.4c0.1,0.4,0.2,0.7,0.4,1c0.4,0.6,1,1.1,1.6,1.4
	c0.3,0.1,0.7,0.2,1,0.2c0.2,0,0.5,0,0.7-0.1c0.2,0,0.4-0.1,0.6-0.2c0.2-0.1,0.3-0.2,0.5-0.3C43.4,143.7,43.6,143.6,43.8,143.6
	L43.8,143.6z M39.9,138.4c-0.4,0.2-0.7,0.5-0.9,0.9c-0.3,0.4-0.4,0.8-0.5,1.2h6.3c-0.1-0.4-0.2-0.7-0.4-1c-0.2-0.3-0.4-0.6-0.7-0.8
	c-0.3-0.2-0.6-0.4-1-0.5c-0.6-0.2-1.3-0.2-2-0.1C40.4,138.1,40.2,138.2,39.9,138.4z"/>
<path class="st12" d="M49.4,137.7c0.1-0.2,0.3-0.3,0.4-0.4c0.2-0.1,0.3-0.3,0.5-0.4c0.2-0.1,0.4-0.1,0.7-0.2
	c0.3-0.1,0.5-0.1,0.8-0.1c0.6,0,1.3,0.1,1.8,0.4c0.5,0.3,0.9,0.7,1.1,1.2c0.1-0.3,0.3-0.5,0.5-0.8c0.2-0.2,0.4-0.4,0.7-0.5
	c0.3-0.1,0.5-0.2,0.8-0.3c0.3-0.1,0.6-0.1,0.9-0.1c0.5,0,1,0.1,1.5,0.3c0.4,0.2,0.8,0.5,1.1,0.8c0.3,0.4,0.5,0.8,0.7,1.2
	c0.2,0.5,0.2,1,0.2,1.5v4.8c0,0.1,0,0.3-0.1,0.4c-0.1,0.1-0.2,0.1-0.3,0.1h-0.6c-0.2,0-0.3,0-0.3-0.1c-0.1-0.1-0.1-0.2-0.1-0.4v-4.8
	c0-0.3,0-0.6-0.1-0.9c-0.1-0.3-0.2-0.6-0.4-0.8c-0.2-0.2-0.4-0.4-0.7-0.6c-0.3-0.2-0.7-0.2-1.1-0.2c-0.3,0-0.6,0.1-1,0.2
	c-0.6,0.2-1,0.7-1.2,1.3c-0.1,0.3-0.2,0.7-0.2,1v4.8c0,0.1,0,0.3-0.1,0.4c-0.1,0.1-0.2,0.1-0.3,0.1h-0.5c-0.1,0-0.2,0-0.3-0.1
	c-0.1-0.1-0.1-0.2-0.1-0.4v-4.8c0-0.3,0-0.6-0.1-0.9c-0.1-0.3-0.2-0.6-0.4-0.8c-0.2-0.2-0.4-0.4-0.7-0.6c-0.6-0.3-1.3-0.3-1.9-0.1
	c-0.3,0.1-0.5,0.2-0.7,0.4c-0.2,0.2-0.4,0.4-0.5,0.7c-0.1,0.3-0.2,0.6-0.2,0.9v5.2c0,0.2-0.1,0.3-0.3,0.3h-0.7
	c-0.2,0-0.3-0.1-0.3-0.2c0,0,0-0.1,0-0.1V137c0-0.1,0-0.2,0.1-0.2c0.1-0.1,0.1-0.1,0.2-0.1h0.7c0.1,0,0.2,0,0.2,0.1
	c0.1,0.1,0.1,0.1,0.1,0.2L49.4,137.7z"/>
<path class="st12" d="M70.4,144.4c-0.4,0.4-0.9,0.8-1.4,1c-0.5,0.2-1.1,0.4-1.7,0.4c-0.4,0-0.8-0.1-1.2-0.2
	c-0.4-0.1-0.8-0.3-1.1-0.5c-0.3-0.2-0.6-0.5-0.9-0.7c-0.3-0.3-0.5-0.6-0.7-0.9c-0.2-0.3-0.4-0.7-0.5-1.1c-0.1-0.4-0.2-0.8-0.2-1.2
	c0-0.4,0.1-0.8,0.2-1.2c0.4-1.6,1.7-2.8,3.2-3.2c0.4-0.1,0.8-0.2,1.2-0.2c0.6,0,1.2,0.1,1.7,0.4c0.5,0.2,1,0.6,1.4,1V137
	c0-0.2,0.1-0.3,0.3-0.3h0.7c0.2,0,0.3,0.1,0.3,0.3v8.3c0,0.1,0,0.2-0.1,0.2c-0.1,0.1-0.1,0.1-0.2,0.1h-0.7c-0.1,0-0.2,0-0.2-0.1
	c-0.1-0.1-0.1-0.1-0.1-0.2L70.4,144.4z M70.5,141.1c0-0.4-0.1-0.9-0.3-1.2c-0.2-0.4-0.4-0.7-0.7-1c-0.3-0.3-0.6-0.5-1-0.7
	c-0.4-0.2-0.8-0.3-1.2-0.3c-0.4,0-0.8,0.1-1.2,0.3c-0.4,0.2-0.7,0.4-1,0.7c-0.3,0.3-0.5,0.6-0.7,1c-0.2,0.4-0.2,0.8-0.2,1.2
	c0,0.4,0.1,0.9,0.2,1.3c0.2,0.4,0.4,0.7,0.7,1.1c0.3,0.3,0.6,0.6,1,0.7c0.4,0.2,0.8,0.3,1.2,0.3c0.4,0,0.9-0.1,1.2-0.3
	c0.8-0.4,1.4-1,1.7-1.8C70.4,142,70.5,141.6,70.5,141.1L70.5,141.1z"/>
<path class="st12" d="M85.8,145.6c-0.1,0-0.3-0.1-0.3-0.2c0,0,0-0.1,0-0.1v-0.9c-0.4,0.4-0.9,0.8-1.4,1c-0.5,0.2-1.1,0.4-1.7,0.4
	c-0.4,0-0.8-0.1-1.2-0.2c-0.8-0.2-1.4-0.6-2-1.2c-0.3-0.3-0.5-0.6-0.7-0.9c-0.2-0.3-0.4-0.7-0.5-1.1c-0.1-0.4-0.2-0.8-0.2-1.2
	c0-0.4,0.1-0.8,0.2-1.2c0.1-0.4,0.3-0.8,0.5-1.1c0.4-0.7,1-1.2,1.7-1.7c0.3-0.2,0.7-0.4,1.1-0.5c0.4-0.1,0.8-0.2,1.2-0.2
	c0.6,0,1.2,0.1,1.7,0.3c0.5,0.2,1,0.6,1.4,1v-3.5c0-0.1,0-0.2,0.1-0.2c0.1-0.1,0.1-0.1,0.2-0.1h0.7c0.1,0,0.2,0,0.2,0.1
	c0.1,0.1,0.1,0.1,0.1,0.2v10.9c0,0.2-0.1,0.3-0.3,0.3L85.8,145.6z M85.6,141.2c0-0.4-0.1-0.9-0.2-1.3c-0.2-0.4-0.4-0.7-0.7-1.1
	c-0.3-0.3-0.6-0.5-1-0.7c-0.8-0.4-1.7-0.4-2.5,0c-0.4,0.2-0.7,0.4-1,0.7c-0.3,0.3-0.5,0.7-0.7,1.1c-0.2,0.4-0.3,0.8-0.2,1.3
	c0,0.4,0.1,0.9,0.2,1.3c0.2,0.4,0.4,0.7,0.7,1c0.3,0.3,0.6,0.5,1,0.7c0.8,0.4,1.7,0.4,2.5,0c0.4-0.2,0.7-0.4,1-0.7
	c0.3-0.3,0.5-0.6,0.7-1C85.5,142,85.6,141.6,85.6,141.2z"/>
<path class="st12" d="M95.2,143.6c0,0,0.1-0.1,0.1-0.1c0,0,0.1-0.1,0.2-0.1c0.1,0,0.2,0.1,0.2,0.1l0.2,0.3l0.1,0.2l0.1,0.1
	c0,0,0,0.1,0,0.1c0,0,0,0.1,0,0.1c0,0.1,0,0.1-0.1,0.2l-0.2,0.2c-0.2,0.2-0.4,0.3-0.6,0.4c-0.2,0.1-0.4,0.2-0.7,0.3
	c-0.2,0.1-0.5,0.2-0.8,0.2c-0.7,0.1-1.3,0.1-2-0.1c-0.4-0.1-0.7-0.3-1.1-0.5c-0.3-0.2-0.7-0.5-0.9-0.7c-0.6-0.6-1-1.2-1.2-2
	c-0.1-0.4-0.2-0.8-0.2-1.2c0-0.4,0-0.8,0.2-1.2c0.1-0.4,0.3-0.8,0.4-1.1c0.2-0.3,0.4-0.7,0.7-0.9c0.3-0.3,0.6-0.5,0.9-0.7
	c0.7-0.4,1.5-0.6,2.4-0.6c0.3,0,0.7,0,1,0.1c0.7,0.2,1.3,0.5,1.9,0.9c0.3,0.2,0.5,0.5,0.7,0.8c0.3,0.4,0.5,0.9,0.7,1.4
	c0.1,0.6,0.2,1.2,0.2,1.8c0,0.2-0.1,0.3-0.3,0.3h-7.3c0.1,0.4,0.2,0.7,0.4,1c0.2,0.3,0.4,0.6,0.7,0.9c0.3,0.2,0.6,0.4,0.9,0.6
	c0.3,0.1,0.7,0.2,1.1,0.2c0.2,0,0.5,0,0.7-0.1c0.2,0,0.4-0.1,0.6-0.2c0.2-0.1,0.3-0.2,0.5-0.3L95.2,143.6L95.2,143.6z M91.4,138.4
	c-0.4,0.2-0.7,0.5-0.9,0.9c-0.3,0.4-0.4,0.8-0.5,1.2h6.3c-0.1-0.4-0.2-0.7-0.4-1c-0.2-0.3-0.4-0.6-0.7-0.8c-0.6-0.5-1.3-0.7-2.1-0.7
	C92.5,137.9,91.9,138.1,91.4,138.4L91.4,138.4z"/>
<path class="st12" d="M110,143.6l0.1-0.1l0.1-0.1c0,0,0.1,0,0.1,0c0.1,0,0.1,0.1,0.1,0.1l0.2,0.3c0,0.1,0.1,0.1,0.1,0.2l0.1,0.1
	c0,0,0,0.1,0.1,0.1c0,0,0,0.1,0,0.1c0,0.1,0,0.1-0.1,0.1c0,0.1-0.1,0.1-0.2,0.2c-0.2,0.2-0.4,0.3-0.6,0.4c-0.2,0.1-0.4,0.2-0.7,0.3
	c-0.2,0.1-0.5,0.2-0.8,0.2c-0.7,0.1-1.3,0.1-2-0.1c-0.4-0.1-0.7-0.3-1.1-0.5c-0.3-0.2-0.7-0.4-0.9-0.7c-0.3-0.3-0.5-0.6-0.7-0.9
	c-0.2-0.3-0.4-0.7-0.5-1.1c-0.2-0.8-0.2-1.6,0-2.4c0.1-0.4,0.3-0.8,0.5-1.1c0.2-0.3,0.4-0.7,0.7-0.9c0.3-0.3,0.6-0.5,0.9-0.7
	c0.3-0.2,0.7-0.4,1.1-0.5c0.4-0.1,0.8-0.2,1.2-0.2c0.3,0,0.5,0,0.8,0.1c0.3,0,0.5,0.1,0.8,0.2c0.2,0.1,0.5,0.2,0.7,0.3
	c0.2,0.1,0.4,0.2,0.6,0.4l0.1,0.1c0,0,0.1,0.1,0.1,0.1c0,0,0,0.1,0.1,0.1c0,0.1,0,0.1,0,0.2l-0.5,0.7c-0.1,0.2-0.3,0.2-0.4,0
	c-0.1-0.1-0.3-0.3-0.4-0.4c-0.2-0.1-0.3-0.2-0.5-0.3c-0.2-0.1-0.4-0.1-0.6-0.2c-0.2,0-0.4-0.1-0.6-0.1c-0.4,0-0.8,0.1-1.2,0.3
	c-0.4,0.2-0.7,0.4-1,0.7c-0.3,0.3-0.5,0.7-0.7,1.1c-0.2,0.4-0.3,0.8-0.3,1.3c0,0.4,0.1,0.9,0.3,1.3c0.2,0.4,0.4,0.7,0.7,1.1
	c0.3,0.3,0.6,0.5,1,0.7c0.4,0.2,0.8,0.3,1.2,0.3c0.2,0,0.5,0,0.7-0.1c0.2,0,0.4-0.1,0.6-0.2c0.2-0.1,0.3-0.2,0.5-0.3
	C109.8,143.8,109.9,143.7,110,143.6z"/>
<path class="st12" d="M120,144.4c-0.4,0.4-0.9,0.8-1.4,1c-0.5,0.2-1.1,0.4-1.7,0.4c-0.4,0-0.8-0.1-1.2-0.2c-0.4-0.1-0.8-0.3-1.1-0.5
	c-0.3-0.2-0.6-0.5-0.9-0.7c-0.3-0.3-0.5-0.6-0.7-0.9c-0.6-1.1-0.8-2.3-0.5-3.5c0.1-0.4,0.3-0.8,0.5-1.1c0.4-0.7,1-1.2,1.7-1.6
	c0.3-0.2,0.7-0.4,1.1-0.5c0.4-0.1,0.8-0.2,1.2-0.2c0.6,0,1.2,0.1,1.7,0.3c0.5,0.2,1,0.6,1.4,1v-0.8c0-0.2,0.1-0.3,0.2-0.3
	c0,0,0,0,0.1,0h0.7c0.2,0,0.3,0.1,0.3,0.3v8.3c0,0.1,0,0.2-0.1,0.2c-0.1,0.1-0.1,0.1-0.2,0.1h-0.7c-0.1,0-0.2,0-0.2-0.1
	c-0.1-0.1-0.1-0.1-0.1-0.2L120,144.4z M120.1,141.1c0-0.4-0.1-0.9-0.2-1.2c-0.3-0.8-0.9-1.4-1.7-1.8c-0.8-0.3-1.7-0.3-2.5,0
	c-0.4,0.2-0.7,0.4-1,0.7c-0.3,0.3-0.5,0.6-0.7,1c-0.2,0.4-0.3,0.8-0.2,1.2c0,0.4,0.1,0.9,0.2,1.3c0.2,0.4,0.4,0.8,0.7,1.1
	c0.3,0.3,0.6,0.6,1,0.7c0.8,0.4,1.7,0.4,2.5,0c0.4-0.2,0.7-0.4,1-0.7c0.3-0.3,0.5-0.7,0.7-1.1C120,142,120,141.5,120.1,141.1
	L120.1,141.1z"/>
<path class="st12" d="M124.7,145.3c0,0.2-0.1,0.3-0.3,0.3h-0.7c-0.2,0-0.3-0.1-0.3-0.3v-10.9c0-0.1,0-0.2,0.1-0.2
	c0.1-0.1,0.1-0.1,0.2-0.1h0.7c0.1,0,0.2,0,0.2,0.1c0.1,0.1,0.1,0.1,0.1,0.2L124.7,145.3z"/>
<path class="st12" d="M126.6,141.2c0-0.6,0.1-1.2,0.4-1.8c0.2-0.5,0.6-1,1-1.5c0.4-0.4,0.9-0.8,1.5-1c0.6-0.2,1.2-0.4,1.8-0.4
	c0.4,0,0.8,0.1,1.2,0.2c0.4,0.1,0.8,0.3,1.1,0.5c0.3,0.2,0.6,0.5,0.9,0.7c0.3,0.3,0.5,0.6,0.7,0.9c0.6,1.1,0.8,2.3,0.5,3.5
	c-0.1,0.4-0.3,0.8-0.5,1.1c-0.6,1-1.6,1.8-2.8,2.1c-0.4,0.1-0.8,0.2-1.2,0.2c-0.8,0-1.6-0.2-2.3-0.6c-0.7-0.4-1.2-1-1.7-1.6
	c-0.2-0.3-0.4-0.7-0.5-1.1C126.6,142,126.6,141.6,126.6,141.2z M128,141.2c0,0.4,0.1,0.9,0.2,1.3c0.2,0.4,0.4,0.7,0.7,1
	c0.3,0.3,0.6,0.5,1,0.7c0.4,0.2,0.8,0.3,1.2,0.3c0.4,0,0.9-0.1,1.2-0.3c0.4-0.2,0.7-0.4,1-0.7c0.3-0.3,0.5-0.6,0.7-1
	c0.2-0.4,0.3-0.8,0.2-1.3c0-0.4-0.1-0.9-0.2-1.3c-0.2-0.4-0.4-0.8-0.7-1.1c-0.3-0.3-0.6-0.6-1-0.7c-0.4-0.2-0.8-0.3-1.2-0.3
	c-0.4,0-0.9,0.1-1.2,0.3c-0.4,0.2-0.7,0.4-1,0.7c-0.3,0.3-0.5,0.7-0.7,1.1C128.1,140.3,128,140.7,128,141.2L128,141.2z"/>
<path class="st12" d="M138.9,137.6c0.1-0.1,0.1-0.2,0.2-0.3c0.1-0.1,0.2-0.2,0.4-0.4c0.2-0.1,0.3-0.2,0.5-0.3
	c0.2-0.1,0.4-0.1,0.6-0.1c0.2,0,0.5,0,0.7,0c0.2,0,0.4,0.1,0.6,0.1c0.2,0.1,0.4,0.1,0.5,0.2c0.2,0.1,0.4,0.2,0.5,0.3l0.2,0.2
	c0.1,0.1,0.1,0.1,0.1,0.2c0,0,0,0.1,0,0.1l-0.4,0.6c0,0.1-0.1,0.1-0.2,0.1c0,0-0.1,0-0.1,0l-0.1-0.1c-0.3-0.2-0.5-0.3-0.9-0.4
	c-0.3-0.1-0.6-0.1-0.9-0.1c-0.2,0-0.5,0-0.7,0.1c-0.2,0.1-0.4,0.2-0.6,0.4c-0.2,0.2-0.3,0.4-0.4,0.6c-0.1,0.3-0.2,0.5-0.1,0.8v5.5
	c0,0.1-0.1,0.3-0.2,0.3c0,0-0.1,0-0.1,0h-0.7c-0.2,0-0.3-0.1-0.3-0.3V137c0-0.1,0-0.2,0.1-0.2c0.1-0.1,0.1-0.1,0.2-0.1h0.7
	c0.1,0,0.2,0,0.2,0.1c0.1,0.1,0.1,0.1,0.1,0.2L138.9,137.6z"/>
<path class="st12" d="M146.2,135.1c0,0.2-0.1,0.3-0.2,0.3c0,0,0,0-0.1,0h-0.7c-0.2,0-0.3-0.1-0.3-0.3v-0.7c0-0.1,0-0.2,0.1-0.2
	c0.1-0.1,0.1-0.1,0.2-0.1h0.7c0.1,0,0.2,0,0.2,0.1c0.1,0.1,0.1,0.1,0.1,0.2V135.1z M146.2,145.3c0,0.2-0.1,0.3-0.2,0.3
	c0,0,0,0-0.1,0h-0.7c-0.2,0-0.3-0.1-0.3-0.3V137c0-0.1,0-0.2,0.1-0.2c0.1-0.1,0.1-0.1,0.2-0.1h0.7c0.1,0,0.2,0,0.2,0.1
	c0.1,0.1,0.1,0.1,0.1,0.2V145.3z"/>
<path class="st12" d="M155.8,144.4c-0.4,0.4-0.9,0.8-1.4,1c-0.5,0.2-1.1,0.4-1.7,0.4c-0.4,0-0.8-0.1-1.2-0.2
	c-0.4-0.1-0.8-0.3-1.1-0.5c-0.3-0.2-0.6-0.5-0.9-0.7c-0.3-0.3-0.5-0.6-0.7-0.9c-0.6-1.1-0.8-2.3-0.5-3.5c0.1-0.4,0.3-0.8,0.5-1.1
	c0.4-0.7,1-1.2,1.6-1.6c0.3-0.2,0.7-0.4,1.1-0.5c0.4-0.1,0.8-0.2,1.2-0.2c0.6,0,1.2,0.1,1.7,0.3c0.5,0.2,1,0.6,1.4,1v-0.8
	c0-0.2,0.1-0.3,0.2-0.3c0,0,0,0,0.1,0h0.7c0.2,0,0.3,0.1,0.3,0.3v8.3c0,0.1,0,0.2-0.1,0.2c-0.1,0.1-0.1,0.1-0.2,0.1h-0.7
	c-0.1,0-0.2,0-0.2-0.1c-0.1-0.1-0.1-0.1-0.1-0.2L155.8,144.4z M155.8,141.1c0-0.4-0.1-0.9-0.2-1.2c-0.3-0.8-0.9-1.4-1.7-1.8
	c-0.8-0.3-1.7-0.3-2.5,0c-0.4,0.2-0.7,0.4-1,0.7c-0.3,0.3-0.5,0.6-0.7,1c-0.2,0.4-0.3,0.8-0.2,1.2c0,0.4,0.1,0.9,0.2,1.3
	c0.2,0.4,0.4,0.8,0.7,1.1c0.3,0.3,0.6,0.6,1,0.7c0.8,0.4,1.7,0.4,2.5,0c0.4-0.2,0.7-0.4,1-0.7c0.3-0.3,0.5-0.7,0.7-1.1
	C155.7,142,155.8,141.5,155.8,141.1L155.8,141.1z"/>
<path class="st12" d="M158.4,143.9c0-0.1,0-0.1,0-0.2c0,0,0-0.1,0-0.1c0,0,0-0.1,0.1-0.1l0.1-0.1l0.7-0.3c0.1-0.1,0.2-0.1,0.3,0
	c0.1,0.1,0.1,0.1,0.2,0.2c0.1,0.2,0.2,0.3,0.3,0.5c0.1,0.1,0.3,0.3,0.5,0.3c0.2,0.1,0.4,0.2,0.5,0.2c0.2,0,0.3,0.1,0.5,0.1
	c0.2,0,0.4,0,0.6-0.1c0.2-0.1,0.4-0.1,0.6-0.2c0.2-0.1,0.4-0.2,0.5-0.4c0.2-0.4,0.2-0.8,0-1.2c-0.1-0.2-0.3-0.3-0.5-0.4
	c-0.2-0.1-0.4-0.2-0.6-0.2l-0.7-0.2c-0.4-0.1-0.8-0.2-1.1-0.4c-0.3-0.1-0.6-0.3-0.8-0.6c-0.2-0.2-0.4-0.5-0.5-0.7
	c-0.1-0.3-0.2-0.6-0.2-0.9c0-0.3,0.1-0.7,0.2-1c0.1-0.3,0.4-0.6,0.6-0.8c0.3-0.2,0.6-0.4,0.9-0.5c0.4-0.1,0.8-0.2,1.2-0.2
	c0.3,0,0.6,0,0.9,0.1c0.2,0.1,0.5,0.2,0.7,0.3c0.2,0.1,0.4,0.3,0.6,0.5c0.2,0.2,0.3,0.4,0.5,0.6c0,0.1,0.1,0.2,0.1,0.2
	c0,0.1-0.1,0.2-0.1,0.2l-0.6,0.4c-0.1,0.1-0.2,0.1-0.2,0.1c-0.1,0-0.1-0.1-0.2-0.2l-0.3-0.4c-0.1-0.1-0.2-0.2-0.4-0.3
	c-0.1-0.1-0.3-0.2-0.4-0.2c-0.2-0.1-0.4-0.1-0.6-0.1c-0.2,0-0.4,0-0.6,0.1c-0.2,0-0.4,0.1-0.5,0.2c-0.2,0.1-0.3,0.2-0.4,0.4
	c-0.1,0.2-0.1,0.4-0.1,0.6c0,0.2,0.1,0.3,0.2,0.4c0.1,0.1,0.3,0.3,0.4,0.4c0.2,0.1,0.4,0.2,0.6,0.3c0.2,0.1,0.4,0.1,0.6,0.2
	c0.4,0.1,0.8,0.2,1.2,0.4c0.3,0.1,0.7,0.3,0.9,0.6c0.3,0.2,0.5,0.5,0.6,0.8c0.1,0.3,0.2,0.7,0.2,1c0,0.4-0.1,0.8-0.2,1.1
	c-0.2,0.3-0.4,0.6-0.7,0.8c-0.3,0.2-0.6,0.4-1,0.5c-0.4,0.1-0.9,0.2-1.3,0.2c-0.3,0-0.6,0-0.9-0.1c-0.3-0.1-0.6-0.2-0.9-0.3
	c-0.3-0.2-0.5-0.3-0.8-0.6C158.8,144.5,158.6,144.2,158.4,143.9z"/>
<linearGradient id="SVGID_00000129189596437131474740000007447694269864097462_" gradientUnits="userSpaceOnUse" x1="18.71" y1="42.6553" x2="18.71" y2="12.995" gradientTransform="matrix(1 0 0 -1 0 200.2026)">
	<stop  offset="0" style="stop-color:#0CFCFE"/>
	<stop  offset="1" style="stop-color:#2196F3"/>
</linearGradient>
<path style="fill:url(#SVGID_00000129189596437131474740000007447694269864097462_);" d="M28.6,182.5v4.7H9.4v-4.1l10.4-11.2
	c1.5-1.7,3-3.5,3-5.4c0-2.3-1.9-3.9-4.5-3.9c-2.5,0.1-4.8,1.4-6.1,3.6l-3.5-3.2c2.2-3.3,5.9-5.4,9.9-5.3c5.5,0,9.4,3.6,9.4,8.6
	c0,3.5-1.8,6-3.8,8.1l-7.8,8.2H28.6z"/>
<linearGradient id="SVGID_00000133517870514905201240000005555587059711489695_" gradientUnits="userSpaceOnUse" x1="42.3" y1="42.625" x2="42.3" y2="12.485" gradientTransform="matrix(1 0 0 -1 0 200.2026)">
	<stop  offset="0" style="stop-color:#0CFCFE"/>
	<stop  offset="1" style="stop-color:#2196F3"/>
</linearGradient>
<path style="fill:url(#SVGID_00000133517870514905201240000005555587059711489695_);" d="M53.2,179.1c0,4.9-4.7,8.6-10.9,8.6
	s-10.9-3.7-10.9-8.6c0-3,1.9-5.6,4.8-7.1c-2.5-1.2-4.2-3.7-4.2-6.5c0-4.5,4.3-8,10.3-8s10.3,3.5,10.3,8c-0.1,2.8-1.7,5.3-4.2,6.5
	C51.3,173.6,53.2,176.1,53.2,179.1z M48,178.7c0-2.4-2.5-4.2-5.7-4.2s-5.7,1.8-5.7,4.2s2.5,4.2,5.7,4.2S48,181.1,48,178.7z
	 M37.2,166.1c0,2.1,2.2,3.7,5.1,3.7s5.1-1.6,5.1-3.7s-2.2-3.7-5.1-3.7S37.2,164,37.2,166.1z"/>
<linearGradient id="SVGID_00000025423316646973863900000010866803942816688042_" gradientUnits="userSpaceOnUse" x1="67.99" y1="42.655" x2="67.99" y2="12.495" gradientTransform="matrix(1 0 0 -1 0 200.2026)">
	<stop  offset="0" style="stop-color:#0CFCFE"/>
	<stop  offset="1" style="stop-color:#2196F3"/>
</linearGradient>
<path style="fill:url(#SVGID_00000025423316646973863900000010866803942816688042_);" d="M56.6,172.6c0-8.9,4.7-15.1,11.4-15.1
	s11.4,6.2,11.4,15.1s-4.7,15.1-11.4,15.1S56.6,181.5,56.6,172.6z M74.2,172.6c0-6.1-2.6-10.2-6.2-10.2s-6.2,4.2-6.2,10.2
	s2.6,10.2,6.2,10.2S74.2,178.7,74.2,172.6z"/>
<linearGradient id="SVGID_00000012474888833812146520000012323424118733749416_" gradientUnits="userSpaceOnUse" x1="104.265" y1="43.415" x2="104.265" y2="13.005" gradientTransform="matrix(1 0 0 -1 0 200.2026)">
	<stop  offset="0" style="stop-color:#0CFCFE"/>
	<stop  offset="1" style="stop-color:#2196F3"/>
</linearGradient>
<path style="fill:url(#SVGID_00000012474888833812146520000012323424118733749416_);" d="M101.2,179.3l-2.2,2.4v5.5h-4.8v-30.4H99
	v18.6l8.9-9.7h6.1l-9.5,10l9.8,11.5H108L101.2,179.3z"/>
<linearGradient id="SVGID_00000064348549130633095340000004686007195697729452_" gradientUnits="userSpaceOnUse" x1="124.9596" y1="35.0515" x2="124.9596" y2="12.4784" gradientTransform="matrix(1 0 0 -1 0 200.2026)">
	<stop  offset="0" style="stop-color:#0CFCFE"/>
	<stop  offset="1" style="stop-color:#2196F3"/>
</linearGradient>
<path style="fill:url(#SVGID_00000064348549130633095340000004686007195697729452_);" d="M114.2,176.4c-0.1-6.2,4.9-11.2,11-11.3
	c0.2,0,0.3,0,0.5,0c4-0.1,7.8,1.9,9.9,5.4l-4.1,2.5c-1.9-3.2-6-4.3-9.2-2.4c-3.2,1.9-4.3,6-2.4,9.2c1.9,3.2,6,4.3,9.2,2.4
	c1-0.6,1.8-1.4,2.4-2.4l4.1,2.5c-2.1,3.4-5.9,5.5-9.9,5.4c-6.2,0.2-11.3-4.6-11.5-10.8C114.2,176.8,114.2,176.6,114.2,176.4z"/>
<linearGradient id="SVGID_00000005960323368969894100000001826161223478309769_" gradientUnits="userSpaceOnUse" x1="149.4" y1="35.0464" x2="149.4" y2="12.4836" gradientTransform="matrix(1 0 0 -1 0 200.2026)">
	<stop  offset="0" style="stop-color:#0CFCFE"/>
	<stop  offset="1" style="stop-color:#2196F3"/>
</linearGradient>
<path style="fill:url(#SVGID_00000005960323368969894100000001826161223478309769_);" d="M160.9,165.7v21.5h-4.7v-3.1
	c-1.8,2.3-4.6,3.6-7.6,3.6c-6.1,0-10.6-4.9-10.6-11.3s4.5-11.3,10.6-11.3c2.9-0.1,5.7,1.3,7.6,3.6v-3H160.9z M156.1,176.5
	c0-3.7-3-6.6-6.7-6.6s-6.6,3-6.6,6.7c0,3.7,3,6.6,6.7,6.6c3.6,0.1,6.6-2.8,6.6-6.4C156.1,176.7,156.1,176.5,156.1,176.5L156.1,176.5
	z"/>
<linearGradient id="SVGID_00000006689040109346427970000003563241275727636139_" gradientUnits="userSpaceOnUse" x1="168.835" y1="43.415" x2="168.835" y2="12.995" gradientTransform="matrix(1 0 0 -1 0 200.2026)">
	<stop  offset="0" style="stop-color:#0CFCFE"/>
	<stop  offset="1" style="stop-color:#2196F3"/>
</linearGradient>
<path style="fill:url(#SVGID_00000006689040109346427970000003563241275727636139_);" d="M166.5,156.8h4.7v30.4h-4.7V156.8z"/>
</svg>
