<?xml version="1.0"?>
<svg xmlns="http://www.w3.org/2000/svg" xmlns:xlink="http://www.w3.org/1999/xlink" xmlns:svgjs="http://svgjs.com/svgjs" version="1.1" width="512" height="512" x="0" y="0" viewBox="0 0 512 512" style="enable-background:new 0 0 512 512" xml:space="preserve" class=""><g><linearGradient xmlns="http://www.w3.org/2000/svg" id="linear-gradient" gradientUnits="userSpaceOnUse" x2="512" y1="256" y2="256"><stop stop-opacity="1" stop-color="#0cfcfe" offset="0"/><stop stop-opacity="1" stop-color="#2196f3" offset="1"/></linearGradient><path xmlns="http://www.w3.org/2000/svg" d="m512 416.994a21.847 21.847 0 0 1 -21.821 21.821h-468.358a21.821 21.821 0 0 1 0-43.642h468.358a21.847 21.847 0 0 1 21.821 21.821zm-21.821-182.816h-468.358a21.822 21.822 0 0 0 0 43.643h468.358a21.822 21.822 0 0 0 0-43.643zm-468.358-117.351h468.358a21.821 21.821 0 1 0 0-43.642h-468.358a21.821 21.821 0 0 0 0 43.642z" fill="url(#linear-gradient)" data-original="url(#linear-gradient)" class=""/></g></svg>
