<?xml version="1.0" encoding="UTF-8"?>
<svg data-bbox="7.93 11.121 64.097 57.719" viewBox="0 0 80 80" xmlns="http://www.w3.org/2000/svg" data-type="ugc">
    <g>
        <defs>
            <linearGradient gradientUnits="userSpaceOnUse" y2="40" x2="72.07" y1="40" x1="7.93" id="c2efc141-a335-41a1-be71-413244af1092">
                <stop stop-color="#0cfcfe" offset="0"/>
                <stop stop-color="#2196f3" offset="1"/>
            </linearGradient>
        </defs>
        <path d="M7.93 38.13a1 1 0 0 0 .07-.24 5.33 5.33 0 0 1 5.43-4.3h31.69A3.22 3.22 0 0 1 48.54 37v3.87a3.21 3.21 0 0 1-3.41 3.38H13.49a3.21 3.21 0 0 0-.48 6.4 2.4 2.4 0 0 1 .77.16A1 1 0 0 1 14.3 52a1.08 1.08 0 0 1-1.16.8 5.39 5.39 0 0 1-5.05-4 4.66 4.66 0 0 0-.16-.49Zm34.2 4h3c.91 0 1.28-.39 1.29-1.31v-3.74c0-1-.37-1.35-1.38-1.35H13.43a3.12 3.12 0 0 0-3.31 2.76c-.12 1.51 0 3 0 4.7a6.28 6.28 0 0 1 4.24-1.07v-2.88c0-.94.4-1.39 1.08-1.37s1.05.5 1.05 1.35v2.87h4.28v-1.9c0-.78.42-1.26 1.07-1.25s1.05.48 1.06 1.26 0 1.27 0 1.9h4.28v-3a1.08 1.08 0 0 1 .82-1.19 1.07 1.07 0 0 1 1.34 1.14v3h4.28v-1.92c0-.63.41-1.21 1-1.22s1.09.46 1.1 1.23 0 1.27 0 1.92H40v-2.68c0-1 .37-1.53 1.08-1.51s1 .51 1.06 1.48Zm-8.42 26.71a12.58 12.58 0 0 0 2.29-.57c1.22-.55 2.38-1.23 3.55-1.89.26-.14.42-.33.74-.07A11 11 0 0 0 46 68.74a.39.39 0 0 1 .16.1h2.54l.83-.2a14.32 14.32 0 0 0 8.13-5.36c.51-.61.52-1.22 0-1.65s-1.1-.32-1.68.29a29.51 29.51 0 0 1-2.14 2.19A9.59 9.59 0 0 1 48 66.68a9.17 9.17 0 0 1-6.89-2.51c-.92-.84-1.25-.84-2.18 0a9.45 9.45 0 0 1-.77.65c-3.69 2.75-8.36 2.45-12.06-.76a20.93 20.93 0 0 1-4.93-6.65 34.92 34.92 0 0 1-3.17-10 1.07 1.07 0 0 0-1.25-1 1.1 1.1 0 0 0-.86 1.3 35.3 35.3 0 0 0 4.56 12.86 17.3 17.3 0 0 0 7.19 7 30.92 30.92 0 0 0 3.71 1.21Zm17-9.62H35.05a3.24 3.24 0 0 1-3.61-3.57V52a3.22 3.22 0 0 1 3.48-3.5H66.5a3.19 3.19 0 0 0 3.39-3.38 3.11 3.11 0 0 0-2.28-2.89c-.66-.23-1-.68-.89-1.23a1.07 1.07 0 0 1 1.4-.84 5.26 5.26 0 0 1 3.88 4.9c0 3 .06 6 0 9.08a5.28 5.28 0 0 1-5.39 5.08Zm-12.86-2.13v-3.14a1.06 1.06 0 0 1 1.26-1.11A1.09 1.09 0 0 1 40 54v3.07h4.27V55.9c0-1.49.27-2 1.06-2s1.08.51 1.08 2V57h4.27v-2.82c0-.86.38-1.34 1-1.36s1.1.49 1.1 1.36V57H57a1.2 1.2 0 0 0 0-.17V55.4c0-1 .37-1.52 1.09-1.51s1 .51 1 1.55v1.65h4.41v-3.14a1.07 1.07 0 0 1 1.2-1.12 1.09 1.09 0 0 1 .93 1.17v3.07h.89a3.23 3.23 0 0 0 3.39-3.41v-4.05a6.58 6.58 0 0 1-4.12 1.08H34.8c-.8 0-1.21.4-1.22 1.18v4.07a1.05 1.05 0 0 0 1.11 1.15c1.02.01 2.04 0 3.16 0ZM36.67 23c.17-1.07.26-2.13.53-3.16a11.74 11.74 0 0 1 11.16-8.71 3.21 3.21 0 1 1 .14 6.41 5.36 5.36 0 0 0-5.3 5.13v.29c1.11-.3 2.18-.7 3.28-.89C52.75 21 59.57 23.23 62.68 31a30.74 30.74 0 0 1 1.82 13.1c0 .4 0 .8-.08 1.2a1.09 1.09 0 0 1-1.14 1.07 1.07 1.07 0 0 1-1-1.19c0-2.08.1-4.18 0-6.26A21.59 21.59 0 0 0 60 30.31c-3.8-7.43-13.71-8.07-18.93-3.31-1 .87-1.25.86-2.2 0C34 22.58 25 22.68 20.69 29.1c-.33.5-.6 1-.88 1.56-.38.71-.92 1-1.51.68a1.06 1.06 0 0 1-.42-1.59 13.53 13.53 0 0 1 12.34-7.91A14.22 14.22 0 0 1 36.46 23a1.49 1.49 0 0 0 .21 0Zm2.25 0c0 .32-.1.68 0 .92a3.1 3.1 0 0 0 .87 1c.1.09.44-.12.66-.2.72-.28.58-.9.58-1.47a7.43 7.43 0 0 1 3.73-6.84 7.29 7.29 0 0 1 3.55-1c.8 0 1.26-.44 1.26-1.08s-.5-1.07-1.33-1.06a4.92 4.92 0 0 0-.67 0 9.62 9.62 0 0 0-8.65 9.8Z" fill="url(#c2efc141-a335-41a1-be71-413244af1092)"/>
    </g>
</svg>
