<?xml version="1.0" encoding="UTF-8"?>
<svg data-bbox="13.56 13.442 52.907 52.908" viewBox="0 0 80 80" xmlns="http://www.w3.org/2000/svg" data-type="ugc">
    <g>
        <defs>
            <linearGradient gradientUnits="userSpaceOnUse" y2="40" x2="66.44" y1="40" x1="13.56" id="a51463ed-3df1-4b26-bfc1-680d103fc1ac">
                <stop stop-color="#0cfcfe" offset="0"/>
                <stop stop-color="#2196f3" offset="1"/>
            </linearGradient>
        </defs>
        <path d="M13.56 31.22c.24-.27.45-.56.7-.81 1.52-1.52 3-3 4.55-4.57a1.27 1.27 0 0 0 .32-.75V14.97c0-1.09.32-1.4 1.42-1.4h14.36a4.51 4.51 0 0 1 .52 0 1.05 1.05 0 0 1 .92 1 1 1 0 0 1-.91 1 6.77 6.77 0 0 1-.78 0H21.2v20.68a1.15 1.15 0 0 0 .26.72q9.14 9.16 18.28 18.29l.18.18.4-.38 18-18a1.39 1.39 0 0 0 .46-1.07V15.55h-14c-.76 0-1.2-.34-1.24-1a1 1 0 0 1 .88-1.1 3.53 3.53 0 0 1 .46 0h14.61c1 0 1.36.34 1.36 1.36v10.06a1.14 1.14 0 0 0 .37.9c1.57 1.55 3.11 3.12 4.68 4.66a1.75 1.75 0 0 1 .55 1.33v29a5.17 5.17 0 0 1-4.37 5.53l-.07.06H18A5.28 5.28 0 0 1 13.6 62Zm48.92 33L48.32 50c-.07.08-.18.24-.31.38l-7 7c-.83.82-1.26.83-2.08 0l-7-7a1.86 1.86 0 0 1-.26-.35L17.52 64.2a15.44 15.44 0 0 0 1.54.16h42a10.27 10.27 0 0 0 1.42-.19Zm1.67-1.57a11.18 11.18 0 0 0 .2-1.49V34.58a2.42 2.42 0 0 0 0-.26L50.08 48.53Zm-34.32-14-14.2-14.26v26.77a9.57 9.57 0 0 0 .21 1.42Zm-10.72-20-3 2.94 3 3Zm44.66 2.91-2.87-2.88v5.75Zm-21 4.64c-2.88 2.81-6.84 1.25-8-2.27-.9-2.63-.64-5.11 1.43-7.16a4.68 4.68 0 0 1 6.13-.53l.17.09c0-.17 0-.31.07-.45a1 1 0 0 1 2 .16v8.36c0 1.47 1 2.09 2.31 1.46a3.14 3.14 0 0 0 1.52-1.74c2.44-5.69-1.82-10.56-6.22-11.56a9.18 9.18 0 1 0-2.8 18.09h.51a1 1 0 0 1 .94 1.1 1 1 0 0 1-1.09.94 10.7 10.7 0 0 1-3.91-.83A11.23 11.23 0 1 1 51 28.93a9.79 9.79 0 0 1-1.08 6.73A4.51 4.51 0 0 1 46 38.14a3.16 3.16 0 0 1-3-1.61c-.06-.1-.12-.21-.19-.31Zm-.28-5.2a12.25 12.25 0 0 0-.4-1.66 2.64 2.64 0 0 0-2.22-1.91 2.85 2.85 0 0 0-2.69 1.23 4.92 4.92 0 0 0 .4 6.08 2.44 2.44 0 0 0 3.79-.14 5.44 5.44 0 0 0 1.12-3.6Zm-2.55-15.37a1 1 0 1 0 0-2.06 1 1 0 0 0 0 2.06Z" fill="url(#a51463ed-3df1-4b26-bfc1-680d103fc1ac)"/>
    </g>
</svg>
