<?xml version="1.0" encoding="UTF-8"?>
<svg data-bbox="15.431 11 49.144 58" viewBox="0 0 80 80" xmlns="http://www.w3.org/2000/svg" data-type="ugc">
    <g>
        <defs>
            <linearGradient gradientUnits="userSpaceOnUse" y2="40" x2="64.56" y1="40" x1="15.44" id="9ba4eb8f-9078-4fad-9d33-1ea4833e52ac">
                <stop stop-color="#0cfcfe" offset="0"/>
                <stop stop-color="#2196f3" offset="1"/>
            </linearGradient>
        </defs>
        <path d="M52.67 11a8.12 8.12 0 0 1 1.37.63 3.38 3.38 0 0 1 1.46 3v41.7a3.41 3.41 0 0 1-3.6 3.58H19.03a3.39 3.39 0 0 1-3.58-3.59V35.79a2.07 2.07 0 0 1 .09-.66 1.1 1.1 0 0 1 2.07 0 2.86 2.86 0 0 1 .09.83v20.08c0 1.26.34 1.6 1.62 1.6h32.3c1.26 0 1.61-.35 1.61-1.62V14.91c0-1.26-.36-1.61-1.63-1.61H19.31c-1.26 0-1.6.34-1.6 1.61v10.92a1.14 1.14 0 1 1-2.26 0v-11a3.39 3.39 0 0 1 2.69-3.68l.15-.08Zm9.06 58c2.32-.93 2.83-1.7 2.83-4.26V21.77a4.54 4.54 0 0 0 0-.74 1.13 1.13 0 0 0-1.06-.93 1.1 1.1 0 0 0-1.11.86 3.46 3.46 0 0 0-.06.79v43.32c0 1.3-.34 1.63-1.65 1.63H26.14a3.38 3.38 0 0 0-.78.07 1 1 0 0 0-.82.9 1 1 0 0 0 .46 1.08c.12.08.26.14.39.21ZM60 17.2a3.59 3.59 0 0 0-.05-.73 1.1 1.1 0 0 0-2.17 0 3.5 3.5 0 0 0 0 .73v43.35c0 1.3-.34 1.63-1.65 1.63h-30c-1 0-1.57.41-1.56 1.14s.55 1.12 1.58 1.12h30.1c2.48 0 3.84-1.36 3.84-3.85V17.2ZM21.78 31.12c0 1 .41 1.41 1.41 1.41h10.3c1 0 1.41-.41 1.41-1.41v-10.3c0-1-.41-1.41-1.41-1.41h-10.3c-1 0-1.41.41-1.41 1.41v10.3Zm2.29-9.41h8.53v8.53h-8.53Zm24.36 19.76c.82 0 1.31-.4 1.35-1.06s-.48-1.2-1.33-1.2H35.67a1.76 1.76 0 0 0-.6.1 1.05 1.05 0 0 0-.72 1 1 1 0 0 0 .65 1 2.53 2.53 0 0 0 .83.13h12.6Zm0 8.6c.94 0 1.48-.62 1.28-1.43-.14-.54-.59-.83-1.32-.83H35.37a1.12 1.12 0 0 0 0 2.23 3.46 3.46 0 0 0 .56 0h12.53ZM24.2 39.37A1.13 1.13 0 1 0 22.6 41l2 2a1.12 1.12 0 0 0 1.75 0c1.25-1.21 2.48-2.43 3.67-3.68a1.26 1.26 0 0 0 .34-1 1.63 1.63 0 0 0-.71-.92 1.07 1.07 0 0 0-1.27.34l-2.93 3c-.45-.5-.82-.96-1.25-1.37Zm.06 8.7a1.14 1.14 0 0 0-1.74-.13 1.17 1.17 0 0 0 .14 1.71c.61.62 1.22 1.23 1.84 1.84a1.23 1.23 0 0 0 2 0l3.36-3.36a3.56 3.56 0 0 0 .39-.48 1.12 1.12 0 0 0-.18-1.35 1.06 1.06 0 0 0-1.35-.14 3.11 3.11 0 0 0-.52.44l-2.7 2.75c-.45-.47-.83-.89-1.24-1.28Zm16-28.66A1.14 1.14 0 0 0 39 20.54a1.16 1.16 0 0 0 1.24 1.13h7.58c.88 0 1.45-.58 1.32-1.3a1.17 1.17 0 0 0-1.28-1h-3.79c-1.27 0-2.57.03-3.85.04Zm0 5.44a1.12 1.12 0 1 0 0 2.24h7.8a1.13 1.13 0 0 0 1.09-.69 1.12 1.12 0 0 0-1.13-1.56h-3.85c-1.29 0-2.7-.01-4 .01Zm0 5.43A1.13 1.13 0 0 0 39 31.4a1.11 1.11 0 0 0 1.17 1.12h7.81a1.13 1.13 0 1 0 0-2.25h-3.79c-1.26 0-2.7-.01-4.02.01Zm-22.48.78a1.13 1.13 0 0 0-1.1-1.13A1.12 1.12 0 0 0 15.45 31a1.16 1.16 0 0 0 1.1 1.14 1.17 1.17 0 0 0 1.14-1.08Zm3.43 31.13a1.12 1.12 0 1 0 1.11 1.14 1.17 1.17 0 0 0-1.2-1.14Z" fill="url(#9ba4eb8f-9078-4fad-9d33-1ea4833e52ac)"/>
    </g>
</svg>
