<?xml version="1.0" encoding="UTF-8"?>
<svg data-bbox="12.5 4.151 102.7 109.949" viewBox="0 0 125.6 120" xmlns="http://www.w3.org/2000/svg" data-type="ugc">
    <g>
        <path d="M14.2 78.7h4v17.7h-4V78.7z" fill="#ffffff"/>
        <path d="M41.5 78.7v17.7h-4V85L33 93.4h-2.3L26.3 85v11.3h-4V78.7h4.9l4.7 8.7 4.7-8.7h4.9z" fill="#ffffff"/>
        <path d="M56.7 93.3h-7.2l-1.1 3.1h-4.3l6.6-17.7h4.7l6.7 17.7h-4.4l-1-3.1zm-1.3-3.7-2.3-6.5-2.3 6.5h4.6z" fill="#ffffff"/>
        <path d="M81.1 86.2v1.4c0 5.2-3.8 9.1-9 9.1-5.3 0-9.3-3.9-9.3-9.1 0-5.2 4-9.1 9.4-9.1 3.1 0 5.8 1.3 7.4 3.4l-3 2.4c-1-1.2-2.5-2-4.3-2-3 0-5.4 2.3-5.4 5.4s2.3 5.4 5.3 5.4c2.2 0 4-1.3 4.6-3.1h-4.4v-3.5h8.7z" fill="#ffffff"/>
        <path d="M96.4 92.6v3.7H84.3V78.7h12v3.7h-8v3.2h7.2v3.7h-7.2v3.3h8.1z" fill="#ffffff"/>
        <path d="M115.2 78.7v17.7h-4l-7.3-10.8v10.8h-4V78.7h4l7.4 10.8V78.7h3.9z" fill="#ffffff"/>
        <linearGradient gradientTransform="translate(-3.849 -.736)" y2="87.234" x2="71.639" y1="125.634" x1="33.239" gradientUnits="userSpaceOnUse" id="e17392f0-45c9-4b01-856f-9c636400f060">
            <stop offset="0" stop-color="#0cfcfe"/>
            <stop offset="1" stop-color="#2196f3"/>
        </linearGradient>
        <path d="m18.3 112 .8-.8v.8h-.8zm-5.8-8.1v1.8h3.2l1.8-1.8h-5zm34.3 7.9h2.1v-8.1h-2.1v8.1zm-22 .1h2.1v-4h-2.1v4zm34.4-2.2c-.3 0-.6-.2-.8-.4l-3.9-4.6c-.5-.6-1.4-1-2.2-1h-2.1v8.1h2v-6c.3 0 .6.2.8.4l3.9 4.6c.5.6 1.4 1 2.2 1h2.1v-8.1h-2.1l.1 6zm3.4 2.1h2.1v-8.1h-2.1v8.1zm18.3-.1v-1l-.8 1h.8zm2.1-8.1-3.1 3.7h-.1l-3.1-3.7H74l4.8 5.7v2.4l3.3-4 3.4-4.1H83zm-15.1 2.1v-.2h6.6l-1.5-1.8h-5.6l-1.6 1.6v6.5h2.1v-2.4h1.4l1.7-1.8h-3.1v-1.9zm-42.6-1.8h-6.4l-1.9 1.9v6.2l2-2.1v-4.2h4.4l1.9-1.8zm18.2-.1c-1 0-2.4.4-3.1 1.2 0 0-3.3 4.2-4.7 6l-1.4-1.7c.9-.4 1.5-1.3 1.4-2.3v-1.1c0-1.2-1-2.1-2.1-2.1h-7.1l-1.8 1.8h8.9c.2 0 .3.1.3.3v1.5c0 .2-.1.3-.3.3h-4s-.1 0-.1.1l-.6.8-.9 1h3.8l4 4.5 6.2-7.7c.4-.5 1-.5 1.4-.4v2h-1.2l-.7.8-.9 1h2.7v2.2h2.1v-8.1l-1.9-.1z" fill="url(#e17392f0-45c9-4b01-856f-9c636400f060)"/>
        <linearGradient y2="54.737" x2="57.422" y1="4.138" x1="57.422" gradientUnits="userSpaceOnUse" id="a0b5f817-d366-4c2a-aedf-d9a000b4a155">
            <stop offset="0" stop-color="#0cfcfe"/>
            <stop offset="1" stop-color="#2196f3"/>
        </linearGradient>
        <path d="M61.3 54.7c-1.2 0-2.4-.5-3.2-1.6l-1.5-2c-9.3-12.2-9.3-31.3 0-43.4l1.5-2C59.5 4 62 3.6 63.7 5c1.8 1.3 2.1 3.9.7 5.6l-1.5 2c-7.1 9.3-7.1 24.4 0 33.7l1.5 2c1.3 1.8 1 4.3-.7 5.6-.7.6-1.6.8-2.4.8z" fill="url(#a0b5f817-d366-4c2a-aedf-d9a000b4a155)"/>
        <linearGradient y2="54.737" x2="22.352" y1="4.137" x1="22.352" gradientUnits="userSpaceOnUse" id="6169c59a-23db-4d7d-b172-16f00723780e">
            <stop offset="0" stop-color="#0cfcfe"/>
            <stop offset="1" stop-color="#2196f3"/>
        </linearGradient>
        <path d="M18.5 54.7c-.8 0-1.7-.3-2.4-.8-1.8-1.3-2.1-3.9-.7-5.6l1.5-2c7.1-9.3 7.1-24.4 0-33.7l-1.5-2c-1.3-1.8-1-4.3.7-5.6 1.8-1.3 4.3-1 5.6.7l1.5 2c9.3 12.2 9.3 31.3 0 43.4l-1.5 2c-.8 1.1-2 1.6-3.2 1.6z" fill="url(#6169c59a-23db-4d7d-b172-16f00723780e)"/>
    </g>
</svg>
