<?xml version="1.0"?>
<svg xmlns="http://www.w3.org/2000/svg" xmlns:xlink="http://www.w3.org/1999/xlink" xmlns:svgjs="http://svgjs.com/svgjs" version="1.1" width="512" height="512" x="0" y="0" viewBox="0 0 32 32" style="enable-background:new 0 0 512 512" xml:space="preserve" class=""><g><linearGradient xmlns="http://www.w3.org/2000/svg" id="SVGID_1_" gradientUnits="userSpaceOnUse" x1="2" x2="30" y1="16" y2="16"><stop stop-opacity="1" stop-color="#0cfcfe" offset="0.005208333"/><stop stop-opacity="1" stop-color="#2196f3" offset="1"/></linearGradient><g xmlns="http://www.w3.org/2000/svg" id="Layer_49"><path d="m30 16c0 .6-.4 1-1 1h-3.3l-3.7 8.4c-.2.4-.6.6-1 .6h-1c-.4 0-.7-.2-.9-.5l-9.4-17-1.6 7c-.2.9-1 1.5-1.9 1.5h-3.2c-.6 0-1-.4-1-1s.4-1 1-1h3.2l1.8-8.2c.1-.5.5-.8 1-.8h1c.4 0 .7.2.9.5l9.6 17.2 3.4-7.6c.3-.7 1-1.1 1.7-1.1h3.4c.6 0 1 .4 1 1z" fill="url(#SVGID_1_)" data-original="url(#SVGID_1_)"/></g></g></svg>
