<?xml version="1.0" encoding="utf-8"?>
<svg viewBox="0 0 500 500" xmlns="http://www.w3.org/2000/svg">
  <linearGradient id="SVGID_1_" gradientUnits="userSpaceOnUse" x1="100.1" y1="84.0174" x2="133.26" y2="84.0174" gradientTransform="matrix(6.005971, 0, 0, -6.005971, -457.919914, 745.879448)">
    <stop offset="0" style="stop-color:#0CFCFE"/>
    <stop offset="1" style="stop-color:#2196F3"/>
  </linearGradient>
  <path class="st0" d="M 217.149 77.489 L 268.804 77.489 L 268.804 97.306 L 217.149 97.306 L 217.149 77.489 Z M 304.24 107.515 L 181.713 107.515 L 181.713 137.552 L 304.24 137.552 L 304.24 107.515 Z M 261.595 280.489 L 261.595 294.304 L 247.781 294.304 L 261.595 280.489 Z M 235.17 147.761 L 143.279 147.761 L 143.279 180.795 L 202.138 180.795 L 235.17 147.761 Z M 342.077 147.761 L 258.595 147.761 L 224.359 182.59 L 224.359 294.304 L 261.595 257.064 L 261.595 180.795 L 342.675 180.795 L 342.675 147.761 L 342.077 147.761 Z M 268.804 404.816 L 217.149 404.816 L 217.149 384.99 L 268.804 384.99 L 268.804 404.816 Z M 181.713 374.78 L 304.24 374.78 L 304.24 344.753 L 181.115 344.753 L 181.713 374.78 Z M 143.279 334.544 L 342.077 334.544 L 342.077 301.51 L 142.675 301.51 L 143.279 334.544 Z" style="fill: url(#SVGID_1_); filter: none;"/>
</svg>