<?xml version="1.0" encoding="utf-8"?>
<!-- Generator: Adobe Illustrator 25.4.1, SVG Export Plug-In . SVG Version: 6.00 Build 0)  -->
<svg version="1.1" id="Capa_1" xmlns="http://www.w3.org/2000/svg" xmlns:xlink="http://www.w3.org/1999/xlink" x="0px" y="0px"
	 viewBox="0 0 293 75" style="enable-background:new 0 0 293 75;" xml:space="preserve">
<style type="text/css">
	.st0{fill:url(#SVGID_1_);}
	.st1{fill:url(#SVGID_00000008139092397956028660000014775850954494976178_);}
	.st2{fill:url(#SVGID_00000163762085609273969470000012674847757033548471_);}
	.st3{fill:url(#SVGID_00000085939310560890745720000001417875673500683955_);}
	.st4{fill:url(#SVGID_00000147934527267774906980000011480219651422465432_);}
	.st5{fill:url(#SVGID_00000152222048929874762160000000019751379041591693_);}
	.st6{fill:#FFFFFF;}
</style>
<g>
	<g id="Capa_1_00000006689993749566603420000012902692126250466433_">
		
			<linearGradient id="SVGID_1_" gradientUnits="userSpaceOnUse" x1="17.8" y1="70.1674" x2="28.2" y2="70.1674" gradientTransform="matrix(1 0 0 -1 0 76.7874)">
			<stop  offset="0" style="stop-color:#0CFCFE"/>
			<stop  offset="1" style="stop-color:#2196F3"/>
		</linearGradient>
		<path class="st0" d="M17.8,4.6h10.4v4H17.8V4.6z"/>
		
			<linearGradient id="SVGID_00000159451309700468182290000018261932618152977550_" gradientUnits="userSpaceOnUse" x1="10.66" y1="63.1024" x2="35.34" y2="63.1024" gradientTransform="matrix(1 0 0 -1 0 76.7874)">
			<stop  offset="0" style="stop-color:#0CFCFE"/>
			<stop  offset="1" style="stop-color:#2196F3"/>
		</linearGradient>
		
			<rect x="10.7" y="10.7" style="fill:url(#SVGID_00000159451309700468182290000018261932618152977550_);" width="24.7" height="6"/>
		
			<linearGradient id="SVGID_00000073716767617234069350000000915654200663533492_" gradientUnits="userSpaceOnUse" x1="3" y1="43.3074" x2="43" y2="43.3074" gradientTransform="matrix(1 0 0 -1 0 76.7874)">
			<stop  offset="0" style="stop-color:#0CFCFE"/>
			<stop  offset="1" style="stop-color:#2196F3"/>
		</linearGradient>
		<path style="fill:url(#SVGID_00000073716767617234069350000000915654200663533492_);" d="M26.7,45.4v2.8h-2.8L26.7,45.4z
			 M21.4,18.7H3v6.6h11.8L21.4,18.7z M43,18.7H26.2l-6.9,6.9v22.5l7.5-7.5V25.4H43L43,18.7L43,18.7z"/>
		
			<linearGradient id="SVGID_00000075845335178633297990000010656749621643053501_" gradientUnits="userSpaceOnUse" x1="17.8" y1="8.4074" x2="28.2" y2="8.4074" gradientTransform="matrix(1 0 0 -1 0 76.7874)">
			<stop  offset="0" style="stop-color:#0CFCFE"/>
			<stop  offset="1" style="stop-color:#2196F3"/>
		</linearGradient>
		<path style="fill:url(#SVGID_00000075845335178633297990000010656749621643053501_);" d="M28.2,70.4H17.8v-4h10.4V70.4z"/>
		
			<linearGradient id="SVGID_00000178910538656633638870000009767265422618012063_" gradientUnits="userSpaceOnUse" x1="10.66" y1="15.4724" x2="35.34" y2="15.4724" gradientTransform="matrix(1 0 0 -1 0 76.7874)">
			<stop  offset="0" style="stop-color:#0CFCFE"/>
			<stop  offset="1" style="stop-color:#2196F3"/>
		</linearGradient>
		
			<rect x="10.7" y="58.3" style="fill:url(#SVGID_00000178910538656633638870000009767265422618012063_);" width="24.7" height="6"/>
		
			<linearGradient id="SVGID_00000168100470619467296080000009606998375981989564_" gradientUnits="userSpaceOnUse" x1="3.01" y1="23.8574" x2="42.99" y2="23.8574" gradientTransform="matrix(1 0 0 -1 0 76.7874)">
			<stop  offset="0" style="stop-color:#0CFCFE"/>
			<stop  offset="1" style="stop-color:#2196F3"/>
		</linearGradient>
		<rect x="3" y="49.6" style="fill:url(#SVGID_00000168100470619467296080000009606998375981989564_);" width="40" height="6.6"/>
		<path class="st6" d="M90.5,46.3l2.3-2.3v2.3L90.5,46.3z M73.5,22.4v5.4h9.6l5.4-5.4H73.5z M175.1,46.3h6.1V22.4h-6.1V46.3z
			 M109.9,46.3h6.1v-12h-6.1V46.3z M211.7,40.2c-1,0-1.8-0.5-2.4-1.2l-11.3-13.6c-1.6-1.9-4-3-6.5-3h-6.3v23.9h6l0,0V28.5
			c1,0.1,1.9,0.5,2.4,1.3l11.3,13.5c1.6,1.9,4,3,6.5,3h6.3V22.4h-6.1L211.7,40.2z M221.7,46.3h6.1V22.4h-6.1V46.3z M275.9,46.3v-2.8
			l-2.4,2.8H275.9z M282.1,22.4l-9.1,10.9h-0.2l-9.1-10.9h-7.9l14.1,16.8v7h0.1l10-11.8l10.1-12H282.1z M237.5,28.4v-0.7h19.6
			l-4.5-5.3v-0.1h-15.1h-1.4l-4.6,4.6c0,0.2,0,1.2,0,1.4v17.8h6.1v-7h4.1l5-5.4h-9v-5.5L237.5,28.4z M111.3,22.4h-19L86.7,28v18.3
			l6.1-6.1V27.8h13.1L111.3,22.4z M165.3,22.4c-2.9,0-7.2,1.2-9.1,3.5l-14,17.8l-4.1-5c2.6-1.2,4.3-3.8,4.3-6.7v-3.3
			c0-3.5-2.8-6.3-6.3-6.3H115l-5.4,5.4H136c0.5,0,0.9,0.4,0.9,0.9V33c0,0.5-0.4,0.9-0.9,0.9h-11.9c-0.1,0-0.3,0.1-0.3,0.2l-1.8,2.2
			l-2.5,3h11.3l11.6,13.4l18.5-22.8c1-1.2,2.6-1.6,4.1-1.3v5.9h-3.4l-2,2.4l-2.5,3h7.9v6.6h6.1V22.4H165.3z"/>
	</g>
</g>
</svg>
