<?xml version="1.0" encoding="UTF-8"?>
<svg data-bbox="6.7 5.5 446.5 79.2" viewBox="0 0 460 90" xmlns="http://www.w3.org/2000/svg" data-type="ugc">
    <g>
        <path d="m41.7 54.9 4.7-4.7v4.7h-4.7zM6.7 5.6v11.1h19.7L37.5 5.6H6.7zm209.4 49.3h12.5V5.6h-12.5v49.3zm-134.3 0h12.5V30.2H81.8v24.7zm209.9-12.6c-2-.1-3.8-1.1-5.1-2.6l-23.4-27.9c-3.3-4-8.2-6.2-13.4-6.2h-13v49.3h12.4s.1 0 .1-.1V18.1c2 .1 3.8 1.1 5 2.6l23.4 27.9c3.3 4 8.2 6.3 13.4 6.2h13V5.6h-12.5v36.7zm20.7 12.6H325V5.6h-12.6v49.3zm111.7 0V49l-4.9 5.9h4.9zM437 5.6 418.1 28h-.5L398.8 5.6h-16.3l29.1 34.7v14.6h.2l20.5-24.4 20.9-24.9H437zM345 18v-1.3h40.5l-9.2-11-.1-.1h-31.1c-.4 0-2.6 0-3 .1l-9.6 9.6c0 .4-.1 2.6-.1 3V55H345V40.3h8.4l10.2-11.2H345V18zM84.6 5.6H45.5L33.9 17.1v37.7l12.5-12.5V16.6h27.1l11.1-11zm111.5 0c-6.1 0-14.8 2.5-18.8 7.1 0 0-20 25.3-29 36.7L139.8 39c5.4-2.4 8.9-7.8 8.9-13.8v-6.7c0-7.2-5.8-13-13-13H92.3L81.2 16.7h54.5c1 0 1.9.8 1.9 1.8v8.9c0 1-.8 1.9-1.9 1.9h-24.6c-.3 0-.5.1-.7.3l-3.8 4.6-5.2 6.2h23.3l24 27.5 38.1-47.1c2.1-2.4 5.4-3.4 8.5-2.6v12.1h-7.1l-4.1 4.9-5.2 6.2h16.4v13.5H208V5.6h-11.9z" fill="#ffffff"/>
        <linearGradient gradientTransform="matrix(1 0 0 -1 0 90.787)" y2="14.097" x2="323.248" y1="14.097" x1="149.242" gradientUnits="userSpaceOnUse" id="79ca3d15-b495-4a0f-b086-9f9c438f302b">
            <stop offset="0" stop-color="#0cfcfe"/>
            <stop offset="1" stop-color="#2196f3"/>
        </linearGradient>
        <path d="M149.2 79.2V79c0-.1 0-.1.1-.2l.9-.3c.1-.1.2-.1.2 0 .1.1.1.1.1.2.1.2.2.3.3.4.1.1.3.2.4.3.1.1.3.1.5.2h.4c.2 0 .4 0 .6-.1.2 0 .4-.1.5-.2.1-.1.3-.2.4-.3.1-.1.1-.3.1-.5s0-.4-.1-.5c-.1-.1-.2-.3-.4-.4l-.6-.3-.7-.2c-.7-.2-1.3-.5-1.8-.9s-.7-1-.7-1.6c0-.3.1-.7.2-1 .1-.3.3-.5.6-.8.3-.2.6-.4.9-.5.4-.1.7-.2 1.1-.2.6 0 1.1.1 1.6.4.4.3.8.8 1 1.2v.1c0 .1 0 .1-.1.2l-.7.5c-.1.1-.2.1-.2 0-.1-.1-.2-.2-.2-.3l-.6-.6c-.2-.2-.5-.3-.8-.2-.4 0-.7.1-1 .3-.2.2-.4.5-.4.8 0 .2 0 .3.1.4.1.1.2.3.3.3.1.1.3.2.4.2l.5.2c.8.2 1.5.5 2.2 1 .5.4.8 1.1.8 1.7 0 .3-.1.7-.2 1-.2.3-.4.6-.6.8-.3.2-.6.4-1 .5-.4.1-.8.2-1.2.2-.6 0-1.2-.2-1.8-.5-.3-.2-.5-.4-.7-.6-.2 0-.3-.3-.4-.5zm9.9-6.3.1.8c.3-.4.6-.7 1-.9.4-.3.9-.4 1.4-.4.6 0 1.2.2 1.6.5.4.3.7.8 1 1.2.3-.5.6-1 1.1-1.3.5-.3 1.1-.5 1.7-.5.5 0 .9.1 1.3.3.4.2.7.4 1 .8.3.3.5.7.6 1.1.1.4.2.9.2 1.4v4.6c0 .1 0 .2-.1.3-.1.1-.2.1-.3.1h-.7c-.3 0-.4-.1-.4-.4v-4.7c0-.5-.1-1-.4-1.5-.3-.4-.9-.7-1.4-.6-.3 0-.5.1-.8.2-.3.1-.5.2-.7.4-.2.2-.4.4-.5.7-.1.3-.2.5-.2.8v4.6c0 .3-.1.4-.4.4h-.7c-.1 0-.2 0-.3-.1-.1-.1-.1-.2-.1-.3v-4.7c0-.5-.1-1-.4-1.5-.3-.4-.8-.6-1.4-.6-.3 0-.5.1-.8.2-.3.1-.5.3-.7.4-.2.2-.4.4-.5.6-.1.3-.2.5-.2.8v4.7c0 .2-.1.4-.3.4h-.8c-.3 0-.4-.1-.4-.4v-7.7c0-.2.1-.4.3-.4h.7c.2.3.4.4.5.7 0-.1 0-.1 0 0zm19.9 7.6v-.8c-.3.4-.6.7-1 1-.5.3-1.1.4-1.6.4-.6 0-1.1-.1-1.6-.3-.5-.2-.9-.5-1.3-.9s-.7-.9-.9-1.4c-.4-1.1-.4-2.3 0-3.4.2-.5.5-1 .8-1.4.4-.4.8-.7 1.3-.9.5-.2 1.1-.3 1.7-.3.3 0 .6 0 .9.1.2.1.5.2.7.3.2.1.4.3.6.5.1.2.3.4.4.5l.1-.9c0-.1 0-.2.1-.3.1-.1.2-.1.3-.1h.5c.1 0 .2 0 .3.1.1.1.1.2.1.3v7.6c0 .1 0 .2-.1.3-.1.1-.2.1-.3.1h-.6c-.2-.1-.4-.2-.4-.5zm-5.3-3.8c0 .4.1.8.2 1.1.1.3.3.7.6.9.2.3.5.5.9.6.3.2.7.2 1.1.2.4 0 .8-.1 1.1-.2.3-.1.6-.4.8-.6.2-.3.4-.6.5-.9.2-.7.2-1.5 0-2.3-.1-.4-.3-.7-.5-1-.2-.3-.5-.5-.8-.6-.3-.2-.7-.2-1.1-.2-.4 0-.8.1-1.1.2-.3.2-.6.4-.8.6-.2.3-.4.6-.5.9-.3.5-.4.9-.4 1.3zm11.3-3.9.1.6c.2-.3.4-.6.7-.8.4-.3.8-.4 1.2-.4.2 0 .4 0 .6.1.2.1.4.1.5.2.1.1.3.1.4.2.1.1.1.2.1.2v.1l-.4.8c0 .1-.1.2-.2.2h-.2c-.1-.1-.3-.1-.4-.2-.2 0-.3-.1-.5-.1-.3 0-.5.1-.7.2-.2.1-.4.3-.6.5-.2.2-.3.5-.4.7-.1.3-.1.5-.1.8v4.5c0 .2-.1.4-.3.4h-.8c-.3 0-.4-.1-.4-.4v-7.7c0-.1 0-.2.1-.3.1-.1.2-.1.3-.1h.6c.1 0 .2 0 .3.1 0 .3.1.4.1.4zm8.4 8.2h-.3c-.3 0-.5 0-.8-.1-.5-.1-1-.4-1.2-.9-.1-.3-.2-.7-.2-1v-5.2h-1c-.1 0-.2 0-.3-.1-.1-.1-.1-.2-.1-.3v-.6c0-.1 0-.2.1-.3.1 0 .2-.1.3-.1h1V70c0-.2.1-.3.3-.3l.9-.1c.1 0 .2 0 .3.1 0 .1.1.2.1.3v2.4h1.3c.2 0 .4.1.4.4v.6c0 .3-.1.4-.4.4h-1.3v5.3c0 .1.1.3.2.4.1.1.2.1.3.1h.4c.2 0 .4.1.4.3v.7c0 .3-.1.4-.4.4zm8.1-1.9v-.2c0-.1.1-.1.1-.2l.9-.3c.1-.1.2-.1.2 0 .1.1.1.1.1.2.1.2.2.3.3.4.1.1.3.2.4.3.1.1.3.1.5.2h.4c.2 0 .4 0 .6-.1.2 0 .4-.1.5-.2.1-.1.3-.2.4-.3.1-.1.1-.3.1-.5s0-.4-.1-.5c-.1-.1-.2-.3-.4-.4l-.6-.3-.7-.2c-.7-.2-1.3-.5-1.8-.9s-.7-1-.7-1.6c0-.3.1-.7.2-1 .1-.3.3-.5.6-.8.3-.2.6-.4.9-.5.4-.1.7-.2 1.1-.2.6 0 1.1.1 1.6.4.4.3.8.7 1 1.2v.1c0 .1 0 .1-.1.2l-.7.5c-.1.1-.2.1-.2 0-.1-.1-.2-.2-.2-.3l-.6-.6c-.2-.2-.5-.3-.8-.2-.4 0-.7.1-1 .3-.2.2-.4.5-.4.8 0 .2 0 .3.1.4.1.1.2.3.3.3.1.1.3.2.5.2l.5.2c.8.2 1.5.5 2.2 1 .5.4.8 1.1.8 1.7 0 .3-.1.7-.2 1-.2.3-.4.6-.6.8-.3.2-.6.4-1 .5-.4.1-.8.2-1.2.2-.6 0-1.2-.2-1.8-.5-.3-.2-.5-.4-.7-.6-.3 0-.5-.2-.5-.5zm15.2-6c-.7 1.8-1.5 3.6-2.2 5.4-.7 1.8-1.4 3.6-2.2 5.3-.1.2-.3.3-.5.3h-.7c-.3 0-.4-.1-.4-.3v-.2l1.2-3-3.2-7.7c0-.1-.1-.1-.1-.2v-.1c0-.2.1-.3.4-.3h.7c.2 0 .4.1.4.3.4 1 .8 2 1.2 3.1l1.3 3.2 2.5-6.3c.1-.2.3-.3.5-.3h.7c.3 0 .4.1.4.3v.1c.1.3 0 .4 0 .4zm1.4 6v-.2c0-.1 0-.1.1-.2l.9-.3c.1-.1.2-.1.2 0 .1.1.1.1.1.2.1.2.2.3.3.4.1.1.3.2.4.3.2.1.3.1.5.2h.4c.2 0 .4 0 .6-.1.2 0 .4-.1.5-.2.1-.1.3-.2.4-.3.1-.1.2-.3.1-.5 0-.2 0-.4-.1-.5-.1-.1-.2-.3-.4-.4l-.6-.3-.7-.2c-.7-.2-1.3-.5-1.8-.9s-.7-1-.7-1.6c0-.3.1-.7.2-1 .1-.3.3-.5.6-.8.3-.2.6-.4.9-.5.4-.1.7-.2 1.1-.2.6 0 1.1.1 1.6.4.4.3.8.8 1 1.2v.1c0 .1 0 .1-.1.2l-.7.5c-.1.1-.2.1-.2 0-.1-.1-.2-.2-.2-.3l-.6-.6c-.2-.2-.5-.3-.8-.2-.4 0-.7.1-1 .3-.2.2-.4.5-.4.8 0 .2 0 .3.1.4.1.1.2.3.3.3.1.1.3.2.4.2l.5.2c.8.2 1.5.5 2.2 1 .8.7 1 1.8.6 2.7-.1.3-.4.6-.6.8-.3.2-.6.4-1 .5-.4.1-.8.2-1.2.2-.6 0-1.2-.2-1.8-.5-.3-.2-.5-.4-.7-.6-.2.1-.3-.2-.4-.5zm11.3 1.9h-.3c-.3 0-.5 0-.8-.1-.2 0-.5-.1-.7-.3-.2-.2-.4-.4-.5-.6-.1-.3-.2-.7-.2-1v-5.2h-1c-.1 0-.2 0-.3-.1-.1-.1-.1-.2-.1-.3v-.6c0-.1 0-.2.1-.3.1 0 .2-.1.3-.1h1V70c0-.2.1-.3.3-.3l.9-.1c.1 0 .2 0 .3.1 0 .1.1.2.1.3v2.4h1.3c.2 0 .4.1.4.3v.7c0 .3-.1.4-.4.4h-1.3v5.3c0 .1.1.3.2.4.1.1.2.1.3.1h.4c.2 0 .4.1.4.3v.7c.1.3-.1.4-.4.4zm6.2.1c-.5 0-1.1-.1-1.6-.3-.5-.2-.9-.5-1.3-.9-.8-.9-1.2-2-1.2-3.1 0-.6.1-1.2.3-1.7.2-.5.5-1 .9-1.4.4-.4.8-.7 1.3-.9.5-.2 1-.4 1.6-.3.5 0 1 .1 1.5.3.5.2.9.5 1.2.9.4.4.6.8.8 1.3.2.5.3 1 .3 1.6v.2c0 .3-.1.5-.3.7-.3.1-.5.1-.8.1H233c.1.6.4 1.2.9 1.7.5.4 1.1.6 1.7.6.3 0 .7-.1 1-.2.3-.1.7-.3.9-.5.1-.1.2-.1.3-.1.1 0 .1 0 .2.1l.5.7s.1.1.1.2-.1.2-.1.2l-.2.1c-.4.3-.8.5-1.2.7-.6-.1-1.1 0-1.5 0zm-2.5-5h4.9l-.3-.9c-.1-.3-.3-.5-.6-.7-.2-.2-.5-.4-.7-.5-.3-.1-.6-.2-.8-.2-.3 0-.6.1-.8.2-.3.1-.5.3-.7.5-.2.2-.4.5-.6.7-.2.2-.4.6-.4.9zm10-3.2v.8c.3-.4.6-.7 1-.9.4-.3.9-.4 1.4-.4.6 0 1.2.2 1.6.5.4.3.7.8 1 1.2.3-.5.6-1 1.1-1.3.5-.3 1.1-.5 1.7-.5.5 0 .9.1 1.3.3.4.2.7.5 1 .8.3.3.5.7.6 1.1.1.4.2.9.2 1.4v4.6c0 .1 0 .2-.1.3-.1.1-.2.1-.3.1h-.6c-.3 0-.5-.1-.4-.4v-4.7c0-.5-.1-1-.4-1.5-.3-.4-.8-.7-1.4-.6-.3 0-.5.1-.8.2-.3.1-.5.2-.7.4-.2.2-.4.4-.5.7-.1.3-.2.5-.2.8v4.6c0 .3-.1.4-.4.4h-.7c-.1 0-.2 0-.3-.1-.1-.1-.1-.2-.1-.3v-4.7c0-.5-.1-1-.4-1.5-.3-.4-.8-.6-1.4-.6-.3 0-.5.1-.8.2-.3.1-.5.3-.7.4-.2.2-.4.4-.5.6-.1.3-.2.5-.2.8v4.7c0 .2-.1.3-.3.4h-.8c-.2 0-.4-.1-.4-.3v-7.8c0-.2.1-.4.3-.4h.8c.1.3.3.4.4.7 0-.1 0-.1 0 0zm22.6 8.1h-.3c-.3 0-.5 0-.8-.1-.2 0-.5-.1-.7-.3-.2-.2-.4-.4-.5-.6-.1-.4-.2-.7-.2-1.1v-5.1h-1c-.1 0-.2 0-.3-.1-.1-.1-.1-.2-.1-.3v-.6c0-.1 0-.2.1-.3.1 0 .2-.1.3-.1h1V70c0-.2.1-.3.3-.3l.9-.1c.1 0 .2 0 .3.1 0 .1.1.2.1.3v2.4h1.2c.2 0 .4.1.4.3v.7c0 .3-.1.4-.4.4h-1.3v5.3c0 .1.1.3.2.4.1.1.2.1.3.1h.4c.2 0 .4.1.4.3v.7c.1.3 0 .4-.3.4zm4.4-8.2.1.6c.2-.3.4-.6.7-.8.4-.3.8-.4 1.2-.4.2 0 .4 0 .6.1.2.1.3.1.5.2.1.1.3.1.4.2.1.1.1.2.1.2v.1l-.4.8c0 .1-.1.2-.2.2h-.2c-.1-.1-.3-.1-.4-.2-.2 0-.3-.1-.5-.1s-.5.1-.7.2c-.2.1-.4.3-.5.5-.2.2-.3.5-.4.7-.1.3-.1.5-.1.8v4.5c0 .2-.1.4-.3.4h-.8c-.2 0-.4-.1-.4-.3v-7.8c0-.1 0-.2.1-.3.1-.1.2-.1.3-.1h.6c.1 0 .2 0 .3.1v.4zm11 7.6v-.8c-.3.4-.6.7-1 1-.5.3-1.1.4-1.6.4-.6 0-1.1-.1-1.6-.3-.5-.2-.9-.5-1.3-.9s-.7-.9-.9-1.4c-.4-1.1-.4-2.3 0-3.4.2-.5.5-1 .9-1.4.4-.4.8-.7 1.3-.9.5-.2 1.1-.3 1.7-.3.3 0 .6 0 .9.1.3.1.5.2.7.3.2.1.4.3.5.5.2.2.3.4.4.5l.1-.9c0-.1 0-.2.1-.3 0-.1.2-.1.3-.1h.5c.1 0 .2 0 .3.1.1.1.1.2.1.3v7.6c0 .1 0 .2-.1.3-.1.1-.2.1-.3.1h-.5c-.3 0-.5-.2-.5-.5 0 .1 0 .1 0 0zm-5.3-3.7c0 .4.1.8.2 1.1.1.3.3.7.5.9.5.6 1.2.9 2 .9.4 0 .8-.1 1.1-.2.3-.1.6-.3.8-.6.2-.3.4-.6.5-.9.2-.7.2-1.5 0-2.3-.1-.4-.3-.7-.5-1-.2-.3-.5-.5-.8-.6-.3-.2-.7-.2-1.1-.2-.4 0-.8.1-1.1.2-.3.1-.6.4-.9.6-.2.3-.4.6-.5.9-.1.4-.2.8-.2 1.2zm9.5-6.7c0-.3.1-.6.3-.8.2-.2.5-.3.8-.3.3 0 .6.1.8.3.4.4.4 1.1 0 1.5-.2.2-.5.3-.8.3-.3 0-.6-.1-.8-.3-.2-.1-.3-.3-.3-.7zm1.9 2.8v7.7c0 .2-.1.4-.3.4h-.9c-.2 0-.4-.1-.4-.3v-7.8c0-.2.1-.3.3-.4h.8c.2 0 .4.1.4.3 0 0 0 .1.1.1zm4.5 0v.8l.5-.5c.2-.2.5-.3.7-.4.3-.1.5-.2.8-.3.3-.1.5-.1.8-.1.5 0 .9.1 1.3.3.4.2.7.4 1 .8.3.3.5.7.6 1.1.2.5.2.9.2 1.4v4.6c0 .2-.2.4-.4.4h-.7c-.2 0-.3 0-.3-.1-.1-.1-.1-.2-.1-.3v-4.6c0-.3 0-.6-.1-.8-.1-.3-.2-.5-.4-.7-.2-.2-.4-.3-.7-.4-.3-.1-.6-.2-.9-.2-.3 0-.6.1-.9.2-.3.1-.6.2-.8.4l-.6.6c-.1.2-.2.4-.2.7v4.9c0 .2-.1.4-.3.4h-.8c-.2 0-.4-.1-.4-.3V73c0-.1 0-.2.1-.3.1-.1.2-.1.3-.1h.6c.5-.1.7 0 .7.2zm8.8-2.8c0-.3.1-.6.3-.8.2-.2.5-.3.8-.3.3 0 .6.1.8.3.4.4.4 1.1 0 1.5-.2.2-.5.3-.8.3-.3 0-.6-.1-.8-.3-.2-.1-.4-.3-.3-.7zm1.8 2.8v7.7c0 .2-.1.3-.3.4h-.8c-.2 0-.4-.1-.4-.3v-7.8c0-.2.1-.3.3-.4h.8c.2 0 .3.1.4.4 0-.1 0 0 0 0zm4.6 0v.8l.5-.5c.2-.2.5-.3.7-.4.3-.1.5-.2.8-.3.3-.1.5-.1.8-.1.5 0 .9.1 1.3.3.4.2.7.4 1 .8.3.3.5.7.6 1.1.2.5.2 1 .2 1.5v4.6c0 .1 0 .2-.1.3-.1.1-.2.1-.3.1h-.7c-.2 0-.3 0-.3-.1-.1-.1-.1-.2-.1-.3V76c0-.3 0-.6-.1-.8-.2-.5-.6-.9-1.1-1.1-.3-.1-.6-.2-.9-.2-.3 0-.6.1-.9.2-.3.1-.6.2-.8.4l-.6.6c-.1.2-.2.4-.2.7v4.9c0 .2-.1.4-.3.4h-.8c-.2 0-.4-.1-.4-.3V73c0-.1 0-.2.1-.3.1-.1.2-.1.3-.1h.6c.4-.1.6 0 .7.2-.1 0-.1 0 0 0zm14.9 7.8v-1c-.1.2-.3.4-.5.5-.4.4-.8.7-1.3.9-.2.1-.5.1-.8.1-.6 0-1.1-.1-1.6-.3-.5-.2-.9-.5-1.3-.9s-.6-.9-.8-1.4c-.2-.5-.3-1.1-.3-1.7 0-.6.1-1.2.3-1.7.2-.5.5-1 .9-1.4.4-.4.8-.7 1.3-.9.5-.2 1-.3 1.6-.3.5 0 1.1.1 1.5.4.4.2.7.6 1 .9v-.7c0-.1 0-.2.1-.3.1-.1.2-.1.4-.1h.5c.1 0 .2 0 .3.1.1.1.2.2.2.3v7.2c0 .6 0 1.3-.2 1.9-.2.5-.5 1-.9 1.4-.4.4-.8.6-1.3.8-.5.2-1.1.3-1.6.3-.4 0-.9 0-1.3-.2-.4-.1-.7-.3-1.1-.5l-.2-.2v-.2l.5-.8c.1-.1.1-.1.2-.1s.1 0 .2.1c.2.2.5.3.8.4.3.1.5.1.8.1.3 0 .6-.1 1-.2.3-.1.6-.3.9-.5.3-.2.5-.4.6-.7 0-.6.1-.9.1-1.3zm-5.1-4c0 .4.1.8.2 1.2.1.3.3.6.5.9.2.3.5.5.8.6.3.2.7.2 1 .2.3 0 .7-.1 1-.2.3-.2.6-.4.8-.6l.6-.9c.1-.4.2-.7.2-1.1 0-.4-.1-.8-.2-1.1-.1-.4-.3-.7-.5-1-.2-.3-.5-.5-.8-.7-.3-.2-.7-.2-1-.2-.3 0-.7.1-1 .2-.3.2-.6.4-.8.6-.5.5-.8 1.3-.8 2.1z" fill="url(#79ca3d15-b495-4a0f-b086-9f9c438f302b)"/>
    </g>
</svg>
