<?xml version="1.0" encoding="UTF-8"?>
<svg data-bbox="9.89 6.396 90.221 107.224" viewBox="0 0 110 120" xmlns="http://www.w3.org/2000/svg" data-type="color">
    <g>
        <path d="m10.41 93.52 2.19-3.23a9.09 9.09 0 0 0 5.79 2.41c1.7 0 3.14-.74 3.14-1.86 0-1.31-1.8-1.75-3.8-2.24-3.77-.91-6.58-2.68-6.58-6s2.92-5.6 7.27-5.6a9.71 9.71 0 0 1 6.67 2.33l-2 3.22a7.21 7.21 0 0 0-4.73-1.77c-1.69 0-2.9.71-2.9 1.69 0 1.23 1.73 1.8 3.45 2.16s6.94 1.67 6.94 6.07c0 3.47-3.25 5.82-7.46 5.82a12.55 12.55 0 0 1-7.98-3Z" fill="#ffffff" data-color="1"/>
        <path d="M40.31 92.83h-7.65l-1.18 3.31H27l7-18.86h5l7.11 18.86h-4.63Zm-1.37-3.91-2.46-7-2.46 7Z" fill="#ffffff" data-color="1"/>
        <path d="M61.14 92.15v4H49V77.28h4.24v14.87Z" fill="#ffffff" data-color="1"/>
        <path d="M63.19 88.81V77.28h4.23v11.48a3.64 3.64 0 0 0 7.27 0V77.28h4.24v11.53a7.87 7.87 0 0 1-15.74 0Z" fill="#ffffff" data-color="1"/>
        <path d="M100.11 86.71a9.31 9.31 0 0 1-9.62 9.43h-7.43V77.28h7.43a9.31 9.31 0 0 1 9.62 9.43Zm-4.35 0a5.28 5.28 0 0 0-5.38-5.44h-3.09v10.88h3.09a5.28 5.28 0 0 0 5.38-5.44Z" fill="#ffffff" data-color="1"/>
        <path d="M65.68 21.89v2.78a2.66 2.66 0 0 0-.09.46 21.83 21.83 0 0 1-1.16 5.3 33.86 33.86 0 0 1-8 12.4 71.41 71.41 0 0 1-17.29 12.62 1.62 1.62 0 0 1-1.67 0A77 77 0 0 1 23 45.43a41 41 0 0 1-8.86-10.8c-.34-.62-.64-1.26-1-2h7.67a1.9 1.9 0 0 0 1.94-1.2c.58-1.22 1.21-2.41 1.84-3.68.11.22.2.37.28.52 1.68 3.36 3.34 6.72 5 10.06a2.44 2.44 0 0 0 .92 1 1.54 1.54 0 0 0 2.21-.87q2.5-5.05 5-10.11c.08-.17.18-.33.31-.57.64 1.29 1.26 2.47 1.82 3.68a1.93 1.93 0 0 0 1.94 1.2h11.49a3.11 3.11 0 0 0 .74-.08 1.58 1.58 0 0 0-.21-3.1 5.31 5.31 0 0 0-.69 0H43.33a.79.79 0 0 1-.85-.52c-.86-1.79-1.76-3.57-2.66-5.34a1.58 1.58 0 0 0-1.88-1 1.76 1.76 0 0 0-1.17 1.07l-5 10.07c-.07.16-.17.31-.28.52-1.8-3.58-3.55-7.08-5.29-10.58a1.71 1.71 0 0 0-1.54-1.13A1.68 1.68 0 0 0 23 23.72c-.86 1.75-1.76 3.49-2.61 5.25a.72.72 0 0 1-.77.48h-7.21c-.45 0-.6-.16-.71-.57a20.69 20.69 0 0 1-.66-7.35A16.85 16.85 0 0 1 17 9.93a14.06 14.06 0 0 1 18.45-.16c1 .86 2 1.8 3 2.7.33-.37.81-.94 1.33-1.48A14 14 0 0 1 56.26 7.8a16 16 0 0 1 8.87 11.07c.25.99.37 2.01.55 3.02Z" fill="#000000" data-color="2"/>
        <path d="m15.63 111.48.77-.77v.77Zm-5.74-8.08v1.81h3.24l1.81-1.81Zm34.33 8.08h2.05v-8.08h-2.05Zm-22 0h2.05v-4H22.2Zm34.4-2.06a1.12 1.12 0 0 1-.83-.43l-3.83-4.57a2.87 2.87 0 0 0-2.2-1h-2.15v8.08h2v-6a1.15 1.15 0 0 1 .83.43l3.83 4.57a2.88 2.88 0 0 0 2.2 1h2.13v-8.1h-2Zm3.4 2.06h2v-8.08H60Zm18.31 0v-1l-.81 1Zm2.1-8.08-3.09 3.68h-.08l-3.08-3.68h-2.7l4.78 5.69v2.39l3.37-4 3.42-4.08Zm-15.07 2v-.22H72l-1.51-1.8h-5.62L63.3 105v6.49h2.05v-2.39h1.38l1.68-1.83h-3.07v-1.83Zm-42.69-2h-6.43l-1.89 1.89v6.17l2-2v-4.2h4.44Zm18.28 0a4.43 4.43 0 0 0-3.08 1.17l-4.75 6-1.39-1.71a2.47 2.47 0 0 0 1.45-2.25v-1.1A2.13 2.13 0 0 0 31 103.4h-7.08l-1.81 1.82H31a.3.3 0 0 1 .3.31V107a.29.29 0 0 1-.3.3h-4a.11.11 0 0 0-.11.06l-.63.74-.86 1h3.83l3.94 4.52 6.24-7.72a1.43 1.43 0 0 1 1.4-.44v2h-1.15l-.67.8-.86 1h2.69v2.22h2v-8.08Z" fill="#000000" data-color="2"/>
    </g>
</svg>
