<?xml version="1.0" encoding="UTF-8"?>
<svg data-bbox="9.673 6.34 180.644 107.28" viewBox="0 0 200 120" xmlns:xlink="http://www.w3.org/1999/xlink" xmlns="http://www.w3.org/2000/svg" data-type="ugc">
    <g>
        <defs>
            <linearGradient gradientUnits="userSpaceOnUse" y2="30.89" x2="56.35" y1="30.89" x1="9.68" id="497f02d3-9b7b-45f5-802c-89eedb427304">
                <stop stop-color="#0cfcfe" offset="0"/>
                <stop stop-color="#2196f3" offset="1"/>
            </linearGradient>
            <linearGradient xlink:href="#497f02d3-9b7b-45f5-802c-89eedb427304" y2="108.46" x2="85.42" y1="108.46" x1="12.22" id="49ef26e7-b3f6-472e-8180-4925036a1448"/>
        </defs>
        <path d="M17.27 90.38h-1.93v6.05h-4V78.75H19a5.89 5.89 0 0 1 6.15 5.92 5.53 5.53 0 0 1-3.64 5.27l4.13 6.49H20.9Zm-1.93-3.46H19a2.22 2.22 0 0 0 0-4.43h-3.66Z" fill="#ffffff"/>
        <path d="M40.63 92.69v3.74H28.51V78.75h12v3.74h-8v3.18h7.17v3.74h-7.19v3.28Z" fill="#ffffff"/>
        <path d="M59.46 78.75v17.68h-4l-7.34-10.82v10.82h-4V78.75h4l7.35 10.81V78.75Z" fill="#ffffff"/>
        <path d="M79.63 87.59a8.73 8.73 0 0 1-9 8.84h-7V78.75h7a8.72 8.72 0 0 1 9 8.84Zm-4.07 0a5 5 0 0 0-5-5.1h-2.9v10.2h2.9a5 5 0 0 0 5-5.1Z" fill="#ffffff"/>
        <path d="M83 78.75h4v17.68h-4Z" fill="#ffffff"/>
        <path d="M110.25 78.75v17.68h-4V85.08l-4.46 8.37h-2.23l-4.45-8.37v11.35h-4V78.75h4.91l4.67 8.73 4.69-8.73Z" fill="#ffffff"/>
        <path d="M114.45 78.75h4v17.68h-4Z" fill="#ffffff"/>
        <path d="M134.74 92.69v3.74h-12.12V78.75h12v3.74h-8v3.18h7.17v3.74h-7.19v3.28Z" fill="#ffffff"/>
        <path d="M153.58 78.75v17.68h-4l-7.32-10.82v10.82h-4V78.75h4l7.35 10.81V78.75Z" fill="#ffffff"/>
        <path d="M170.51 82.49h-4.92v13.94h-4V82.49h-4.89v-3.74h13.81Z" fill="#ffffff"/>
        <path d="M171.62 87.59a9.35 9.35 0 1 1 9.38 9.14 9.06 9.06 0 0 1-9.38-9.14Zm14.62 0a5.28 5.28 0 1 0-5.24 5.33 5.19 5.19 0 0 0 5.24-5.33Z" fill="#ffffff"/>
        <path d="m43.76 6.34.86.24A5.27 5.27 0 1 1 42 6.44a2.81 2.81 0 0 0 .31-.1Zm-13 31.78q2.72 2.13 5.42 4.27a.46.46 0 0 1 .09.43c-.19.56-.43 1.1-.65 1.65-.88 2.21-1.78 4.41-2.65 6.62a3.16 3.16 0 1 0 5.88 2.3c1.41-3.46 2.79-6.93 4.18-10.39a3.2 3.2 0 0 0-1.11-4.15l-5.16-4.07-.92-.78 4.38-7.46.11.13 2.52 3.85a3.17 3.17 0 0 0 4.46 1.11q3.64-2 7.28-4.05a3.67 3.67 0 0 0 .94-.72A3.15 3.15 0 0 0 51.81 22c-1 .53-2 1.12-3.06 1.68l-2.1 1.16c-.11-.17-.21-.3-.29-.43-.94-1.43-1.88-2.86-2.8-4.29a.63.63 0 0 0-.58-.32 8 8 0 0 1-7.23-4.56.49.49 0 0 0-.5-.32H25.13a3 3 0 0 0-2.68 1.57c-1.38 2.45-2.73 4.91-4.08 7.38a3 3 0 0 0-.26 2.27 3.14 3.14 0 0 0 2.69 2.34 3.1 3.1 0 0 0 3.1-1.57c1-1.77 2-3.55 2.94-5.33a.58.58 0 0 1 .59-.35h5.54l-.17.33q-4.36 7.61-8.71 15.21a.62.62 0 0 1-.65.35H12.8a3.12 3.12 0 0 0-3 4 3.16 3.16 0 0 0 3.27 2.35h12.08a3.64 3.64 0 0 0 3.55-2c.61-1.13 1.3-2.22 2-3.32.02-.05.06-.05.08-.03Z" fill="url(#497f02d3-9b7b-45f5-802c-89eedb427304)"/>
        <path d="m18 111.6.76-.77v.77Zm-5.78-8.06v1.82h3.24l1.8-1.83Zm34.36 7.95h2.05v-8.08h-2.08Zm-22 .09h2.06v-4h-2.09Zm34.4-2.2a1.11 1.11 0 0 1-.83-.42l-3.85-4.56a2.88 2.88 0 0 0-2.2-1h-2.16v8.07H52v-6a1.12 1.12 0 0 1 .83.43l3.85 4.55a2.89 2.89 0 0 0 2.2 1H61v-8.08h-2Zm3.4 2h2v-8.08h-2Zm18.31-.07v-1l-.81 1Zm2.07-8.08L79.67 107h-.08l-3.1-3.67h-2.68l4.8 5.68v2.38l3.35-4 3.41-4.1Zm-15.06 2.09v-.22h6.64l-1.51-1.79h-5.58l-1.57 1.58v6.48h2V109h1.38l1.67-1.84h-3.04v-1.83ZM25 103.49h-6.41l-1.89 1.9v6.17l2.05-2.06v-4.2h4.44Zm18.27-.07a4.5 4.5 0 0 0-3.07 1.18l-4.73 6-1.4-1.7a2.48 2.48 0 0 0 1.45-2.25v-1.1a2.14 2.14 0 0 0-2.14-2.12h-7.11l-1.81 1.83h8.93a.29.29 0 0 1 .3.3V107a.3.3 0 0 1-.3.31h-4a.14.14 0 0 0-.12.06l-.62.75-.85 1h3.82l4 4.5 6.22-7.75a1.4 1.4 0 0 1 1.39-.43v2H42l-.67.81-.85 1h2.69v2.22h2.05v-8.07Z" fill="url(#49ef26e7-b3f6-472e-8180-4925036a1448)"/>
    </g>
</svg>
