<svg id="Capa_1" data-name="Capa 1" xmlns="http://www.w3.org/2000/svg" viewBox="0 0 530 170"><defs><style>.cls-1{fill:#fff;}.cls-2{fill:#64cee4;}</style></defs><path class="cls-1" d="M19.72,11.34h6.36v23c0,5.78,4.35,8.64,8.64,8.64s8.65-2.86,8.65-8.64v-23h6.36v23c0,10.24-7.48,15.38-15,15.38s-15-5.14-15-15.38Z"/><path class="cls-1" d="M57.26,11.34h2.18L81.18,34.72V11.34h6.36V48.46H85.42L63.62,25V48.46H57.26V23.75h5.25l-5.25-5.62Z"/><path class="cls-1" d="M135.32,39.39c0,7.21-7.11,10.6-13.47,10.6-5.46,0-11.08-2-14.47-6.47l4.93-3.87c2.33,3.13,6.09,4.09,9.75,4.09,2.81,0,7-1.06,7-4.56,0-6.79-18.61-6.42-20.46-16.76h6.57C118.14,27.19,135.32,27.51,135.32,39.39ZM109,17.17c1.64-4.93,6.73-7.37,12.19-7.37a18.82,18.82,0,0,1,13.05,5.46L130,19.93A12.77,12.77,0,0,0,121,16.06c-3.18,0-6.26,1.11-6.26,4.82a2.29,2.29,0,0,0,.21,1Z"/><path class="cls-1" d="M148.68,11.34V48.46h-6.36v-26l6.36-5.14h-6.36V11.34Z"/><path class="cls-1" d="M183.63,39.39c0,7.21-7.11,10.6-13.47,10.6-5.46,0-11.08-2-14.48-6.47l4.94-3.87c2.33,3.13,6.09,4.09,9.75,4.09,2.81,0,7-1.06,7-4.56,0-6.79-18.61-6.42-20.47-16.76h6.58C166.45,27.19,183.63,27.51,183.63,39.39ZM157.28,17.17c1.64-4.93,6.73-7.37,12.19-7.37a18.82,18.82,0,0,1,13.05,5.46l-4.19,4.67a12.77,12.77,0,0,0-9.07-3.87c-3.18,0-6.26,1.11-6.26,4.82a2.16,2.16,0,0,0,.22,1Z"/><path class="cls-1" d="M187.4,17.28V11.34h30.54v5.94H205.8V48.46h-6.37v-26l6.37-5.14Z"/><path class="cls-1" d="M223.88,11.34h24v5.94H230.24v9.65h13.84v5.94H230.24v9.65H247.9v5.94h-24v-26l6.36-5.14h-6.36Z"/><path class="cls-1" d="M258.09,23.91h4l-6.63-12.57h6.63L276.11,38l14.06-26.67h2.12l5.56,37.12H291.6l-3.29-21.21L277.18,48.46h-2.13l-11.13-21-3.29,21.05h-6.26Z"/><path class="cls-1" d="M315.2,22.42h5.09L315.2,11.34h6.68l17,37.12h-6.58l-2.38-5.2H312.28l-2.38,5.2h-6.63Zm11.93,14.9-6-13.15-6,13.15Z"/><path class="cls-1" d="M26.61,77.28H20.25V71.34h11c12.68.11,19,9.33,19,18.56s-6.31,18.45-19,18.56h-11v-26Zm0,0v25.18H31c16.75,0,16.81-25.18,0-25.18Z"/><path class="cls-1" d="M63.78,71.34v37.12H57.42v-26l6.36-5.14H57.42V71.34Z"/><path class="cls-1" d="M98.73,99.39c0,7.21-7.11,10.6-13.47,10.6-5.46,0-11.08-2-14.48-6.47l4.94-3.87c2.33,3.13,6.09,4.09,9.75,4.09,2.81,0,7-1.06,7-4.56,0-6.79-18.61-6.42-20.47-16.76h6.58C81.55,87.19,98.73,87.51,98.73,99.39ZM72.37,77.17c1.65-4.93,6.74-7.37,12.2-7.37a18.78,18.78,0,0,1,13,5.46l-4.18,4.67a12.79,12.79,0,0,0-9.07-3.87c-3.18,0-6.26,1.11-6.26,4.82a2.16,2.16,0,0,0,.21,1Z"/><path class="cls-1" d="M105.73,71.34h24v5.94H112.09v9.65h13.84v5.94H112.09v9.65h17.66v5.94h-24v-26l6.36-5.14h-6.36Z"/><path class="cls-1" d="M138.93,71.34l21.74,23.38V71.34H167v37.12h-2.12L143.12,85v23.44h-6.37V71.34Zm7.63-4.88a4.67,4.67,0,0,1,3.34-1.8c1.49,0,2.6,1.54,4.24,1.54a3.65,3.65,0,0,0,2.44-1.12l.64,1.91A5,5,0,0,1,154,68.42c-1.8,0-2.92-1.59-4.4-1.59a3.62,3.62,0,0,0-2.44,1.38Z"/><path class="cls-1" d="M184.9,82.42H190L184.9,71.34h6.68l17,37.12H202l-2.39-5.2H182l-2.39,5.2H173Zm11.93,14.9-6-13.15-6,13.15Z"/><path class="cls-1" d="M220.86,77.28H214.5V71.34h11c12.67.11,19,9.33,19,18.56s-6.31,18.45-19,18.56h-11v-26Zm0,0v25.18h4.35c16.75,0,16.8-25.18,0-25.18Z"/><path class="cls-1" d="M287.89,89.9c0,12.94-9.55,19.4-19.09,19.4s-19.14-6.46-19.14-19.4a21.85,21.85,0,0,1,1.21-7.48H258a13.09,13.09,0,0,0-2.12,7.48c0,8.69,6.47,13,12.94,13s12.88-4.3,12.88-13-6.47-13-12.88-13a13,13,0,0,0-10.34,4.77L254.06,77a19.12,19.12,0,0,1,14.74-6.52C278.34,70.49,287.89,77,287.89,89.9Z"/><path class="cls-1" d="M307.93,71.34h12.25c8.38,0,12.57,6,12.57,12s-4.19,12-12.57,12H314.3v13.1h-6.37v-26l6.26-5.09h-6.26Zm6.37,6v12h5.88c8.06,0,8-12,0-12Z"/><path class="cls-1" d="M344.26,82.42h5.09l-5.09-11.08h6.68l17,37.12h-6.58l-2.38-5.2H341.34l-2.38,5.2h-6.63Zm11.93,14.9-6.05-13.15-6,13.15Z"/><path class="cls-1" d="M385.57,71.34c14.63,0,16.49,17.07,5.51,21.37l10.77,15.75h-7.58l-10-14.8h-4v14.8h-6.36v-26l6.26-5.09h-6.26v-6Zm-5.36,6V87.67h5.36c8.06,0,8-10.34,0-10.34Z"/><path class="cls-1" d="M417.6,82.42h5.09L417.6,71.34h6.68l17,37.12h-6.58l-2.38-5.2H414.68l-2.38,5.2h-6.63Zm11.93,14.9-6-13.15-6.05,13.15Z"/><path class="cls-1" d="M457.9,77.28V71.34h30.55v5.94H476.3v31.18h-6.36v-26l6.36-5.14Z"/><path class="cls-1" d="M500.75,71.34v37.12h-6.36v-26l6.36-5.14h-6.36V71.34Z"/><path class="cls-1" d="M510.62,101.78a3.35,3.35,0,0,1,3.39,3.39,3.4,3.4,0,0,1-3.39,3.45,3.44,3.44,0,0,1-3.45-3.45A3.39,3.39,0,0,1,510.62,101.78Z"/><path class="cls-2" d="M16.13,148.44A3.32,3.32,0,0,1,16,148a.44.44,0,0,1,0-.28.52.52,0,0,1,.14-.2,1,1,0,0,1,.27-.18l1.66-.77a.62.62,0,0,1,.68,0,1.62,1.62,0,0,1,.39.53,3,3,0,0,0,.83,1.2,5.63,5.63,0,0,0,1.23.85,6.29,6.29,0,0,0,1.35.5,5,5,0,0,0,1.17.16,6.24,6.24,0,0,0,1.47-.19,5.65,5.65,0,0,0,1.51-.59,4,4,0,0,0,1.2-1,2.48,2.48,0,0,0,.48-1.52,2.39,2.39,0,0,0-.46-1.52,3.49,3.49,0,0,0-1.18-.95,7,7,0,0,0-1.63-.61L23.34,143a14.85,14.85,0,0,1-2.81-1,8.81,8.81,0,0,1-2.1-1.39,5.51,5.51,0,0,1-1.32-1.82,5.7,5.7,0,0,1-.46-2.31,6,6,0,0,1,.55-2.55,5.75,5.75,0,0,1,1.51-2A7.08,7.08,0,0,1,21,130.62a9.45,9.45,0,0,1,3-.45,9.79,9.79,0,0,1,2.32.24,6,6,0,0,1,1.72.73,6.7,6.7,0,0,1,1.38,1.19A20.87,20.87,0,0,1,30.78,134a1.34,1.34,0,0,1,.22.6c0,.17-.09.34-.31.5l-1.37,1a.68.68,0,0,1-.61.12,1.43,1.43,0,0,1-.45-.4l-.79-.91a5.06,5.06,0,0,0-.88-.78,4.09,4.09,0,0,0-1.11-.54,4.9,4.9,0,0,0-1.48-.2,6.52,6.52,0,0,0-1.48.17,4.17,4.17,0,0,0-1.29.56,2.94,2.94,0,0,0-.91,1,2.68,2.68,0,0,0-.34,1.39,1.72,1.72,0,0,0,.42,1.12,4.48,4.48,0,0,0,1.07.94,7.56,7.56,0,0,0,1.42.72,12,12,0,0,0,1.48.47,17.77,17.77,0,0,1,3,1,9.6,9.6,0,0,1,2.35,1.42,6,6,0,0,1,1.52,1.92,5.35,5.35,0,0,1,.55,2.47,6,6,0,0,1-2.29,4.81,7.72,7.72,0,0,1-2.56,1.3,11.13,11.13,0,0,1-3.24.45,9.59,9.59,0,0,1-2.27-.28,8.58,8.58,0,0,1-2.19-.85,7.94,7.94,0,0,1-1.87-1.46A5.83,5.83,0,0,1,16.13,148.44Z"/><path class="cls-2" d="M39.37,133.14A12.66,12.66,0,0,1,40.42,132a6.49,6.49,0,0,1,1.25-.94,6,6,0,0,1,1.57-.63,8.16,8.16,0,0,1,2-.23,8.85,8.85,0,0,1,4.51,1,7.41,7.41,0,0,1,2.8,3,6.12,6.12,0,0,1,1.27-1.87,6.74,6.74,0,0,1,1.75-1.25,8.07,8.07,0,0,1,2.08-.69,12.21,12.21,0,0,1,2.27-.21,9.07,9.07,0,0,1,3.8.74,7.92,7.92,0,0,1,2.75,2,8.73,8.73,0,0,1,1.68,3,11.77,11.77,0,0,1,.57,3.71v11.88a1.18,1.18,0,0,1-.3.89,1.09,1.09,0,0,1-.78.3h-1.3c-.43,0-.71-.09-.83-.26a1.63,1.63,0,0,1-.18-.88V139.69a8.41,8.41,0,0,0-.29-2.14,5.72,5.72,0,0,0-.95-2,4.7,4.7,0,0,0-1.74-1.45,5.66,5.66,0,0,0-2.66-.56,6.39,6.39,0,0,0-2.38.42,4.7,4.7,0,0,0-1.77,1.21,5.34,5.34,0,0,0-1.12,1.95,8.23,8.23,0,0,0-.38,2.58v11.88a1.16,1.16,0,0,1-.31.89,1.06,1.06,0,0,1-.78.3H51.69c-.43,0-.71-.09-.83-.26a1.62,1.62,0,0,1-.19-.88V139.71a8.52,8.52,0,0,0-.28-2.15,5.86,5.86,0,0,0-1-2,5,5,0,0,0-1.74-1.46,5.78,5.78,0,0,0-2.66-.56,5.93,5.93,0,0,0-2,.36A5.77,5.77,0,0,0,41.2,135a5.56,5.56,0,0,0-1.32,1.73,5.29,5.29,0,0,0-.51,2.37V152a.68.68,0,0,1-.77.77H36.8c-.55,0-.83-.26-.83-.77V131.32a.74.74,0,0,1,.23-.56.76.76,0,0,1,.54-.21h1.82a.79.79,0,0,1,.59.23.73.73,0,0,1,.22.54Z"/><path class="cls-2" d="M92,149.82a10.92,10.92,0,0,1-3.5,2.42,10.54,10.54,0,0,1-4.32.89,11.28,11.28,0,0,1-3-.41,11.36,11.36,0,0,1-5.06-3,11.38,11.38,0,0,1-1.81-2.33,11.77,11.77,0,0,1-1.18-2.75,11.24,11.24,0,0,1,1.18-8.81,11.57,11.57,0,0,1,6.86-5.29,10.87,10.87,0,0,1,3-.42,10.54,10.54,0,0,1,4.32.89,11.08,11.08,0,0,1,3.5,2.42v-2.13a.68.68,0,0,1,.77-.77h1.81c.54,0,.82.25.82.77V152a.74.74,0,0,1-.23.56.76.76,0,0,1-.54.21H92.78a.79.79,0,0,1-.59-.23A.77.77,0,0,1,92,152Zm.18-8.21a8,8,0,0,0-.63-3.14,8.28,8.28,0,0,0-4.26-4.4,7.59,7.59,0,0,0-6.19,0,8.21,8.21,0,0,0-2.51,1.79,8.41,8.41,0,0,0-1.7,2.61,8.26,8.26,0,0,0,0,6.28,8.84,8.84,0,0,0,1.7,2.65,8.33,8.33,0,0,0,2.51,1.83,7.38,7.38,0,0,0,6.19,0,8.5,8.5,0,0,0,2.55-1.83,8.87,8.87,0,0,0,1.71-2.65A8.08,8.08,0,0,0,92.15,141.61Z"/><path class="cls-2" d="M103.68,132.9a4.86,4.86,0,0,1,.61-.88,5.29,5.29,0,0,1,2.23-1.54,4.18,4.18,0,0,1,1.57-.28c.63,0,1.2,0,1.71.08a9.18,9.18,0,0,1,1.44.28,6.94,6.94,0,0,1,1.32.55,9.62,9.62,0,0,1,1.34.86c.14.11.3.24.47.4a.83.83,0,0,1,.25.58.68.68,0,0,1-.09.35l-1,1.59a.67.67,0,0,1-.49.3.43.43,0,0,1-.26-.09l-.3-.22a9,9,0,0,0-2.11-1.08,6.77,6.77,0,0,0-2.18-.34,4.4,4.4,0,0,0-3.11,1.28,4.81,4.81,0,0,0-1,1.53,5.26,5.26,0,0,0-.38,2V152a.68.68,0,0,1-.77.77h-1.82c-.54,0-.8-.26-.8-.77V131.32a.73.73,0,0,1,.22-.56.81.81,0,0,1,.55-.21h1.82a.77.77,0,0,1,.58.23.73.73,0,0,1,.22.54Z"/><path class="cls-2" d="M124.12,153a7,7,0,0,1-1.62-.19,4,4,0,0,1-1.46-.67,3.67,3.67,0,0,1-1.06-1.31,4.9,4.9,0,0,1-.41-2.13V133.55h-2a1.35,1.35,0,0,1-.65-.13c-.14-.09-.21-.29-.21-.59V131.2q0-.45.21-.57a1.52,1.52,0,0,1,.65-.11h2v-3.73a.63.63,0,0,1,.12-.43,1.16,1.16,0,0,1,.42-.22,2.66,2.66,0,0,1,.43-.07l.68-.12.91-.16a1,1,0,0,1,.47,0,.48.48,0,0,1,.25.21.8.8,0,0,1,.1.32c0,.13,0,.26,0,.4v3.76h2.43a.66.66,0,0,1,.77.8v1.39a.86.86,0,0,1-.19.64.75.75,0,0,1-.58.2H123v15.13a1.05,1.05,0,0,0,.29.86,1.3,1.3,0,0,0,.83.25.94.94,0,0,1,.66.24.88.88,0,0,1,.26.68v1.44a.86.86,0,0,1-.24.64A.88.88,0,0,1,124.12,153Z"/><path class="cls-2" d="M139.15,148.44A3.32,3.32,0,0,1,139,148a.52.52,0,0,1,0-.28.66.66,0,0,1,.14-.2,1,1,0,0,1,.27-.18l1.66-.77a.64.64,0,0,1,.69,0,1.47,1.47,0,0,1,.38.53,3.09,3.09,0,0,0,.83,1.2,5.46,5.46,0,0,0,1.24.85,6.42,6.42,0,0,0,1.34.5,5.14,5.14,0,0,0,1.18.16,6.31,6.31,0,0,0,1.47-.19,5.78,5.78,0,0,0,1.51-.59,4,4,0,0,0,1.19-1,2.48,2.48,0,0,0,.48-1.52A2.39,2.39,0,0,0,151,145a3.53,3.53,0,0,0-1.19-.95,6.9,6.9,0,0,0-1.62-.61l-1.8-.47a15.11,15.11,0,0,1-2.81-1,8.81,8.81,0,0,1-2.1-1.39,5.81,5.81,0,0,1-1.32-1.82,5.7,5.7,0,0,1-.45-2.31,6,6,0,0,1,.54-2.55,5.87,5.87,0,0,1,1.51-2,7.18,7.18,0,0,1,2.33-1.28,9.54,9.54,0,0,1,3-.45,9.79,9.79,0,0,1,2.32.24,6.13,6.13,0,0,1,1.73.73,6.7,6.7,0,0,1,1.38,1.19A20.89,20.89,0,0,1,153.8,134a1.38,1.38,0,0,1,.23.6.62.62,0,0,1-.32.5l-1.36,1c-.27.15-.47.19-.61.12a1.45,1.45,0,0,1-.46-.4l-.79-.91a5,5,0,0,0-.87-.78,4.4,4.4,0,0,0-1.11-.54,5,5,0,0,0-1.48-.2,6.61,6.61,0,0,0-1.49.17,4.17,4.17,0,0,0-1.29.56,3.05,3.05,0,0,0-.91,1,2.78,2.78,0,0,0-.34,1.39,1.72,1.72,0,0,0,.42,1.12,4.48,4.48,0,0,0,1.07.94,7.56,7.56,0,0,0,1.42.72,12.1,12.1,0,0,0,1.49.47,17.65,17.65,0,0,1,3,1,9.66,9.66,0,0,1,2.36,1.42,6,6,0,0,1,1.52,1.92,5.47,5.47,0,0,1,.54,2.47,6.1,6.1,0,0,1-.6,2.74,6.24,6.24,0,0,1-1.68,2.07,7.87,7.87,0,0,1-2.57,1.3,11.11,11.11,0,0,1-3.23.45,9.52,9.52,0,0,1-2.27-.28,8.51,8.51,0,0,1-2.2-.85,7.94,7.94,0,0,1-1.87-1.46A5.83,5.83,0,0,1,139.15,148.44Z"/><path class="cls-2" d="M160.1,131.2c.22.58.51,1.33.86,2.22l1.14,2.92c.4,1,.83,2.12,1.26,3.23l1.26,3.16c.41,1,.77,1.92,1.11,2.74s.59,1.48.79,1.95c.19-.47.45-1.12.77-1.95s.69-1.74,1.08-2.74l1.23-3.18c.44-1.11.85-2.19,1.25-3.23s.78-2,1.12-2.91.63-1.64.85-2.23a1.19,1.19,0,0,1,.35-.47,1,1,0,0,1,.58-.17h1.94c.52,0,.77.2.77.61a.53.53,0,0,1,0,.12,1.66,1.66,0,0,1-.06.16,1.05,1.05,0,0,0,0,.19l-4.11,10.13-7,17.15v0a.92.92,0,0,1-.93.65h-1.73c-.56,0-.84-.22-.84-.65a1.22,1.22,0,0,1,0-.26.57.57,0,0,0,0-.16l2.92-7-8.12-19.76,0-.12a1.2,1.2,0,0,1,0-.35c0-.41.27-.62.81-.62h1.83a.89.89,0,0,1,.58.18A1.12,1.12,0,0,1,160.1,131.2Z"/><path class="cls-2" d="M178.14,148.44A3.32,3.32,0,0,1,178,148a.46.46,0,0,1,.15-.48,1,1,0,0,1,.27-.18l1.66-.77a.64.64,0,0,1,.69,0,1.47,1.47,0,0,1,.38.53,3.09,3.09,0,0,0,.83,1.2,5.63,5.63,0,0,0,1.23.85,6.71,6.71,0,0,0,1.35.5,5.14,5.14,0,0,0,1.18.16,6.16,6.16,0,0,0,1.46-.19,5.72,5.72,0,0,0,1.52-.59,4,4,0,0,0,1.19-1,2.48,2.48,0,0,0,.48-1.52A2.39,2.39,0,0,0,190,145a3.53,3.53,0,0,0-1.19-.95,6.9,6.9,0,0,0-1.62-.61l-1.8-.47a15.11,15.11,0,0,1-2.81-1,8.81,8.81,0,0,1-2.1-1.39,5.81,5.81,0,0,1-1.32-1.82,5.7,5.7,0,0,1-.45-2.31,6,6,0,0,1,.54-2.55,5.87,5.87,0,0,1,1.51-2,7.18,7.18,0,0,1,2.33-1.28,9.54,9.54,0,0,1,3-.45,9.79,9.79,0,0,1,2.32.24,6.13,6.13,0,0,1,1.73.73,6.7,6.7,0,0,1,1.38,1.19,20.89,20.89,0,0,1,1.31,1.64,1.38,1.38,0,0,1,.23.6.62.62,0,0,1-.32.5l-1.36,1a.7.7,0,0,1-.62.12,1.55,1.55,0,0,1-.45-.4l-.79-.91a5,5,0,0,0-.87-.78,4.4,4.4,0,0,0-1.11-.54,5,5,0,0,0-1.48-.2,6.61,6.61,0,0,0-1.49.17,4.17,4.17,0,0,0-1.29.56,2.94,2.94,0,0,0-.91,1,2.78,2.78,0,0,0-.34,1.39,1.72,1.72,0,0,0,.42,1.12,4.48,4.48,0,0,0,1.07.94,7.56,7.56,0,0,0,1.42.72,12.1,12.1,0,0,0,1.49.47,17.65,17.65,0,0,1,3,1,9.66,9.66,0,0,1,2.36,1.42,6,6,0,0,1,1.52,1.92,5.47,5.47,0,0,1,.54,2.47,6.1,6.1,0,0,1-.6,2.74,6.24,6.24,0,0,1-1.68,2.07,7.87,7.87,0,0,1-2.57,1.3,11.11,11.11,0,0,1-3.23.45,9.46,9.46,0,0,1-2.27-.28,8.51,8.51,0,0,1-2.2-.85,7.94,7.94,0,0,1-1.87-1.46A5.83,5.83,0,0,1,178.14,148.44Z"/><path class="cls-2" d="M203.61,153a6.89,6.89,0,0,1-1.62-.19,3.9,3.9,0,0,1-1.46-.67,3.47,3.47,0,0,1-1.06-1.31,4.75,4.75,0,0,1-.42-2.13V133.55h-2a1.32,1.32,0,0,1-.65-.13c-.14-.09-.21-.29-.21-.59V131.2q0-.45.21-.57a1.49,1.49,0,0,1,.65-.11h2v-3.73a.63.63,0,0,1,.13-.43,1,1,0,0,1,.42-.22,2.46,2.46,0,0,1,.43-.07l.67-.12.91-.16a1,1,0,0,1,.47,0,.55.55,0,0,1,.26.21.8.8,0,0,1,.09.32c0,.13,0,.26,0,.4v3.76h2.43a.87.87,0,0,1,.59.17.88.88,0,0,1,.18.63v1.39a.91.91,0,0,1-.18.64.78.78,0,0,1-.59.2h-2.43v15.13a1.05,1.05,0,0,0,.3.86,1.27,1.27,0,0,0,.82.25.92.92,0,0,1,.66.24.88.88,0,0,1,.27.68v1.44a.83.83,0,0,1-.25.64A.87.87,0,0,1,203.61,153Z"/><path class="cls-2" d="M225.13,147.69a3.1,3.1,0,0,1,.34-.27.68.68,0,0,1,.38-.12.67.67,0,0,1,.5.32c.24.31.43.57.57.77l.36.47.21.28a.74.74,0,0,1,.14.22.51.51,0,0,1,.05.25.7.7,0,0,1-.14.41,2.79,2.79,0,0,1-.52.52,12.78,12.78,0,0,1-1.57,1.07,11.67,11.67,0,0,1-1.7.84,11.34,11.34,0,0,1-1.88.54,10.86,10.86,0,0,1-2.1.19A11.18,11.18,0,0,1,214,151.6a12,12,0,0,1-4.18-4.14,11.54,11.54,0,0,1-1.19-2.74,10.94,10.94,0,0,1-.42-3,11.58,11.58,0,0,1,3.27-8.12,11,11,0,0,1,2.32-1.8,11.75,11.75,0,0,1,5.94-1.57,12.07,12.07,0,0,1,2.61.29,12.26,12.26,0,0,1,2.49.87,11.63,11.63,0,0,1,2.23,1.41,11.28,11.28,0,0,1,1.86,1.92,10.63,10.63,0,0,1,1.67,3.43,15.79,15.79,0,0,1,.5,4.43c0,.55-.25.82-.77.82H211.92a7.83,7.83,0,0,0,1,2.59,8.71,8.71,0,0,0,1.78,2.08,8.15,8.15,0,0,0,2.32,1.38,7.29,7.29,0,0,0,2.65.5,7.75,7.75,0,0,0,1.74-.18,7.52,7.52,0,0,0,1.41-.49,7.79,7.79,0,0,0,1.19-.71c.36-.26.71-.53,1-.81Zm-9.59-12.95a8.59,8.59,0,0,0-2.29,2.25,8.08,8.08,0,0,0-1.32,3h15.82a6.58,6.58,0,0,0-.9-2.64,7.2,7.2,0,0,0-1.77-2,8.26,8.26,0,0,0-2.41-1.31,8.39,8.39,0,0,0-2.77-.46,8.59,8.59,0,0,0-2.25.3A8,8,0,0,0,215.54,134.74Z"/><path class="cls-2" d="M239.25,133.14A12.66,12.66,0,0,1,240.3,132a6.82,6.82,0,0,1,1.25-.94,6.14,6.14,0,0,1,1.57-.63,8.16,8.16,0,0,1,2-.23,8.85,8.85,0,0,1,4.51,1,7.5,7.5,0,0,1,2.81,3,6.09,6.09,0,0,1,1.26-1.87,6.91,6.91,0,0,1,1.75-1.25,8,8,0,0,1,2.09-.69,12.1,12.1,0,0,1,2.26-.21,9.07,9.07,0,0,1,3.8.74,8,8,0,0,1,2.76,2,8.73,8.73,0,0,1,1.68,3,11.77,11.77,0,0,1,.57,3.71v11.88a1.18,1.18,0,0,1-.31.89,1.07,1.07,0,0,1-.78.3h-1.3a1,1,0,0,1-.83-.26,1.63,1.63,0,0,1-.18-.88V139.69a8.41,8.41,0,0,0-.29-2.14,5.88,5.88,0,0,0-.94-2,4.82,4.82,0,0,0-1.75-1.45,5.66,5.66,0,0,0-2.66-.56,6.39,6.39,0,0,0-2.38.42,4.7,4.7,0,0,0-1.77,1.21,5.32,5.32,0,0,0-1.11,1.95,8,8,0,0,0-.39,2.58v11.88a1.2,1.2,0,0,1-.3.89,1.09,1.09,0,0,1-.78.3h-1.3c-.43,0-.71-.09-.83-.26a1.63,1.63,0,0,1-.18-.88V139.71a8.54,8.54,0,0,0-.29-2.15,5.68,5.68,0,0,0-1-2,4.91,4.91,0,0,0-1.74-1.46,5.78,5.78,0,0,0-2.66-.56,6,6,0,0,0-2,.36,5.77,5.77,0,0,0-1.83,1.06,5.56,5.56,0,0,0-1.32,1.73,5.29,5.29,0,0,0-.51,2.37V152a.68.68,0,0,1-.77.77h-1.8c-.55,0-.82-.26-.82-.77V131.32a.73.73,0,0,1,.22-.56.81.81,0,0,1,.55-.21h1.82a.77.77,0,0,1,.58.23.73.73,0,0,1,.22.54Z"/><path class="cls-2" d="M290.21,153a7,7,0,0,1-1.62-.19,4,4,0,0,1-1.46-.67,3.67,3.67,0,0,1-1.06-1.31,4.9,4.9,0,0,1-.41-2.13V133.55h-2a1.38,1.38,0,0,1-.65-.13c-.14-.09-.21-.29-.21-.59V131.2q0-.45.21-.57a1.55,1.55,0,0,1,.65-.11h2v-3.73a.58.58,0,0,1,.13-.43,1,1,0,0,1,.42-.22,2.29,2.29,0,0,1,.42-.07l.68-.12.91-.16a1,1,0,0,1,.47,0,.48.48,0,0,1,.25.21.67.67,0,0,1,.1.32c0,.13,0,.26,0,.4v3.76h2.43a.65.65,0,0,1,.77.8v1.39a.91.91,0,0,1-.18.64.79.79,0,0,1-.59.2h-2.43v15.13a1.08,1.08,0,0,0,.29.86,1.3,1.3,0,0,0,.83.25.92.92,0,0,1,.66.24.88.88,0,0,1,.26.68v1.44a.86.86,0,0,1-.24.64A.88.88,0,0,1,290.21,153Z"/><path class="cls-2" d="M299.22,132.9a4.86,4.86,0,0,1,.61-.88,5.29,5.29,0,0,1,2.23-1.54,4.21,4.21,0,0,1,1.57-.28c.63,0,1.2,0,1.71.08a9,9,0,0,1,1.44.28,6.94,6.94,0,0,1,1.32.55,9.07,9.07,0,0,1,1.34.86c.14.11.3.24.47.4a.79.79,0,0,1,.25.58.68.68,0,0,1-.09.35l-1,1.59a.65.65,0,0,1-.49.3.43.43,0,0,1-.26-.09,2.94,2.94,0,0,0-.3-.22,8.8,8.8,0,0,0-2.11-1.08,6.77,6.77,0,0,0-2.18-.34,4.35,4.35,0,0,0-3.1,1.28,4.67,4.67,0,0,0-1,1.53,5.26,5.26,0,0,0-.38,2V152a.68.68,0,0,1-.77.77h-1.82a.7.7,0,0,1-.8-.77V131.32a.73.73,0,0,1,.22-.56.81.81,0,0,1,.55-.21h1.82a.77.77,0,0,1,.58.23.73.73,0,0,1,.22.54Z"/><path class="cls-2" d="M332.28,149.82a10.92,10.92,0,0,1-3.5,2.42,10.54,10.54,0,0,1-4.32.89,11.23,11.23,0,0,1-3-.41,11.91,11.91,0,0,1-2.74-1.17,12.08,12.08,0,0,1-2.33-1.82,11.74,11.74,0,0,1-1.81-2.33,11.4,11.4,0,0,1-1.17-8.82,10.94,10.94,0,0,1,1.17-2.74,12,12,0,0,1,1.81-2.33,11.61,11.61,0,0,1,2.33-1.8,11.39,11.39,0,0,1,2.73-1.16,10.87,10.87,0,0,1,3-.42,10.54,10.54,0,0,1,4.32.89,11.08,11.08,0,0,1,3.5,2.42v-2.13a.68.68,0,0,1,.77-.77h1.8c.55,0,.83.25.83.77V152a.74.74,0,0,1-.23.56.76.76,0,0,1-.54.21h-1.82a.79.79,0,0,1-.59-.23.73.73,0,0,1-.22-.54Zm.18-8.21a8,8,0,0,0-.63-3.14,8.38,8.38,0,0,0-4.26-4.4,7.44,7.44,0,0,0-3.1-.66,7.33,7.33,0,0,0-3.09.66,8.29,8.29,0,0,0-4.21,10.68,8.65,8.65,0,0,0,1.7,2.65,8.33,8.33,0,0,0,2.51,1.83,7.19,7.19,0,0,0,3.09.68,7.3,7.3,0,0,0,3.1-.68,8.46,8.46,0,0,0,2.54-1.83,8.71,8.71,0,0,0,1.72-2.65A8.08,8.08,0,0,0,332.46,141.61Z"/><path class="cls-2" d="M344.08,126.51a.68.68,0,0,1-.78.77h-1.8c-.54,0-.82-.25-.82-.77v-1.8a.74.74,0,0,1,.23-.56.76.76,0,0,1,.54-.21h1.82a.78.78,0,0,1,.59.22.76.76,0,0,1,.22.55Zm0,25.5a.69.69,0,0,1-.78.77h-1.8c-.54,0-.82-.26-.82-.77V131.32a.74.74,0,0,1,.23-.56.76.76,0,0,1,.54-.21h1.82a.79.79,0,0,1,.59.23.77.77,0,0,1,.22.54Z"/><path class="cls-2" d="M353.12,133.49a13.52,13.52,0,0,1,1.11-1.19,8.06,8.06,0,0,1,1.37-1.06,8.4,8.4,0,0,1,1.69-.75,7.06,7.06,0,0,1,2.08-.29,9.11,9.11,0,0,1,3.8.75,7.8,7.8,0,0,1,2.75,2,8.57,8.57,0,0,1,1.68,3,11.77,11.77,0,0,1,.57,3.71v11.88a1.2,1.2,0,0,1-.3.89,1.09,1.09,0,0,1-.78.3h-1.3c-.43,0-.71-.09-.83-.26a1.63,1.63,0,0,1-.18-.88V139.71a8.54,8.54,0,0,0-.29-2.15,5.84,5.84,0,0,0-.94-2,4.94,4.94,0,0,0-1.75-1.46,5.78,5.78,0,0,0-2.66-.56,6.61,6.61,0,0,0-4,1.42,5.8,5.8,0,0,0-1.45,1.73,4.83,4.83,0,0,0-.57,2.37V152a.68.68,0,0,1-.77.77h-1.8c-.55,0-.82-.26-.82-.77V131.32a.7.7,0,0,1,.23-.56.76.76,0,0,1,.54-.21h1.82a.77.77,0,0,1,.58.23.73.73,0,0,1,.22.54Z"/><path class="cls-2" d="M376.14,126.51a.68.68,0,0,1-.77.77h-1.81c-.55,0-.82-.25-.82-.77v-1.8a.74.74,0,0,1,.23-.56.76.76,0,0,1,.54-.21h1.82a.8.8,0,0,1,.59.22.76.76,0,0,1,.22.55Zm0,25.5a.68.68,0,0,1-.77.77h-1.81c-.55,0-.82-.26-.82-.77V131.32a.74.74,0,0,1,.23-.56.76.76,0,0,1,.54-.21h1.82a.81.81,0,0,1,.59.23.77.77,0,0,1,.22.54Z"/><path class="cls-2" d="M401.23,149.7a11.09,11.09,0,0,1-3.53,2.51,10.65,10.65,0,0,1-4.41.92,11.23,11.23,0,0,1-3-.41,11.72,11.72,0,0,1-2.74-1.17,12.08,12.08,0,0,1-2.33-1.82,11.74,11.74,0,0,1-1.81-2.33,11.33,11.33,0,0,1-1.17-2.75,11.32,11.32,0,0,1,1.17-8.81,12,12,0,0,1,1.81-2.33,11.61,11.61,0,0,1,2.33-1.8,11.39,11.39,0,0,1,2.73-1.16,10.82,10.82,0,0,1,3-.42,10.54,10.54,0,0,1,4.32.89,11.2,11.2,0,0,1,3.5,2.42v-2.13a.68.68,0,0,1,.77-.77h2a.68.68,0,0,1,.64.76v17.86a13.76,13.76,0,0,1-.44,3.6,10.28,10.28,0,0,1-1.24,2.83,8.79,8.79,0,0,1-1.88,2.1,9.93,9.93,0,0,1-2.39,1.42,12.89,12.89,0,0,1-2.75.82,17.41,17.41,0,0,1-3,.26,11.17,11.17,0,0,1-3.75-.6,12.71,12.71,0,0,1-3-1.48.82.82,0,0,1-.29-.22.52.52,0,0,1-.12-.36s0-.09,0-.14a.67.67,0,0,1,.08-.18l.95-1.52a2,2,0,0,1,.25-.29.41.41,0,0,1,.26-.09.66.66,0,0,1,.42.14,4,4,0,0,0,1.06.57,11.42,11.42,0,0,0,1.43.42c.51.12,1,.21,1.51.28a11.54,11.54,0,0,0,1.33.09,11.18,11.18,0,0,0,3.31-.46,8.09,8.09,0,0,0,2.59-1.31,6.1,6.1,0,0,0,1.7-2,5.6,5.6,0,0,0,.61-2.63Zm0-8.09a8,8,0,0,0-.63-3.14,8.44,8.44,0,0,0-1.71-2.61,8.34,8.34,0,0,0-2.54-1.79,7.47,7.47,0,0,0-3.1-.66,7.33,7.33,0,0,0-3.09.66,8.38,8.38,0,0,0-2.52,1.79,8.21,8.21,0,0,0-1.69,2.61,8.26,8.26,0,0,0,0,6.28,8.62,8.62,0,0,0,1.69,2.65,8.5,8.5,0,0,0,2.52,1.83,7.19,7.19,0,0,0,3.09.68,7.34,7.34,0,0,0,3.1-.68,8.46,8.46,0,0,0,2.54-1.83,8.87,8.87,0,0,0,1.71-2.65A8.08,8.08,0,0,0,401.28,141.61Z"/></svg>