<?xml version="1.0" encoding="utf-8"?>
<!-- Generator: Adobe Illustrator 25.4.1, SVG Export Plug-In . SVG Version: 6.00 Build 0)  -->
<svg version="1.1" id="Capa_1" xmlns="http://www.w3.org/2000/svg" xmlns:xlink="http://www.w3.org/1999/xlink" x="0px" y="0px"
	 viewBox="0 0 27 26" style="enable-background:new 0 0 27 26;" xml:space="preserve">
<style type="text/css">
	.st0{fill:#0CFCFE;}
</style>
<g>
	<g id="Capa_1_00000146494383692370874610000016716671258506951070_">
		<g id="eeCUnp">
			<path class="st0" d="M24,7c-0.1,0.5-0.3,1-0.5,1.5l-2,7c0,0.4-0.4,0.6-0.7,0.6c0,0,0,0,0,0H10c-0.5,0-0.8,0.2-0.8,0.6
				s0.3,0.6,0.8,0.6h10.8c0.5,0,0.8,0.2,0.8,0.6s-0.3,0.6-0.8,0.6h-0.8c1,0.2,1.7,1.1,1.6,2.2c-0.2,0.9-0.9,1.5-1.8,1.5
				c-1,0-1.8-0.8-1.8-1.7c-0.1-1,0.6-1.9,1.6-2h-8.1c0.5,0.1,0.9,0.4,1.2,0.8c0.6,0.8,0.4,2-0.4,2.6c-0.3,0.2-0.7,0.4-1.2,0.4
				c-1,0-1.8-0.8-1.8-1.8c0-0.9,0.6-1.8,1.6-1.9H9.8c-1,0-1.9-0.8-1.9-1.8c0-0.7,0.4-1.3,1-1.6L9.1,15L6.8,5H3.6
				C3.3,5,3,4.8,2.9,4.5c0-0.1,0-0.2,0.1-0.3c0.1-0.2,0.3-0.4,0.5-0.4h3.8C7.7,3.7,8,4,8,4.3c0.1,0.6,0.3,1.3,0.4,1.9h14.8
				c0.3,0,0.7,0.1,0.8,0.5L24,7z"/>
		</g>
	</g>
</g>
</svg>
