<?xml version="1.0" encoding="UTF-8"?>
<svg data-bbox="8.87 12.476 62.23 55.05" viewBox="0 0 80 80" xmlns="http://www.w3.org/2000/svg" data-type="ugc">
    <g>
        <defs>
            <linearGradient gradientUnits="userSpaceOnUse" y2="40" x2="71.13" y1="40" x1="8.87" id="3b6fd856-ecb7-4896-9355-b9437ae788ee">
                <stop stop-color="#0cfcfe" offset="0"/>
                <stop stop-color="#2196f3" offset="1"/>
            </linearGradient>
        </defs>
        <path d="M8.87 44.35c.21-1 .34-2.07.62-3.08a16.46 16.46 0 0 1 7.32-10 8 8 0 0 1 7.77-.56c1.82.8 3.63 1.61 5.4 2.5A8.18 8.18 0 0 1 34.62 40a1 1 0 0 1-.86 1.12.94.94 0 0 1-1.06-.92 6.59 6.59 0 0 0-1.85-4 5.1 5.1 0 0 0-5.6-1.22 11 11 0 0 0-5.25 4 15.7 15.7 0 0 0-2.88 6c0 .16-.07.32-.12.47a1 1 0 0 1-1.22.8 1 1 0 0 1-.67-1.25 18.47 18.47 0 0 1 2.82-6.53 14.39 14.39 0 0 1 6.5-5.13l.39-.17a6.34 6.34 0 0 0-7-.15 14.88 14.88 0 0 0-6.26 8.17 13.37 13.37 0 0 0-.47 7 6.31 6.31 0 0 0 4.42 4.84c-.24-1.22-.49-2.44-.73-3.66a3.42 3.42 0 0 1 0-.85.94.94 0 0 1 1-1 1 1 0 0 1 1 1 20.3 20.3 0 0 0 .51 3c1 3.48 4.13 4.9 7.55 3.48a1.59 1.59 0 0 1 .76-.15.86.86 0 0 1 .78.81 1 1 0 0 1-.64 1.06 7.74 7.74 0 0 1-6.42.15c-2-.89-4-1.79-5.94-2.75-2.56-1.26-3.73-3.5-4.27-6.12l-.24-1.31Zm39.59-31.86a11.16 11.16 0 0 0-2.17.21 10.41 10.41 0 0 0-7.37 14.61c1 2.22 2 4.42 3.06 6.61a.82.82 0 0 1 0 .88c-.54.9-1 1.82-1.51 2.77a.94.94 0 0 0 .49 1.36 1 1 0 0 0 1.28-.59c.06-.11.1-.23.15-.34a13.26 13.26 0 1 1 19.24 16.52 1.9 1.9 0 0 1-1 .27h-5.9c-.76 0-1.2.37-1.2 1s.45 1 1.22 1h6.38a2.3 2.3 0 0 0 1-.29 15.14 15.14 0 0 0 5-21.44 1 1 0 0 1-.07-1.1c1.06-2.23 2.12-4.46 3.11-6.72a10.41 10.41 0 0 0-9.58-14.71h-6.06c-2.02-.05-4.05-.07-6.07-.04Zm6.08 15.67A15.3 15.3 0 0 0 47.17 30c-.09-.16-.17-.29-.24-.43-.73-1.58-1.47-3.16-2.19-4.74a4.11 4.11 0 0 1 3.86-6h7.48a3.25 3.25 0 0 0 .54 0 1 1 0 0 0 .9-1 1 1 0 0 0-1-.88h-8.03a6.05 6.05 0 0 0-5.58 8.74c.82 1.83 1.68 3.63 2.52 5.46l-1.88 1.63c-.09-.16-.18-.31-.25-.46-.86-1.86-1.73-3.71-2.58-5.56A8.49 8.49 0 0 1 47.2 14.5a7.25 7.25 0 0 1 1.15-.07h12.4A8.4 8.4 0 0 1 69 21.18a7.9 7.9 0 0 1-.46 4.94c-1 2.18-2 4.33-3 6.5a.71.71 0 0 1-.12.15l-1.86-1.63c.87-1.88 1.76-3.77 2.61-5.66a6.06 6.06 0 0 0-1.69-7.3 6.88 6.88 0 0 0-5.22-1.3.84.84 0 0 0-.77.88.9.9 0 0 0 .74 1 7.26 7.26 0 0 0 1.15.06 4.13 4.13 0 0 1 3.91 6.13q-1 2.28-2.12 4.57c-.08.18-.17.35-.29.57a15.37 15.37 0 0 0-7.34-1.93Zm-1.78 21.32a8.13 8.13 0 0 0-4.9-6.48c-1.71-.73-3.39-1.54-5.07-2.34a7.26 7.26 0 0 0-4.85-.49 12.09 12.09 0 0 0-6.28 3.93.6.6 0 0 1-.9.17c-1.41-.81-2.85-1.55-4.25-2.35a2 2 0 0 0-2.29.08 4.32 4.32 0 0 0-2 3.26 2.51 2.51 0 0 0 1.52 2.82c1.29.62 2.52 1.38 3.79 2a.52.52 0 0 1 .31.75 14.67 14.67 0 0 0-.51 7c.45 2.46 1.43 4.69 3.71 5.92a59.49 59.49 0 0 0 7.21 3.32c2.58 1 5.06.25 7.26-1.24 4.9-3.31 7.12-8.1 7.51-13.91-.02-.79-.1-1.63-.26-2.44Zm-8.83 15.09c-4 2.43-8.24.14-8.79-4.24-.74-6.06 1.47-10.88 6.42-14.45a7.2 7.2 0 0 1 3.5-1.26 5.07 5.07 0 0 1 5 2.84 10.38 10.38 0 0 1 1 5.09 14.74 14.74 0 0 1-7.13 12.02Zm-10-1.63a6.15 6.15 0 0 1-3.83-3 8.39 8.39 0 0 1-1-3.85 15.24 15.24 0 0 1 5.7-12.3 7.49 7.49 0 0 1 5.2-1.88A7.87 7.87 0 0 1 43.08 43c-7.57 2.53-12.08 12.92-9.2 19.94Zm-5.2-14.4c-1.44-.79-2.89-1.5-4.25-2.36-.57-.36-.21-1 0-1.54s.45-1 1.07-1h.11l4.43 2.43ZM53 36.46a7 7 0 0 0-4.86 3.86 1 1 0 0 0 .35 1.46c.53.28 1 .06 1.39-.57a2.24 2.24 0 0 1 .13-.27 5.12 5.12 0 1 1 6.25 7.23 10.15 10.15 0 0 1-1.66.32 1 1 0 0 0-.91 1 1 1 0 0 0 1 1 3.85 3.85 0 0 0 .48 0 7.09 7.09 0 0 0-.57-14.15 13.47 13.47 0 0 0-1.6.12Z" fill="url(#3b6fd856-ecb7-4896-9355-b9437ae788ee)"/>
    </g>
</svg>
