<?xml version="1.0" encoding="UTF-8"?>
<svg data-bbox="5.9 5.5 221.2 104" viewBox="0 0 233 115" xmlns="http://www.w3.org/2000/svg" data-type="ugc">
    <g>
        <linearGradient gradientTransform="matrix(1 0 0 -1 0 116.787)" y2="84.017" x2="133.26" y1="84.017" x1="100.1" gradientUnits="userSpaceOnUse" id="b4626780-8e84-4c5a-a7bb-595bbee92031">
            <stop offset="0" stop-color="#0cfcfe"/>
            <stop offset="1" stop-color="#2196f3"/>
        </linearGradient>
        <path d="M112.4 5.5h8.6v3.3h-8.6V5.5zm14.5 5h-20.4v5h20.4v-5zm-7.1 28.8v2.3h-2.3l2.3-2.3zm-4.4-22.1h-15.3v5.5h9.8l5.5-5.5zm17.8 0h-13.9l-5.7 5.8v18.6l6.2-6.2V22.7h13.5v-5.5h-.1zM121 60h-8.6v-3.3h8.6V60zm-14.5-5h20.4v-5h-20.5l.1 5zm-6.4-6.7h33.1v-5.5H100l.1 5.5z" fill="url(#b4626780-8e84-4c5a-a7bb-595bbee92031)"/>
        <path d="m23.3 94.8 2.3-2.3v2.3h-2.3zM5.9 70.4v5.5h9.8l5.5-5.5H5.9zm103.7 24.4h6.2V70.4h-6.2v24.4zm-66.5 0h6.2V82.6h-6.2v12.2zm104-6.2c-1-.1-1.9-.5-2.5-1.3L133 73.5c-1.6-2-4.1-3.1-6.6-3.1H120v24.4h6.2V76.6c1 0 1.9.5 2.5 1.3l11.6 13.8c1.6 2 4.1 3.1 6.6 3.1h6.4V70.4h-6.2v18.2zm10.3 6.2h6.2V70.4h-6.2v24.4zm55.3 0v-2.9l-2.4 2.9h2.4zm6.3-24.4-9.3 11.1h-.2l-9.3-11.1H192l14.4 17.2v7.2h.1l10.2-12.1 10.4-12.3H219zm-45.5 6.2v-.7h20.1l-4.5-5.4v-.1h-16.9l-4.8 4.8v19.7h6.2v-7.2h4.2l5.1-5.5h-9.2v-5.5l-.2-.1zm-129-6.2H25.1l-5.7 5.7v18.6l6.2-6.2V75.9H39l5.5-5.5zm55.2 0c-3 0-7.4 1.2-9.3 3.5L76 92.1 71.8 87c2.7-1.2 4.4-3.9 4.4-6.8v-3.4c0-3.5-2.9-6.4-6.4-6.4H48.3l-5.5 5.5h27c.5 0 .9.4.9.9v4.4c0 .5-.4.9-.9.9H57.6c-.1 0-.3.1-.3.2l-1.9 2.3-2.6 3.1h11.6l11.9 13.6L95.2 78c1.1-1.2 2.7-1.7 4.2-1.3v6h-3.5l-2 2.4-2.6 3.1h8.1v6.7h6.2V70.4h-5.9z" fill="#ffffff"/>
        <linearGradient y2="105.645" x2="162.751" y1="105.645" x1="76.507" gradientUnits="userSpaceOnUse" id="492adcc2-fffd-4a97-9442-d075b9c52121">
            <stop offset="0" stop-color="#0cfcfe"/>
            <stop offset="1" stop-color="#2196f3"/>
        </linearGradient>
        <path d="M76.5 106.9c0-.1 0-.1 0 0 0-.1 0-.2.1-.2l.4-.2h.1l.1.1c0 .1.1.2.2.2.1.1.1.1.2.1s.1.1.2.1h.5c.1 0 .2-.1.3-.1.1 0 .1-.1.2-.2s.1-.3 0-.5l-.2-.2c-.1-.1-.2-.1-.3-.1l-.3-.1c-.3-.1-.6-.2-.9-.5-.2-.2-.4-.5-.3-.8 0-.3.1-.6.4-.9.1-.1.3-.2.4-.2.2-.1.4-.1.6-.1.3 0 .5.1.8.2.2.2.4.4.5.6v.2l-.3.2h-.1l-.1-.1-.3-.3c-.1-.1-.3-.1-.4-.1-.2 0-.4.1-.5.2-.1.1-.2.2-.2.4 0 .1 0 .2.1.2 0 .1.1.1.2.2.1 0 .1.1.2.1l.2.1c.4.1.8.3 1.1.5.2.2.4.5.4.8 0 .2 0 .4-.1.5-.1.2-.2.3-.3.4-.1.1-.3.2-.5.2-.2.1-.4.1-.6.1-.2 0-.3 0-.5-.1-.1 0-.3-.1-.4-.2l-.3-.3c-.5.1-.5-.1-.6-.2zm4.9-3.2v.4c.1-.2.3-.3.5-.4.2-.1.5-.2.7-.2.3 0 .6.1.8.3.2.2.4.4.5.6.1-.3.3-.5.6-.6.2-.2.5-.3.8-.2.2 0 .4 0 .7.1.2.1.3.2.5.4l.3.6c.1.2.1.4.1.7v2.3c0 .1-.1.2-.2.2h-.3c-.2 0-.2-.1-.2-.2v-2.3c0-.3-.1-.5-.2-.7-.2-.2-.4-.3-.7-.3-.1 0-.3 0-.4.1-.1.1-.2.1-.3.2-.1.1-.2.2-.2.3-.1.1-.1.3-.1.4v2.3c0 .1-.1.2-.2.2h-.4c-.1 0-.1 0-.2-.1v-2.5c0-.3-.1-.5-.2-.7-.2-.2-.4-.3-.7-.3-.3 0-.5.1-.7.3-.1.1-.2.2-.2.3-.1.1-.1.3-.1.4v2.3c0 .1-.1.2-.1.2h-.3c-.1 0-.2-.1-.2-.1v-3.8c0-.1.1-.2.1-.2h.3c-.1-.2 0-.1 0 0zm9.8 3.8v-.4c-.1.2-.3.4-.5.5-.2.1-.5.2-.8.2-.3 0-.6-.1-.8-.2-.2-.1-.5-.3-.7-.5-.2-.2-.3-.4-.4-.7-.2-.5-.2-1.1 0-1.7.2-.5.6-.9 1.1-1.2.3-.1.5-.2.8-.2.3 0 .6.1.8.2.1.1.2.1.3.2l.2.3v-.6s.1-.1.2-.1h.2c.1 0 .1 0 .2.1 0 0 .1.1.1.2v3.8c0 .1 0 .1-.1.1 0 0-.1.1-.2.1h-.3c0 .1-.1 0-.1-.1zm-2.6-1.9c0 .2 0 .4.1.6.1.2.1.3.3.5.1.1.3.2.4.3.2.1.4.1.6.1.2 0 .4 0 .5-.1.2-.1.3-.2.4-.3.1-.1.2-.3.2-.4.1-.4.1-.8 0-1.1-.1-.2-.1-.3-.2-.5-.1-.1-.2-.2-.4-.3-.2-.1-.4-.1-.6-.1-.2 0-.4 0-.6.1-.2.1-.3.2-.4.3-.1.1-.2.3-.3.5.1.1 0 .2 0 .4zm5.6-1.9v.3c.1-.1.2-.3.3-.4.2-.1.4-.2.6-.2.2 0 .4.1.5.1l.2.1.1.1v.1l-.2.4c0 .1-.1.1-.1.1h-.1l-.2-.1h-.2c-.1 0-.2 0-.3.1l-.3.3c-.1.1-.1.2-.2.4 0 .1-.1.3-.1.4v2.2c0 .1-.1.2-.1.2h-.4c-.1 0-.2-.1-.2-.2v-3.8c0-.1 0-.1.1-.1h.6zm4.2 4.1h-.5c-.3 0-.5-.2-.6-.4-.1-.2-.1-.4-.1-.5v-2.6h-.7s-.1-.1-.1-.2v-.3c0-.1 0-.1.1-.2h.7v-1.2c0-.1.1-.2.1-.2l.4-.1c.1 0 .1 0 .1.1v1.4h.6c.1 0 .2.1.2.2v.2c0 .1-.1.2-.2.2h-.6v2.6c0 .1 0 .1.1.2l.1.1h.2c.1 0 .2.1.2.2v.3c.2.1.1.2 0 .2zm4-.9c0-.1 0-.1 0 0v-.2l.4-.2h.1l.1.1c0 .1.1.2.2.2.1.1.1.1.2.1s.1.1.2.1h.5c.1 0 .2-.1.3-.1.1 0 .1-.1.2-.2s.1-.3 0-.5l-.2-.2c-.1-.1-.2-.1-.3-.1l-.3-.1c-.3-.1-.6-.2-.9-.5-.2-.2-.4-.5-.3-.8 0-.2 0-.3.1-.5.1-.1.2-.3.3-.4.1-.1.3-.2.4-.2.2-.1.4-.1.6-.1.3 0 .5.1.8.2.2.2.4.4.5.6v.2l-.3.2h-.1l-.1-.1-.3-.3c-.1-.1-.3-.1-.4-.1-.2 0-.4.1-.5.2-.1.1-.2.2-.2.4 0 .1 0 .2.1.2 0 .1.1.1.2.2.1 0 .1.1.2.1l.2.1c.4.1.8.3 1.1.5.3.2.4.5.4.8 0 .2 0 .4-.1.5-.1.1-.2.3-.3.4-.1.1-.3.2-.5.2-.2.1-.4.1-.6.1-.2 0-.3 0-.5-.1-.1 0-.3-.1-.4-.2l-.3-.3c-.4.1-.5-.1-.5-.2zm7.5-3c-.4.9-.7 1.8-1.1 2.7s-.7 1.8-1.1 2.7c0 .1-.1.1-.2.1h-.3c-.1 0-.2 0-.2-.1v-.1l.6-1.5-1.6-3.8v-.2c0-.1.1-.1.2-.1h.4c.1 0 .2.1.2.2.2.5.4 1 .6 1.6s.4 1 .6 1.5l1.2-3.1c0-.1.1-.1.2-.1h.3c.1 0 .2.1.2.2v.1c.1-.2 0-.1 0-.1zm.7 3c0-.1 0-.1 0 0 0-.1 0-.2.1-.2l.4-.2h.1l.1.1c0 .1.1.2.1.2.1.1.1.1.2.1s.1.1.2.1h.5c.1 0 .2-.1.2-.1.1 0 .1-.1.2-.2s.1-.3 0-.5l-.2-.2c-.1-.1-.2-.1-.3-.1l-.3-.1c-.3-.1-.6-.2-.9-.5-.2-.2-.3-.5-.3-.8 0-.2 0-.3.1-.5.1-.1.2-.3.3-.4.1-.1.3-.2.4-.2.2-.1.4-.1.6-.1.3 0 .5.1.8.2.2.2.4.4.5.6v.2l-.3.2h-.1l-.1-.1-.3-.3c-.1-.1-.3-.1-.4-.1-.2 0-.4.1-.5.2-.1.1-.2.2-.2.4 0 .1 0 .2.1.2 0 .1.1.1.2.2.1 0 .1.1.2.1l.2.1c.4.1.8.3 1.1.5.3.2.4.5.4.8 0 .2 0 .4-.1.5-.1.1-.2.3-.3.4-.1.1-.3.2-.5.2-.2.1-.4.1-.6.1-.2 0-.3 0-.5-.1-.1 0-.3-.1-.4-.2l-.3-.3c-.3.1-.4-.1-.4-.2zm5.6.9h-.5c-.1 0-.2-.1-.3-.1-.1-.1-.2-.2-.2-.3-.1-.2-.1-.4-.1-.5v-2.6h-.7v-.7h.7v-1.2c0-.1.1-.2.1-.2l.4-.1c.1 0 .1 0 .1.1v1.4h.6c.1 0 .2.1.2.2v.2c0 .1-.1.2-.2.2h-.6v2.6c0 .1 0 .1.1.2l.1.1h.2c.1 0 .2.1.2.2v.4c.1 0 .1.1-.1.1zm3 0c-.3 0-.5-.1-.8-.2-.2-.1-.5-.3-.6-.5-.2-.2-.3-.4-.4-.7-.2-.6-.2-1.2 0-1.7.1-.3.2-.5.4-.7.2-.2.4-.3.6-.5.2-.1.5-.2.8-.2.3 0 .5 0 .7.2.2.1.4.3.6.4.2.2.3.4.4.6.1.2.2.5.2.8v.1c0 .2-.1.3-.2.3-.1.1-.3.1-.4.1H118c0 .3.2.6.4.8.2.2.5.3.8.3.4 0 .7-.1 1-.3 0 0 .1-.1.2-.1h.1l.2.4v.1s0 .1-.1.1l-.1.1c-.2.1-.4.3-.6.3-.2.2-.4.3-.7.3zm-1.2-2.5h2.4c0-.2-.1-.3-.2-.4-.1-.1-.2-.3-.3-.4-.1-.1-.2-.2-.4-.2-.1-.1-.3-.1-.4-.1-.1 0-.3 0-.4.1-.1.1-.2.1-.3.2-.1.1-.2.2-.3.4 0 .1-.1.3-.1.4zm5-1.6v.4c.1-.2.3-.3.5-.4.2-.1.5-.2.7-.2.3 0 .6.1.8.3.2.2.4.4.5.6.1-.3.3-.5.6-.6.2-.2.5-.3.8-.2.2 0 .4 0 .7.1.2.1.3.2.5.4l.3.6c.1.2.1.4.1.7v2.3c0 .1 0 .1-.1.2 0 0-.1.1-.2.1h-.3c-.2 0-.2-.1-.2-.2v-2.3c0-.3-.1-.5-.2-.7-.2-.2-.4-.3-.7-.3-.1 0-.3 0-.4.1-.1.1-.2.1-.3.2-.1.1-.2.2-.2.3-.1.1-.1.3-.1.4v2.3c0 .1-.1.2-.2.2h-.3c-.1 0-.1 0-.2-.1v-2.5c0-.3-.1-.5-.2-.7-.2-.2-.4-.3-.7-.3-.3 0-.5.1-.7.3-.1.1-.2.2-.2.3-.1.1-.1.3-.1.4v2.3c0 .1-.1.2-.1.2h-.3c-.1 0-.2-.1-.2-.1V104c0-.1.1-.2.2-.2h.3c-.2-.3-.1-.2-.1-.1zm11.2 4.1h-.6c-.1 0-.2-.1-.3-.1-.1-.1-.2-.2-.2-.3-.1-.2-.1-.4-.1-.5v-2.6h-.7v-.7h.8v-1.2c0-.1.1-.2.1-.2l.4-.1c.1 0 .1 0 .1.1v1.4h.6c.1 0 .2.1.2.2v.2c0 .1-.1.2-.2.2h-.6v2.6c0 .1 0 .1.1.2l.1.1h.2c.1 0 .2.1.2.2v.3c.1.1 0 .2-.1.2zm2.2-4.1v.3c.1-.1.2-.3.3-.4.2-.1.4-.2.6-.2.2 0 .4.1.5.1l.2.1.1.1v.1l-.2.4c0 .1-.1.1-.1.1h-.1l-.2-.1h-.2c-.1 0-.2 0-.4.1l-.3.3c-.1.1-.1.2-.2.4 0 .1-.1.3-.1.4v2.2c0 .1-.1.2-.1.2h-.4c-.1 0-.2-.1-.2-.2v-3.8c0-.1 0-.1.1-.1h.7c-.1 0 0 0 0 0zm5.4 3.8v-.4c-.1.2-.3.4-.5.5-.2.1-.5.2-.8.2-.3 0-.6-.1-.8-.2-.2-.1-.5-.3-.6-.5-.2-.2-.3-.4-.4-.7-.2-.5-.2-1.1 0-1.7.2-.5.6-.9 1.1-1.2.3-.1.5-.2.8-.2.3 0 .6.1.8.2.1.1.2.1.3.2l.2.3v-.6l.1-.1h.2c.1 0 .1 0 .2.1 0 0 .1.1.1.2v3.8c0 .1 0 .1-.1.1 0 0-.1.1-.2.1h-.2c-.1.1-.2 0-.2-.1zm-2.6-1.9c0 .2 0 .4.1.6.1.2.1.3.3.5.1.1.3.2.4.3.2.1.4.1.6.1.2 0 .4 0 .5-.1.2-.1.3-.2.4-.3.1-.1.2-.3.2-.4.1-.4.1-.8 0-1.1-.1-.2-.1-.3-.2-.5-.1-.1-.2-.2-.4-.3-.2-.1-.4-.1-.6-.1-.2 0-.4 0-.6.1-.2.1-.3.2-.4.3-.1.1-.2.3-.3.5v.4zm4.7-3.2c0-.1 0-.3.1-.4.1-.1.2-.2.4-.2.1 0 .3.1.4.2.1.1.2.2.2.4 0 .1-.1.3-.2.4-.1.1-.2.2-.4.2-.1 0-.3-.1-.4-.2-.1-.2-.1-.3-.1-.4zm.9 1.3v3.8c0 .1-.1.2-.1.2h-.4c-.1 0-.2-.1-.2-.1v-3.8c0-.1.1-.2.1-.2h.4c.1-.1.2 0 .2.1zm2.3 0v.4c.1-.1.2-.2.3-.2.1-.1.2-.1.4-.2.1-.1.3-.1.4-.2.1 0 .3-.1.4-.1.2 0 .5 0 .7.1.2.1.4.2.5.4.1.2.3.4.3.6.1.2.1.5.1.7v2.3c0 .1 0 .1-.1.2l-.1.1h-.4c-.1 0-.1 0-.1-.1v-2.5c0-.1 0-.3-.1-.4 0-.1-.1-.2-.2-.3-.1-.1-.2-.2-.3-.2-.1-.1-.3-.1-.4-.1-.1 0-.3 0-.4.1-.1.1-.3.1-.4.2l-.3.3c-.1.1-.1.2-.1.3v2.4c0 .1-.1.2-.1.2h-.4c-.1 0-.2-.1-.2-.1v-3.9h.4c0-.2 0-.1.1 0zm4.3-1.3c0-.1.1-.3.1-.4.1-.1.2-.2.4-.2.1 0 .3 0 .4.2.1.1.2.2.1.4 0 .1-.1.3-.1.4-.1.1-.2.2-.4.2-.1 0-.3-.1-.4-.2-.1-.2-.1-.3-.1-.4zm.9 1.3v3.8c0 .1-.1.2-.1.2h-.4c-.1 0-.2-.1-.2-.2v-3.8c0-.1.1-.2.2-.2h.4s.1.1.1.2zm2.2 0v.4c.1-.1.2-.2.3-.2l.4-.2c.1-.1.3-.1.4-.2.1 0 .3-.1.4-.1.2 0 .5 0 .7.1.2.1.4.2.5.4l.3.6c.1.2.1.5.1.7v2.3c0 .1 0 .1-.1.2l-.1.1h-.4c-.1 0-.1 0-.2-.1v-2.5c0-.1 0-.3-.1-.4 0-.1-.1-.2-.2-.3-.1-.1-.2-.2-.3-.2-.1-.1-.3-.1-.4-.1-.1 0-.3 0-.4.1-.1.1-.3.1-.4.2l-.3.3c-.1.1-.1.2-.1.3v2.4c0 .1-.1.2-.1.2h-.5c-.1 0-.2-.1-.2-.2v-3.8c0-.1 0-.1.1-.1h.4c.1 0 .2 0 .2.1zm7.5 3.9v-.5l-.2.2c-.1.1-.2.2-.3.2-.1.1-.2.1-.4.2-.1 0-.2.1-.4.1-.3 0-.6-.1-.8-.2-.2-.1-.5-.3-.6-.5-.2-.2-.3-.4-.4-.7-.1-.3-.2-.6-.1-.8 0-.3 0-.6.1-.9.1-.3.2-.5.4-.7.4-.4.9-.6 1.4-.6.3 0 .5.1.8.2.2.1.4.3.5.5v-.3c0-.1 0-.1.1-.2 0 0 .1-.1.2-.1h.5c.1 0 .1.1.1.2v3.6c0 .3 0 .7-.2 1-.1.2-.2.5-.4.7-.2.2-.4.3-.7.4-.3.1-.5.1-.8.1-.2 0-.4 0-.6-.1-.2 0-.4-.1-.5-.2-.1 0-.1-.1-.1-.1l.2-.4.1-.1h.1c.1.1.2.1.4.2.1 0 .3.1.4.1.2 0 .3 0 .5-.1.2 0 .3-.1.4-.2.1-.1.2-.2.3-.4-.1-.2 0-.4 0-.6zm-2.5-2c0 .2 0 .4.1.6.1.2.2.3.3.5.1.1.3.2.4.3.1.1.3.1.5.1s.3 0 .5-.1.3-.2.4-.3c.2-.3.4-.6.4-1s-.1-.7-.4-1c-.1-.1-.3-.2-.4-.3-.2-.1-.3-.1-.5-.1s-.3 0-.5.1-.3.2-.4.3c-.1.1-.2.3-.3.5-.1.1-.2.2-.1.4z" fill="url(#492adcc2-fffd-4a97-9442-d075b9c52121)"/>
    </g>
</svg>
