<svg xmlns="http://www.w3.org/2000/svg" xmlns:xlink="http://www.w3.org/1999/xlink" viewBox="0 0 340 590"><defs><style>.cls-1{isolation:isolate;}.cls-2{fill:url(#Degradado_sin_nombre_5);}.cls-3{fill:gray;}.cls-3,.cls-4{mix-blend-mode:screen;opacity:0.6;}.cls-4{fill:#1a1a1a;}.cls-5{fill:#fff;}.cls-6{fill:url(#Degradado_sin_nombre_5-2);}.cls-7{fill:none;stroke:#ff8b1d;stroke-miterlimit:10;}.cls-8{fill:url(#Degradado_sin_nombre_5-3);}.cls-9{fill:#666;}.cls-10{fill:url(#Degradado_sin_nombre_5-4);}.cls-11{fill:url(#Degradado_sin_nombre_5-5);}</style><linearGradient id="Degradado_sin_nombre_5" x1="279.28" y1="32.29" x2="161.51" y2="150.06" gradientUnits="userSpaceOnUse"><stop offset="0" stop-color="#f3cd2d"/><stop offset="1" stop-color="#ff8b1d"/></linearGradient><linearGradient id="Degradado_sin_nombre_5-2" x1="72.22" y1="164.81" x2="112.44" y2="164.81" xlink:href="#Degradado_sin_nombre_5"/><linearGradient id="Degradado_sin_nombre_5-3" x1="29.62" y1="154.63" x2="310.38" y2="154.63" xlink:href="#Degradado_sin_nombre_5"/><linearGradient id="Degradado_sin_nombre_5-4" x1="9.62" y1="450.37" x2="330.38" y2="450.37" xlink:href="#Degradado_sin_nombre_5"/><linearGradient id="Degradado_sin_nombre_5-5" x1="104.66" y1="545.92" x2="284.02" y2="366.57" xlink:href="#Degradado_sin_nombre_5"/></defs><g class="cls-1"><g id="Capa_1" data-name="Capa 1"><path class="cls-2" d="M46.22,12.16H241.74a52,52,0,0,1,52,52V271a0,0,0,0,1,0,0H46.22a0,0,0,0,1,0,0V12.16A0,0,0,0,1,46.22,12.16Z"/><path class="cls-3" d="M193,97h28.83v11.06H193Zm48.63,16.82H173.24v16.6h68.43Zm-23.85,96.29v7.76h-7.76Zm-14.74-73.93H152v18.36h32.7Zm59.81,0H216.24l-19.15,19.16v62.42L217.82,197V154.55h45.07V136.2Zm-41,143.15H193V268.28h28.83Zm-48.63-16.82h68.43v-16.6H173.24ZM152,240.16H262.89V221.8H152Z"/><path class="cls-4" d="M193,97h28.83v11.06H193Zm48.63,16.82H173.24v16.6h68.43Zm-23.85,96.29v7.76h-7.76Zm-14.74-73.93H152v18.36h32.7Zm59.81,0H216.24l-19.15,19.16v62.42L217.82,197V154.55h45.07V136.2Zm-41,143.15H193V268.28h28.83Zm-48.63-16.82h68.43v-16.6H173.24ZM152,240.16H262.89V221.8H152Z"/><path class="cls-5" d="M60,577.84h220.1c16.81,0,30.44-11.38,30.44-25.4V273L29.51,38.46v514C29.51,566.46,43.14,577.84,60,577.84Z"/><polygon class="cls-5" points="310.49 263.6 29.51 29.07 29.51 36.27 310.49 270.8 310.49 263.6"/><path class="cls-6" d="M108.14,147.93h-2.47V144.7h-2.16v3.23H81.15V144.7H79v3.23H76.53a4.31,4.31,0,0,0-4.31,4.3v28.39a4.31,4.31,0,0,0,4.31,4.3h31.61a4.31,4.31,0,0,0,4.3-4.3V152.23A4.31,4.31,0,0,0,108.14,147.93Zm2.15,32.69a2.15,2.15,0,0,1-2.15,2.14H76.53a2.14,2.14,0,0,1-2.15-2.14V158.79h35.91Zm0-24H74.38v-4.41a2.15,2.15,0,0,1,2.15-2.15H79v3.23h2.15v-3.23h22.36v3.23h2.16v-3.23h2.47a2.16,2.16,0,0,1,2.15,2.15ZM80.51,165.4H78.35v-2.15h2.16Zm6.45,0H84.8v-2.15H87Zm6.45,0H91.25v-2.15h2.16Zm6.45,0H97.71v-2.15h2.15Zm6.45,0h-2.15v-2.15h2.15Zm-25.8,6.46H78.35V169.7h2.16Zm6.45,0H84.8V169.7H87Zm6.45,0H91.25V169.7h2.16Zm6.45,0H97.71V169.7h2.15Zm-19.35,6.45H78.35v-2.16h2.16Zm6.45,0H84.8v-2.16H87Zm6.45,0H91.25v-2.16h2.16Zm6.45,0H97.71v-2.16h2.15Zm6.45-6.45h-2.15V169.7h2.15Z"/><line class="cls-7" x1="38.78" y1="374.28" x2="301.22" y2="374.28"/><polygon class="cls-8" points="29.62 36.27 29.62 38.46 310.38 272.99 310.38 270.8 29.62 36.27"/><polygon class="cls-9" points="9.62 495.7 29.51 512.75 29.51 495.7 9.62 495.7"/><polygon class="cls-9" points="330.38 495.7 310.49 512.75 310.49 495.7 330.38 495.7"/><path class="cls-10" d="M330.38,455.3c0-11.07-10.75-20-24-20H33.64c-13.27,0-24,9-24,20v10.18H330.38Z"/><rect class="cls-11" x="9.62" y="465.48" width="320.76" height="30.22"/></g></g></svg>