<?xml version="1.0" encoding="UTF-8"?>
<svg data-bbox="7.33 5.22 155.34 109.47" viewBox="0 0 170 120" xmlns="http://www.w3.org/2000/svg" data-type="color">
    <g>
        <path d="M15.17 71.54a2.56 2.56 0 0 1-2.66 2.58h-1.67v2.42H9.13V69h3.38a2.56 2.56 0 0 1 2.66 2.54Zm-1.74 0a.94.94 0 0 0-.95-1h-1.64v2h1.64a.94.94 0 0 0 .95-1Z" fill="#ffffff" data-color="1"/>
        <path d="M16.09 72.75a3.88 3.88 0 0 1 4-3.93 3.93 3.93 0 1 1 0 7.85 3.88 3.88 0 0 1-4-3.92Zm6.28 0A2.27 2.27 0 1 0 20.1 75a2.23 2.23 0 0 0 2.27-2.25Z" fill="#ffffff" data-color="1"/>
        <path d="M31.6 74.48a2 2 0 0 1-2.15 2.06h-3.91V69h3.67a2 2 0 0 1 2 2 1.92 1.92 0 0 1-.84 1.61 2.1 2.1 0 0 1 1.23 1.87Zm-4.41-4v1.43h1.59a.71.71 0 0 0 .71-.72.69.69 0 0 0-.71-.71Zm2.66 3.7a.81.81 0 0 0-.82-.83h-1.84V75H29a.8.8 0 0 0 .85-.81Z" fill="#ffffff" data-color="1"/>
        <path d="M37.75 74.93v1.61h-4.88V69h1.71v6Z" fill="#ffffff" data-color="1"/>
        <path d="M44 75.21h-3.12l-.47 1.33h-1.83L41.43 69h2l2.86 7.59h-1.86Zm-.55-1.57-1-2.81-1 2.81Z" fill="#ffffff" data-color="1"/>
        <path d="M46.59 72.75a3.89 3.89 0 0 1 4-3.93 4 4 0 0 1 3.41 1.7l-1.47.92a2.29 2.29 0 1 0 0 2.61L54 75a4 4 0 0 1-3.35 1.7 3.89 3.89 0 0 1-4.06-3.95Z" fill="#ffffff" data-color="1"/>
        <path d="M55.26 69H57v7.59h-1.7Z" fill="#ffffff" data-color="1"/>
        <path d="M58.39 72.75a4 4 0 1 1 4 3.92 3.89 3.89 0 0 1-4-3.92Zm6.28 0A2.27 2.27 0 1 0 62.41 75a2.22 2.22 0 0 0 2.26-2.25Z" fill="#ffffff" data-color="1"/>
        <path d="M74.42 69v7.59h-1.73l-3.14-4.69v4.64h-1.71V69h1.72l3.15 4.64V69Z" fill="#ffffff" data-color="1"/>
        <path d="M81.42 74.93v1.61h-5.21V69h5.15v1.61h-3.44v1.36H81v1.61h-3.08v1.4Z" fill="#ffffff" data-color="1"/>
        <path d="m82.44 75.48.88-1.29a3.64 3.64 0 0 0 2.33 1c.68 0 1.27-.29 1.27-.74s-.73-.71-1.53-.91c-1.52-.36-2.65-1.07-2.65-2.42s1.17-2.26 2.92-2.26a3.9 3.9 0 0 1 2.69.93l-.8 1.3a2.88 2.88 0 0 0-1.9-.71c-.68 0-1.17.28-1.17.68s.7.72 1.39.87 2.8.67 2.8 2.44c0 1.4-1.31 2.34-3 2.34a5 5 0 0 1-3.23-1.23Z" fill="#ffffff" data-color="1"/>
        <path d="M19.45 93.8v3.74H7.33V79.86h12v3.74h-8v3.18h7.17v3.74h-7.2v3.28Z" fill="#ffffff" data-color="1"/>
        <path d="m21.83 95.08 2.05-3a8.5 8.5 0 0 0 5.43 2.25c1.59 0 2.95-.69 2.95-1.74 0-1.23-1.69-1.64-3.56-2.1-3.54-.85-6.18-2.51-6.18-5.64s2.74-5.27 6.82-5.27a9.12 9.12 0 0 1 6.25 2.17l-1.85 3a6.72 6.72 0 0 0-4.43-1.67c-1.59 0-2.71.67-2.71 1.59 0 1.15 1.61 1.69 3.22 2s6.51 1.57 6.51 5.69c0 3.25-3 5.46-7 5.46a11.72 11.72 0 0 1-7.5-2.74Z" fill="#ffffff" data-color="1"/>
        <path d="M53.4 85.88a6 6 0 0 1-6.2 6h-3.9v5.64h-4V79.86h7.9a6 6 0 0 1 6.2 6.02Zm-4.08 0a2.19 2.19 0 0 0-2.2-2.28H43.3v4.56h3.82a2.21 2.21 0 0 0 2.2-2.28Z" fill="#ffffff" data-color="1"/>
        <path d="M65.54 94.44h-7.17l-1.1 3.1H53l6.64-17.68h4.69L71 97.54h-4.36Zm-1.28-3.66L62 84.24l-2.3 6.54Z" fill="#ffffff" data-color="1"/>
        <path d="M71.67 88.7A9.05 9.05 0 0 1 81 79.56a9.27 9.27 0 0 1 7.81 4l-3.41 2.09a5.28 5.28 0 0 0-4.4-2.28A5.33 5.33 0 0 0 81 94a5.28 5.28 0 0 0 4.38-2.28l3.43 2.13a9.29 9.29 0 0 1-7.81 4 9.06 9.06 0 0 1-9.33-9.15Z" fill="#ffffff" data-color="1"/>
        <path d="M91.86 79.86h4v17.68h-4Z" fill="#ffffff" data-color="1"/>
        <path d="M111.07 94.44h-7.17l-1.1 3.1h-4.26l6.64-17.68h4.69l6.66 17.68h-4.36Zm-1.28-3.66-2.3-6.54-2.31 6.54Z" fill="#ffffff" data-color="1"/>
        <path d="M130.6 93.8v3.74h-11.35V79.86h4V93.8Z" fill="#ffffff" data-color="1"/>
        <path d="M145.79 93.8v3.74h-12.12V79.86h12v3.74h-8v3.18h7.18v3.74h-7.18v3.28Z" fill="#ffffff" data-color="1"/>
        <path d="m148.17 95.08 2.05-3a8.53 8.53 0 0 0 5.44 2.25c1.58 0 2.94-.69 2.94-1.74 0-1.23-1.69-1.64-3.56-2.1-3.54-.85-6.17-2.51-6.17-5.64s2.74-5.27 6.81-5.27a9.08 9.08 0 0 1 6.25 2.17l-1.84 3a6.76 6.76 0 0 0-4.43-1.67c-1.59 0-2.72.67-2.72 1.59 0 1.15 1.61 1.69 3.23 2s6.5 1.57 6.5 5.69c0 3.25-3 5.46-7 5.46a11.74 11.74 0 0 1-7.5-2.74Z" fill="#ffffff" data-color="1"/>
        <path d="m13.1 112.71.76-.77v.77Zm-5.77-8v1.81h3.24l1.8-1.82Zm34.35 7.94h2v-8.07h-2.03Zm-22 .09h2v-4h-2.03Zm34.39-2.19a1.12 1.12 0 0 1-.83-.43l-3.85-4.55a2.89 2.89 0 0 0-2.2-1H45v8.08h2v-6a1.11 1.11 0 0 1 .83.42l3.85 4.56a2.85 2.85 0 0 0 2.2 1h2.14v-8.08H54Zm3.4 2h2.06v-8.08h-2Zm18.31-.07v-1l-.81 1Zm2.07-8.09-3.07 3.69h-.08l-3.1-3.66h-2.69l4.8 5.67v2.39l3.35-4 3.41-4.1Zm-15.06 2.1v-.22h6.64l-1.51-1.79h-5.58l-1.6 1.52v6.49h2.05v-2.38h1.38l1.67-1.83h-3.05v-1.83Zm-42.69-1.87h-6.42l-1.89 1.91v6.17l2-2.06v-4.2h4.44Zm18.27-.07a4.41 4.41 0 0 0-3.07 1.18l-4.73 6-1.4-1.7a2.48 2.48 0 0 0 1.45-2.26v-1.1a2.13 2.13 0 0 0-2.14-2.11h-7.11l-1.81 1.82h8.93a.32.32 0 0 1 .31.3v1.46a.3.3 0 0 1-.3.3h-4a.17.17 0 0 0-.12 0l-.62.75-.85 1h3.83l3.95 4.5 6.18-7.69a1.4 1.4 0 0 1 1.39-.44v2h-1.15l-.67.81-.85 1h2.69v2.22h2.05v-8.08Z" fill="#000000" data-color="2"/>
        <path d="M32.33 5.22a7.12 7.12 0 0 1 2.84 1.36 5.3 5.3 0 0 1 0 7.85 5.26 5.26 0 1 1-5.27-8.88c.36-.12.73-.22 1.09-.33Zm4.6 29.1h7a2.37 2.37 0 0 0 2.43-2.74 2.32 2.32 0 0 0-2.5-1.91H36.3v-6.84a4.65 4.65 0 1 0-9.3-.13c-.05 5 0 10.05 0 15.07a4.68 4.68 0 0 0 1.89 3.85 5 5 0 0 0 3.14 1h10.88a.74.74 0 0 1 .8.48c.86 1.75 1.76 3.48 2.65 5.22 1.09 2.14 2.16 4.29 3.27 6.43a3.08 3.08 0 0 0 4.61 1.19 3.11 3.11 0 0 0 .83-4.15c-2.26-4.46-4.54-8.91-6.79-13.37a3.31 3.31 0 0 0-3.25-2h-8.7v-2.1ZM23.62 27a16.3 16.3 0 0 0 6.59 31.7c6-.6 10.29-3.78 13-9.09a.77.77 0 0 0 0-.61c-.33-.73-.79-1.41-1-2.16a1.54 1.54 0 0 0-1.93-1.14c-.32.06-.47.13-.58.44A11.66 11.66 0 1 1 23.47 32a.65.65 0 0 0 .43-.67v-4.46Z" fill="#000000" data-color="2"/>
    </g>
</svg>
